<svg width="20" height="20" viewBox="0 0 20 20" fill="none" xmlns="http://www.w3.org/2000/svg">
<path fill-rule="evenodd" clip-rule="evenodd" d="M9.99998 20C4.93723 20 0.833313 15.523 0.833313 10C0.833313 4.477 4.93723 0 9.99998 0C15.0627 0 19.1666 4.477 19.1666 10C19.1666 15.523 15.0627 20 9.99998 20ZM9.99998 19C12.9474 19 15.671 17.2846 17.1447 14.5C18.6184 11.7154 18.6184 8.28461 17.1447 5.5C15.671 2.71539 12.9474 1 9.99998 1C5.44363 1 1.74998 5.02944 1.74998 10C1.74998 14.9706 5.44363 19 9.99998 19V19ZM12.8838 7.146C13.063 6.95049 13.3536 6.95049 13.5328 7.146C13.712 7.34151 13.712 7.65849 13.5328 7.854L8.94948 12.854C8.86349 12.948 8.74674 13.0009 8.62498 13.0009C8.50322 13.0009 8.38647 12.948 8.30048 12.854L6.46715 10.854C6.28793 10.6585 6.28793 10.3415 6.46715 10.146C6.64636 9.95049 6.93693 9.95049 7.11615 10.146L8.62498 11.793L12.8838 7.146Z" fill="#26B757"/>
</svg>
