<svg width="31" height="31" viewBox="0 0 31 31" fill="none" xmlns="http://www.w3.org/2000/svg">
<path d="M22.4982 8.95905H8.18764C7.93358 8.95905 7.72571 9.16691 7.72571 9.42098C7.72571 9.67504 7.93358 9.88291 8.18764 9.88291H22.4982C22.7523 9.88291 22.9602 9.67504 22.9602 9.42098C22.9602 9.16691 22.7523 8.95905 22.4982 8.95905Z" fill="#EC294E" stroke="#EC294E" stroke-width="0.3"/>
<path d="M22.4982 6.45996H8.18764C7.93358 6.45996 7.72571 6.66783 7.72571 6.92189C7.72571 7.17595 7.93358 7.38382 8.18764 7.38382H22.4982C22.7523 7.38382 22.9602 7.17595 22.9602 6.92189C22.9602 6.66783 22.7523 6.45996 22.4982 6.45996Z" fill="#EC294E" stroke="#EC294E" stroke-width="0.3"/>
<path d="M22.9602 12.1556C22.9602 11.9015 22.7523 11.6937 22.4982 11.6937H8.18764C7.93358 11.6937 7.72571 11.9015 7.72571 12.1556C7.72571 12.4097 7.93358 12.6175 8.18764 12.6175H22.4982C22.7523 12.6175 22.9602 12.4097 22.9602 12.1556Z" fill="#EC294E" stroke="#EC294E" stroke-width="0.3"/>
<path d="M11.6983 14.4283H8.18764C7.93358 14.4283 7.72571 14.6362 7.72571 14.8903C7.72571 15.1443 7.93358 15.3522 8.18764 15.3522H11.6983C11.9524 15.3522 12.1602 15.1443 12.1602 14.8903C12.1602 14.6362 11.9524 14.4283 11.6983 14.4283Z" fill="#EC294E" stroke="#EC294E" stroke-width="0.3"/>
<path d="M11.6983 17.163H8.18764C7.93358 17.163 7.72571 17.3708 7.72571 17.6249C7.72571 17.879 7.93358 18.0868 8.18764 18.0868H11.6983C11.9524 18.0868 12.1602 17.879 12.1602 17.6249C12.1602 17.3708 11.9524 17.163 11.6983 17.163Z" fill="#EC294E" stroke="#EC294E" stroke-width="0.3"/>
<path d="M11.6983 19.8976H8.18764C7.93358 19.8976 7.72571 20.1055 7.72571 20.3595C7.72571 20.6136 7.93358 20.8214 8.18764 20.8214H11.6983C11.9524 20.8214 12.1602 20.6136 12.1602 20.3595C12.1602 20.1055 11.9524 19.8976 11.6983 19.8976Z" fill="#EC294E" stroke="#EC294E" stroke-width="0.3"/>
<path d="M11.6983 22.6322H8.18764C7.93358 22.6322 7.72571 22.8401 7.72571 23.0941C7.72571 23.3482 7.93358 23.5561 8.18764 23.5561H11.6983C11.9524 23.5561 12.1602 23.3482 12.1602 23.0941C12.1602 22.8401 11.9524 22.6322 11.6983 22.6322Z" fill="#EC294E" stroke="#EC294E" stroke-width="0.3"/>
<path d="M12.9132 29.0715H5.03727C5.30519 28.702 5.46225 28.2539 5.46225 27.7643V23.7224V3.22189C5.46225 2.50589 6.04428 1.92386 6.76027 1.92386H23.4591C23.4775 1.92386 23.5006 1.92386 23.5191 1.91924C23.5376 1.92386 23.5561 1.92386 23.5792 1.92386C24.2952 1.92386 24.8772 2.50589 24.8772 3.22189V5.45301C24.8772 5.45763 24.8772 5.45763 24.8772 5.46225V13.0795C24.8772 13.0887 24.8772 13.098 24.8772 13.1072V13.3104C24.8772 13.5645 25.0851 13.7724 25.3391 13.7724C25.5932 13.7724 25.8011 13.5645 25.8011 13.3104V3.22189C25.8011 1.99777 24.8033 1 23.5792 1C23.5607 1 23.5376 1 23.5191 1.00462C23.5006 1 23.4822 1 23.4591 1H6.68175C6.65865 1 6.64017 1 6.61707 1.00462C5.45763 1.07853 4.53839 2.04396 4.53839 3.22189V23.2604H2.01625C1.45731 23.2604 1 23.7177 1 24.2767V27.7689C1 28.9976 2.00239 30 3.23112 30H12.9132C13.1673 30 13.3751 29.7921 13.3751 29.5381C13.3751 29.284 13.1673 29.0715 12.9132 29.0715ZM1.92386 27.7643V24.2721C1.92386 24.2212 1.96543 24.1797 2.01625 24.1797H4.53839V27.7596C4.53839 28.4802 3.95174 29.0669 3.23112 29.0669C2.51051 29.0669 1.92386 28.4849 1.92386 27.7643Z" fill="#EC294E" stroke="#EC294E" stroke-width="0.3"/>
<path d="M28.6881 15.9204H27.8151V15.8973C27.8151 15.0889 27.1545 14.4283 26.3461 14.4283C25.5378 14.4283 24.8772 15.0889 24.8772 15.8973V15.9204H19.7682V15.8973C19.7682 15.0889 19.1077 14.4283 18.2993 14.4283C17.4909 14.4283 16.8304 15.0889 16.8304 15.8973V15.9204H15.9573C14.8533 15.9204 13.9572 16.8165 13.9572 17.9205V27.9906C13.9572 29.0946 14.8533 29.9908 15.9573 29.9908H28.6835C29.7875 29.9908 30.6837 29.0946 30.6837 27.9906V17.9205C30.6883 16.8211 29.7921 15.9204 28.6881 15.9204ZM25.8011 15.8973C25.8011 15.597 26.0459 15.3522 26.3461 15.3522C26.6464 15.3522 26.8912 15.597 26.8912 15.8973V16.5394C26.8912 16.8396 26.6464 17.0844 26.3461 17.0844C26.0459 17.0844 25.8011 16.8396 25.8011 16.5394V15.8973ZM17.7542 15.8973C17.7542 15.597 17.999 15.3522 18.2993 15.3522C18.5996 15.3522 18.8444 15.597 18.8444 15.8973V16.5394C18.8444 16.8396 18.5996 17.0844 18.2993 17.0844C17.999 17.0844 17.7542 16.8396 17.7542 16.5394V15.8973ZM15.9573 16.8442H16.8627C17.0059 17.5094 17.5925 18.0083 18.2993 18.0083C19.0061 18.0083 19.5927 17.5094 19.7359 16.8442H24.9095C25.0527 17.5094 25.6394 18.0083 26.3461 18.0083C27.0529 18.0083 27.6395 17.5094 27.7827 16.8442H28.6881C29.284 16.8442 29.7644 17.3293 29.7644 17.9205V18.5672H14.881V17.9205C14.881 17.3293 15.3614 16.8442 15.9573 16.8442ZM28.6881 29.0715H15.9573C15.3614 29.0715 14.881 28.5865 14.881 27.9952V19.4957H29.7644V27.9952C29.7644 28.5865 29.2794 29.0715 28.6881 29.0715Z" fill="#EC294E" stroke="#EC294E" stroke-width="0.3"/>
<path d="M18.7012 20.6136H17.1768C16.7149 20.6136 16.3407 20.9878 16.3407 21.4497V22.9741C16.3407 23.436 16.7149 23.8101 17.1768 23.8101H18.7012C19.1631 23.8101 19.5373 23.436 19.5373 22.9741V21.4497C19.5373 20.9924 19.1631 20.6136 18.7012 20.6136ZM18.6134 22.8863H17.2646V21.5374H18.6134V22.8863Z" fill="#EC294E" stroke="#EC294E" stroke-width="0.3"/>
<path d="M23.0848 20.6136H21.5605C21.0985 20.6136 20.7244 20.9878 20.7244 21.4497V22.9741C20.7244 23.436 21.0985 23.8101 21.5605 23.8101H23.0848C23.5468 23.8101 23.9209 23.436 23.9209 22.9741V21.4497C23.9209 20.9924 23.5468 20.6136 23.0848 20.6136ZM22.9971 22.8863H21.6482V21.5374H22.9971V22.8863Z" fill="#EC294E" stroke="#EC294E" stroke-width="0.3"/>
<path d="M27.4686 20.6136H25.9442C25.4823 20.6136 25.1082 20.9878 25.1082 21.4497V22.9741C25.1082 23.436 25.4823 23.8101 25.9442 23.8101H27.4686C27.9305 23.8101 28.3047 23.436 28.3047 22.9741V21.4497C28.3047 20.9924 27.9305 20.6136 27.4686 20.6136ZM27.3809 22.8863H26.032V21.5374H27.3809V22.8863Z" fill="#EC294E" stroke="#EC294E" stroke-width="0.3"/>
<path d="M18.7012 24.8541H17.1768C16.7149 24.8541 16.3407 25.2282 16.3407 25.6902V27.2145C16.3407 27.6765 16.7149 28.0506 17.1768 28.0506H18.7012C19.1631 28.0506 19.5373 27.6765 19.5373 27.2145V25.6902C19.5373 25.2282 19.1631 24.8541 18.7012 24.8541ZM18.6134 27.1268H17.2646V25.7779H18.6134V27.1268Z" fill="#EC294E" stroke="#EC294E" stroke-width="0.3"/>
<path d="M23.0848 24.8541H21.5605C21.0985 24.8541 20.7244 25.2282 20.7244 25.6902V27.2145C20.7244 27.6765 21.0985 28.0506 21.5605 28.0506H23.0848C23.5468 28.0506 23.9209 27.6765 23.9209 27.2145V25.6902C23.9209 25.2282 23.5468 24.8541 23.0848 24.8541ZM22.9971 27.1268H21.6482V25.7779H22.9971V27.1268Z" fill="#EC294E" stroke="#EC294E" stroke-width="0.3"/>
<path d="M27.4686 24.8541H25.9442C25.4823 24.8541 25.1082 25.2282 25.1082 25.6902V27.2145C25.1082 27.6765 25.4823 28.0506 25.9442 28.0506H27.4686C27.9305 28.0506 28.3047 27.6765 28.3047 27.2145V25.6902C28.3047 25.2282 27.9305 24.8541 27.4686 24.8541ZM27.3809 27.1268H26.032V25.7779H27.3809V27.1268Z" fill="#EC294E" stroke="#EC294E" stroke-width="0.3"/>
</svg>
