<svg width="34" height="34" viewBox="0 0 34 34" fill="none" xmlns="http://www.w3.org/2000/svg">
<path fill-rule="evenodd" clip-rule="evenodd" d="M4.25 7.79167C4.25 5.83566 5.83566 4.25 7.79167 4.25H12.0417C13.9977 4.25 15.5833 5.83566 15.5833 7.79167V12.0417C15.5833 13.9977 13.9977 15.5833 12.0417 15.5833H7.79167C5.83566 15.5833 4.25 13.9977 4.25 12.0417V7.79167ZM5.66667 7.79167V12.0417C5.66667 13.2153 6.61806 14.1667 7.79167 14.1667H12.0417C13.2153 14.1667 14.1667 13.2153 14.1667 12.0417V7.79167C14.1667 6.61806 13.2153 5.66667 12.0417 5.66667H7.79167C6.61806 5.66667 5.66667 6.61806 5.66667 7.79167ZM18.4167 7.79167C18.4167 5.83566 20.0023 4.25 21.9583 4.25H26.2083C28.1643 4.25 29.75 5.83566 29.75 7.79167V12.0417C29.75 13.9977 28.1643 15.5833 26.2083 15.5833H21.9583C20.0023 15.5833 18.4167 13.9977 18.4167 12.0417V7.79167ZM19.8333 7.79167V12.0417C19.8333 13.2153 20.7847 14.1667 21.9583 14.1667H26.2083C27.3819 14.1667 28.3333 13.2153 28.3333 12.0417V7.79167C28.3333 6.61806 27.3819 5.66667 26.2083 5.66667H21.9583C20.7847 5.66667 19.8333 6.61806 19.8333 7.79167V7.79167ZM4.25 21.9583C4.25 20.0023 5.83566 18.4167 7.79167 18.4167H12.0417C13.9977 18.4167 15.5833 20.0023 15.5833 21.9583V26.2083C15.5833 28.1643 13.9977 29.75 12.0417 29.75H7.79167C5.83566 29.75 4.25 28.1643 4.25 26.2083V21.9583ZM5.66667 21.9583V26.2083C5.66667 27.3819 6.61806 28.3333 7.79167 28.3333H12.0417C13.2153 28.3333 14.1667 27.3819 14.1667 26.2083V21.9583C14.1667 20.7847 13.2153 19.8333 12.0417 19.8333H7.79167C6.61806 19.8333 5.66667 20.7847 5.66667 21.9583V21.9583ZM18.4167 21.9583C18.4167 20.0023 20.0023 18.4167 21.9583 18.4167H26.2083C28.1643 18.4167 29.75 20.0023 29.75 21.9583V26.2083C29.75 28.1643 28.1643 29.75 26.2083 29.75H21.9583C20.0023 29.75 18.4167 28.1643 18.4167 26.2083V21.9583ZM19.8333 21.9583V26.2083C19.8333 27.3819 20.7847 28.3333 21.9583 28.3333H26.2083C27.3819 28.3333 28.3333 27.3819 28.3333 26.2083V21.9583C28.3333 20.7847 27.3819 19.8333 26.2083 19.8333H21.9583C20.7847 19.8333 19.8333 20.7847 19.8333 21.9583V21.9583Z" fill="#EC294E"/>
</svg>
