<svg width="14" height="15" viewBox="0 0 14 15" fill="none" xmlns="http://www.w3.org/2000/svg">
<path fill-rule="evenodd" clip-rule="evenodd" d="M12.146 6.14702C12.2714 6.01687 12.4572 5.96449 12.6321 6.01001C12.8069 6.05552 12.9436 6.19184 12.9896 6.36658C13.0356 6.54133 12.9838 6.72729 12.854 6.85302L6.91 12.816C5.88929 13.8392 4.40025 14.2402 3.00377 13.8678C1.60729 13.4955 0.515538 12.4064 0.139768 11.0108C-0.236003 9.61525 0.161294 8.12523 1.182 7.10202L7.44 0.877018C8.60537 -0.281086 10.4879 -0.278403 11.65 0.883018C12.8113 2.04475 12.8118 3.92774 11.651 5.09002L5.295 11.45C4.93397 11.8112 4.4442 12.0142 3.9335 12.0142C3.4228 12.0142 2.93304 11.8112 2.572 11.45C1.81986 10.6982 1.81762 9.4796 2.567 8.72502L7.129 4.13202C7.25401 4.00162 7.43964 3.94879 7.61458 3.99382C7.78951 4.03885 7.92656 4.17474 7.97308 4.34929C8.01959 4.52384 7.96834 4.70991 7.839 4.83602L3.277 9.43002C2.91518 9.79362 2.91607 10.3815 3.279 10.744C3.45251 10.9178 3.68797 11.0154 3.9335 11.0154C4.17904 11.0154 4.4145 10.9178 4.588 10.744L10.944 4.38402C11.7147 3.61251 11.7147 2.36252 10.944 1.59102C10.1714 0.817872 8.91878 0.816082 8.144 1.58702L1.894 7.80302C1.12445 8.57239 0.823813 9.69387 1.10533 10.745C1.38685 11.7961 2.20776 12.6172 3.25883 12.899C4.3099 13.1808 5.43145 12.8804 6.201 12.111L12.146 6.14802V6.14702Z" fill="#C1213F"/>
</svg>
