<svg width="27" height="24" viewBox="0 0 27 24" fill="none" xmlns="http://www.w3.org/2000/svg">
<path fill-rule="evenodd" clip-rule="evenodd" d="M5.75004 2.08332V2.79166C5.75004 3.73096 5.40983 4.6318 4.80424 5.29599C4.19865 5.96018 3.3773 6.33332 2.52087 6.33332H1.87504V12H2.57383C3.43026 12 4.25161 12.3731 4.8572 13.0373C5.46278 13.7015 5.803 14.6023 5.803 15.5417V16.25H21.25V15.5417C21.25 13.5856 22.6958 12 24.4792 12H25.125V6.33332H24.4792C22.6958 6.33332 21.25 4.74766 21.25 2.79166V2.08332H5.75004ZM4.45837 2.08332H3.81254C2.74249 2.08332 1.87504 3.03472 1.87504 4.20832V4.91666H2.52087C3.59093 4.91666 4.45837 3.96526 4.45837 2.79166V2.08332ZM4.51133 16.25V15.5417C4.51133 14.3681 3.64388 13.4167 2.57383 13.4167H1.87504V14.125C1.87504 15.2986 2.74249 16.25 3.81254 16.25H4.51133ZM5.39483 17.6667C5.24256 17.7327 5.07307 17.7327 4.92079 17.6667H3.81254C2.02912 17.6667 0.583374 16.081 0.583374 14.125V4.20832C0.583374 2.25231 2.02912 0.666656 3.81254 0.666656H23.1875C24.971 0.666656 26.4167 2.25231 26.4167 4.20832V14.125C26.4167 16.081 24.971 17.6667 23.1875 17.6667H5.39483ZM22.5417 16.25H23.1875C24.2576 16.25 25.125 15.2986 25.125 14.125V13.4167H24.4792C23.4092 13.4167 22.5417 14.3681 22.5417 15.5417V16.25ZM22.5417 2.08332V2.79166C22.5417 3.96526 23.4092 4.91666 24.4792 4.91666H25.125V4.20832C25.125 3.03472 24.2576 2.08332 23.1875 2.08332H22.5417ZM13.5 14.8333C10.6466 14.8333 8.33337 12.2963 8.33337 9.16666C8.33337 6.03704 10.6466 3.49999 13.5 3.49999C16.3535 3.49999 18.6667 6.03704 18.6667 9.16666C18.6667 12.2963 16.3535 14.8333 13.5 14.8333ZM13.5 13.4167C15.6401 13.4167 17.375 11.5139 17.375 9.16666C17.375 6.81945 15.6401 4.91666 13.5 4.91666C11.3599 4.91666 9.62504 6.81945 9.62504 9.16666C9.62504 11.5139 11.3599 13.4167 13.5 13.4167ZM1.22921 20.5C0.872523 20.5 0.583374 20.1829 0.583374 19.7917C0.583374 19.4005 0.872523 19.0833 1.22921 19.0833H25.7709C26.1276 19.0833 26.4167 19.4005 26.4167 19.7917C26.4167 20.1829 26.1276 20.5 25.7709 20.5H1.22921ZM1.22921 23.3333C0.872523 23.3333 0.583374 23.0162 0.583374 22.625C0.583374 22.2338 0.872523 21.9167 1.22921 21.9167H25.7709C26.1276 21.9167 26.4167 22.2338 26.4167 22.625C26.4167 23.0162 26.1276 23.3333 25.7709 23.3333H1.22921Z" fill="#EC294E"/>
</svg>
