<svg width="27" height="24" viewBox="0 0 27 24" fill="none" xmlns="http://www.w3.org/2000/svg">
<path fill-rule="evenodd" clip-rule="evenodd" d="M5.75004 2.08332V2.79166C5.75004 3.73096 5.40983 4.6318 4.80424 5.29599C4.19865 5.96018 3.3773 6.33332 2.52087 6.33332H1.87504V12H2.57383C3.43026 12 4.25161 12.3731 4.8572 13.0373C5.46278 13.7015 5.803 14.6023 5.803 15.5417V16.25H21.25V15.5417C21.25 13.5856 22.6958 12 24.4792 12H25.125V6.33332H24.4792C22.6958 6.33332 21.25 4.74766 21.25 2.79166V2.08332H5.75004ZM4.45837 2.08332H3.81254C2.74249 2.08332 1.87504 3.03472 1.87504 4.20832V4.91666H2.52087C3.59093 4.91666 4.45837 3.96526 4.45837 2.79166V2.08332ZM4.51133 16.25V15.5417C4.51133 14.3681 3.64388 13.4167 2.57383 13.4167H1.87504V14.125C1.87504 15.2986 2.74249 16.25 3.81254 16.25H4.51133ZM5.39483 17.6667C5.24256 17.7327 5.07307 17.7327 4.92079 17.6667H3.81254C2.02912 17.6667 0.583374 16.081 0.583374 14.125V4.20832C0.583374 2.25231 2.02912 0.666656 3.81254 0.666656H23.1875C24.971 0.666656 26.4167 2.25231 26.4167 4.20832V14.125C26.4167 16.081 24.971 17.6667 23.1875 17.6667H5.39483ZM22.5417 16.25H23.1875C24.2576 16.25 25.125 15.2986 25.125 14.125V13.4167H24.4792C23.4092 13.4167 22.5417 14.3681 22.5417 15.5417V16.25ZM22.5417 2.08332V2.79166C22.5417 3.96526 23.4092 4.91666 24.4792 4.91666H25.125V4.20832C25.125 3.03472 24.2576 2.08332 23.1875 2.08332H22.5417ZM13.5 14.8333C10.6466 14.8333 8.33337 12.2963 8.33337 9.16666C8.33337 6.03704 10.6466 3.49999 13.5 3.49999C16.3535 3.49999 18.6667 6.03704 18.6667 9.16666C18.6667 12.2963 16.3535 14.8333 13.5 14.8333ZM13.5 13.4167C15.6401 13.4167 17.375 11.5139 17.375 9.16666C17.375 6.81945 15.6401 4.91666 13.5 4.91666C11.3599 4.91666 9.62504 6.81945 9.62504 9.16666C9.62504 11.5139 11.3599 13.4167 13.5 13.4167ZM1.22921 20.5C0.872523 20.5 0.583374 20.1829 0.583374 19.7917C0.583374 19.4005 0.872523 19.0833 1.22921 19.0833H25.7709C26.1276 19.0833 26.4167 19.4005 26.4167 19.7917C26.4167 20.1829 26.1276 20.5 25.7709 20.5H1.22921ZM1.22921 23.3333C0.872523 23.3333 0.583374 23.0162 0.583374 22.625C0.583374 22.2338 0.872523 21.9167 1.22921 21.9167H25.7709C26.1276 21.9167 26.4167 22.2338 26.4167 22.625C26.4167 23.0162 26.1276 23.3333 25.7709 23.3333H1.22921Z" fill="#EC294E"/>
<path d="M5.75004 2.08332V1.83332H5.50004V2.08332H5.75004ZM5.75004 2.79166L5.50004 2.79166L5.75004 2.79166ZM1.87504 6.33332V6.08332H1.62504V6.33332H1.87504ZM1.87504 12H1.62504V12.25H1.87504V12ZM2.57383 12V11.75V12ZM5.803 16.25H5.553V16.5H5.803V16.25ZM21.25 16.25V16.5H21.5V16.25H21.25ZM21.25 15.5417H21H21.25ZM25.125 12V12.25H25.375V12H25.125ZM25.125 6.33332H25.375V6.08332H25.125V6.33332ZM21.25 2.08332H21.5V1.83332H21.25V2.08332ZM4.45837 2.08332H4.70837V1.83332H4.45837V2.08332ZM1.87504 4.91666H1.62504V5.16666H1.87504V4.91666ZM2.52087 4.91666V5.16666V4.91666ZM4.45837 2.79166H4.70837H4.45837ZM4.51133 16.25V16.5H4.76133V16.25H4.51133ZM1.87504 13.4167V13.1667H1.62504V13.4167H1.87504ZM5.39483 17.6667V17.4167H5.34295L5.29536 17.4373L5.39483 17.6667ZM4.92079 17.6667L5.02027 17.4373L4.97267 17.4167H4.92079V17.6667ZM3.81254 17.6667L3.81254 17.4167L3.81254 17.6667ZM0.583374 14.125H0.333374H0.583374ZM22.5417 16.25H22.2917V16.5H22.5417V16.25ZM25.125 13.4167H25.375V13.1667H25.125V13.4167ZM22.5417 2.08332V1.83332H22.2917V2.08332H22.5417ZM25.125 4.91666V5.16666H25.375V4.91666H25.125ZM13.5 13.4167L13.5 13.6667H13.5V13.4167ZM13.5 4.91666L13.5 4.66666H13.5L13.5 4.91666ZM5.50004 2.08332V2.79166H6.00004V2.08332H5.50004ZM5.50004 2.79166C5.50004 3.67173 5.18107 4.51164 4.6195 5.12755L4.98898 5.46443C5.63858 4.75196 6.00004 3.7902 6.00004 2.79166L5.50004 2.79166ZM4.6195 5.12755C4.05864 5.7427 3.30315 6.08332 2.52087 6.08332V6.58332C3.45145 6.58332 4.33867 6.17767 4.98898 5.46443L4.6195 5.12755ZM2.52087 6.08332H1.87504V6.58332H2.52087V6.08332ZM1.62504 6.33332V12H2.12504V6.33332H1.62504ZM1.87504 12.25H2.57383V11.75H1.87504V12.25ZM2.57383 12.25C3.35611 12.25 4.11159 12.5906 4.67246 13.2058L5.04194 12.8689C4.39163 12.1556 3.50441 11.75 2.57383 11.75L2.57383 12.25ZM4.67246 13.2058C5.23403 13.8217 5.553 14.6616 5.553 15.5417H6.053C6.053 14.5431 5.69154 13.5814 5.04194 12.8689L4.67246 13.2058ZM5.553 15.5417V16.25H6.053V15.5417H5.553ZM5.803 16.5H21.25V16H5.803V16.5ZM21.5 16.25V15.5417H21V16.25H21.5ZM21.5 15.5417C21.5 13.7015 22.8551 12.25 24.4792 12.25V11.75C22.5365 11.75 21 13.4698 21 15.5417H21.5ZM24.4792 12.25H25.125V11.75H24.4792V12.25ZM25.375 12V6.33332H24.875V12H25.375ZM25.125 6.08332H24.4792V6.58332H25.125V6.08332ZM24.4792 6.08332C22.8551 6.08332 21.5 4.63183 21.5 2.79166H21C21 4.8635 22.5365 6.58332 24.4792 6.58332V6.08332ZM21.5 2.79166V2.08332H21V2.79166H21.5ZM21.25 1.83332H5.75004V2.33332H21.25V1.83332ZM4.45837 1.83332H3.81254V2.33332H4.45837V1.83332ZM3.81254 1.83332C2.58319 1.83332 1.62504 2.91888 1.62504 4.20832H2.12504C2.12504 3.15055 2.90179 2.33332 3.81254 2.33332V1.83332ZM1.62504 4.20832V4.91666H2.12504V4.20832H1.62504ZM1.87504 5.16666H2.52087V4.66666H1.87504V5.16666ZM2.52087 5.16666C3.75023 5.16666 4.70837 4.0811 4.70837 2.79166L4.20837 2.79166C4.20837 3.84943 3.43162 4.66666 2.52087 4.66666V5.16666ZM4.70837 2.79166V2.08332H4.20837V2.79166H4.70837ZM4.76133 16.25V15.5417H4.26133V16.25H4.76133ZM4.76133 15.5417C4.76133 14.2522 3.80319 13.1667 2.57383 13.1667V13.6667C3.48458 13.6667 4.26133 14.4839 4.26133 15.5417H4.76133ZM2.57383 13.1667H1.87504V13.6667H2.57383V13.1667ZM1.62504 13.4167V14.125H2.12504V13.4167H1.62504ZM1.62504 14.125C1.62504 15.4144 2.58319 16.5 3.81254 16.5V16C2.90179 16 2.12504 15.1828 2.12504 14.125H1.62504ZM3.81254 16.5H4.51133V16H3.81254V16.5ZM5.29536 17.4373C5.20654 17.4758 5.10908 17.4758 5.02027 17.4373L4.82132 17.896C5.03705 17.9896 5.27857 17.9896 5.49431 17.896L5.29536 17.4373ZM4.92079 17.4167H3.81254V17.9167H4.92079V17.4167ZM3.81254 17.4167C2.18843 17.4167 0.833374 15.9652 0.833374 14.125H0.333374C0.333374 16.1968 1.86982 17.9167 3.81254 17.9167L3.81254 17.4167ZM0.833374 14.125V4.20832H0.333374V14.125H0.833374ZM0.833374 4.20832C0.833374 2.36815 2.18843 0.916656 3.81254 0.916656V0.416656C1.86982 0.416656 0.333374 2.13648 0.333374 4.20832H0.833374ZM3.81254 0.916656H23.1875V0.416656H3.81254V0.916656ZM23.1875 0.916656C24.8117 0.916656 26.1667 2.36815 26.1667 4.20832H26.6667C26.6667 2.13648 25.1303 0.416656 23.1875 0.416656V0.916656ZM26.1667 4.20832V14.125H26.6667V4.20832H26.1667ZM26.1667 14.125C26.1667 15.9652 24.8117 17.4167 23.1875 17.4167V17.9167C25.1303 17.9167 26.6667 16.1968 26.6667 14.125H26.1667ZM23.1875 17.4167H5.39483V17.9167H23.1875V17.4167ZM22.5417 16.5H23.1875V16H22.5417V16.5ZM23.1875 16.5C24.4169 16.5 25.375 15.4144 25.375 14.125H24.875C24.875 15.1828 24.0983 16 23.1875 16V16.5ZM25.375 14.125V13.4167H24.875V14.125H25.375ZM25.125 13.1667H24.4792V13.6667H25.125V13.1667ZM24.4792 13.1667C23.2499 13.1667 22.2917 14.2522 22.2917 15.5417H22.7917C22.7917 14.4839 23.5685 13.6667 24.4792 13.6667V13.1667ZM22.2917 15.5417V16.25H22.7917V15.5417H22.2917ZM22.2917 2.08332V2.79166H22.7917V2.08332H22.2917ZM22.2917 2.79166C22.2917 4.0811 23.2499 5.16666 24.4792 5.16666V4.66666C23.5685 4.66666 22.7917 3.84943 22.7917 2.79166H22.2917ZM24.4792 5.16666H25.125V4.66666H24.4792V5.16666ZM25.375 4.91666V4.20832H24.875V4.91666H25.375ZM25.375 4.20832C25.375 2.91888 24.4169 1.83332 23.1875 1.83332V2.33332C24.0983 2.33332 24.875 3.15055 24.875 4.20832H25.375ZM23.1875 1.83332H22.5417V2.33332H23.1875V1.83332ZM13.5 14.5833C10.8059 14.5833 8.58337 12.1804 8.58337 9.16666H8.08337C8.08337 12.4121 10.4873 15.0833 13.5 15.0833V14.5833ZM8.58337 9.16666C8.58337 6.15288 10.8059 3.74999 13.5 3.74999V3.24999C10.4873 3.24999 8.08337 5.92121 8.08337 9.16666H8.58337ZM13.5 3.74999C16.1942 3.74999 18.4167 6.15288 18.4167 9.16666H18.9167C18.9167 5.92121 16.5128 3.24999 13.5 3.24999V3.74999ZM18.4167 9.16666C18.4167 12.1804 16.1942 14.5833 13.5 14.5833V15.0833C16.5128 15.0833 18.9167 12.4121 18.9167 9.16666H18.4167ZM13.5 13.6667C15.7994 13.6667 17.625 11.6297 17.625 9.16666H17.125C17.125 11.398 15.4808 13.1667 13.5 13.1667V13.6667ZM17.625 9.16666C17.625 6.70361 15.7994 4.66666 13.5 4.66666V5.16666C15.4808 5.16666 17.125 6.93528 17.125 9.16666H17.625ZM13.5 4.66666C11.2006 4.66666 9.37504 6.70361 9.37504 9.16666H9.87504C9.87504 6.93528 11.5192 5.16666 13.5 5.16666L13.5 4.66666ZM9.37504 9.16666C9.37504 11.6297 11.2006 13.6667 13.5 13.6667L13.5 13.1667C11.5192 13.1667 9.87504 11.398 9.87504 9.16666H9.37504ZM1.22921 20.25C1.03183 20.25 0.833374 20.067 0.833374 19.7917H0.333374C0.333374 20.2987 0.71322 20.75 1.22921 20.75V20.25ZM0.833374 19.7917C0.833374 19.5163 1.03183 19.3333 1.22921 19.3333V18.8333C0.71322 18.8333 0.333374 19.2846 0.333374 19.7917H0.833374ZM1.22921 19.3333H25.7709V18.8333H1.22921V19.3333ZM25.7709 19.3333C25.9683 19.3333 26.1667 19.5163 26.1667 19.7917H26.6667C26.6667 19.2846 26.2869 18.8333 25.7709 18.8333V19.3333ZM26.1667 19.7917C26.1667 20.067 25.9683 20.25 25.7709 20.25V20.75C26.2869 20.75 26.6667 20.2987 26.6667 19.7917H26.1667ZM25.7709 20.25H1.22921V20.75H25.7709V20.25ZM1.22921 23.0833C1.03183 23.0833 0.833374 22.9004 0.833374 22.625H0.333374C0.333374 23.132 0.713219 23.5833 1.22921 23.5833V23.0833ZM0.833374 22.625C0.833374 22.3496 1.03183 22.1667 1.22921 22.1667V21.6667C0.713219 21.6667 0.333374 22.118 0.333374 22.625H0.833374ZM1.22921 22.1667H25.7709V21.6667H1.22921V22.1667ZM25.7709 22.1667C25.9683 22.1667 26.1667 22.3496 26.1667 22.625H26.6667C26.6667 22.118 26.2869 21.6667 25.7709 21.6667V22.1667ZM26.1667 22.625C26.1667 22.9004 25.9683 23.0833 25.7709 23.0833V23.5833C26.2869 23.5833 26.6667 23.132 26.6667 22.625H26.1667ZM25.7709 23.0833H1.22921V23.5833H25.7709V23.0833Z" fill="#EC294E"/>
</svg>
