<svg width="66" height="97" viewBox="0 0 66 97" fill="none" xmlns="http://www.w3.org/2000/svg">
<path d="M14.3107 8.11002C14.5147 8.73701 14.8684 9.37763 15.3854 10.0183C19.5888 15.1569 21.9286 18.0192 21.9286 18.0192C21.9286 18.0192 24.3908 20.3091 22.84 22.7762L25.7783 19.4913C25.7783 19.4913 27.6692 17.1469 25.3294 14.2982C25.1117 14.0256 24.8669 13.7393 24.622 13.4258C22.187 10.4408 18.4189 5.83376 18.4189 5.83376C18.4189 5.83376 17.317 4.49799 17.3714 2.68517C17.3986 1.85372 17.6435 0.940489 18.3509 0C18.3509 0 13.9842 2.98503 14.0658 6.73336C14.0794 7.18316 14.161 7.63296 14.3107 8.11002Z" fill="#EB2C4F"/>
<path d="M24.554 70.0325C25.5879 68.1242 26.2953 65.9707 26.0776 63.8171C25.8191 61.1455 24.2003 58.8148 22.3911 56.8384C20.5818 54.862 18.5277 53.09 17.045 50.8683C16.46 49.9823 15.9567 49.0146 15.8071 47.9514C15.6846 47.0518 15.8479 46.0841 16.3648 45.348L16.3784 45.3617C16.46 45.239 16.5417 45.1027 16.6505 44.9937C15.6166 45.8933 14.5556 46.7929 13.7666 47.9242C12.9776 49.0418 12.4607 50.4185 12.6239 51.7815C12.7463 52.7493 13.1952 53.6489 13.7122 54.4803C14.3923 55.5571 15.3718 56.4703 16.2288 57.4108C17.045 58.2968 17.8612 59.1828 18.7046 60.0551C19.4936 60.8729 20.1601 61.8679 20.8403 62.7812C21.0716 63.0947 21.2756 63.4218 21.4525 63.7625C22.9216 66.6522 21.9286 70.455 20.0377 72.8948C17.8476 75.7163 14.3515 77.4882 10.8011 77.6927C6.74725 77.9244 2.61184 76.1388 0 73.0311C6.17592 82.1362 19.8201 78.715 24.554 70.0325Z" fill="#EB2C4F"/>
<path d="M64.6566 36.1883C64.643 36.1338 64.6294 36.0929 64.6022 36.0384C64.5478 35.8748 64.4798 35.6976 64.4118 35.534C64.3846 35.4795 64.371 35.425 64.3438 35.3705C64.2485 35.166 64.1533 34.9479 64.0445 34.7435C62.3033 31.3904 57.6509 30.0001 54.5221 32.2491C53.4747 32.9988 52.6721 33.9393 51.8559 34.907C51.1349 35.7521 50.3459 36.6517 49.761 37.5922C48.4006 39.7867 48.387 42.281 50.0603 44.3256C51.0941 45.5932 52.0191 46.7245 52.8217 47.7059C53.2298 48.2102 53.6243 48.6873 53.978 49.1098C55.7464 51.277 56.6987 52.4356 56.6987 52.4356C56.6987 52.4356 59.2017 54.7664 57.6237 57.2607L60.6028 53.6623C60.6028 53.6623 60.6709 53.5669 60.7661 53.417C61.1742 52.9126 61.4734 52.3674 61.6639 51.904C63.65 47.0789 66.4523 41.4359 64.6566 36.1883ZM60.0859 48.6191C59.5418 47.9512 58.8888 47.1607 58.195 46.3156C55.8825 43.4805 53.1754 40.182 53.121 40.1002C52.8217 39.7322 52.5633 39.3641 52.3728 38.928C52.332 38.8189 52.2912 38.7099 52.2504 38.5872C52.1416 38.2465 52.0735 37.8784 52.0599 37.5241C52.0327 37.0606 52.2776 36.5836 52.5905 36.2019C52.7809 35.9702 52.9986 35.7521 53.2026 35.6022C53.8284 35.1251 54.5902 34.8525 55.3792 34.8525C58.0998 34.8253 59.9363 37.5377 60.4396 39.9366C60.494 40.182 60.5348 40.4137 60.562 40.659C60.5756 40.7408 60.5756 40.8226 60.5892 40.8907C60.6028 41.0543 60.63 41.2315 60.6436 41.4087C60.6436 41.4905 60.6573 41.5722 60.6573 41.654C60.6709 41.8449 60.6709 42.0357 60.6709 42.2265C60.6709 42.281 60.6709 42.3355 60.6709 42.3901C60.6709 42.6218 60.6709 42.8671 60.6573 43.0988C60.6573 43.1943 60.6436 43.276 60.6436 43.3714C60.63 43.5214 60.63 43.6849 60.6164 43.8349C60.6028 43.9439 60.6028 44.0393 60.5892 44.1484C60.5756 44.2983 60.562 44.4346 60.5484 44.5845C60.5348 44.6936 60.5348 44.789 60.5212 44.898C60.4668 45.416 60.4124 45.9203 60.358 46.4246C60.3172 47.0653 60.1947 47.8149 60.0859 48.6191Z" fill="#EB2C4F"/>
<path d="M42.6465 66.8701C40.9053 64.8392 38.9056 62.9991 37.4908 60.7228C36.661 59.3871 35.3415 56.7019 36.7835 55.3389C36.389 55.7205 36.0217 56.0476 35.6272 56.4157C35.4095 56.6201 35.2055 56.8246 34.9878 57.029C34.4845 57.5197 33.9812 58.0104 33.4914 58.5147C33.0153 58.9918 32.5664 59.4961 32.1447 60.0141C31.3013 61.0636 30.5531 62.1949 29.941 63.3944C29.3424 64.5666 28.8527 65.8206 28.5398 67.1018C28.2406 68.3422 28.0909 69.637 28.1589 70.9183C28.2269 72.1859 28.5126 73.4399 29.0159 74.5985C29.3696 75.4163 29.8457 76.1523 30.3763 76.8611C30.3763 76.8611 36.1849 84.7257 42.0751 76.7384C42.0479 78.9465 41.1229 81.2228 39.7762 82.8448C37.5044 85.5845 33.9404 87.2474 30.3899 87.3428C26.3225 87.4382 22.2551 85.5299 19.7385 82.3268C25.6151 91.6227 39.3681 88.6513 44.3741 80.1187C45.476 78.2514 46.2378 76.1114 46.1017 73.9578C45.9249 71.2999 44.3877 68.901 42.6465 66.8701ZM40.1571 76.0024C40.0346 76.1523 39.8986 76.2886 39.749 76.3976C39.0552 76.8883 38.1166 76.9292 37.3004 76.6566C36.4978 76.384 35.804 75.8524 35.1919 75.2663C33.7091 73.8624 32.4848 72.036 32.0767 70.005C31.8726 68.9555 31.8862 67.8651 32.1855 66.8292C32.2807 66.4748 33.0561 64.2394 33.5867 64.9073C35.6952 67.5925 37.8037 70.2777 39.9122 72.9628C40.1027 73.2082 40.3067 73.4535 40.4291 73.7397C40.7828 74.4621 40.6468 75.3754 40.1571 76.0024Z" fill="#EB2C4F"/>
<path d="M42.2519 52.5583C40.5243 50.4183 38.6335 48.0739 36.7426 45.7295C36.7154 45.7023 36.6882 45.675 36.6746 45.6341C36.2257 45.0889 35.7904 44.53 35.3415 43.9848C35.1782 43.794 35.0286 43.5896 34.8653 43.3987C34.8381 43.3715 34.8109 43.3306 34.7837 43.3033C33.4098 41.5995 32.0631 39.9366 30.7979 38.3692C30.7707 38.3419 30.7571 38.3146 30.7299 38.2874C28.0365 34.948 25.7103 32.0583 24.3091 30.3273C23.765 29.6594 23.3705 29.1687 23.1393 28.8825C22.9896 28.7053 22.908 28.6099 22.908 28.6099C22.908 28.6099 22.8944 28.5963 22.8808 28.5826C22.6359 28.2555 20.7315 25.5976 22.84 22.7761C22.84 22.7761 15.6846 27.6558 19.8745 32.7944C19.9697 32.9171 20.0921 33.0534 20.2145 33.2033C25.1389 39.2415 46.2377 65.4525 46.2377 65.4525C46.2377 65.4525 48.6999 67.7424 47.1492 70.2095L50.0875 66.9246C50.0875 66.9246 51.9783 64.5802 49.6386 61.7315C48.9176 60.8182 45.9521 57.1517 42.2519 52.5583Z" fill="#EB2C4F"/>
<path d="M49.2441 48.9463C49.1489 48.8236 49.0536 48.7146 48.972 48.6055C48.8496 48.4556 48.7272 48.3057 48.6183 48.1694C48.5367 48.0739 48.4687 47.9785 48.4007 47.8967C48.3327 47.815 48.2646 47.7332 48.2102 47.665C48.047 47.4606 47.9382 47.3379 47.8974 47.2834C47.8838 47.2698 47.8702 47.2561 47.8702 47.2561C47.8702 47.2561 47.8565 47.2425 47.8429 47.2289C47.5981 46.9017 45.6936 44.2438 47.8021 41.4224C47.8021 41.4224 47.7341 41.4633 47.6253 41.545C46.8091 42.1448 43.4355 44.8436 43.5171 48.1557C43.5443 49.2053 43.9116 50.3229 44.8366 51.4406C45.0135 51.6587 45.1903 51.8768 45.3671 52.0812C49.2305 56.8109 51.3798 59.428 51.3798 59.428C51.3798 59.428 53.842 61.7178 52.2912 64.1849L55.2296 60.9C55.2296 60.9 57.1204 58.5556 54.7806 55.7069C53.2571 53.8532 50.7813 50.8273 49.2441 48.9463Z" fill="#EB2C4F"/>
<path d="M12.964 68.9557C12.964 68.9557 17.1538 66.1206 14.2427 62.5631L13.549 61.7861L11.7805 63.9942C11.7805 63.9942 11.2908 64.2668 11.4676 64.7848C11.6445 65.3164 12.2838 66.4341 12.2838 66.4341L13.9434 64.3077C13.9434 64.3077 14.7324 65.6571 13.0184 68.3968L12.964 68.9557Z" fill="#EB2C4F"/>
<path d="M12.8959 31.6224C12.8959 31.6224 13.7394 32.0994 13.4401 33.0672L10.5154 35.7387C10.5154 35.7387 9.68555 36.6928 10.9099 38.0013C12.1342 39.3235 12.9912 40.0868 12.9912 40.0868C12.9912 40.0868 14.0658 40.7001 13.3585 41.9269L16.3512 38.7237C16.3512 38.7237 17.0586 37.7424 16.0791 36.9927L13.5217 34.6483C13.5217 34.6483 12.9095 34.3212 13.4265 33.2853L16.256 30.2457C16.256 30.2457 16.9633 29.2643 15.9839 28.5147L13.4265 26.1702C13.4265 26.1702 12.6375 25.7613 13.6033 24.3574L10.4337 27.2607C10.4337 27.2607 9.60394 28.2148 10.8282 29.5233C12.0389 30.8591 12.8959 31.6224 12.8959 31.6224Z" fill="#EB2C4F"/>
<path d="M16.0791 91.9089L13.5217 89.5645C13.5217 89.5645 12.9095 89.2374 13.4265 88.2015L16.256 85.162C16.256 85.162 16.9633 84.1806 15.9839 83.4309L13.4265 81.0865C13.4265 81.0865 12.6375 80.6776 13.6033 79.2737L10.4337 82.1769C10.4337 82.1769 9.60394 83.1311 10.8282 84.4396C12.0525 85.7617 12.9095 86.525 12.9095 86.525C12.9095 86.525 13.753 87.002 13.4537 87.9698L10.529 90.655C10.529 90.655 9.69916 91.6091 10.9235 92.9176C12.1478 94.2397 13.0048 95.003 13.0048 95.003C13.0048 95.003 14.0794 95.6164 13.3721 96.8431L16.3648 93.64C16.3376 93.64 17.045 92.6586 16.0791 91.9089Z" fill="#EB2C4F"/>
<path d="M20.0377 47.8286C20.0513 47.8422 20.0649 47.8558 20.0649 47.8695C24.2411 52.9808 26.5673 55.8295 26.5673 55.8295C26.5673 55.8295 29.0295 58.1194 27.4787 60.5865L30.4171 57.3016C30.4171 57.3016 32.3079 54.9572 29.9682 52.1085C27.642 49.2597 23.0577 43.6577 23.0577 43.6577C23.0577 43.6577 20.7315 40.8362 22.9896 37.8103C22.9896 37.8103 15.8343 42.6899 20.0377 47.8286Z" fill="#EB2C4F"/>
<path d="M31.3965 33.735C34.0219 36.9381 35.9128 39.2689 36.9739 40.5501C37.6132 41.327 37.9397 41.7223 37.9397 41.7223C37.9397 41.7223 40.4019 44.0122 38.8511 46.4793L41.803 42.9081C41.803 42.9081 41.8711 42.8264 41.9663 42.6628C42.3608 42.1585 42.6601 41.6269 42.8505 41.1771C44.3741 37.456 46.4146 33.217 46.3602 29.0734C46.3466 27.4514 46.0065 25.843 45.1903 24.2892C43.4763 20.9906 38.8919 19.614 35.804 21.8221C34.7701 22.5581 33.9811 23.485 33.1785 24.4391C32.4712 25.2706 31.6958 26.1565 31.1108 27.0834C31.0292 27.2197 30.9476 27.356 30.8796 27.4923C30.077 29.0052 29.9001 30.6272 30.4715 32.1266C30.6755 32.6991 30.9884 33.2306 31.3965 33.735ZM34.5117 25.1206C35.1374 24.6572 35.8856 24.3846 36.661 24.3846C39.164 24.3573 40.9188 26.7154 41.5446 28.9507C41.5854 29.1007 41.6262 29.2506 41.6534 29.4005C42.1023 31.4996 41.8302 33.6804 41.599 35.8204C41.531 36.4474 41.4085 37.197 41.2997 37.974C38.9736 35.1389 34.5117 29.6731 34.43 29.5777C34.1308 29.2097 33.8723 28.8553 33.6955 28.4191C33.5186 27.983 33.4098 27.5059 33.3826 27.0425C33.3554 26.2928 33.9675 25.5295 34.5117 25.1206Z" fill="#EB2C4F"/>
</svg>
