<svg width="16" height="20" viewBox="0 0 16 20" fill="none" xmlns="http://www.w3.org/2000/svg">
<path fill-rule="evenodd" clip-rule="evenodd" d="M11.0659 17.5833C10.6072 18.8833 9.37856 19.7527 8.00005 19.7527C6.62155 19.7527 5.3929 18.8833 4.93422 17.5833H3.21064C2.29386 17.5835 1.43926 17.1198 0.939583 16.3511C0.439911 15.5825 0.363009 14.6132 0.735221 13.7754L1.50005 12.0518V8.91667C1.49972 6.16143 3.23594 3.70511 5.83339 2.78608V2.41667C5.83339 1.22005 6.80344 0.25 8.00005 0.25C9.19667 0.25 10.1667 1.22005 10.1667 2.41667V2.78608C12.6909 3.67875 14.5001 6.087 14.5001 8.91667V12.0518L15.266 13.7743C15.6387 14.6123 15.562 15.5819 15.0623 16.3508C14.5625 17.1198 13.7076 17.5836 12.7906 17.5833H11.0659ZM9.87747 17.5833H6.12264C6.51028 18.2535 7.22581 18.6663 8.00005 18.6663C8.7743 18.6663 9.48983 18.2535 9.87747 17.5833ZM9.08339 2.50658V2.41667C9.08339 1.81836 8.59836 1.33333 8.00005 1.33333C7.40175 1.33333 6.91672 1.81836 6.91672 2.41667V2.50658C7.63393 2.38618 8.36618 2.38618 9.08339 2.50658ZM8.00005 3.5C5.00851 3.5 2.58339 5.92512 2.58339 8.91667V12.1667L2.5368 12.3866L1.7243 14.2153C1.50106 14.7178 1.54708 15.2991 1.84663 15.7602C2.14617 16.2213 2.6586 16.4997 3.20847 16.5H12.7906C13.3409 16.5002 13.854 16.2219 14.1539 15.7604C14.4537 15.2989 14.4996 14.717 14.2758 14.2142L13.4633 12.3866L13.4167 12.1667V8.91667C13.4167 5.92512 10.9916 3.5 8.00005 3.5Z" fill="#F5F5F5"/>
</svg>
