<svg width="21" height="21" viewBox="0 0 21 21" fill="none" xmlns="http://www.w3.org/2000/svg">
<circle cx="10.5" cy="10.5" r="10.5" fill="#C1213F"/>
<path fill-rule="evenodd" clip-rule="evenodd" d="M10.3334 9.86204L12.0974 8.09737C12.2277 7.96703 12.439 7.96703 12.5694 8.09737C12.6997 8.22771 12.6997 8.43903 12.5694 8.56937L10.8047 10.3334L12.5694 12.0974C12.6997 12.2277 12.6997 12.439 12.5694 12.5694C12.439 12.6997 12.2277 12.6997 12.0974 12.5694L10.3334 10.8047L8.56937 12.5694C8.43903 12.6997 8.22771 12.6997 8.09737 12.5694C7.96703 12.439 7.96703 12.2277 8.09737 12.0974L9.86204 10.3334L8.09737 8.56937C7.96703 8.43903 7.96703 8.22771 8.09737 8.09737C8.22771 7.96703 8.43903 7.96703 8.56937 8.09737L10.3334 9.86204ZM10.3334 17.3334C6.46737 17.3334 3.33337 14.1994 3.33337 10.3334C3.33337 6.46737 6.46737 3.33337 10.3334 3.33337C14.1994 3.33337 17.3334 6.46737 17.3334 10.3334C17.3334 14.1994 14.1994 17.3334 10.3334 17.3334ZM10.3334 16.6667C13.8312 16.6667 16.6667 13.8312 16.6667 10.3334C16.6667 6.83557 13.8312 4.00004 10.3334 4.00004C6.83557 4.00004 4.00004 6.83557 4.00004 10.3334C4.00004 13.8312 6.83557 16.6667 10.3334 16.6667Z" fill="white"/>
</svg>
