<svg width="21" height="21" viewBox="0 0 21 21" fill="none" xmlns="http://www.w3.org/2000/svg">
<circle cx="10.5" cy="10.5" r="10.5" fill="#0E4CB7"/>
<path fill-rule="evenodd" clip-rule="evenodd" d="M10.3333 9.86204L12.0973 8.09737C12.2276 7.96703 12.4389 7.96703 12.5693 8.09737C12.6996 8.22771 12.6996 8.43903 12.5693 8.56937L10.8046 10.3334L12.5693 12.0974C12.6996 12.2277 12.6996 12.439 12.5693 12.5694C12.4389 12.6997 12.2276 12.6997 12.0973 12.5694L10.3333 10.8047L8.56925 12.5694C8.43891 12.6997 8.22759 12.6997 8.09725 12.5694C7.96691 12.439 7.96691 12.2277 8.09725 12.0974L9.86192 10.3334L8.09725 8.56937C7.96691 8.43903 7.96691 8.22771 8.09725 8.09737C8.22759 7.96703 8.43891 7.96703 8.56925 8.09737L10.3333 9.86204ZM10.3333 17.3334C6.46725 17.3334 3.33325 14.1994 3.33325 10.3334C3.33325 6.46737 6.46725 3.33337 10.3333 3.33337C14.1993 3.33337 17.3333 6.46737 17.3333 10.3334C17.3333 14.1994 14.1993 17.3334 10.3333 17.3334ZM10.3333 16.6667C13.8311 16.6667 16.6666 13.8312 16.6666 10.3334C16.6666 6.83557 13.8311 4.00004 10.3333 4.00004C6.83545 4.00004 3.99992 6.83557 3.99992 10.3334C3.99992 13.8312 6.83545 16.6667 10.3333 16.6667Z" fill="white"/>
</svg>
