<svg width="42" height="41" viewBox="0 0 42 41" fill="none" xmlns="http://www.w3.org/2000/svg">
<path fill-rule="evenodd" clip-rule="evenodd" d="M20.9998 40.9167C9.49359 40.9167 0.166504 31.7761 0.166504 20.5C0.166504 9.22389 9.49359 0.0833435 20.9998 0.0833435C32.5061 0.0833435 41.8332 9.22389 41.8332 20.5C41.8332 31.7761 32.5061 40.9167 20.9998 40.9167ZM20.9998 38.875C27.6986 38.875 33.8884 35.3728 37.2378 29.6875C40.5872 24.0023 40.5872 16.9978 37.2378 11.3125C33.8884 5.62727 27.6986 2.12501 20.9998 2.12501C10.6445 2.12501 2.24984 10.3518 2.24984 20.5C2.24984 30.6482 10.6445 38.875 20.9998 38.875V38.875ZM27.554 14.6731C27.9613 14.2739 28.6217 14.2739 29.029 14.6731C29.4363 15.0723 29.4363 15.7194 29.029 16.1186L18.6123 26.3269C18.4169 26.5189 18.1516 26.6268 17.8748 26.6268C17.5981 26.6268 17.3328 26.5189 17.1373 26.3269L12.9707 22.2436C12.5634 21.8444 12.5634 21.1973 12.9707 20.7981C13.378 20.3989 14.0384 20.3989 14.4457 20.7981L17.8748 24.1607L27.554 14.6731Z" fill="#EC294E"/>
</svg>
