<svg width="30" height="24" viewBox="0 0 30 24" fill="none" xmlns="http://www.w3.org/2000/svg">
<path fill-rule="evenodd" clip-rule="evenodd" d="M19.116 10.5H20.25C23.9779 10.5 27 13.5221 27 17.25C27 20.9779 23.9779 24 20.25 24H5.25C2.49273 24.005 0.201449 21.8761 0.0040195 19.1259C-0.19341 16.3757 1.7703 13.9414 4.5 13.5525C4.5 9.35999 7.8585 5.99999 12 5.99999H12.75C15.611 6.00003 18.1615 7.80292 19.116 10.5ZM19.4595 12C19.4865 12.246 19.5 12.4965 19.5 12.75C19.5 13.1642 19.1642 13.5 18.75 13.5C18.3358 13.5 18 13.1642 18 12.75C18 9.8505 15.6495 7.49999 12.75 7.49999H12C8.68629 7.49999 6 10.1863 6 13.5V14.25C6 14.6642 5.66421 15 5.25 15C3.17893 15 1.5 16.6789 1.5 18.75C1.5 20.8211 3.17893 22.5 5.25 22.5H20.25C23.1495 22.5 25.5 20.1495 25.5 17.25C25.5 14.3505 23.1495 12 20.25 12H19.4595ZM28.287 11.244C28.1085 11.4439 27.837 11.5334 27.5747 11.4788C27.3123 11.4242 27.0991 11.2338 27.0152 10.9793C26.9313 10.7248 26.9895 10.4449 27.168 10.245C28.6159 8.6203 28.9113 6.27078 27.9107 4.33824C26.9101 2.40569 24.8209 1.29081 22.6585 1.53538C20.4961 1.77996 18.7087 3.33329 18.165 5.44049C18.0983 5.70014 17.8981 5.90446 17.6399 5.9765C17.3817 6.04854 17.1046 5.97735 16.9131 5.78975C16.7216 5.60215 16.6448 5.32664 16.7115 5.06699C17.5614 1.77623 20.725 -0.369743 24.0968 0.0572986C27.4686 0.484341 29.9973 3.35125 30 6.74999C30 8.42999 29.3835 10.0155 28.287 11.244Z" fill="#121924"/>
</svg>
