<svg width="18" height="18" viewBox="0 0 18 18" fill="none" xmlns="http://www.w3.org/2000/svg">
<path fill-rule="evenodd" clip-rule="evenodd" d="M1.49996 2.75008V4.42258C1.49996 11.0959 6.90996 16.5059 13.5833 16.5059H15.25C15.9403 16.5059 16.5 15.9463 16.5 15.2559V13.1184C16.5003 12.58 16.1558 12.1019 15.645 11.9317L12.9925 11.0484C12.458 10.8702 11.8703 11.0715 11.5575 11.5401L10.9491 12.4517C10.6363 12.9203 10.0486 13.1217 9.51413 12.9434L8.24329 12.5201C6.94005 12.0856 5.94007 11.0287 5.57829 9.70341L5.05579 7.78675C4.88153 7.14709 5.23697 6.48264 5.86579 6.27258L6.36829 6.10508C6.89368 5.9301 7.21359 5.39879 7.12246 4.85258L6.73746 2.54425C6.63684 1.94152 6.1152 1.49989 5.50413 1.50008H2.74996C2.0596 1.50008 1.49996 2.05973 1.49996 2.75008ZM0.666626 2.75008C0.666626 1.59949 1.59937 0.666748 2.74996 0.666748H5.50496C6.52338 0.666742 7.39253 1.40302 7.55996 2.40758L7.94413 4.71591C8.10221 5.66626 7.54559 6.59042 6.63163 6.89508L6.12996 7.06258C5.91988 7.13226 5.80095 7.35403 5.85913 7.56758L6.38163 9.48425C6.67004 10.541 7.46743 11.3837 8.50663 11.7301L9.77829 12.1534C9.95651 12.2128 10.1524 12.1455 10.2566 11.9892L10.8641 11.0784C11.3852 10.297 12.3647 9.96079 13.2558 10.2576L15.9091 11.1409C16.7604 11.4248 17.3342 12.2219 17.3333 13.1192V15.2567C17.3333 15.8093 17.1138 16.3392 16.7231 16.7299C16.3324 17.1206 15.8025 17.3401 15.25 17.3401H13.5833C6.44996 17.3401 0.666626 11.5567 0.666626 4.42341V2.75008Z" fill="#EC294E"/>
</svg>
