<svg width="43" height="41" viewBox="0 0 43 41" fill="none" xmlns="http://www.w3.org/2000/svg">
<path fill-rule="evenodd" clip-rule="evenodd" d="M21.479 19.1119L26.6608 14.1487C27.0436 13.7822 27.6644 13.7822 28.0473 14.1487C28.4301 14.5153 28.4301 15.1097 28.0473 15.4762L22.8635 20.4375L28.0473 25.3988C28.4301 25.7653 28.4301 26.3597 28.0473 26.7263C27.6644 27.0928 27.0436 27.0928 26.6608 26.7263L21.479 21.7631L16.2973 26.7263C15.9144 27.0928 15.2936 27.0928 14.9108 26.7263C14.5279 26.3597 14.5279 25.7653 14.9108 25.3988L20.0945 20.4375L14.9108 15.4762C14.5279 15.1097 14.5279 14.5153 14.9108 14.1487C15.2936 13.7822 15.9144 13.7822 16.2973 14.1487L21.479 19.1119ZM21.479 40.125C10.1226 40.125 0.916504 31.3106 0.916504 20.4375C0.916504 9.56438 10.1226 0.75 21.479 0.75C32.8354 0.75 42.0415 9.56438 42.0415 20.4375C42.0415 31.3106 32.8354 40.125 21.479 40.125ZM21.479 38.25C31.7538 38.25 40.0832 30.2751 40.0832 20.4375C40.0832 10.5999 31.7538 2.625 21.479 2.625C11.2042 2.625 2.87484 10.5999 2.87484 20.4375C2.87484 30.2751 11.2042 38.25 21.479 38.25V38.25Z" fill="#EC294E"/>
</svg>
