<svg width="25" height="26" viewBox="0 0 25 26" fill="none" xmlns="http://www.w3.org/2000/svg">
<path d="M6.33609 10.9523H13.3962C13.5773 10.9523 13.7583 10.8618 13.8941 10.726C14.0298 10.5902 14.0751 10.4092 14.0751 10.2282C14.0751 9.86612 13.7583 9.59457 13.3962 9.54932H6.33609C5.97403 9.54932 5.65723 9.86612 5.65723 10.2282C5.70248 10.6808 5.97403 10.9523 6.33609 10.9523Z" fill="#EC294E"/>
<path d="M6.33609 15.5685H19.506C19.868 15.5685 20.1848 15.2517 20.1848 14.8897C20.1848 14.5276 19.868 14.2108 19.506 14.2108H6.33609C5.97403 14.2108 5.65723 14.5276 5.65723 14.8897C5.65723 15.297 5.97403 15.5685 6.33609 15.5685Z" fill="#EC294E"/>
<path d="M20.1848 19.5059C20.1848 19.1438 19.868 18.827 19.506 18.827H6.33609C5.97403 18.827 5.65723 19.1438 5.65723 19.5059C5.65723 19.8679 5.97403 20.1847 6.33609 20.1847H19.506C19.868 20.1847 20.1848 19.9132 20.1848 19.5059Z" fill="#EC294E"/>
<path d="M24.2127 2.98699C23.217 1.17669 21.3162 0 19.2344 0C18.8723 0.0452574 18.465 0.0452574 18.1029 0H2.57967C1.17669 0 0 1.13143 0 2.57967V18.103C0 19.2344 0.950405 20.1848 2.08184 20.1848H2.53441C2.89647 20.1848 3.21327 19.868 3.21327 19.5059C3.21327 19.1439 2.89647 18.8271 2.53441 18.8271H2.08184C1.67452 18.8271 1.35772 18.5103 1.35772 18.103V2.57967C1.35772 2.26287 1.49349 1.94607 1.71978 1.71978C1.94607 1.49349 2.26287 1.40298 2.57967 1.40298C3.21327 1.40298 3.75636 1.94607 3.75636 2.57967V10.2734C3.75636 15.7043 3.75636 21.9951 3.75636 25.1631C3.80162 25.4799 3.93739 25.7062 4.20894 25.7967C4.29945 25.842 4.43522 25.842 4.57099 25.842C5.2046 25.842 6.10975 25.3894 6.24552 25.2536C6.83386 24.801 7.69375 24.801 8.2821 25.2536C9.36828 26.0682 10.8165 26.023 11.8574 25.2536C12.4458 24.801 13.3057 24.801 13.894 25.2536C14.3918 25.6609 15.0254 25.842 15.7043 25.842C16.5189 25.842 16.9715 25.5704 17.3788 25.2989C17.6956 25.0726 17.9672 24.8916 18.5103 24.8916C19.0534 24.8916 19.3249 25.1178 19.687 25.2989C20.049 25.5704 20.5016 25.842 21.3615 25.7967C21.7235 25.7967 22.0403 25.4799 22.0403 25.1178V10.545C24.7105 9.05148 25.6609 5.65717 24.2127 2.98699ZM23.5338 5.65717C23.5338 8.01056 21.5878 9.95662 19.2344 9.95662C16.881 9.95662 14.9349 8.01056 14.9349 5.65717C15.0707 2.71544 17.2431 1.40298 19.2344 1.40298C21.2257 1.40298 23.4433 2.71544 23.5338 5.65717ZM5.15934 24.3032C5.15934 20.3658 5.15934 6.155 5.15934 2.57967C5.15934 2.17235 5.06883 1.76504 4.84254 1.40298H15.5685C14.4824 2.30813 13.8035 3.57533 13.6225 5.02357H6.33603C6.155 5.02357 5.97397 5.11408 5.8382 5.24986C5.70243 5.38563 5.65717 5.56666 5.65717 5.74769C5.65717 6.10975 5.97397 6.42655 6.33603 6.42655H13.6225C13.8035 7.82953 14.4824 9.14199 15.5685 10.0471C16.7 11.0428 18.1935 11.4954 19.687 11.3596C20.0038 11.3143 20.3658 11.2691 20.6826 11.1786V24.3485C20.5468 24.3032 20.4563 24.2127 20.3206 24.1222C19.2344 23.3528 17.7861 23.3528 16.7452 24.1222C16.4737 24.3485 16.1116 24.4842 15.7496 24.4842C15.2065 24.4842 14.9349 24.258 14.5729 24.0769C14.1656 23.8054 13.8035 23.5338 12.9889 23.5338H12.8531C12.0385 23.5338 11.6311 23.8054 11.2691 24.0769C10.9523 24.3032 10.6807 24.4842 10.0924 24.4842C9.73033 24.4842 9.36828 24.3937 9.05147 24.1222C8.50839 23.7149 7.87478 23.5338 7.24118 23.5338C6.60758 23.5338 5.97397 23.7149 5.43088 24.1222C5.38563 24.1674 5.24986 24.2127 5.15934 24.3032Z" fill="#EC294E"/>
<path d="M21.7236 4.97827H16.7453C16.5642 4.97827 16.3832 5.06879 16.2474 5.20456C16.1117 5.34033 16.0664 5.52136 16.0664 5.70239C16.0664 6.06445 16.3832 6.38125 16.7453 6.38125H21.7236C21.9046 6.38125 22.0856 6.29074 22.2214 6.15496C22.3572 6.01919 22.4024 5.83816 22.4024 5.65713C22.4024 5.29507 22.1309 4.97827 21.7236 4.97827Z" fill="#EC294E"/>
</svg>
