<svg width="10" height="10" viewBox="0 0 10 10" fill="none" xmlns="http://www.w3.org/2000/svg">
<path fill-rule="evenodd" clip-rule="evenodd" d="M4.9999 4.2929L9.1459 0.145899C9.34141 -0.0496096 9.65839 -0.0496096 9.8539 0.145899C10.0494 0.341408 10.0494 0.65839 9.8539 0.853899L5.7069 4.9999L9.8539 9.1459C10.0494 9.34141 10.0494 9.65839 9.8539 9.8539C9.65839 10.0494 9.34141 10.0494 9.1459 9.8539L4.9999 5.7069L0.853899 9.8539C0.65839 10.0494 0.341408 10.0494 0.145899 9.8539C-0.0496096 9.65839 -0.0496096 9.34141 0.145899 9.1459L4.2929 4.9999L0.145899 0.853899C-0.0496096 0.65839 -0.0496096 0.341408 0.145899 0.145899C0.341408 -0.0496096 0.65839 -0.0496096 0.853899 0.145899L4.9999 4.2929Z" fill="#121924"/>
</svg>
