<svg width="41" height="41" viewBox="0 0 41 41" fill="none" xmlns="http://www.w3.org/2000/svg">
<path d="M10.1321 35.1582H8.1057V34.4827C8.1057 33.3635 7.19846 32.4563 6.07928 32.4563H4.05285C3.87368 32.4563 3.70194 32.5276 3.57529 32.6542L1.0713 35.1582H0V36.5092H1.35095C1.53012 36.5092 1.70186 36.4379 1.82851 36.3112L4.3325 33.8072H6.07928C6.45231 33.8072 6.75475 34.1097 6.75475 34.4827V35.8337C6.75475 36.2067 7.0572 36.5092 7.43023 36.5092H10.1321C10.5052 36.5092 10.8076 36.8116 10.8076 37.1846V37.8601H7.43023V39.2111H10.8076V40.562H12.1586V37.1846C12.1586 36.0654 11.2513 35.1582 10.1321 35.1582Z" fill="white"/>
<path d="M22.9662 24.3506H19.5888V20.9732C19.5888 19.854 18.6815 18.9468 17.5624 18.9468H15.5359C15.3568 18.9468 15.185 19.018 15.0584 19.1447L12.5544 21.6487H0V22.9996H12.834C13.0132 22.9996 13.1849 22.9284 13.3116 22.8017L15.8156 20.2977H17.5624C17.9354 20.2977 18.2378 20.6002 18.2378 20.9732V27.0525H17.5624C17.1893 27.0525 16.8869 26.75 16.8869 26.377V22.9996C16.8869 22.6266 16.5844 22.3242 16.2114 22.3242C15.8384 22.3242 15.5359 22.6266 15.5359 22.9996V23.6751C15.5359 24.7943 14.6287 25.7015 13.5095 25.7015H12.1586V27.0525H13.5095C14.2405 27.0538 14.952 26.8167 15.5359 26.377C15.5379 26.8666 15.7185 27.3385 16.0439 27.7043C15.3758 28.4867 15.3656 29.6357 16.0196 30.4299C15.6925 30.8023 15.5196 31.2853 15.5359 31.7808C15.5369 32.0103 15.5738 32.2382 15.6454 32.4563H14.185V33.8072H21.6152C22.7344 33.8072 23.6416 32.9 23.6416 31.7808V25.0261C23.6416 24.653 23.3392 24.3506 22.9662 24.3506ZM22.2907 31.7808C22.2907 32.1538 21.9882 32.4563 21.6152 32.4563H17.5705C17.1974 32.4585 16.8932 32.1579 16.8909 31.7849C16.8887 31.4118 17.1893 31.1076 17.5624 31.1053H22.2907V31.7808ZM22.2907 29.7544H17.5705C17.1974 29.7566 16.8932 29.456 16.8909 29.083C16.8887 28.7099 17.1893 28.4057 17.5624 28.4034H18.9133H22.2907V29.7544ZM22.2907 27.0525H19.5888V25.7015H22.2907V27.0525Z" fill="white"/>
<path d="M31.5461 20.4958L24.1192 13.0655C23.9664 12.9109 23.748 12.8404 23.5336 12.8764C23.319 12.911 23.1343 13.0468 23.0371 13.2412L19.6597 19.9959L20.8688 20.5998L21.6119 19.107V22.3243H22.9628V16.4051L23.8234 14.6833L24.3138 15.1737V22.7113L23.4073 23.041L23.8693 24.3095L31.2995 21.6076C31.65 21.4798 31.8304 21.092 31.7026 20.7416C31.6689 20.6492 31.6156 20.5653 31.5461 20.4958ZM27.019 21.7258L25.6681 22.2169V16.5247L27.019 17.8756V21.7258ZM28.37 21.2368V19.2266L29.8445 20.7031L28.37 21.2368Z" fill="white"/>
<path d="M14.185 28.4036H12.834C10.9697 28.4058 9.45886 29.9166 9.45667 31.7809V33.8074H10.8076V31.7809C10.8076 30.6618 11.7149 29.7545 12.834 29.7545H14.185V28.4036Z" fill="white"/>
<path d="M30.3375 0.978529L29.1002 0.437744L24.3757 11.2469L25.613 11.7877L30.3375 0.978529Z" fill="white"/>
<path d="M33.5214 18.9931L34.0227 20.2476L40.7781 17.5479L40.2768 16.2934L33.5214 18.9931Z" fill="white"/>
<path d="M30.0985 10.144L28.6577 10.2332C28.3172 10.254 28.0457 10.5256 28.0248 10.8661L27.9377 12.3028L26.4996 12.3913L26.5827 13.7423L28.6179 13.6173C28.9584 13.5964 29.2299 13.3249 29.2508 12.9844L29.3379 11.547L30.7767 11.4585C31.1167 11.4377 31.3881 11.1669 31.4096 10.8269L31.5001 9.38409L32.9429 9.29358L32.8585 7.94263L30.8206 8.06962C30.4806 8.09072 30.2095 8.36184 30.1883 8.70186L30.0985 10.144Z" fill="white"/>
<path d="M29.989 16.3789L30.7991 17.4592L33.5013 15.4331L32.6913 14.3528L29.989 16.3789Z" fill="white"/>
<path d="M39.0249 7.90293C38.6682 7.88807 38.3623 8.15531 38.3292 8.51086L38.1981 9.84222L36.862 9.79494C36.5028 9.77324 36.1927 10.044 36.1656 10.4029L36.038 11.7288L34.7046 11.6809L34.6559 13.0318L36.625 13.1041H36.6499C36.9966 13.1038 37.2867 12.8411 37.3214 12.4962L37.449 11.1695L38.7838 11.2175C39.1399 11.2303 39.4448 10.9642 39.4802 10.6096L39.6153 9.27753L40.9527 9.32481L41 7.97386L39.0249 7.90293Z" fill="white"/>
<path d="M37.6294 3.88739L36.6741 2.93213L34.6476 4.95871L35.6028 5.91396L37.6294 3.88739Z" fill="white"/>
</svg>
