<svg width="38" height="38" viewBox="0 0 38 38" fill="none" xmlns="http://www.w3.org/2000/svg">
<g clip-path="url(#clip0_222_3388)">
<path d="M25.6695 20.9189C27.091 20.2604 28.5062 19.78 29.8965 19.4858C30.2975 19.401 30.5538 19.0071 30.469 18.6061C30.3841 18.2051 29.9907 17.9488 29.5892 18.0337C27.9799 18.3742 26.3455 18.9437 24.7109 19.7307C23.7978 18.6417 22.7525 17.503 21.6248 16.3753C20.4263 15.1769 19.2155 14.0709 18.0651 13.1187C19.0606 11.86 19.873 10.4507 20.4877 8.9084C21.4461 6.50364 21.9321 3.75621 21.9321 0.742188C21.9321 0.332277 21.5997 0 21.1899 0C20.7801 0 20.4477 0.332277 20.4477 0.742188C20.4477 5.3862 19.257 9.2297 16.9054 12.1956C16.4617 11.8571 16.0314 11.546 15.6205 11.2689C13.4209 9.78537 12.1108 9.43766 11.3786 10.1436C11.3734 10.1484 11.3679 10.1532 11.3629 10.1582C11.3622 10.1589 11.3614 10.1596 11.3607 10.1603C11.3602 10.1607 11.3599 10.1612 11.3594 10.1616C11.1719 10.3496 11.0561 10.5769 11.0122 10.8482L0.0577505 36.9709C-0.058773 37.2488 0.00431296 37.5696 0.217395 37.7827C0.35945 37.9247 0.549301 38.0001 0.742418 38.0001C0.839051 38.0001 0.936575 37.9812 1.02927 37.9423C1.03135 37.9414 1.02927 37.9423 1.03135 37.9414L27.152 26.9876C27.3996 26.9476 27.6101 26.8463 27.788 26.6862C27.8009 26.6755 27.813 26.6641 27.8251 26.6526C27.8298 26.6479 27.8349 26.6441 27.8396 26.6393C27.8404 26.6386 27.8409 26.6378 27.8416 26.6371C27.8467 26.6321 27.8515 26.6266 27.8564 26.6213C28.5623 25.889 28.2146 24.5789 26.731 22.3795C26.4174 21.9146 26.0611 21.4252 25.6695 20.9189ZM5.88667 32.7127C5.73177 33.6785 5.38732 34.3133 5.22159 34.5746L2.12823 35.8718L5.26984 28.3803C5.88452 29.9211 6.0976 31.3972 5.88667 32.7127ZM10.4538 30.2014C10.1545 31.9072 9.36085 32.7295 9.13515 32.9335L7.17941 33.7536C7.61418 32.2058 7.72848 29.749 6.04824 26.524L8.27243 21.2204C10.5801 25.5956 10.7533 28.4946 10.4538 30.2014ZM13.1013 31.2701L11.5015 31.9411C11.654 31.556 11.7884 31.1173 11.8858 30.6203C12.4798 27.5882 11.5101 23.8393 9.00497 19.4736L9.80801 17.5587C10.4436 18.3235 11.1679 19.406 11.4612 20.0885C11.5819 20.3696 11.8557 20.5379 12.1434 20.5379C12.2411 20.5379 12.3406 20.5184 12.4361 20.4774C12.8127 20.3155 12.9867 19.8791 12.8249 19.5025C12.3897 18.4898 11.2862 16.9142 10.442 16.0469L11.6691 13.1208C11.884 13.5149 12.1502 13.9467 12.4695 14.4201C12.6893 14.7461 12.9302 15.084 13.1892 15.4313C15.728 19.2837 15.6706 23.2269 15.1743 25.8579C14.6465 28.6563 13.5164 30.7051 13.1013 31.2701ZM18.82 28.8721L15.2966 30.3496C15.8053 29.2337 16.3243 27.7687 16.6328 26.1331C16.9773 24.3063 17.1288 21.904 16.4913 19.3098C16.8429 19.6812 17.2046 20.0534 17.5756 20.4244C18.6858 21.5345 19.8063 22.5646 20.8798 23.4674C20.7734 26.9715 19.1662 28.5682 18.82 28.8721ZM21.3783 27.7992C21.7756 26.9773 22.1265 25.9179 22.2829 24.5948C22.7309 24.9368 23.1653 25.2511 23.5799 25.5307C24.0535 25.8501 24.4852 26.1162 24.8795 26.3311L21.3783 27.7992ZM23.9888 24.0087C22.3753 22.8655 20.4704 21.2198 18.6253 19.3747C16.7802 17.5296 15.1344 15.6248 13.9913 14.0112C12.8858 12.4509 12.5879 11.6542 12.5094 11.3091C12.8545 11.3876 13.6513 11.6855 15.2116 12.7909C15.443 12.9549 15.6808 13.1301 15.923 13.3138C15.871 13.3674 15.8197 13.4215 15.7667 13.4744C15.4769 13.7642 15.4769 14.2342 15.7667 14.5241C15.9117 14.669 16.1016 14.7415 16.2915 14.7415C16.4815 14.7415 16.6715 14.669 16.8163 14.5241C16.9096 14.4309 17.0014 14.3364 17.0921 14.241C18.218 15.1716 19.4084 16.2582 20.5752 17.425C21.5785 18.4284 22.5219 19.449 23.3587 20.4312C23.2246 20.5056 23.0907 20.5813 22.9567 20.6586C22.6017 20.8636 22.4801 21.3176 22.685 21.6725C22.8225 21.9106 23.0719 22.0437 23.3285 22.0437C23.4544 22.0437 23.5821 22.0116 23.6989 21.9441C23.9049 21.8251 24.1111 21.7108 24.3172 21.5993C24.6397 22.0088 24.9389 22.407 25.2092 22.7885C26.3147 24.3488 26.6126 25.1455 26.691 25.4907C26.3457 25.4121 25.549 25.1141 23.9888 24.0087Z" fill="white"/>
<path d="M13.4251 21.4146C13.2568 21.0407 12.8175 20.874 12.4437 21.0423C12.0815 21.2053 11.9138 21.6228 12.0567 21.9887C12.1691 22.2828 12.45 22.4659 12.7499 22.4659C12.8312 22.4659 12.9139 22.4524 12.9951 22.424C13.382 22.2886 13.5859 21.8652 13.4505 21.4783C13.4434 21.4582 13.4338 21.434 13.4251 21.4146Z" fill="white"/>
<path d="M27.7158 11.481C27.8607 11.6259 28.0507 11.6984 28.2406 11.6984C28.4306 11.6984 28.6204 11.6259 28.7654 11.481C30.4237 9.82272 33.1103 9.06272 35.0718 8.90441C35.4804 8.87146 35.7848 8.51343 35.7519 8.10493C35.7189 7.69635 35.3616 7.3931 34.9524 7.42486C32.7278 7.6044 29.6587 8.48849 27.7158 10.4314C27.426 10.7212 27.426 11.1912 27.7158 11.481Z" fill="white"/>
<path d="M37.45 7.56757C37.429 7.56193 37.4076 7.55637 37.386 7.55095C36.9883 7.45179 36.5856 7.69412 36.4865 8.09185C36.3875 8.48959 36.6297 8.89238 37.0274 8.99139L37.0653 9.00118C37.1298 9.01848 37.1945 9.02679 37.2582 9.02679C37.5858 9.02679 37.8856 8.80821 37.9745 8.47675C38.0807 8.08087 37.846 7.67385 37.45 7.56757Z" fill="white"/>
<path d="M5.45532 6.20624H6.19751V6.94843C6.19751 7.35826 6.52979 7.69061 6.9397 7.69061C7.34961 7.69061 7.68188 7.35826 7.68188 6.94843V6.20624H8.42407C8.83398 6.20624 9.16626 5.87389 9.16626 5.46405C9.16626 5.05421 8.83398 4.72186 8.42407 4.72186H7.68188V3.97968C7.68188 3.56984 7.34961 3.23749 6.9397 3.23749C6.52979 3.23749 6.19751 3.56984 6.19751 3.97968V4.72186H5.45532C5.04541 4.72186 4.71313 5.05421 4.71313 5.46405C4.71313 5.87396 5.04541 6.20624 5.45532 6.20624Z" fill="white"/>
<path d="M22.8225 13.4054H23.5648V14.1475C23.5648 14.5574 23.8971 14.8897 24.307 14.8897C24.7169 14.8897 25.0491 14.5574 25.0491 14.1475V13.4054H25.7913C26.2011 13.4054 26.5334 13.0731 26.5334 12.6632C26.5334 12.2534 26.2011 11.921 25.7913 11.921H25.0491V11.1788C25.0491 10.7689 24.7169 10.4366 24.307 10.4366C23.8971 10.4366 23.5648 10.7689 23.5648 11.1788V11.921H22.8225C22.4127 11.921 22.0803 12.2534 22.0803 12.6632C22.0803 13.0731 22.4127 13.4054 22.8225 13.4054Z" fill="white"/>
<path d="M33.1388 30.9951H32.3966V30.2529C32.3966 29.8431 32.0643 29.5107 31.6544 29.5107C31.2446 29.5107 30.9122 29.8431 30.9122 30.2529V30.9951H30.17C29.7602 30.9951 29.4279 31.3274 29.4279 31.7373C29.4279 32.1471 29.7602 32.4795 30.17 32.4795H30.9122V33.2216C30.9122 33.6315 31.2446 33.9638 31.6544 33.9638C32.0643 33.9638 32.3966 33.6315 32.3966 33.2216V32.4795H33.1388C33.5486 32.4795 33.881 32.1471 33.881 31.7373C33.881 31.3274 33.5487 30.9951 33.1388 30.9951Z" fill="white"/>
<path d="M28.9431 4.45322C30.1708 4.45322 31.1697 3.45438 31.1697 2.22665C31.1697 0.998927 30.1708 9.15527e-05 28.9431 9.15527e-05C27.7154 9.15527e-05 26.7166 0.998927 26.7166 2.22665C26.7166 3.45438 27.7154 4.45322 28.9431 4.45322ZM28.9431 1.48447C29.3524 1.48447 29.6853 1.81741 29.6853 2.22665C29.6853 2.6359 29.3524 2.96884 28.9431 2.96884C28.5339 2.96884 28.2009 2.6359 28.2009 2.22665C28.2009 1.81741 28.5339 1.48447 28.9431 1.48447Z" fill="white"/>
<path d="M33.5841 12.8858C32.3564 12.8858 31.3575 13.8846 31.3575 15.1124C31.3575 16.3401 32.3564 17.3389 33.5841 17.3389C34.8118 17.3389 35.8107 16.3401 35.8107 15.1124C35.8107 13.8846 34.8118 12.8858 33.5841 12.8858ZM33.5841 15.8546C33.1749 15.8546 32.8419 15.5216 32.8419 15.1124C32.8419 14.7031 33.1749 14.3702 33.5841 14.3702C33.9933 14.3702 34.3263 14.7031 34.3263 15.1124C34.3263 15.5216 33.9933 15.8546 33.5841 15.8546Z" fill="white"/>
<path d="M14.7327 7.0968C15.9604 7.0968 16.9592 6.09797 16.9592 4.87024C16.9592 3.64251 15.9604 2.64368 14.7327 2.64368C13.5049 2.64368 12.5061 3.64251 12.5061 4.87024C12.5061 6.09797 13.5049 7.0968 14.7327 7.0968ZM14.7327 4.12805C15.1419 4.12805 15.4749 4.461 15.4749 4.87024C15.4749 5.27948 15.1419 5.61243 14.7327 5.61243C14.3234 5.61243 13.9905 5.27948 13.9905 4.87024C13.9905 4.46107 14.3234 4.12805 14.7327 4.12805Z" fill="white"/>
<path d="M33.3384 21.8246C33.3384 21.4158 33.005 21.0824 32.5962 21.0824C32.1874 21.0824 31.854 21.4158 31.854 21.8246C31.854 22.2334 32.1874 22.5668 32.5962 22.5668C33.005 22.5668 33.3384 22.2333 33.3384 21.8246Z" fill="white"/>
<path d="M24.8772 7.05524C25.286 7.05524 25.6194 6.72185 25.6194 6.31305C25.6194 5.90425 25.286 5.57086 24.8772 5.57086C24.4684 5.57086 24.135 5.90425 24.135 6.31305C24.1351 6.72177 24.4685 7.05524 24.8772 7.05524Z" fill="white"/>
<path d="M34.8226 26.6488C34.4138 26.6488 34.0803 26.9822 34.0803 27.391C34.0803 27.7998 34.4138 28.1332 34.8226 28.1332C35.2313 28.1332 35.5648 27.7998 35.5648 27.391C35.5648 26.9822 35.2313 26.6488 34.8226 26.6488Z" fill="white"/>
<path d="M10.3306 2.22665C10.7394 2.22665 11.0728 1.89326 11.0728 1.48447C11.0728 1.07567 10.7394 0.742279 10.3306 0.742279C9.92177 0.742279 9.58838 1.07567 9.58838 1.48447C9.58838 1.89326 9.92177 2.22665 10.3306 2.22665Z" fill="white"/>
</g>
<defs>
<clipPath id="clip0_222_3388">
<rect width="38" height="38" fill="white"/>
</clipPath>
</defs>
</svg>
