<svg width="17" height="17" viewBox="0 0 17 17" fill="none" xmlns="http://www.w3.org/2000/svg">
<path fill-rule="evenodd" clip-rule="evenodd" d="M11.3333 2.83335H5.66667V3.18752C5.66667 3.38312 5.5081 3.54169 5.3125 3.54169C5.1169 3.54169 4.95833 3.38312 4.95833 3.18752V2.83335H3.89583C3.30903 2.83335 2.83333 3.30905 2.83333 3.89585V5.66669H14.1667V3.89585C14.1667 3.30905 13.691 2.83335 13.1042 2.83335H12.0417V3.18752C12.0417 3.38312 11.8831 3.54169 11.6875 3.54169C11.4919 3.54169 11.3333 3.38312 11.3333 3.18752V2.83335ZM12.0417 2.12502H13.1042C14.0822 2.12502 14.875 2.91785 14.875 3.89585V13.1091C14.875 14.0872 14.0822 14.88 13.1042 14.88H3.89583C2.91783 14.88 2.125 14.0872 2.125 13.1091V3.89585C2.125 2.91785 2.91783 2.12502 3.89583 2.12502H4.95833V1.77085C4.95833 1.57525 5.1169 1.41669 5.3125 1.41669C5.5081 1.41669 5.66667 1.57525 5.66667 1.77085V2.12502H11.3333V1.77085C11.3333 1.57525 11.4919 1.41669 11.6875 1.41669C11.8831 1.41669 12.0417 1.57525 12.0417 1.77085V2.12502ZM14.1667 6.37502H2.83333V13.1091C2.83333 13.6959 3.30903 14.1716 3.89583 14.1716H13.1042C13.691 14.1716 14.1667 13.6959 14.1667 13.1091V6.37502Z" fill="#EC294E"/>
</svg>
