<svg width="29" height="27" viewBox="0 0 29 27" fill="none" xmlns="http://www.w3.org/2000/svg">
<path fill-rule="evenodd" clip-rule="evenodd" d="M14.6666 12.7412L18.1946 9.4325C18.4553 9.18811 18.8779 9.18811 19.1386 9.4325C19.3993 9.67689 19.3993 10.0731 19.1386 10.3175L15.6093 13.625L19.1386 16.9325C19.3993 17.1769 19.3993 17.5731 19.1386 17.8175C18.8779 18.0619 18.4553 18.0619 18.1946 17.8175L14.6666 14.5087L11.1386 17.8175C10.8779 18.0619 10.4553 18.0619 10.1946 17.8175C9.93395 17.5731 9.93395 17.1769 10.1946 16.9325L13.724 13.625L10.1946 10.3175C9.93395 10.0731 9.93395 9.67689 10.1946 9.4325C10.4553 9.18811 10.8779 9.18811 11.1386 9.4325L14.6666 12.7412ZM14.6666 26.75C6.93463 26.75 0.666626 20.8737 0.666626 13.625C0.666626 6.37625 6.93463 0.5 14.6666 0.5C22.3986 0.5 28.6666 6.37625 28.6666 13.625C28.6666 20.8737 22.3986 26.75 14.6666 26.75ZM14.6666 25.5C21.6622 25.5 27.3333 20.1834 27.3333 13.625C27.3333 7.06662 21.6622 1.75 14.6666 1.75C7.67102 1.75 1.99996 7.06662 1.99996 13.625C1.99996 20.1834 7.67102 25.5 14.6666 25.5V25.5Z" fill="#EC294E"/>
<path d="M14.6666 12.7412L14.4956 12.9236L14.6666 13.084L14.8376 12.9236L14.6666 12.7412ZM18.1946 9.4325L18.0236 9.25012L18.0236 9.25015L18.1946 9.4325ZM19.1386 10.3175L19.3096 10.4999L19.3096 10.4999L19.1386 10.3175ZM15.6093 13.625L15.4383 13.4426L15.2437 13.625L15.4383 13.8074L15.6093 13.625ZM19.1386 16.9325L19.3096 16.7501L19.3096 16.7501L19.1386 16.9325ZM18.1946 17.8175L18.0236 17.9999L18.0236 17.9999L18.1946 17.8175ZM14.6666 14.5087L14.8376 14.3264L14.6666 14.166L14.4956 14.3264L14.6666 14.5087ZM11.1386 17.8175L11.3096 17.9999L11.3096 17.9999L11.1386 17.8175ZM10.1946 16.9325L10.0237 16.7501L10.0236 16.7501L10.1946 16.9325ZM13.724 13.625L13.8949 13.8074L14.0896 13.625L13.8949 13.4426L13.724 13.625ZM10.1946 10.3175L10.0236 10.4999L10.0237 10.4999L10.1946 10.3175ZM11.1386 9.4325L11.3096 9.25015L11.3096 9.25012L11.1386 9.4325ZM14.8376 12.9236L18.3656 9.61485L18.0236 9.25015L14.4956 12.5589L14.8376 12.9236ZM18.3656 9.61488C18.5301 9.46065 18.8031 9.46065 18.9676 9.61488L19.3096 9.25012C18.9528 8.91558 18.3805 8.91558 18.0236 9.25012L18.3656 9.61488ZM18.9676 9.61488C19.123 9.7605 19.123 9.9895 18.9676 10.1351L19.3096 10.4999C19.6756 10.1567 19.6756 9.59327 19.3096 9.25012L18.9676 9.61488ZM18.9677 10.1351L15.4383 13.4426L15.7802 13.8074L19.3096 10.4999L18.9677 10.1351ZM15.4383 13.8074L18.9677 17.1149L19.3096 16.7501L15.7802 13.4426L15.4383 13.8074ZM18.9676 17.1149C19.123 17.2605 19.123 17.4895 18.9676 17.6351L19.3096 17.9999C19.6756 17.6567 19.6756 17.0933 19.3096 16.7501L18.9676 17.1149ZM18.9676 17.6351C18.8031 17.7893 18.5301 17.7893 18.3656 17.6351L18.0236 17.9999C18.3805 18.3344 18.9528 18.3344 19.3096 17.9999L18.9676 17.6351ZM18.3656 17.6351L14.8376 14.3264L14.4956 14.6911L18.0236 17.9999L18.3656 17.6351ZM14.4956 14.3264L10.9676 17.6351L11.3096 17.9999L14.8376 14.6911L14.4956 14.3264ZM10.9676 17.6351C10.8031 17.7893 10.5301 17.7893 10.3656 17.6351L10.0236 17.9999C10.3805 18.3344 10.9528 18.3344 11.3096 17.9999L10.9676 17.6351ZM10.3656 17.6351C10.2103 17.4895 10.2103 17.2605 10.3656 17.1149L10.0236 16.7501C9.65761 17.0933 9.65761 17.6567 10.0236 17.9999L10.3656 17.6351ZM10.3656 17.1149L13.8949 13.8074L13.553 13.4426L10.0237 16.7501L10.3656 17.1149ZM13.8949 13.4426L10.3656 10.1351L10.0237 10.4999L13.553 13.8074L13.8949 13.4426ZM10.3656 10.1351C10.2103 9.9895 10.2103 9.7605 10.3656 9.61488L10.0236 9.25012C9.65761 9.59327 9.65761 10.1567 10.0236 10.4999L10.3656 10.1351ZM10.3656 9.61488C10.5301 9.46065 10.8031 9.46065 10.9676 9.61488L11.3096 9.25012C10.9528 8.91558 10.3805 8.91558 10.0236 9.25012L10.3656 9.61488ZM10.9676 9.61485L14.4956 12.9236L14.8376 12.5589L11.3096 9.25015L10.9676 9.61485ZM14.6666 26.5C7.05725 26.5 0.916626 20.7207 0.916626 13.625H0.416626C0.416626 21.0268 6.812 27 14.6666 27V26.5ZM0.916626 13.625C0.916626 6.52928 7.05725 0.75 14.6666 0.75V0.25C6.812 0.25 0.416626 6.22323 0.416626 13.625H0.916626ZM14.6666 0.75C22.276 0.75 28.4166 6.52928 28.4166 13.625H28.9166C28.9166 6.22323 22.5213 0.25 14.6666 0.25V0.75ZM28.4166 13.625C28.4166 20.7207 22.276 26.5 14.6666 26.5V27C22.5213 27 28.9166 21.0268 28.9166 13.625H28.4166ZM14.6666 25.75C21.7849 25.75 27.5833 20.3364 27.5833 13.625H27.0833C27.0833 20.0304 21.5396 25.25 14.6666 25.25V25.75ZM27.5833 13.625C27.5833 6.91359 21.7849 1.5 14.6666 1.5V2C21.5396 2 27.0833 7.21964 27.0833 13.625H27.5833ZM14.6666 1.5C7.54839 1.5 1.74996 6.91359 1.74996 13.625H2.24996C2.24996 7.21964 7.79365 2 14.6666 2V1.5ZM1.74996 13.625C1.74996 20.3364 7.54839 25.75 14.6666 25.75V25.25C7.79365 25.25 2.24996 20.0304 2.24996 13.625H1.74996Z" fill="#EC294E"/>
</svg>
