<svg width="28" height="32" viewBox="0 0 28 32" fill="none" xmlns="http://www.w3.org/2000/svg">
<path fill-rule="evenodd" clip-rule="evenodd" d="M26.25 20.375V4.625C26.25 3.17525 25.0747 2 23.625 2H4.375C2.92525 2 1.75 3.17525 1.75 4.625V27.375C1.75 28.8247 2.92525 30 4.375 30H16.625C18.0747 30 19.25 28.8247 19.25 27.375C19.25 24.9588 21.2088 23 23.625 23C25.0747 23 26.25 21.8247 26.25 20.375ZM25.3768 24.3843C24.8244 24.6259 24.2279 24.7505 23.625 24.75C22.1753 24.75 21 25.9253 21 27.375C21 27.998 20.8705 28.5912 20.6343 29.1267C22.7307 28.1629 24.4129 26.4807 25.3768 24.3843ZM0 4.625C0 2.20875 1.95875 0.25 4.375 0.25H23.625C26.0412 0.25 28 2.20875 28 4.625V20.375C28 26.6572 22.9072 31.75 16.625 31.75H4.375C3.21468 31.75 2.10188 31.2891 1.28141 30.4686C0.460936 29.6481 0 28.5353 0 27.375V4.625ZM6.125 7.25C5.64175 7.25 5.25 6.85825 5.25 6.375C5.25 5.89175 5.64175 5.5 6.125 5.5H21C21.4832 5.5 21.875 5.89175 21.875 6.375C21.875 6.85825 21.4832 7.25 21 7.25H13.5625H6.125Z" fill="#EC294E"/>
<path d="M5.25 11.625C5.25 12.1082 5.64175 12.5 6.125 12.5H13.5625H21C21.4832 12.5 21.875 12.1082 21.875 11.625C21.875 11.1418 21.4832 10.75 21 10.75H6.125C5.64175 10.75 5.25 11.1418 5.25 11.625Z" fill="#EC294E"/>
<path fill-rule="evenodd" clip-rule="evenodd" d="M9.43969 21.2502L5.46991 17.2819C5.1767 16.9887 5.1767 16.5133 5.46991 16.2201C5.76312 15.9269 6.23851 15.9269 6.53172 16.2201L10.5 20.1898L14.4683 16.2201C14.7615 15.9269 15.2369 15.9269 15.5301 16.2201C15.8233 16.5133 15.8233 16.9887 15.5301 17.2819L11.5603 21.2502L15.5301 25.2184C15.8233 25.5117 15.8233 25.987 15.5301 26.2803C15.2369 26.5735 14.7615 26.5735 14.4683 26.2803L10.5 22.3105L6.53172 26.2803C6.23851 26.5735 5.76312 26.5735 5.46991 26.2803C5.1767 25.987 5.1767 25.5117 5.46991 25.2184L9.43969 21.2502Z" fill="#EC294E"/>
</svg>
