<svg width="32" height="32" viewBox="0 0 32 32" fill="none" xmlns="http://www.w3.org/2000/svg">
<path fill-rule="evenodd" clip-rule="evenodd" d="M21.3333 5.33341H10.6667V6.00008C10.6667 6.36827 10.3682 6.66675 10 6.66675C9.63181 6.66675 9.33333 6.36827 9.33333 6.00008V5.33341H7.33333C6.22876 5.33341 5.33333 6.22885 5.33333 7.33341V10.6667H26.6667V7.33341C26.6667 6.22885 25.7712 5.33341 24.6667 5.33341H22.6667V6.00008C22.6667 6.36827 22.3682 6.66675 22 6.66675C21.6318 6.66675 21.3333 6.36827 21.3333 6.00008V5.33341ZM22.6667 4.00008H24.6667C26.5076 4.00008 28 5.49247 28 7.33341V24.6761C28 26.517 26.5076 28.0094 24.6667 28.0094H7.33333C5.49238 28.0094 4 26.517 4 24.6761V7.33341C4 5.49247 5.49238 4.00008 7.33333 4.00008H9.33333V3.33341C9.33333 2.96522 9.63181 2.66675 10 2.66675C10.3682 2.66675 10.6667 2.96522 10.6667 3.33341V4.00008H21.3333V3.33341C21.3333 2.96522 21.6318 2.66675 22 2.66675C22.3682 2.66675 22.6667 2.96522 22.6667 3.33341V4.00008ZM26.6667 12.0001H5.33333V24.6761C5.33333 25.7807 6.22876 26.6761 7.33333 26.6761H24.6667C25.7712 26.6761 26.6667 25.7807 26.6667 24.6761V12.0001ZM6.66667 14.0001C6.66667 13.6319 6.96514 13.3334 7.33333 13.3334H10C10.3682 13.3334 10.6667 13.6319 10.6667 14.0001V16.6667C10.6667 17.0349 10.3682 17.3334 10 17.3334H7.33333C6.96514 17.3334 6.66667 17.0349 6.66667 16.6667V14.0001ZM8 14.6667V16.0001H9.33333V14.6667H8Z" fill="#EC294E"/>
</svg>
