<svg width="26" height="27" viewBox="0 0 26 27" fill="none" xmlns="http://www.w3.org/2000/svg">
<path fill-rule="evenodd" clip-rule="evenodd" d="M18.3333 3.33341H7.66667V4.00008C7.66667 4.36827 7.36819 4.66675 7 4.66675C6.63181 4.66675 6.33333 4.36827 6.33333 4.00008V3.33341H4.33333C3.22876 3.33341 2.33333 4.22885 2.33333 5.33341V8.66675H23.6667V5.33341C23.6667 4.22885 22.7712 3.33341 21.6667 3.33341H19.6667V4.00008C19.6667 4.36827 19.3682 4.66675 19 4.66675C18.6318 4.66675 18.3333 4.36827 18.3333 4.00008V3.33341ZM19.6667 2.00008H21.6667C23.5076 2.00008 25 3.49247 25 5.33341V22.6761C25 24.517 23.5076 26.0094 21.6667 26.0094H4.33333C2.49238 26.0094 1 24.517 1 22.6761V5.33341C1 3.49247 2.49238 2.00008 4.33333 2.00008H6.33333V1.33341C6.33333 0.965225 6.63181 0.666748 7 0.666748C7.36819 0.666748 7.66667 0.965225 7.66667 1.33341V2.00008H18.3333V1.33341C18.3333 0.965225 18.6318 0.666748 19 0.666748C19.3682 0.666748 19.6667 0.965225 19.6667 1.33341V2.00008ZM23.6667 10.0001H2.33333V22.6761C2.33333 23.7807 3.22876 24.6761 4.33333 24.6761H21.6667C22.7712 24.6761 23.6667 23.7807 23.6667 22.6761V10.0001ZM3.66667 12.0001C3.66667 11.6319 3.96514 11.3334 4.33333 11.3334H7C7.36819 11.3334 7.66667 11.6319 7.66667 12.0001V14.6667C7.66667 15.0349 7.36819 15.3334 7 15.3334H4.33333C3.96514 15.3334 3.66667 15.0349 3.66667 14.6667V12.0001ZM5 12.6667V14.0001H6.33333V12.6667H5Z" fill="#EC294E"/>
<path d="M18.3333 3.33341H18.4333V3.23341H18.3333V3.33341ZM7.66667 3.33341V3.23341H7.56667V3.33341H7.66667ZM6.33333 3.33341H6.43333V3.23341H6.33333V3.33341ZM2.33333 8.66675H2.23333V8.76675H2.33333V8.66675ZM23.6667 8.66675V8.76675H23.7667V8.66675H23.6667ZM19.6667 3.33341V3.23341H19.5667V3.33341H19.6667ZM19.6667 2.00008H19.5667V2.10008H19.6667V2.00008ZM6.33333 2.00008V2.10008H6.43333V2.00008H6.33333ZM7.66667 2.00008H7.56667V2.10008H7.66667V2.00008ZM18.3333 2.00008V2.10008H18.4333V2.00008H18.3333ZM23.6667 10.0001H23.7667V9.90008H23.6667V10.0001ZM2.33333 10.0001V9.90008H2.23333V10.0001H2.33333ZM5 12.6667V12.5667H4.9V12.6667H5ZM5 14.0001H4.9V14.1001H5V14.0001ZM6.33333 14.0001V14.1001H6.43333V14.0001H6.33333ZM6.33333 12.6667H6.43333V12.5667H6.33333V12.6667ZM18.3333 3.23341H7.66667V3.43341H18.3333V3.23341ZM7.56667 3.33341V4.00008H7.76667V3.33341H7.56667ZM7.56667 4.00008C7.56667 4.31304 7.31296 4.56675 7 4.56675V4.76675C7.42342 4.76675 7.76667 4.4235 7.76667 4.00008H7.56667ZM7 4.56675C6.68704 4.56675 6.43333 4.31304 6.43333 4.00008H6.23333C6.23333 4.4235 6.57658 4.76675 7 4.76675V4.56675ZM6.43333 4.00008V3.33341H6.23333V4.00008H6.43333ZM6.33333 3.23341H4.33333V3.43341H6.33333V3.23341ZM4.33333 3.23341C3.17354 3.23341 2.23333 4.17362 2.23333 5.33341H2.43333C2.43333 4.28407 3.28399 3.43341 4.33333 3.43341V3.23341ZM2.23333 5.33341V8.66675H2.43333V5.33341H2.23333ZM2.33333 8.76675H23.6667V8.56675H2.33333V8.76675ZM23.7667 8.66675V5.33341H23.5667V8.66675H23.7667ZM23.7667 5.33341C23.7667 4.17362 22.8265 3.23341 21.6667 3.23341V3.43341C22.716 3.43341 23.5667 4.28407 23.5667 5.33341H23.7667ZM21.6667 3.23341H19.6667V3.43341H21.6667V3.23341ZM19.5667 3.33341V4.00008H19.7667V3.33341H19.5667ZM19.5667 4.00008C19.5667 4.31304 19.313 4.56675 19 4.56675V4.76675C19.4234 4.76675 19.7667 4.4235 19.7667 4.00008H19.5667ZM19 4.56675C18.687 4.56675 18.4333 4.31304 18.4333 4.00008H18.2333C18.2333 4.4235 18.5766 4.76675 19 4.76675V4.56675ZM18.4333 4.00008V3.33341H18.2333V4.00008H18.4333ZM19.6667 2.10008H21.6667V1.90008H19.6667V2.10008ZM21.6667 2.10008C23.4524 2.10008 24.9 3.54769 24.9 5.33341H25.1C25.1 3.43724 23.5628 1.90008 21.6667 1.90008V2.10008ZM24.9 5.33341V22.6761H25.1V5.33341H24.9ZM24.9 22.6761C24.9 24.4618 23.4524 25.9094 21.6667 25.9094V26.1094C23.5628 26.1094 25.1 24.5723 25.1 22.6761H24.9ZM21.6667 25.9094H4.33333V26.1094H21.6667V25.9094ZM4.33333 25.9094C2.54761 25.9094 1.1 24.4618 1.1 22.6761H0.9C0.9 24.5723 2.43716 26.1094 4.33333 26.1094V25.9094ZM1.1 22.6761V5.33341H0.9V22.6761H1.1ZM1.1 5.33341C1.1 3.54769 2.54761 2.10008 4.33333 2.10008V1.90008C2.43716 1.90008 0.9 3.43724 0.9 5.33341H1.1ZM4.33333 2.10008H6.33333V1.90008H4.33333V2.10008ZM6.43333 2.00008V1.33341H6.23333V2.00008H6.43333ZM6.43333 1.33341C6.43333 1.02045 6.68704 0.766748 7 0.766748V0.566748C6.57658 0.566748 6.23333 0.909996 6.23333 1.33341H6.43333ZM7 0.766748C7.31296 0.766748 7.56667 1.02045 7.56667 1.33341H7.76667C7.76667 0.909996 7.42342 0.566748 7 0.566748V0.766748ZM7.56667 1.33341V2.00008H7.76667V1.33341H7.56667ZM7.66667 2.10008H18.3333V1.90008H7.66667V2.10008ZM18.4333 2.00008V1.33341H18.2333V2.00008H18.4333ZM18.4333 1.33341C18.4333 1.02045 18.687 0.766748 19 0.766748V0.566748C18.5766 0.566748 18.2333 0.909996 18.2333 1.33341H18.4333ZM19 0.766748C19.313 0.766748 19.5667 1.02045 19.5667 1.33341H19.7667C19.7667 0.909996 19.4234 0.566748 19 0.566748V0.766748ZM19.5667 1.33341V2.00008H19.7667V1.33341H19.5667ZM23.6667 9.90008H2.33333V10.1001H23.6667V9.90008ZM2.23333 10.0001V22.6761H2.43333V10.0001H2.23333ZM2.23333 22.6761C2.23333 23.8359 3.17354 24.7761 4.33333 24.7761V24.5761C3.28399 24.5761 2.43333 23.7254 2.43333 22.6761H2.23333ZM4.33333 24.7761H21.6667V24.5761H4.33333V24.7761ZM21.6667 24.7761C22.8265 24.7761 23.7667 23.8359 23.7667 22.6761H23.5667C23.5667 23.7254 22.716 24.5761 21.6667 24.5761V24.7761ZM23.7667 22.6761V10.0001H23.5667V22.6761H23.7667ZM3.76667 12.0001C3.76667 11.6871 4.02037 11.4334 4.33333 11.4334V11.2334C3.90991 11.2334 3.56667 11.5767 3.56667 12.0001H3.76667ZM4.33333 11.4334H7V11.2334H4.33333V11.4334ZM7 11.4334C7.31296 11.4334 7.56667 11.6871 7.56667 12.0001H7.76667C7.76667 11.5767 7.42342 11.2334 7 11.2334V11.4334ZM7.56667 12.0001V14.6667H7.76667V12.0001H7.56667ZM7.56667 14.6667C7.56667 14.9797 7.31296 15.2334 7 15.2334V15.4334C7.42342 15.4334 7.76667 15.0902 7.76667 14.6667H7.56667ZM7 15.2334H4.33333V15.4334H7V15.2334ZM4.33333 15.2334C4.02037 15.2334 3.76667 14.9797 3.76667 14.6667H3.56667C3.56667 15.0902 3.90991 15.4334 4.33333 15.4334V15.2334ZM3.76667 14.6667V12.0001H3.56667V14.6667H3.76667ZM4.9 12.6667V14.0001H5.1V12.6667H4.9ZM5 14.1001H6.33333V13.9001H5V14.1001ZM6.43333 14.0001V12.6667H6.23333V14.0001H6.43333ZM6.33333 12.5667H5V12.7667H6.33333V12.5667Z" fill="#EC294E"/>
</svg>
