<svg width="20" height="15" viewBox="0 0 20 15" fill="none" xmlns="http://www.w3.org/2000/svg">
<path fill-rule="evenodd" clip-rule="evenodd" d="M3.15105 8.9999H7.85005L5.50005 2.8929L3.15105 8.9999ZM2.76605 9.9999L0.966047 14.6799C0.866635 14.9375 0.577187 15.0658 0.319547 14.9664C0.0619057 14.867 -0.0663647 14.5775 0.0330465 14.3199L5.03305 1.3199C5.10708 1.12636 5.29283 0.998535 5.50005 0.998535C5.70727 0.998535 5.89301 1.12636 5.96705 1.3199L10.967 14.3199C11.0665 14.5778 10.938 14.8675 10.68 14.9669C10.4221 15.0663 10.1325 14.9378 10.033 14.6799L8.23305 9.9999H2.76705H2.76605ZM18.957 7.7969C18.985 7.8589 19 7.9269 19 7.9999C19 8.0679 18.998 8.1349 18.993 8.1999C18.998 8.2979 19 8.3979 19 8.4999V13.4999C19 13.776 19.2239 13.9999 19.5 13.9999C19.7762 13.9999 20 14.2238 20 14.4999C20 14.776 19.7762 14.9999 19.5 14.9999C18.9856 15.0002 18.5069 14.7367 18.232 14.3019C17.783 14.7339 17.172 14.9999 16.5 14.9999H14.5C12.579 14.9999 11.5 14.1369 11.5 12.4999C11.5 10.8049 12.488 10.2849 15.17 9.7689L15.377 9.7289C15.822 9.6429 16.102 9.5839 16.379 9.5149C17.417 9.2549 17.916 8.8199 17.99 8.1759C17.895 6.6799 17.112 5.9999 15.5 5.9999C13.744 5.9999 13 6.4959 13 7.4999C13 7.77604 12.7762 7.9999 12.5 7.9999C12.2239 7.9999 12 7.77604 12 7.4999C12 5.8379 13.256 4.9999 15.5 4.9999C17.53 4.9999 18.722 5.9729 18.957 7.7969ZM18 12.4999V9.8969C17.634 10.1499 17.172 10.3469 16.621 10.4849C16.323 10.5599 16.029 10.6219 15.567 10.7109L15.358 10.7509C13.148 11.1759 12.5 11.5169 12.5 12.4999C12.5 13.5299 13.088 13.9999 14.5 13.9999H16.5C17.3285 13.9999 18 13.3283 18 12.4999Z" fill="#EC294E"/>
</svg>
