<svg width="28" height="28" viewBox="0 0 28 28" fill="none" xmlns="http://www.w3.org/2000/svg">
<path d="M21.8957 15.2091V8.00006C21.8957 7.82593 21.8609 7.61697 21.7912 7.47767V7.44284C21.7216 7.30354 21.6519 7.16423 21.5126 7.05976L18.4827 4.02988C18.3783 3.9254 18.239 3.82092 18.0997 3.75127H18.0648C17.8907 3.68162 17.7166 3.64679 17.5424 3.64679H11.6568V2.32339C11.6568 1.59204 11.0648 1 10.3334 1H2.3234C1.59205 1 1 1.59204 1 2.32339V13.9205C1 14.6519 1.59205 15.2439 2.3234 15.2439H5.87566V23.7067C5.87566 24.438 6.46771 25.0301 7.19906 25.0301H16.3583C18.03 27.3982 21.0947 28.3386 23.8111 27.2589C26.4928 26.1793 28.0948 23.3932 27.642 20.5027C27.1545 17.6121 24.7863 15.418 21.8957 15.2091ZM20.3634 7.16423H18.7613C18.5176 7.16423 18.3086 6.95528 18.3086 6.71149V5.10949L20.3634 7.16423ZM1.83583 13.8509V2.25374C1.83583 2.00996 2.04478 1.801 2.28857 1.801H10.2986C10.5424 1.801 10.7513 2.00996 10.7513 2.25374V13.8509C10.7513 14.0946 10.5424 14.3036 10.2986 14.3036H2.28857C2.04478 14.3036 1.83583 14.0946 1.83583 13.8509ZM7.19906 24.0898C6.95528 24.0898 6.74632 23.8808 6.74632 23.637V15.1743H10.2986C11.0299 15.1743 11.622 14.5822 11.622 13.8509V4.48262H17.4031V6.71149C17.4031 7.44284 17.9952 8.03489 18.7265 8.03489H20.9902V15.1743C18.9355 15.3136 17.0897 16.4628 16.0449 18.239C15.0001 20.0151 14.9305 22.2091 15.8011 24.0549H7.19906V24.0898ZM21.443 26.7714C18.4827 26.7714 16.0797 24.3684 16.0797 21.4081C16.0797 18.4479 18.4827 16.0449 21.443 16.0449C24.4032 16.0449 26.8062 18.4479 26.8062 21.4081C26.8062 24.3684 24.4032 26.7714 21.443 26.7714Z" fill="#EC294E" stroke="#EC294E" stroke-width="0.5"/>
<path d="M3.6119 8.06971H8.97513C9.4627 8.06971 9.88061 7.68662 9.88061 7.16423V3.61196C9.88061 3.1244 9.49753 2.70648 8.97513 2.70648H3.6119C3.12433 2.70648 2.70642 3.08957 2.70642 3.61196V7.16423C2.74125 7.6518 3.12433 8.06971 3.6119 8.06971ZM3.6119 3.61196H8.97513V7.16423H3.6119V3.61196Z" fill="#EC294E" stroke="#EC294E" stroke-width="0.5"/>
<path d="M22.7663 19.632C22.7663 19.8758 22.9753 20.0848 23.219 20.0848C23.4628 20.0848 23.6718 19.8758 23.6718 19.632C23.6718 18.5872 22.9404 17.6469 21.8956 17.438V17.4031C21.8956 17.1594 21.6867 16.9504 21.4429 16.9504C21.1991 16.9504 20.9902 17.1594 20.9902 17.4031V17.438C19.9454 17.6469 19.214 18.5524 19.214 19.632C19.214 20.7116 19.9454 21.6171 20.9902 21.8261V24.4729C20.4678 24.2987 20.0847 23.7763 20.0847 23.2191C20.0847 22.9753 19.8757 22.7664 19.6319 22.7664C19.3882 22.7664 19.1792 22.9753 19.1792 23.2191C19.1792 24.2639 19.9105 25.2042 20.9553 25.4132V25.448C20.9553 25.6918 21.1643 25.9007 21.4081 25.9007C21.6519 25.9007 21.8608 25.6918 21.8608 25.448V25.4132C22.9056 25.2042 23.6369 24.2987 23.6369 23.2191C23.6369 22.1395 22.9056 21.234 21.8608 21.0251V18.3783C22.418 18.5872 22.7663 19.0748 22.7663 19.632ZM20.1195 19.632C20.1195 19.0748 20.4678 18.5524 21.025 18.3783V20.8858C20.4678 20.7116 20.1195 20.2241 20.1195 19.632ZM22.7663 23.2191C22.7663 23.7763 22.418 24.2987 21.8608 24.4729V21.9654C22.418 22.1395 22.7663 22.6619 22.7663 23.2191Z" fill="#EC294E" stroke="#EC294E" stroke-width="0.5"/>
<path d="M4.06464 8.94037H3.15916C2.91538 8.94037 2.70642 9.14933 2.70642 9.39311C2.70642 9.63689 2.91538 9.84585 3.15916 9.84585H4.06464C4.30843 9.84585 4.51738 9.63689 4.51738 9.39311C4.51738 9.14933 4.30843 8.94037 4.06464 8.94037Z" fill="#EC294E" stroke="#EC294E" stroke-width="0.5"/>
<path d="M4.06464 10.7513H3.15916C2.91538 10.7513 2.70642 10.9603 2.70642 11.2041C2.70642 11.4479 2.91538 11.6568 3.15916 11.6568H4.06464C4.30843 11.6568 4.51738 11.4479 4.51738 11.2041C4.51738 10.9603 4.30843 10.7513 4.06464 10.7513Z" fill="#EC294E" stroke="#EC294E" stroke-width="0.5"/>
<path d="M4.06464 12.5275H3.15916C2.91538 12.5275 2.70642 12.7364 2.70642 12.9802C2.70642 13.224 2.91538 13.4329 3.15916 13.4329H4.06464C4.30843 13.4329 4.51738 13.224 4.51738 12.9802C4.51738 12.7016 4.30843 12.5275 4.06464 12.5275Z" fill="#EC294E" stroke="#EC294E" stroke-width="0.5"/>
<path d="M6.74628 8.94037H5.8408C5.59702 8.94037 5.38806 9.14933 5.38806 9.39311C5.38806 9.63689 5.59702 9.84585 5.8408 9.84585H6.74628C6.99006 9.84585 7.19902 9.63689 7.19902 9.39311C7.19902 9.14933 6.99006 8.94037 6.74628 8.94037Z" fill="#EC294E" stroke="#EC294E" stroke-width="0.5"/>
<path d="M6.74628 10.7513H5.8408C5.59702 10.7513 5.38806 10.9603 5.38806 11.2041C5.38806 11.4479 5.59702 11.6568 5.8408 11.6568H6.74628C6.99006 11.6568 7.19902 11.4479 7.19902 11.2041C7.19902 10.9603 6.99006 10.7513 6.74628 10.7513Z" fill="#EC294E" stroke="#EC294E" stroke-width="0.5"/>
<path d="M7.19902 12.9802C7.19902 12.7364 6.99006 12.5275 6.74628 12.5275H5.8408C5.59702 12.5275 5.38806 12.7364 5.38806 12.9802C5.38806 13.224 5.59702 13.4329 5.8408 13.4329H6.74628C6.99006 13.3981 7.19902 13.224 7.19902 12.9802Z" fill="#EC294E" stroke="#EC294E" stroke-width="0.5"/>
<path d="M9.42792 8.94037H8.52244C8.27866 8.94037 8.0697 9.14933 8.0697 9.39311C8.0697 9.63689 8.27866 9.84585 8.52244 9.84585H9.42792C9.67171 9.84585 9.88066 9.63689 9.88066 9.39311C9.84584 9.14933 9.67171 8.94037 9.42792 8.94037Z" fill="#EC294E" stroke="#EC294E" stroke-width="0.5"/>
<path d="M9.42792 10.7513H8.52244C8.27866 10.7513 8.0697 10.9603 8.0697 11.2041C8.0697 11.4479 8.27866 11.6568 8.52244 11.6568H9.42792C9.67171 11.6568 9.88066 11.4479 9.88066 11.2041C9.88066 10.9603 9.67171 10.7513 9.42792 10.7513Z" fill="#EC294E" stroke="#EC294E" stroke-width="0.5"/>
<path d="M9.42792 12.5275H8.52244C8.27866 12.5275 8.0697 12.7364 8.0697 12.9802C8.0697 13.224 8.27866 13.4329 8.52244 13.4329H9.42792C9.67171 13.4329 9.88066 13.224 9.88066 12.9802C9.84584 12.7016 9.67171 12.5275 9.42792 12.5275Z" fill="#EC294E" stroke="#EC294E" stroke-width="0.5"/>
<path d="M13.433 10.7513H19.2141C19.4579 10.7513 19.6668 10.5424 19.6668 10.2986C19.6668 10.0548 19.4579 9.84586 19.2141 9.84586H13.433C13.1892 9.84586 12.9802 10.0548 12.9802 10.2986C12.9802 10.5424 13.1892 10.7513 13.433 10.7513Z" fill="#EC294E" stroke="#EC294E" stroke-width="0.5"/>
<path d="M13.433 12.9802H19.2141C19.4579 12.9802 19.6668 12.7713 19.6668 12.5275C19.6668 12.2837 19.4579 12.0747 19.2141 12.0747H13.433C13.1892 12.0747 12.9802 12.2837 12.9802 12.5275C12.9802 12.7713 13.1892 12.9802 13.433 12.9802Z" fill="#EC294E" stroke="#EC294E" stroke-width="0.5"/>
<path d="M13.433 15.1742H19.2141C19.4579 15.1742 19.6668 14.9653 19.6668 14.7215C19.6668 14.4777 19.4579 14.2688 19.2141 14.2688H13.433C13.1892 14.2688 12.9802 14.4777 12.9802 14.7215C12.9802 14.9653 13.1892 15.1742 13.433 15.1742Z" fill="#EC294E" stroke="#EC294E" stroke-width="0.5"/>
<path d="M14.7563 16.5325H8.52244C8.27866 16.5325 8.0697 16.7414 8.0697 16.9852C8.0697 17.229 8.27866 17.438 8.52244 17.438H14.7563C15.0001 17.438 15.2091 17.229 15.2091 16.9852C15.2091 16.7414 15.0001 16.5325 14.7563 16.5325Z" fill="#EC294E" stroke="#EC294E" stroke-width="0.5"/>
<path d="M13.8508 18.7614H8.52244C8.27866 18.7614 8.0697 18.9703 8.0697 19.2141C8.0697 19.4579 8.27866 19.6668 8.52244 19.6668H13.8857C14.1295 19.6668 14.3384 19.4579 14.3384 19.2141C14.3036 18.9703 14.1295 18.7614 13.8508 18.7614Z" fill="#EC294E" stroke="#EC294E" stroke-width="0.5"/>
<path d="M13.4329 20.9902H8.52244C8.27866 20.9902 8.0697 21.1992 8.0697 21.443C8.0697 21.6868 8.27866 21.8957 8.52244 21.8957H13.4329C13.6767 21.8957 13.8857 21.6868 13.8857 21.443C13.8857 21.1992 13.6767 20.9902 13.4329 20.9902Z" fill="#EC294E" stroke="#EC294E" stroke-width="0.5"/>
</svg>
