<svg width="14" height="10" viewBox="0 0 14 10" fill="none" xmlns="http://www.w3.org/2000/svg">
<path fill-rule="evenodd" clip-rule="evenodd" d="M2.43399 6.00001H5.56666L3.99999 1.92868L2.43399 6.00001ZM2.17732 6.66668L0.977324 9.78668C0.91105 9.95844 0.718084 10.044 0.546324 9.97768C0.374563 9.91141 0.289049 9.71844 0.355324 9.54668L3.68866 0.880014C3.73801 0.750985 3.86184 0.665771 3.99999 0.665771C4.13814 0.665771 4.26197 0.750985 4.31132 0.880014L7.64466 9.54668C7.71093 9.71862 7.62527 9.91174 7.45332 9.97801C7.28138 10.0443 7.08826 9.95862 7.02199 9.78668L5.82199 6.66668H2.17799H2.17732ZM12.9713 5.19801C12.99 5.23935 13 5.28468 13 5.33335C13 5.37868 12.9987 5.42335 12.9953 5.46668C12.9987 5.53201 13 5.59868 13 5.66668V9.00001C13 9.18411 13.1492 9.33335 13.3333 9.33335C13.5174 9.33335 13.6667 9.48259 13.6667 9.66668C13.6667 9.85078 13.5174 10 13.3333 10C12.9904 10.0002 12.6713 9.82457 12.488 9.53468C12.1887 9.82268 11.7813 10 11.3333 10H9.99999C8.71932 10 7.99999 9.42468 7.99999 8.33335C7.99999 7.20335 8.65866 6.85668 10.4467 6.51268L10.5847 6.48601C10.8813 6.42868 11.068 6.38935 11.2527 6.34335C11.9447 6.17001 12.2773 5.88001 12.3267 5.45068C12.2633 4.45335 11.7413 4.00001 10.6667 4.00001C9.49599 4.00001 8.99999 4.33068 8.99999 5.00001C8.99999 5.18411 8.85075 5.33335 8.66666 5.33335C8.48256 5.33335 8.33332 5.18411 8.33332 5.00001C8.33332 3.89201 9.17066 3.33335 10.6667 3.33335C12.02 3.33335 12.8147 3.98201 12.9713 5.19801ZM12.3333 8.33335V6.59801C12.0893 6.76668 11.7813 6.89801 11.414 6.99001C11.2153 7.04001 11.0193 7.08135 10.7113 7.14068L10.572 7.16735C9.09866 7.45068 8.66666 7.67801 8.66666 8.33335C8.66666 9.02001 9.05866 9.33335 9.99999 9.33335H11.3333C11.8856 9.33335 12.3333 8.88563 12.3333 8.33335Z" fill="#233057"/>
</svg>
