<svg width="97" height="44" viewBox="0 0 97 44" fill="none" xmlns="http://www.w3.org/2000/svg">
<path d="M91.3467 17.8241C89.7678 17.3616 88.1703 16.7697 86.5449 16.52C84.9659 16.2795 83.3313 16.6587 82.6625 18.2496C82.3746 18.9525 82.2074 19.8312 82.421 20.5711C82.6532 21.3573 83.0341 22.1249 83.3313 22.8926C82.644 22.8556 82.1238 22.3654 81.678 21.903C81.0743 21.2925 80.6006 20.6543 80.1362 19.9329C79.2446 18.5455 78.2415 17.2414 77.322 15.8818C76.4582 14.6147 75.5201 13.4215 74.4334 12.3394C73.8576 11.7659 73.2724 11.1925 72.6873 10.6283C72.5666 10.508 72.0743 10.1751 72.0557 10.0363C72.0279 9.78661 72.5015 9.50914 72.6502 9.39815C75.0836 7.52983 77.935 6.29045 80.7678 5.12506C82.1703 4.54236 83.6285 4.07066 85.031 3.48796C85.4768 3.30298 88.8019 2.34107 88.4303 3.63595C88.3282 3.98742 87.8823 4.42212 87.6687 4.7181C87.4551 5.00482 87.2415 5.30079 87.0186 5.57826C86.5727 6.12396 86.1919 6.70666 85.7554 7.27085C85.3003 7.85355 84.9288 8.52873 84.6409 9.21317C84.4365 9.71262 84 10.693 84.2229 11.2295C84.5108 10.915 84.6687 10.4156 84.8731 10.0456C85.0867 9.65713 85.3189 9.26866 85.5697 8.8987C86.5449 7.43734 87.743 6.12396 88.5882 4.57011C88.9597 3.89492 89.4613 2.95151 89.3405 2.15609C89.2012 1.22193 88.4303 0.925959 87.5758 0.990702C85.8111 1.13869 83.9164 1.86012 82.3189 2.58155C80.5542 3.36773 78.7523 4.10765 77.0155 4.95857C75.4365 5.72625 73.8947 6.54942 72.4737 7.57607C71.8885 8.00153 71.2384 8.55648 71.1734 9.31491C71.1084 10.0641 71.034 11.026 71.5263 11.6549C72.6223 13.0331 73.774 14.3557 74.8328 15.7708C75.8359 17.1119 76.9783 18.601 77.4334 20.2381C77.5727 20.7376 77.5913 20.8856 77.1084 21.1168C76.709 21.311 76.3003 21.5052 75.8916 21.6717C75.6037 21.792 75.6316 21.8105 75.4458 21.6162C75.3158 21.4775 75.2043 21.3018 75.0836 21.1445C74.8421 20.8393 74.5635 20.5711 74.2477 20.3399C73.5511 19.8404 72.7709 19.5352 72.0093 20.0624C71.3406 20.5248 71.0155 21.2833 70.8483 22.0417C70.6811 22.8279 70.4768 23.7713 71.322 24.243C72.0929 24.6777 73.0495 24.4187 73.8576 24.2245C74.2012 24.1412 74.8514 23.6973 74.935 24.2522C74.9907 24.6037 74.6656 24.8534 74.4427 25.0754C73.8111 25.7136 73.1145 26.2593 72.3994 26.805C71.0619 27.8409 69.678 28.9045 67.9876 29.2745C67.1981 29.4502 66.3808 29.4317 65.7121 28.923C65.0155 28.3866 64.8576 27.6837 64.8854 26.8327C64.904 26.3425 64.9969 25.8893 65.1455 25.4269C65.1919 25.2789 65.4892 24.5297 65.2755 24.4372C64.8576 24.2522 64.421 26.361 64.3839 26.6108C64.1517 28.1091 64.3189 30.2087 65.8328 30.9948C67.2817 31.744 69.1672 30.9116 70.4025 30.0884C71.1362 29.589 71.8142 28.997 72.5108 28.4421C73.1517 27.9334 73.7833 27.3877 74.3313 26.7865C74.9536 26.0928 75.3065 25.3714 75.5387 24.4835C75.613 24.206 75.6409 23.7713 75.8452 23.5401C76.0217 23.3458 76.3839 23.2718 76.6068 23.1608C77.3963 22.7909 77.8142 22.4302 78.0186 21.5607C78.1207 21.1445 78.195 20.7006 78.2229 20.2659C78.2322 20.0994 78.1207 19.193 78.2322 19.1652C79.2167 20.7561 80.2105 22.3654 81.3715 23.8268C81.7523 24.3077 82.4582 24.6592 83.0619 24.8072C83.2477 24.8534 83.5635 24.8164 83.7214 24.9182C83.8885 25.0107 83.8328 25.2326 83.8607 25.4361C83.9071 25.8061 84.0929 25.8523 84.2043 25.4916C84.2693 25.2789 84.2786 25.0014 84.4458 24.8997C84.5758 24.8257 84.8545 24.8257 85.0031 24.8072C85.4303 24.7332 85.8297 24.6407 86.2291 24.4835C87.0371 24.1597 87.8545 23.8083 88.6347 23.4198C90.1115 22.6984 91.5604 21.866 93.0929 21.2463C93.5108 21.0798 93.9381 20.9318 94.3746 20.8208C94.709 20.7376 95.1827 20.7653 95.4799 20.6266C95.7399 20.5063 95.7771 20.1271 95.8607 19.8774C95.9814 19.5259 96.1207 19.1745 96.2043 18.8045C94.5697 18.6195 92.9628 18.2958 91.3467 17.8241ZM72.3994 22.4672C72.1022 22.4949 71.6378 22.5411 71.8514 22.1249C72.2415 21.3388 73.3375 21.8012 73.7926 22.2452C73.3282 22.3192 72.8638 22.4302 72.3994 22.4672ZM87.1207 22.3654C86.6285 22.5504 86.1269 22.7446 85.6161 22.8649C85.3653 22.9204 85.1145 22.9574 84.8545 22.9851C84.5851 23.0036 84.483 23.0591 84.3901 22.9111C84.3808 22.8279 84.3715 22.7631 84.3715 22.7354C84.3529 22.5504 84.0279 21.4128 84.0279 21.4128C83.8793 20.9595 83.6842 20.5248 83.4984 20.0901C83.3498 19.7294 82.9783 19.2577 83.3034 18.9432C83.6006 18.6565 84.1022 18.5178 84.4923 18.4253C85.4861 18.1756 86.4799 18.4715 87.4365 18.7305C88.3932 18.9895 89.3405 19.3225 90.3158 19.5352C90.9566 19.6739 91.5882 19.8219 92.2105 20.0161C90.5387 20.8301 88.8669 21.6902 87.1207 22.3654Z" fill="#EA0029"/>
<path d="M25.5511 23.4384C25.9876 23.1517 26.4056 22.939 26.7771 22.569C27.1393 22.2175 27.4923 21.7736 27.9102 21.4961C28.4025 21.1724 28.4025 21.3666 28.5418 21.8198C28.8297 22.754 29.6285 23.3089 30.6037 23.2072C31.6532 23.0962 32.452 22.495 33.3065 21.9308C33.6316 22.7355 33.9195 23.6327 34.644 24.1876C35.2663 24.6686 36.1579 24.5483 36.8731 24.3448C37.5697 24.1506 38.4334 23.7991 38.9257 23.2442C39.3994 22.7077 39.6594 21.9216 39.8173 21.2371C40.1981 19.6185 39.8545 17.926 39.6037 16.3166C39.3437 14.587 39.0557 12.8667 38.7771 11.1463C38.6378 10.2677 38.4985 9.39826 38.3684 8.5196C38.2477 7.72417 38.0341 6.938 37.9319 6.13333C38.1548 6.27206 38.5449 7.02124 38.87 6.84551C39.195 6.66978 38.7585 5.89285 38.6749 5.67087C38.322 4.72746 37.9598 3.7933 37.5789 2.86839C37.4954 2.67416 37.2632 1.7215 36.9288 1.76774C36.743 1.79549 36.4923 2.87764 36.4365 3.04412C36.3715 3.2291 36.2693 3.41409 36.3251 3.60832C36.3901 3.85804 36.5015 4.03378 36.5294 4.302C36.5851 4.81995 36.6502 5.3379 36.7337 5.85585C37.3282 9.61099 37.9969 13.3569 38.582 17.1213C38.7306 18.0554 38.8793 18.9804 38.9907 19.9145C39.0372 20.3307 39.1393 20.8394 39.0836 21.2556C39.0464 21.5701 38.7771 21.7551 38.4985 21.8938C37.7276 22.2823 36.8359 22.5968 35.9536 22.6153C35.5263 22.6245 35.1641 22.5228 34.839 22.2545C34.6811 22.1251 34.1424 21.6256 34.1703 21.3944C34.1796 21.3111 34.5325 21.1261 34.5975 21.0614C34.7276 20.9412 34.839 20.8024 34.9319 20.6544C35.1362 20.34 35.322 19.9423 35.452 19.5908C35.7307 18.8509 35.8142 17.8705 35.5728 17.112C35.387 16.5293 34.969 15.3639 34.3467 15.1142C33.5944 14.7997 32.8885 15.7062 32.6563 16.2981C32.3498 17.075 32.2291 18.0184 32.3498 18.8416C32.4149 19.2671 32.5449 19.711 32.6656 20.1272C32.7399 20.377 32.8514 20.4972 32.6842 20.6914C32.582 20.8117 32.3406 20.8764 32.2105 20.9412C31.5325 21.2556 30.6409 21.5516 29.8978 21.2464C29.1084 20.9227 28.9319 20.1365 28.8854 19.3781C27.9381 19.5168 27.3808 20.4972 26.6656 21.0522C26.322 21.3204 25.9133 21.5609 25.5139 21.7366C25.3189 21.8198 25.0217 21.9863 24.8731 21.8568C24.743 21.7458 24.6502 21.4221 24.5387 21.2741C24.0557 20.5989 23.3684 19.8035 22.4582 19.8035C21.5387 19.8035 20.8978 20.7192 20.5913 21.4776C20.2941 22.2175 20.0526 23.2072 20.6749 23.8639C21.2694 24.4836 22.2817 24.3448 23.0341 24.2246C23.2848 24.1784 23.5356 24.1321 23.7864 24.0859C24.0371 24.0396 24.195 23.9194 24.3344 24.1321C24.4923 24.3818 24.3251 24.5668 24.1579 24.7333C23.5542 25.3622 22.8576 25.9264 22.1331 26.4166C20.1362 27.7578 14.6563 31.6979 13.3746 27.5728C13.1238 26.7589 13.3932 25.8709 13.6161 25.0755C13.7276 24.7056 13.8762 24.2338 14.1269 23.9286C14.3406 23.6789 14.6935 23.5402 14.9628 23.3459C15.7337 22.791 16.5139 22.199 17.2105 21.5516C17.5356 21.2556 17.8142 20.9227 18.1022 20.5989C18.3994 20.2567 18.4923 20.0717 18.5758 19.6278C18.743 18.7399 18.7059 17.852 18.6037 16.9548C18.5573 16.5201 18.3808 16.0761 18.3529 15.6507C18.3344 15.3639 18.3529 15.4194 18.6223 15.3177C18.7616 15.2622 18.8916 15.1975 19.0124 15.1235C19.6718 14.7073 19.969 13.9951 20.4799 13.4401C20.6192 13.2829 21.1207 12.8389 21.3437 13.1072C21.4923 13.2829 21.3251 13.7823 21.418 14.0136C21.9659 13.6066 22.2074 12.2747 21.9752 11.6735C21.5944 10.7116 20.7585 11.2481 20.2941 11.8308C19.7647 12.4875 19.3189 13.3014 18.4644 13.5511C18.065 13.6621 17.5449 13.7546 17.2012 13.4771C16.904 13.2366 16.6533 12.8389 16.3932 12.5522C16.2167 13.0332 16.1424 13.5881 16.0681 14.0968C16.0031 14.587 16.4025 14.9107 16.6997 15.2807C17.3684 16.1039 17.7771 17.0195 17.9628 18.0647C18.0186 18.3884 18.1579 18.8139 17.9814 19.1191C17.805 19.4336 17.3777 19.711 17.1084 19.933C16.3468 20.5435 15.5573 21.1631 14.7306 21.6903C13.1703 22.6892 11.5913 23.5494 9.78947 24.0304C8.06192 24.4928 5.86997 25.131 4.13313 24.3818C3.35294 24.0489 2.73065 23.6974 2.1548 23.0685C1.6161 22.4858 1.27245 21.6811 1.04954 20.9227C0.789476 20.044 0.733749 19.1006 0.7709 18.1849C0.789476 17.6762 0.882356 17.2323 1.01239 16.7328C1.08669 16.4553 1.04025 15.7339 0.715171 16.2426C0.269351 16.9455 0.250776 18.0462 0.148609 18.8509C0.0278663 19.7943 0.0928821 20.7932 0.241489 21.7273C0.520127 23.4292 1.39319 24.9368 2.86997 25.8617C4.50465 26.8791 6.55728 26.6756 8.34985 26.3057C10.096 25.9449 11.6285 25.2513 13.2074 24.4373C13.226 24.7056 13.0588 25.0385 12.9938 25.3067C12.9102 25.6212 12.8359 25.9264 12.7802 26.2409C12.6594 26.9161 12.6037 27.6098 12.678 28.2942C12.7895 29.3949 13.3189 30.6065 14.3963 31.0967C15.3158 31.5129 16.5511 31.2539 17.4334 30.884C18.4644 30.4678 19.4768 29.9036 20.4056 29.3024C21.3344 28.7012 22.2353 28.026 23.0433 27.2676C23.8142 26.5369 24.5573 25.7877 24.8638 24.7425C25.0124 24.2154 25.0867 23.7344 25.5511 23.4384ZM33.9567 17.001C34.3375 17.1953 34.9319 18.3144 34.9412 18.7399C34.9598 19.2208 33.9752 19.7665 33.5944 20.007C33.4551 19.6278 33.3437 19.2393 33.2322 18.8509C33.1393 18.5271 32.9536 18.1294 32.935 17.7965C32.9164 17.3525 33.5015 16.7698 33.9567 17.001ZM21.3065 22.2083C21.7523 21.3851 22.644 21.8661 23.1734 22.3193C22.5418 22.4488 21.9009 22.4395 21.3065 22.2083Z" fill="#EA0029"/>
<path d="M40.6068 28.96C42.2787 27.9888 43.9226 27.0269 45.4923 25.8893C46.161 25.3991 46.774 24.9181 47.2663 24.2429C47.5635 23.8452 47.805 23.392 48.0372 22.9573C48.2044 22.6429 48.3622 22.2266 48.6687 22.0232C48.7616 22.2359 48.743 22.3561 48.9195 22.5134C49.0867 22.6614 49.3282 22.7723 49.5232 22.8556C49.9969 23.0683 50.5078 23.1978 51.0093 23.3365C51.1208 23.3643 51.2508 23.3828 51.353 23.429C51.613 23.54 51.4737 23.4475 51.5666 23.6418C51.678 23.8822 51.6873 24.2245 51.743 24.4742C51.8452 24.9829 52.0217 25.5101 52.2446 25.9818C52.579 26.7032 53.0341 27.3969 53.7214 27.8316C54.6687 28.4236 55.2167 27.8779 55.6068 26.9807C56.2848 25.4361 56.7307 23.2071 58.4396 22.4209C58.8576 22.2266 59.1641 22.1619 59.4427 22.5411C59.7028 22.9018 59.9071 23.2995 60.1672 23.651C60.6409 24.3077 61.3096 25.0754 62.1548 25.1956C63.0279 25.3251 63.9288 25.1771 64.5883 24.5574C64.8762 24.2799 65.0898 23.9377 65.2663 23.5863C65.4149 23.3088 65.4892 22.8278 65.7585 22.6521C65.87 22.9388 65.8979 23.0868 66.1672 23.2533C66.4458 23.429 66.7523 23.5493 67.0588 23.6603C67.7833 23.91 68.517 24.1042 69.2879 24.1505C69.7523 24.1782 69.8266 24.169 70.0403 23.725C70.3468 23.0868 70.4489 22.5874 70.3282 21.8937C70.2167 21.2555 69.9381 20.6913 69.6409 20.1178C69.4273 19.7016 69.0929 19.1559 68.5821 19.1097C67.9598 19.0542 67.291 19.4797 66.8917 19.9144C66.7245 20.0993 66.613 20.3398 66.4366 20.5156C66.2694 20.6913 66.0372 20.7838 65.8793 20.978C65.4892 21.422 65.387 22.0324 64.9783 22.4764C64.6068 22.8833 64.096 23.1608 63.5666 23.2625C63.0093 23.3735 62.2756 23.3828 61.7833 23.0776C61.3003 22.7816 60.8917 22.2821 60.5573 21.8382C60.3344 21.533 60.13 21.2185 59.9257 20.9133C59.7957 20.7098 59.6749 20.4323 59.4242 20.3398C58.9969 20.1826 58.4304 20.5248 58.1053 20.756C57.0836 21.4867 56.5078 22.6706 56.0619 23.8082C55.7461 24.6129 55.2446 26.4072 54.065 26.2223C52.8762 26.0373 52.5047 24.5204 52.1703 23.5863C52.3653 23.5585 52.5882 23.5863 52.7369 23.4568C52.8762 23.3365 52.9505 23.0498 53.0248 22.8833C53.257 22.3654 53.3499 21.9029 53.2663 21.3387C53.1362 20.4786 52.6811 19.2577 51.9752 18.6935C51.2787 18.1385 50.2477 18.7675 49.7554 19.3317C49.6068 19.4982 49.5047 19.7109 49.3561 19.8681C49.2167 20.0254 49.0217 20.0993 48.8731 20.2473C48.5294 20.5895 48.3158 21.1167 48.0743 21.5237C47.6099 22.3099 47.1177 22.9573 46.3839 23.5123C45.6223 24.095 44.8235 24.6499 44.0155 25.1586C42.3808 26.1853 40.6718 27.1287 38.9257 27.9611C37.1331 28.812 35.3777 29.7369 33.548 30.5324C32.6471 30.9208 31.7276 31.2908 30.8173 31.6607C30.4458 31.818 29.74 31.9752 29.4427 32.2619C29.0991 32.5949 29.5542 32.5764 29.8607 32.5302C31.7461 32.2157 33.6223 31.707 35.4613 31.2075C36.353 30.9671 37.2539 30.7451 38.0898 30.3474C38.9629 29.9497 39.7802 29.441 40.6068 28.96ZM68.8607 22.1157C68.5821 22.1434 68.2291 21.9769 67.9691 21.8937C67.6718 21.7919 67.3096 21.7087 67.0495 21.5237C67.5604 20.7005 68.7864 21.274 68.8607 22.1157ZM51.0093 20.5341C51.4551 20.6728 51.6687 21.0613 51.7802 21.4867C51.1486 21.3572 50.5449 21.1537 49.9505 20.9225C50.1641 20.5248 50.5913 20.4046 51.0093 20.5341Z" fill="#EA0029"/>
<path d="M52.1796 5.23608C52.2353 5.91126 52.3375 6.5772 52.4303 7.25238C52.6532 8.80624 52.8854 10.3601 53.1455 11.9047C53.6749 15.0309 54.2786 18.2126 54.4737 21.385C54.5201 22.1342 54.548 22.8926 54.5387 23.6418C54.5387 23.8546 54.4179 24.317 54.5294 24.502C54.6687 24.724 54.7988 24.6222 54.9009 24.4465C55.5789 23.2256 55.4489 21.5608 55.4303 20.2104C55.3839 17.0842 54.7245 13.9487 54.195 10.8688C55.6997 9.90688 57.2879 9.01897 58.5789 7.77958C58.8576 7.51136 59.0898 7.0489 59.387 6.82693C59.6192 6.65119 59.7678 6.77143 60.0557 6.85467C60.4644 6.96566 60.7988 7.1229 61.0774 6.69744C61.2539 6.42921 61.3839 6.00376 61.3932 5.68928C61.4118 4.9771 60.5851 4.33891 60.1486 3.84871C59.7864 3.451 59.1176 2.73882 58.7368 3.50649C58.5511 3.88571 58.6161 4.28342 58.4675 4.65338C58.3282 5.00485 58.1517 5.26382 58.1238 5.66154C58.0681 6.35522 58.5604 6.32747 59.0619 6.60495C58.2724 7.32638 57.4644 8.01081 56.6099 8.649C56.1641 8.98197 55.709 9.30569 55.2539 9.63866C54.8916 9.90688 54.5201 10.2491 54.1114 10.4341C53.8607 8.86173 53.4241 7.24314 53.3777 5.64304C53.6192 5.80027 53.87 6.48471 54.1857 6.48471C54.548 6.48471 54.3715 6.013 54.2879 5.79102C54.0186 5.08809 53.6656 4.42216 53.4241 3.71922C53.2848 3.32151 53.1269 2.9423 52.9597 2.56308C52.8669 2.36885 52.8019 1.8694 52.6068 1.74916C52.3282 1.58268 52.3096 1.95264 52.2353 2.15612C52.1053 2.53533 51.9474 2.9423 51.8731 3.33076C51.7988 3.69147 51.9474 3.87646 52.0588 4.21868C52.1424 4.55164 52.1517 4.90311 52.1796 5.23608ZM60.1486 4.9956C60.4272 5.18983 60.7988 5.59679 60.8916 5.92976C60.5387 6.05925 60.2322 5.84652 59.9257 5.70778C60 5.4673 60.0743 5.23608 60.1486 4.9956ZM58.904 4.86611C59.1827 4.64413 59.4056 4.54239 59.6099 4.89386C59.7585 5.15284 59.8142 5.39331 59.7028 5.67079C59.2384 5.65229 58.226 5.40256 58.904 4.86611Z" fill="#EA0029"/>
<path d="M41.4799 4.20005C41.5542 4.39428 41.5542 4.61626 41.5728 4.81974C41.6192 5.2637 41.6564 5.70766 41.7399 6.14237C42.1393 8.26041 42.3715 10.4247 42.678 12.5613C42.9752 14.6701 43.4118 16.7973 43.5697 18.9154C43.644 19.942 43.7554 20.9502 43.7554 21.9769C43.7554 22.5226 43.7461 23.0683 43.6811 23.6047C43.6347 23.9562 43.3932 24.5481 43.6347 24.8718C44.1269 24.3724 44.4056 23.4937 44.5728 22.8185C44.7399 22.1248 44.7678 21.3664 44.7678 20.6542C44.7771 19.0171 44.5542 17.3893 44.3127 15.7707C43.8297 12.4965 43.2353 9.23157 42.8266 5.93888C43.0403 5.86489 43.3282 7.03028 43.709 6.83605C44.0805 6.65107 43.6533 5.76315 43.5697 5.52267C43.1796 4.40353 42.6873 3.33063 42.2136 2.24849C42.13 2.05425 42.0836 1.73978 41.805 1.87852C41.6563 1.95251 41.6471 2.1005 41.6006 2.24849C41.4799 2.6277 41.1548 3.27514 41.2105 3.6821C41.2384 3.89483 41.4056 4.00582 41.4799 4.20005Z" fill="#EA0029"/>
<path d="M22.7183 8.3068C23.1548 8.20506 23.6006 8.11257 24.0464 8.03858C24.8081 7.90909 25.5046 7.65011 26.1084 7.15991C26.7028 6.66971 27.2229 5.90203 27.5294 5.1991C27.6223 4.99562 27.7988 4.48691 27.5944 4.31118C27.4087 4.15395 26.6749 4.27418 26.452 4.27418C25.5511 4.26494 24.6594 4.27418 23.7585 4.24644C22.9133 4.21869 22.7833 4.79213 22.4582 5.47657C22.3932 5.61531 21.9752 6.31824 22.2724 6.29049C22.356 6.28124 22.4861 6.11476 22.5789 6.08701C22.7554 6.02227 22.9876 6.06851 23.1734 6.05926C24.065 6.05002 24.9567 6.05926 25.8483 6.05926C25.9783 6.2535 23.7399 7.15991 23.4985 7.2709C23.0712 7.46513 22.6347 7.65011 22.1981 7.8351C22.031 7.90909 21.1765 8.21431 21.5015 8.50103C21.7245 8.68601 22.4768 8.3623 22.7183 8.3068Z" fill="#EA0029"/>
<path d="M91.1796 10.1381C90.7895 10.8225 89.9536 11.4237 89.3127 11.8584C88.5975 12.3394 87.8266 12.7463 87.0464 13.1255C86.3127 13.4862 85.6161 13.9395 84.8916 14.3279C84.4644 14.5591 84.0464 14.7811 83.6192 15.0031C83.3313 15.1511 82.8576 15.2898 82.7183 15.6135C84.0557 15.4101 85.3189 14.6331 86.517 14.0134C87.678 13.403 88.9876 12.9775 89.9721 12.0711C90.4272 11.6549 90.9381 11.2017 91.2817 10.693C91.4303 10.4803 91.4768 10.2676 91.7554 10.4063C91.9226 10.4803 92.0991 10.7763 92.1269 10.9427C92.2012 11.4237 91.7276 12.1266 91.5232 12.5521C91.2724 13.0885 91.0124 13.6342 90.8545 14.2077C90.7059 14.7256 90.5201 15.5488 90.7337 16.076C90.9102 16.52 91.4025 16.7142 91.774 16.3812C92.0341 16.1592 92.6378 15.2713 92.452 14.9014C92.3034 14.6054 92.1734 14.8829 92.0619 15.0586C91.9412 15.2436 91.8019 15.4563 91.5604 15.4471C90.8823 15.4101 91.0774 14.4297 91.226 14.0504C91.4489 13.4862 91.7554 12.9498 91.9876 12.3856C92.2198 11.8214 92.5356 11.1277 92.5449 10.508C92.5542 9.92534 91.9412 9.83285 91.839 9.38889C91.7926 9.17616 91.904 8.90793 91.8762 8.67671C91.8483 8.41773 91.7554 8.14951 91.5789 7.94603C91.2446 7.55756 90.7709 7.76104 90.4551 8.08476C90.1858 8.36224 89.9071 8.99118 90.0186 9.38889C90.1486 9.8421 90.7895 9.99933 91.1796 10.1381ZM90.7245 8.57497C91.2074 8.28824 91.4582 8.96343 91.4768 9.35189C91.161 9.30565 90.0836 8.95418 90.7245 8.57497Z" fill="#EA0029"/>
<path d="M77.935 2.65565C78.5015 2.40592 79.1331 2.1377 79.6625 1.82323C79.9319 1.66599 80.322 0.842819 79.7647 1.03705C79.1703 1.24978 78.5666 1.66599 78 1.94346C77.4334 2.22094 76.8576 2.48916 76.3003 2.78513C73.8854 4.03376 71.452 5.25465 69.0464 6.52178C67.9133 7.12297 66.808 7.77041 65.7214 8.44559C65.0898 8.83406 64.4582 9.23177 63.8452 9.65723C63.6409 9.79596 63.2601 9.9902 63.13 10.1844C63 10.3879 63.0464 10.7486 63.0279 10.9891C65.5542 9.34276 68.0526 7.71491 70.7461 6.33679C73.1331 5.11591 75.483 3.75629 77.935 2.65565Z" fill="#EA0029"/>
<path d="M31.1703 5.38414C31.4861 5.70786 32.7121 6.24431 32.5728 6.73451C32.4706 7.12298 32.0805 7.43745 31.9969 7.83516C31.9319 8.14963 32.1176 8.20512 32.3777 8.39011C32.7306 8.63983 33.0743 8.90806 33.418 9.16703C33.6873 9.37051 33.9102 9.69423 34.1981 9.39826C34.4396 9.14853 34.5882 8.73232 34.7276 8.41785C34.9226 7.9739 34.9598 7.86291 34.5697 7.57618C34.226 7.32646 33.8824 7.07673 33.5387 6.81776C33.3344 6.66977 33.2043 6.61428 33.2136 6.3738C33.2136 6.06858 33.5758 5.56913 33.6873 5.2824C33.7523 5.10667 33.9195 4.8107 33.8266 4.61647C33.7152 4.39449 33.2601 4.19101 33.065 4.06152C32.6935 3.82104 32.3127 3.58056 31.9412 3.34009C31.6904 3.66381 31.5232 4.05227 31.3282 4.42223C31.2353 4.60722 31.0588 4.8292 31.0217 5.03268C30.9752 5.27315 31.0124 5.22691 31.1703 5.38414Z" fill="#EA0029"/>
<path d="M83.3963 10.1011C84.3251 9.50915 83.7028 8.26052 82.7462 8.20503C82.2353 8.17728 81.7338 8.4455 81.2415 8.56574C80.9443 8.63974 79.8576 9.00045 79.644 8.70448C80.0712 8.37151 80.5171 7.90906 81.0743 7.79807C81.3251 7.74257 81.2879 7.79807 81.483 7.88131C81.5945 7.92755 81.5109 8.00155 81.6223 7.9738C81.678 7.96455 81.7709 7.75182 81.7802 7.72407C81.9567 7.36336 81.901 6.9564 81.3994 6.9194C80.9629 6.8824 80.4613 7.28012 80.1455 7.52984C79.6997 7.88131 79.2539 8.27902 79.161 8.86171C79.0681 9.44441 79.3932 9.62939 79.9598 9.56465C80.5728 9.49065 81.1951 9.33342 81.7895 9.16693C82.3468 9.0097 82.8205 8.86171 83.192 9.41666C81.353 10.0918 79.1889 10.878 77.2106 10.6375C76.8483 11.0353 78.0836 11.3127 78.3251 11.322C78.8917 11.3497 79.4768 11.2387 80.0341 11.1185C80.6099 10.989 81.1858 10.8133 81.7523 10.6375C82.2632 10.4803 82.9598 10.3786 83.3963 10.1011Z" fill="#EA0029"/>
<path d="M29.7121 28.3682C29.6006 28.1277 29.0248 27.8688 28.8204 27.7393C28.5882 27.5913 28.0774 27.1381 27.7988 27.1288C27.5108 27.1103 27.3251 27.4895 27.2136 27.6838C27.1022 27.8873 26.8793 28.5717 26.6563 28.6364C26.4427 28.7012 25.969 28.285 25.8019 28.1925C25.5975 28.0722 24.9009 27.6098 24.743 27.7208C24.5387 27.8595 24.3808 28.4237 24.2415 28.6457C24.1579 28.7844 24.065 28.9232 24 29.0711C23.9164 29.2561 23.8514 29.3116 23.9814 29.4596C24.1672 29.6631 24.613 29.7926 24.8545 29.9313C25.1053 30.0793 25.5232 30.4308 25.8111 30.477C26.3034 30.551 26.6842 29.3394 26.87 28.9787C27.2322 29.0249 27.6409 29.3301 27.9381 29.5243C28.0681 29.6076 28.7183 30.1625 28.8483 30.1348C29.0712 30.0885 29.322 29.3949 29.4149 29.2099C29.5077 29.0156 29.8142 28.5717 29.7121 28.3682Z" fill="#EA0029"/>
<path d="M18.1858 24.4928C18.1579 24.4743 17.8514 24.2708 17.7957 24.2708C17.4427 24.2615 17.0341 25.7692 16.9226 26.0374C16.5232 25.8709 16.1238 25.6952 15.7245 25.5287C15.5666 25.4639 15.3715 25.3344 15.2043 25.3067C14.9814 25.2697 15.0743 25.2235 14.9257 25.4177C14.7214 25.6859 14.6192 26.1484 14.4892 26.4721C14.3963 26.7033 14.2291 26.9253 14.4056 27.1195C14.582 27.3138 15.1393 27.434 15.3808 27.5357C15.6316 27.6375 16.2724 28.0167 16.4861 27.9334C16.6718 27.8595 16.8019 27.36 16.8669 27.1935C17.0155 26.8605 17.1362 26.5368 17.2663 26.1946C17.6378 26.3888 18.0186 26.5923 18.3901 26.7866C18.548 26.8698 18.7152 26.99 18.8824 27.0455C19.1146 27.1195 19.0867 27.1288 19.226 26.9068C19.4489 26.5646 20.0248 25.6582 19.709 25.2789C19.5139 25.0477 18.9752 24.872 18.6966 24.7425C18.5387 24.6593 18.3622 24.576 18.1858 24.4928Z" fill="#EA0029"/>
<path d="M60.2787 12.9406C60.1208 12.9684 59.8886 13.6713 59.8143 13.8285C59.7028 14.0598 59.6192 14.4205 59.322 14.476C58.9876 14.291 57.5759 13.2921 57.3251 13.4956C57.1393 13.6435 56.9907 14.2355 56.8978 14.4575C56.8328 14.6147 56.5913 14.9847 56.6378 15.1789C56.6842 15.3731 57.3158 15.5859 57.483 15.6876C57.7895 15.8633 58.1703 16.1963 58.514 16.2888C58.7369 16.3535 58.7183 16.4183 58.8762 16.1686C58.9598 16.0391 59.0062 15.9003 59.0619 15.7616C59.2013 15.4286 59.3499 15.0957 59.4985 14.7627C59.87 15.0032 60.2322 15.2436 60.6037 15.4841C60.8266 15.6321 61.2632 16.0483 61.4768 15.9003C61.6904 15.7431 61.8297 15.1789 61.9505 14.9569C62.1177 14.6425 62.322 14.4112 62.0619 14.1245C61.839 13.8655 61.4861 13.6713 61.1982 13.4863C61.031 13.3568 60.4737 12.9036 60.2787 12.9406Z" fill="#EA0029"/>
<path d="M1.53249 15.817C2.21051 16.3349 2.80494 15.3823 2.99999 14.8366C3.07429 14.6146 3.34364 13.9394 3.19503 13.7267C2.95355 13.403 2.76779 13.9487 2.63776 14.1151C2.3777 14.4574 2.11763 14.4389 1.9133 14.0597C1.70897 13.6804 1.81113 13.2272 1.92259 12.8388C2.17336 11.9971 2.54488 11.2202 2.87924 10.4155C3.04643 10.0178 3.19503 9.62007 3.32506 9.21311C3.40866 8.96339 3.62228 8.61192 3.26005 8.56567C2.50773 10.1565 1.56036 11.7751 1.1424 13.4955C0.956643 14.2354 0.826612 15.2713 1.53249 15.817Z" fill="#EA0029"/>
<path d="M66.5201 12.0433C66.7245 11.8768 66.9567 11.7381 67.2075 11.6549C67.6811 11.4976 68.2384 11.6086 68.2291 10.9334C68.2291 10.5172 67.6626 10.1195 67.3003 9.96227C66.6966 9.69404 66.2136 10.1103 66.2136 10.7577C66.2136 11.0259 66.2508 11.0629 66.4644 10.8964C66.7059 10.7207 66.8452 10.5542 67.1239 10.8317C66.6409 11.1184 66.13 11.4051 65.935 11.9878C65.7214 12.6353 66.0186 13.1625 66.2601 13.7544C66.5387 14.4481 66.8081 15.1418 66.9753 15.8632C67.1331 16.5384 67.0774 17.0933 67.0124 17.7778C67.5418 17.6575 67.4582 16.7326 67.4582 16.3349C67.4582 15.669 67.3746 15.0585 67.1796 14.4203C66.9845 13.7914 66.6966 13.1995 66.4273 12.6075C66.2879 12.33 66.2601 12.256 66.5201 12.0433Z" fill="#EA0029"/>
<path d="M45.7338 18.0276C45.9938 17.9258 46.3282 17.4911 46.579 17.3154C46.8576 17.1212 47.1455 16.9454 47.4427 16.7697C48.0743 16.409 48.7152 16.0483 49.3561 15.6968C50.0619 15.3176 50.7585 14.9384 51.4644 14.5777C51.7709 14.4204 52.226 14.2724 52.4489 13.995C52.5511 13.8747 52.7647 13.44 52.6254 13.3198C52.4211 13.144 50.935 14.1152 50.6842 14.2447C49.9969 14.6054 49.3096 14.9661 48.6223 15.3361C47.9536 15.6968 47.322 16.1038 46.6718 16.5015C46.1146 16.8622 45.5759 17.2784 45.7338 18.0276Z" fill="#EA0029"/>
<path d="M50.4892 9.28714C50.2013 9.90683 50.74 10.6098 51.0465 11.0907C50.517 11.4144 50.1734 11.0352 50.0155 10.5358C49.9412 10.286 49.7461 9.32413 49.4025 9.33338C49.3282 9.90683 49.4489 10.2305 49.5883 10.7762C49.6997 11.1925 49.6626 11.5902 49.1796 11.7382C48.2508 12.0156 48.6966 10.212 48.2415 9.90683C47.9907 9.73109 47.9907 9.91608 47.9721 10.1288C47.9629 10.249 47.9257 10.4433 47.9536 10.5543C47.9907 10.6838 48.0372 10.619 48.1022 10.73C48.3251 11.1 48.2508 11.6272 48.4087 12.0341C48.548 12.4133 48.8917 12.6908 49.3003 12.5243C49.774 12.3393 49.6718 11.8954 49.9969 11.6179C50.2848 12.0156 50.7585 12.3578 51.2322 11.9601C51.4458 11.7844 51.5201 11.4514 51.5573 11.1925C51.6037 10.8317 51.4644 10.6283 51.2694 10.3323C51.0929 10.0548 50.8978 9.78659 50.7771 9.48137C50.7028 9.25939 50.6471 8.95417 50.4892 9.28714Z" fill="#EA0029"/>
<path d="M91.4768 26.7681C90.7709 27.2398 90.0186 27.5265 89.2013 27.7485C88.9784 27.8132 88.4397 28.0075 88.3375 27.7115C88.2632 27.5173 88.709 27.0086 88.8205 26.8236C89.0434 26.4536 89.6564 25.5195 89.2013 25.1958C88.8948 24.9738 88.3932 24.9923 88.0496 25.1218C87.6873 25.2605 87.6223 25.6212 87.6223 25.9819C87.9938 25.9079 88.6161 25.6767 88.9226 26.0097C88.5325 26.6294 87.9938 27.2953 87.9195 28.0537C87.901 28.2387 87.9102 28.3774 87.9753 28.4884C88.1332 28.8954 88.8019 28.8122 89.3313 28.6179C89.3777 28.6087 89.4242 28.5902 89.4613 28.5717H89.4706C89.7957 28.4884 90.2415 28.174 90.5201 27.9982C90.8081 27.8132 91.1239 27.6375 91.3839 27.4155C91.5232 27.2953 92.127 26.8051 92.1362 26.5924C92.1548 26.1577 91.579 26.7034 91.4768 26.7681Z" fill="#EA0029"/>
<path d="M26.0062 10.5173C25.7369 10.73 25.8112 11.4884 26.0898 11.6364C26.2848 11.7382 26.6749 11.8677 26.9071 11.8861C26.9629 11.8861 27.0929 11.7937 27.1115 11.7937C27.2043 11.8214 27.2879 11.9601 27.3437 12.0249C27.5201 12.2191 27.678 12.4503 27.8173 12.6723C27.9288 12.8573 28.0217 13.1995 28.1703 13.3475C28.6068 13.7822 28.5697 12.5151 28.5882 12.2654C28.6254 11.6919 28.579 10.9982 28.8112 10.4618C29.0712 9.86059 29.4613 10.2768 29.7678 10.619C30.3622 9.86059 29.2756 8.72295 28.6997 9.58312C28.4304 9.99008 28.4025 10.5543 28.356 11.0167C28.3375 11.2017 28.3746 12.2284 28.2353 12.2654C27.9845 11.8122 27.7338 11.359 27.3622 10.989C27.1022 10.7578 26.4056 10.2028 26.0062 10.5173Z" fill="#EA0029"/>
<path d="M49.1053 4.41287C49.4582 4.23713 49.8204 4.07065 50.1734 3.90417C50.517 3.73768 50.5635 3.54345 50.7307 3.18274C50.4706 2.91451 49.7554 3.43246 49.4861 3.5527C48.9938 3.77468 48.3529 3.48796 47.9071 3.21973C48.0186 3.07175 48.4365 2.72953 48.6502 2.75728C48.8545 2.78502 48.7802 2.95151 48.9102 3.0625C49.1238 3.24748 49.226 2.94226 49.3003 2.72953C49.3932 2.44281 49.3468 2.06359 49.0031 1.96185C48.5016 1.82312 47.7864 2.5538 47.5728 2.95151C47.452 3.17349 47.322 3.5157 47.3963 3.76543C47.4706 4.03365 47.7678 4.12614 47.9907 4.23713C47.4149 4.5886 46.9319 4.77358 46.9969 5.55976C47.7121 5.26379 48.3994 4.77358 49.1053 4.41287Z" fill="#EA0029"/>
<path d="M13.3468 8.08473C13.6161 8.17722 13.6904 8.26046 13.8483 8.02924C14.2291 8.44545 14.5356 8.88015 14.8142 9.37036C14.87 9.46285 15.0186 9.77732 15.1672 9.74032C15.2972 9.70333 15.3158 9.16688 15.3251 9.10213C15.3622 8.66742 14.9257 6.58637 15.5759 6.59562C15.7523 6.59562 16.0402 6.90084 16.1424 6.86385C16.291 6.8176 16.2724 6.50313 16.2724 6.38289C16.2724 6.08692 16.226 6.01293 15.9659 5.89269C15.7802 5.80945 15.5294 5.65221 15.3344 5.77245C15.0093 5.96668 14.9814 6.8176 14.9814 7.12282C14.9721 7.63152 15.0464 8.14947 15.0836 8.65818C14.9907 8.68592 14.452 7.69627 14.3313 7.54828C14.0248 7.16907 13.6254 6.91009 13.161 6.77136C13.0588 6.74361 12.9195 6.66962 12.8081 6.69736C12.613 6.74361 12.6687 6.78061 12.6502 6.99334C12.6316 7.22456 12.548 7.57603 12.6873 7.77951C12.8173 7.98299 13.1331 8.01999 13.3468 8.08473Z" fill="#EA0029"/>
<path d="M65.1177 4.00599C65.192 4.02448 65.4706 4.15397 65.5263 4.13548C65.5635 4.11698 65.6192 3.9135 65.6378 3.86725C65.9443 4.15397 66.2229 4.4222 66.4551 4.77366C66.5759 4.96789 66.7523 5.62458 66.9938 5.68008C67.2167 5.4211 67.1796 5.00489 67.1889 4.69042C67.2074 4.31121 67.2167 3.92274 67.226 3.54353C67.2353 3.27531 67.2446 2.8221 67.5789 2.72961C67.8204 2.66486 68.0155 2.92384 68.2291 2.99783C68.2663 2.62787 68.4056 2.2579 68.0712 2.00818C67.8297 1.82319 67.5232 1.79545 67.3096 2.02668C66.7245 2.64637 67.1424 3.76551 66.8916 4.48694C66.5015 3.76551 65.8793 2.76661 64.9598 2.68336C64.6161 2.65562 64.5697 2.79435 64.5232 3.10882C64.5046 3.27531 64.4582 3.63602 64.5697 3.78401C64.6811 3.93199 64.9505 3.95049 65.1177 4.00599Z" fill="#EA0029"/>
<path d="M69.9567 15.1975C69.743 14.9755 69.1486 14.513 68.8235 14.6425C68.5078 14.772 68.5263 15.4934 68.7307 15.7339C68.8514 15.8726 69.1672 15.9744 69.3344 16.0299C69.3994 16.0576 69.4551 16.0854 69.5201 16.1039C69.5387 16.0761 69.5666 16.0484 69.5852 16.0299C69.6873 16.0391 69.6037 15.9466 69.7616 16.0206C70.1239 16.1779 70.3096 16.9363 70.4768 17.26C70.8019 17.8705 70.8855 17.112 70.9319 16.7698C70.9969 16.2889 70.8948 15.7062 71.1548 15.2715C71.4056 14.846 71.7492 14.9847 71.9443 15.3732C72.1115 15.1327 72.2786 14.698 72.1022 14.4205C71.9257 14.1338 71.517 14.0598 71.257 14.2263C70.6068 14.6425 70.7926 15.7432 70.6533 16.3813C70.4489 15.9744 70.2725 15.5212 69.9567 15.1975Z" fill="#EA0029"/>
<path d="M4.90401 22.0417C5.18265 21.903 5.44271 21.718 5.57274 21.4313C5.70278 21.1538 5.81423 20.6174 5.61918 20.3399C5.40556 20.0254 4.93188 19.9884 4.64395 19.7942C4.40247 19.637 4.45819 19.674 4.47677 19.3687C4.49534 19.1005 4.56965 19.0265 4.29101 18.9988C3.93807 19.8127 3.62228 20.4879 3.64086 21.3943C3.65014 22.2175 4.22599 22.384 4.90401 22.0417ZM4.12383 20.4879C4.43033 20.6081 4.74612 20.7376 5.05262 20.8579C4.84829 21.0243 4.44891 21.3388 4.16098 21.2278C3.80804 21.0983 4.03095 20.7191 4.12383 20.4879Z" fill="#EA0029"/>
<path d="M33.7895 26.3056C33.9288 26.0559 34.4954 25.3067 33.9938 25.2512C33.3994 26.2594 32.5263 27.1473 32.387 28.3682C32.3406 28.7844 32.4149 29.5613 32.935 29.6908C33.3994 29.811 33.7523 29.1913 33.9102 28.8584C33.9845 28.7104 34.2074 28.3127 34.1517 28.1369C34.0402 27.7392 33.8638 28.2202 33.7616 28.3867C33.3901 29.0064 32.9628 28.4884 32.9907 27.9335C33.0186 27.3878 33.5294 26.7773 33.7895 26.3056Z" fill="#EA0029"/>
<path d="M79.1053 25.7784C78.8916 25.5287 78.4458 25.02 78.0836 25.0755C78.0279 25.2605 77.8514 25.6212 77.8978 25.8062C77.935 26.0004 78.1858 26.1021 78.3158 26.2131C78.6595 26.4906 78.9381 26.8236 79.0867 27.2305C79.2632 27.7207 79.291 28.2664 79.2167 28.7751C79.161 29.2006 78.9009 29.663 78.9845 30.0978C79.3003 29.6908 79.4675 29.1266 79.5511 28.6179C79.6347 28.1369 79.774 27.7022 79.7276 27.212C79.6811 26.6848 79.4582 26.1854 79.1053 25.7784Z" fill="#EA0029"/>
<path d="M26.2012 16.0944C26.2756 15.8817 26.6935 14.966 26.3034 14.9475C26.0619 15.521 25.8576 16.1129 25.6533 16.7048C25.4768 17.2135 25.2632 17.7592 25.3189 18.3142C25.356 18.6472 25.579 19.2484 26.0248 19.2021C26.4985 19.1559 26.6749 18.3974 26.7307 18.0367C26.7399 17.9812 26.805 17.528 26.5542 17.6575C26.4056 17.7315 26.4613 18.1847 26.2941 18.2957C25.8947 18.5639 25.709 17.8147 25.7276 17.5558C25.7647 17.0378 26.0434 16.5661 26.2012 16.0944Z" fill="#EA0029"/>
<path d="M5.25698 28.7749C5.34057 28.5252 5.83283 27.4431 5.37772 27.4246C5.0898 28.0997 4.8576 28.8027 4.61611 29.4964C4.41178 30.0976 4.161 30.745 4.22602 31.3832C4.26317 31.7809 4.53252 32.4838 5.05264 32.4283C5.60992 32.3728 5.82354 31.4849 5.88856 31.0502C5.89785 30.9855 5.97215 30.449 5.67494 30.6063C5.50775 30.6987 5.56348 31.2259 5.36843 31.3554C4.90404 31.6699 4.68113 30.7912 4.6997 30.486C4.73686 29.8848 5.06193 29.3391 5.25698 28.7749Z" fill="#EA0029"/>
<path d="M40.4489 13.6621C40.8762 13.7823 41.1362 13.1627 41.2291 12.8297C41.257 12.7279 41.3406 12.4227 41.2384 12.3395C41.0526 12.1822 40.9969 12.6447 40.904 12.7372C40.5232 13.1072 40.3653 12.4042 40.3746 12.1175C40.3932 11.5811 40.6904 10.9984 40.8762 10.5082C40.9783 10.2399 41.3591 9.60174 40.9319 9.5C40.5697 10.4619 40.0402 11.4978 39.9567 12.543C39.9288 12.9222 39.9938 13.5234 40.4489 13.6621Z" fill="#EA0029"/>
<path d="M46.3746 8.95413C46.2817 9.23161 46.0774 9.96229 45.743 9.37959C45.5294 9.00963 45.7709 8.45468 45.8731 8.08472C45.9659 7.7425 46.3467 7.01182 46.226 6.66035C46.0495 6.15165 45.7988 7.2523 45.7523 7.40953C45.5201 8.12171 44.8235 9.62007 45.4923 10.2768C46.3282 11.0814 46.8111 8.99113 46.3746 8.95413Z" fill="#EA0029"/>
<path d="M10.4396 27.027C10.1238 26.8328 9.82662 26.9252 9.63157 27.2212C9.47367 27.4432 9.16717 27.9519 9.30649 28.2201C9.48296 28.1554 9.77089 27.8039 9.9938 27.9519C10.2353 28.1184 9.9938 28.5716 9.88234 28.7658C9.79875 28.9138 9.2972 29.441 9.55727 29.5427C9.79875 29.6352 10.2167 29.0063 10.3282 28.8491C10.6625 28.4051 11.0526 27.4154 10.4396 27.027Z" fill="#EA0029"/>
<path d="M80.7028 12.4966C80.4613 13.144 80.1919 13.7822 79.9783 14.4296C79.8204 14.9014 79.6811 15.484 79.8854 15.965C80.0433 16.335 80.4799 16.7049 80.8235 16.3257C80.9628 16.1685 81.3808 15.0771 80.9907 15.0493C80.8978 15.3268 80.7678 15.8448 80.4056 15.4933C80.1269 15.2251 80.1641 14.8274 80.2662 14.4944C80.3777 14.1244 81.1672 12.7278 80.7028 12.4966Z" fill="#EA0029"/>
<path d="M68.2291 25.3898C68.3034 25.2418 68.4427 25.0198 68.4799 24.8626C68.5356 24.6406 68.582 24.6961 68.3498 24.5574C67.9412 25.3528 67.0774 26.5274 67.3839 27.4801C67.5232 27.9148 67.9505 28.1275 68.2848 27.7483C68.4334 27.5726 68.517 27.3229 68.6006 27.1101C68.6935 26.8512 68.8328 26.6754 68.5542 26.5459C68.4799 26.7309 68.387 27.2026 68.0898 27.1379C67.7926 27.0824 67.7183 26.5367 67.7833 26.3147C67.8762 25.991 68.0898 25.6858 68.2291 25.3898Z" fill="#EA0029"/>
<path d="M12.0743 18.12C12.0279 18.0368 11.9535 17.9998 11.935 17.9905C11.6006 17.8055 10.1888 16.8066 9.93807 17.0101C9.75231 17.1581 9.6037 17.75 9.51082 17.972C9.44581 18.1293 9.20432 18.4992 9.25076 18.6934C9.2972 18.8877 9.92878 19.1004 10.096 19.2022C10.4025 19.3779 10.7833 19.7109 11.1269 19.8033C11.3498 19.8681 11.3313 19.9328 11.4892 19.6831C11.5727 19.5536 11.6192 19.4149 11.6749 19.2761C11.8142 18.9432 11.9628 18.6102 12.1114 18.2772C12.1114 18.2402 12.1114 18.1847 12.0743 18.12Z" fill="#EA0029"/>
<path d="M3.12074 42.2602C3.12074 42.4729 3.13003 42.5654 3.22291 42.5932C3.24149 42.6117 3.24148 42.6949 3.20433 42.7134C3.12074 42.7319 2.99071 42.7412 2.85139 42.7874C2.67492 42.8429 2.24768 42.9077 1.96904 42.9077C1.62539 42.9077 1.33746 42.8707 0.98452 42.7319C0.39938 42.5007 0 41.9457 0 41.2243C0 40.6046 0.278637 40.0589 0.882352 39.7167C1.22601 39.5317 1.62539 39.4485 2.05263 39.4485C2.60991 39.4485 2.87926 39.5687 3.04644 39.5687C3.06501 39.7167 3.06501 40.0682 3.12074 40.3734C3.10217 40.4289 2.96285 40.4289 2.93498 40.3826C2.77709 39.9109 2.4613 39.6797 1.9969 39.6797C1.19814 39.6797 0.817337 40.3364 0.817337 41.1226C0.817337 41.8348 1.05882 42.2602 1.3839 42.4729C1.62539 42.6302 1.88545 42.6579 2.07121 42.6579C2.35913 42.6579 2.41486 42.6024 2.41486 42.2787V41.9642C2.41486 41.696 2.387 41.6683 2.14551 41.6313L1.9226 41.6035C1.86687 41.5758 1.86687 41.4555 1.9226 41.4278C2.27554 41.437 2.52632 41.4463 2.7678 41.4463C3.00929 41.4463 3.25077 41.437 3.41796 41.4278C3.45511 41.4555 3.45511 41.5758 3.41796 41.6035L3.3065 41.622C3.15789 41.6498 3.13003 41.696 3.13003 41.9642V42.2602H3.12074Z" fill="#222222"/>
<path d="M7.69968 41.169C7.69968 42.2511 6.96593 42.9078 5.89782 42.9078C4.89473 42.9078 4.16098 42.2511 4.16098 41.2152C4.16098 40.2256 4.90401 39.4671 5.94426 39.4671C6.9938 39.4579 7.69968 40.1608 7.69968 41.169ZM5.90711 39.6891C5.29411 39.6891 4.95974 40.2626 4.95974 41.095C4.95974 41.7054 5.17336 42.6766 5.9907 42.6766C6.64086 42.6766 6.90092 42.0384 6.90092 41.2337C6.90092 40.3828 6.5294 39.6891 5.90711 39.6891Z" fill="#222222"/>
<path d="M10.5418 41.5943C10.291 42.1955 10.161 42.5932 10.0402 42.8707C10.0031 42.8984 9.93807 42.9077 9.86377 42.9077C9.80804 42.9077 9.7616 42.8892 9.72445 42.8707C9.66872 42.7319 9.58513 42.473 9.51083 42.3065L8.70278 40.2809C8.51702 39.8 8.48916 39.7907 8.33126 39.7537L8.12693 39.7075C8.08978 39.652 8.09906 39.5595 8.1455 39.541C8.39628 39.5502 8.56346 39.5595 8.82352 39.5595C9.05572 39.5595 9.26934 39.5502 9.57584 39.541C9.613 39.5687 9.613 39.6612 9.58513 39.7075L9.43653 39.7352C9.34365 39.7537 9.31578 39.7815 9.31578 39.8277C9.31578 39.8647 9.39937 40.0774 9.52012 40.3734L9.95665 41.4926L10.1238 41.9088C10.161 41.8255 10.2446 41.659 10.3003 41.5018L10.4861 41.0301C10.6068 40.7156 10.8297 40.1607 10.8854 39.9942C10.9226 39.9017 10.9319 39.8462 10.9319 39.8185C10.9319 39.7815 10.8947 39.763 10.774 39.7352L10.6161 39.6982C10.5789 39.6612 10.5789 39.5502 10.6347 39.5317C10.8669 39.541 11.0619 39.5502 11.2477 39.5502C11.4149 39.5502 11.5635 39.541 11.7121 39.5317C11.7492 39.5502 11.7585 39.6705 11.7214 39.6982L11.5913 39.726C11.452 39.7537 11.3684 39.7815 11.3034 39.8925C11.1919 40.0589 11.0712 40.3364 10.8947 40.7341L10.5418 41.5943Z" fill="#222222"/>
<path d="M13.2632 40.8359C13.2632 40.9746 13.2724 40.9839 13.4025 40.9839H13.7461C14.0062 40.9839 14.0619 40.9469 14.1176 40.7064L14.1455 40.5862C14.1827 40.5492 14.3034 40.5492 14.3313 40.5954C14.322 40.7526 14.3127 40.9376 14.3127 41.1226C14.3127 41.3076 14.322 41.4926 14.3313 41.6498C14.3034 41.6961 14.1827 41.6961 14.1455 41.6591L14.1176 41.5388C14.0712 41.2983 14.0062 41.2614 13.7461 41.2614H13.4025C13.2632 41.2614 13.2632 41.2706 13.2632 41.4186V42.0105C13.2632 42.2418 13.2817 42.399 13.3467 42.4822C13.4118 42.5747 13.5046 42.6117 13.8669 42.6117C14.3034 42.6117 14.4706 42.5932 14.7492 42.0383C14.7864 41.9828 14.9164 42.0013 14.935 42.066C14.9164 42.325 14.7957 42.732 14.7214 42.8614C14.452 42.8522 13.9783 42.843 13.5697 42.843H12.9195C12.678 42.843 12.4365 42.8522 12.0557 42.8614C12.0186 42.8337 12.0186 42.7135 12.0557 42.6857L12.2879 42.6487C12.5108 42.6117 12.5387 42.584 12.5387 42.1308V40.2717C12.5387 39.8185 12.5108 39.7907 12.2879 39.7445L12.1672 39.7168C12.1207 39.689 12.13 39.5688 12.1765 39.541C12.4087 39.5503 12.6594 39.5595 12.8916 39.5595H13.9505C14.2663 39.5595 14.5542 39.5503 14.6192 39.541C14.6285 39.6243 14.6563 39.9757 14.6842 40.3087C14.6656 40.3642 14.5449 40.3734 14.4984 40.3272C14.4427 40.1515 14.3777 40.0035 14.3127 39.9295C14.2198 39.837 14.0712 39.7722 13.8204 39.7722H13.4211C13.2539 39.7722 13.2539 39.7815 13.2539 39.9665V40.8359H13.2632Z" fill="#222222"/>
<path d="M16.0031 40.3456C16.0031 39.8462 15.9938 39.7907 15.7802 39.7629L15.6409 39.7444C15.5944 39.7167 15.5944 39.5965 15.6501 39.5687C16.0217 39.541 16.4118 39.5225 16.8854 39.5225C17.3127 39.5225 17.6749 39.5872 17.8607 39.6982C18.1486 39.8647 18.2972 40.1144 18.2972 40.4381C18.2972 40.8821 18 41.0671 17.7678 41.1873C17.7213 41.2151 17.7213 41.2428 17.7399 41.2983C18.0743 41.9642 18.2786 42.3342 18.5108 42.5469C18.6409 42.6487 18.7709 42.6857 18.8452 42.6857C18.8916 42.7134 18.8916 42.7874 18.8638 42.8151C18.7802 42.8521 18.6223 42.8614 18.4644 42.8614C18.0093 42.8614 17.7121 42.6949 17.4984 42.3434C17.3405 42.0752 17.2198 41.8347 17.1083 41.5758C17.0526 41.437 16.969 41.4 16.839 41.4C16.6625 41.4 16.6532 41.4093 16.6532 41.511V42.1215C16.6532 42.5839 16.6811 42.6117 16.904 42.6579L17.0433 42.6857C17.0805 42.7134 17.0805 42.8336 17.0433 42.8614C16.774 42.8521 16.5511 42.8429 16.3096 42.8429C16.0588 42.8429 15.8359 42.8521 15.5758 42.8614C15.5387 42.8336 15.5387 42.7134 15.5758 42.6857L15.7152 42.6579C15.9381 42.6209 15.9659 42.5839 15.9659 42.1215V40.3456H16.0031ZM16.6811 40.9746C16.6811 41.1503 16.6997 41.1596 16.9876 41.1596C17.1641 41.1596 17.2755 41.1133 17.3684 41.0208C17.452 40.9376 17.5449 40.7803 17.5449 40.4844C17.5449 40.0404 17.2755 39.7444 16.8947 39.7444C16.6904 39.7444 16.6811 39.7629 16.6811 39.9942V40.9746Z" fill="#222222"/>
<path d="M22.4953 41.9827C22.4953 42.3064 22.4953 42.6209 22.5046 42.7874C22.4675 42.8429 22.3282 42.8984 22.2074 42.8984C22.1981 42.8984 22.0402 42.6487 21.7987 42.3527L20.647 40.9283C20.3591 40.5769 20.1919 40.3641 20.0991 40.2901C20.0712 40.3364 20.0712 40.4289 20.0712 40.6046V41.5665C20.0712 41.9735 20.0898 42.3434 20.1455 42.4729C20.1919 42.5747 20.3034 42.6117 20.4334 42.6302L20.5727 42.6487C20.6099 42.6857 20.6006 42.7966 20.5727 42.8244C20.3034 42.8151 20.0991 42.8059 19.904 42.8059C19.7183 42.8059 19.5325 42.8151 19.3467 42.8244C19.3189 42.7966 19.3096 42.6857 19.3467 42.6487L19.4303 42.6302C19.5696 42.6024 19.6625 42.5747 19.709 42.4637C19.7647 42.3249 19.7833 41.955 19.7833 41.5573V40.2901C19.7833 40.0127 19.774 39.9387 19.7461 39.8647C19.709 39.7814 19.6347 39.7167 19.4582 39.6982H19.3282C19.291 39.6612 19.3003 39.541 19.3467 39.5225C19.5789 39.5317 19.8297 39.541 20.034 39.541C20.2012 39.541 20.3498 39.5317 20.452 39.5225C20.4984 39.7444 20.8235 40.1237 21.2786 40.6601L21.6966 41.1503C21.9195 41.4093 22.0588 41.585 22.1796 41.696C22.1981 41.6498 22.1981 41.5573 22.1981 41.474V40.7896C22.1981 40.3826 22.1796 40.0127 22.1238 39.8832C22.0774 39.7814 21.9659 39.7444 21.8359 39.7259L21.6966 39.7074C21.6594 39.6704 21.6687 39.5595 21.6966 39.5317C21.9659 39.541 22.161 39.5502 22.3653 39.5502C22.5511 39.5502 22.7275 39.541 22.9226 39.5317C22.9505 39.5595 22.9597 39.6704 22.9226 39.7074L22.8297 39.7259C22.6997 39.7444 22.6068 39.7814 22.5604 39.8924C22.5046 40.0312 22.4861 40.4011 22.4861 40.7988V41.9827H22.4953Z" fill="#222222"/>
<path d="M23.6378 39.6982C23.6006 39.6612 23.6006 39.541 23.6563 39.5225C23.8235 39.5317 24.0371 39.541 24.2879 39.541C24.4551 39.541 24.5944 39.541 24.7802 39.5225C24.7802 39.8277 24.9566 40.1329 25.1796 40.6046L25.5139 41.3075C25.5604 41.4093 25.7368 41.7238 25.8111 41.844C25.8762 41.7238 25.9597 41.5665 26.0898 41.2798L26.3405 40.7341C26.582 40.2254 26.7028 39.9572 26.8142 39.5317C27.0464 39.5502 27.1579 39.5502 27.3065 39.5502C27.4737 39.5502 27.7059 39.541 27.8823 39.5317C27.9381 39.5595 27.9381 39.6519 27.9009 39.7074L27.7523 39.7352C27.548 39.7722 27.4458 39.8277 27.4458 40.0959C27.4458 41.1226 27.4551 41.659 27.483 42.2879C27.4922 42.5192 27.5108 42.6394 27.7059 42.6579L27.8638 42.6764C27.9009 42.7134 27.9009 42.8336 27.8545 42.8521C27.6223 42.8429 27.4087 42.8336 27.1672 42.8336C26.9443 42.8336 26.6656 42.8429 26.4241 42.8521C26.3684 42.8244 26.3591 42.7134 26.4056 42.6764L26.5542 42.6579C26.7864 42.6302 26.7864 42.5654 26.7864 42.2602L26.7771 40.9653V40.4011H26.7678C26.3963 41.1966 25.9969 42.029 25.6718 42.8706C25.644 42.8891 25.6161 42.9076 25.5697 42.9076C25.5232 42.9076 25.4675 42.8984 25.4396 42.8799C25.2446 42.2602 24.6316 41.0301 24.3529 40.3826H24.3436C24.3251 40.7063 24.3158 40.9283 24.3158 41.1873C24.3065 41.511 24.3065 42.0105 24.3065 42.3064C24.3065 42.5562 24.3344 42.6209 24.5387 42.6579L24.7337 42.6857C24.7709 42.7227 24.7616 42.8336 24.7245 42.8614C24.5387 42.8521 24.3251 42.8429 24.1393 42.8429C23.9814 42.8429 23.7864 42.8521 23.5913 42.8614C23.5263 42.8429 23.5263 42.7134 23.5727 42.6857L23.6656 42.6672C23.9164 42.6209 23.9536 42.5932 23.9814 42.2879C24.0093 42.0475 24.0186 41.6128 24.0557 41.1411C24.0743 40.8081 24.0836 40.4011 24.0836 40.1329C24.0836 39.8462 23.9721 39.7722 23.7771 39.7352L23.6378 39.6982Z" fill="#222222"/>
<path d="M29.7864 40.8359C29.7864 40.9746 29.7957 40.9839 29.9257 40.9839H30.2694C30.5294 40.9839 30.5851 40.9469 30.6409 40.7064L30.6687 40.5862C30.7059 40.5492 30.8266 40.5492 30.8545 40.5954C30.8452 40.7526 30.8359 40.9376 30.8359 41.1226C30.8359 41.3076 30.8452 41.4926 30.8545 41.6498C30.8266 41.6961 30.7059 41.6961 30.6687 41.6591L30.6409 41.5388C30.5944 41.2983 30.5294 41.2614 30.2694 41.2614H29.9257C29.7864 41.2614 29.7864 41.2706 29.7864 41.4186V42.0105C29.7864 42.2418 29.805 42.399 29.87 42.4822C29.935 42.5747 30.0279 42.6117 30.3901 42.6117C30.8266 42.6117 30.9938 42.5932 31.2724 42.0383C31.3096 41.9828 31.4396 42.0013 31.4582 42.066C31.4396 42.325 31.3189 42.732 31.2446 42.8614C30.9752 42.8522 30.5016 42.843 30.0929 42.843H29.4427C29.2012 42.843 28.9598 42.8522 28.579 42.8614C28.5418 42.8337 28.5418 42.7135 28.579 42.6857L28.8111 42.6487C29.0341 42.6117 29.0619 42.584 29.0619 42.1308V40.2717C29.0619 39.8185 29.0341 39.7907 28.8111 39.7445L28.6904 39.7168C28.644 39.689 28.6533 39.5688 28.6997 39.541C28.9319 39.5503 29.1827 39.5595 29.4149 39.5595H30.4737C30.7895 39.5595 31.0774 39.5503 31.1424 39.541C31.1517 39.6243 31.1796 39.9757 31.2074 40.3087C31.1889 40.3642 31.0681 40.3734 31.0217 40.3272C30.9659 40.1515 30.9009 40.0035 30.8359 39.9295C30.743 39.837 30.5944 39.7722 30.3437 39.7722H29.9443C29.7771 39.7722 29.7771 39.7815 29.7771 39.9665V40.8359H29.7864Z" fill="#222222"/>
<path d="M35.2105 41.9829C35.2105 42.3066 35.2105 42.6211 35.2198 42.7876C35.1827 42.8431 35.0434 42.8986 34.9226 42.8986C34.9133 42.8986 34.7554 42.6489 34.5139 42.3529L33.3622 40.9285C33.0743 40.577 32.9071 40.3643 32.8142 40.2903C32.7864 40.3366 32.7864 40.4291 32.7864 40.6048V41.5667C32.7864 41.9737 32.805 42.3436 32.8607 42.4731C32.9071 42.5749 33.0186 42.6119 33.1486 42.6304L33.2879 42.6489C33.3251 42.6858 33.3158 42.7968 33.2879 42.8246C33.0186 42.8153 32.8142 42.8061 32.6192 42.8061C32.4334 42.8061 32.2477 42.8153 32.0619 42.8246C32.0341 42.7968 32.0248 42.6858 32.0619 42.6489L32.1455 42.6304C32.2848 42.6026 32.3777 42.5749 32.4242 42.4639C32.4799 42.3251 32.4985 41.9552 32.4985 41.5575V40.2903C32.4985 40.0129 32.4892 39.9389 32.4613 39.8649C32.4242 39.7816 32.3499 39.7169 32.1734 39.6984L32.0341 39.6799C31.9969 39.6429 32.0062 39.5226 32.0526 39.5042C32.2848 39.5134 32.5356 39.5226 32.7399 39.5226C32.9071 39.5226 33.0557 39.5134 33.1579 39.5042C33.2043 39.7261 33.5294 40.1053 33.9845 40.6418L34.4025 41.132C34.6254 41.391 34.7647 41.5667 34.8855 41.6777C34.904 41.6314 34.904 41.539 34.904 41.4557V40.7898C34.904 40.3828 34.8855 40.0129 34.8297 39.8834C34.7833 39.7816 34.6718 39.7446 34.5418 39.7261L34.4025 39.7076C34.3653 39.6706 34.3746 39.5596 34.4025 39.5319C34.6718 39.5411 34.8669 39.5504 35.0712 39.5504C35.257 39.5504 35.4334 39.5411 35.6285 39.5319C35.6564 39.5596 35.6656 39.6706 35.6285 39.7076L35.5356 39.7261C35.4056 39.7446 35.3127 39.7816 35.2663 39.8926C35.2105 40.0314 35.192 40.4013 35.192 40.799V41.9829H35.2105Z" fill="#222222"/>
<path d="M37.4582 39.911C37.4582 39.7908 37.4582 39.7631 37.3375 39.7631H37.031C36.6687 39.7631 36.5573 39.9665 36.4087 40.3273C36.3529 40.355 36.2508 40.3458 36.2229 40.281C36.3251 39.9388 36.3529 39.6336 36.3901 39.4393C36.4087 39.4208 36.4365 39.4116 36.4644 39.4116C36.4923 39.4116 36.5108 39.4208 36.5387 39.4301C36.5666 39.5133 36.5758 39.5318 36.9566 39.5318H38.8142C39.1486 39.5318 39.2229 39.5226 39.2601 39.4208C39.2786 39.4116 39.2972 39.4023 39.3251 39.4023C39.3529 39.4023 39.3901 39.4208 39.3994 39.4393C39.3529 39.6058 39.3158 40.0128 39.3251 40.2995C39.2972 40.3458 39.1672 40.355 39.1393 40.318C39.0557 40.0035 38.9814 39.7631 38.6099 39.7631H38.3127C38.1919 39.7631 38.1734 39.7816 38.1734 39.911V42.1031C38.1734 42.5655 38.2012 42.6025 38.4241 42.6395L38.6285 42.6673C38.6656 42.695 38.6656 42.8153 38.6285 42.843C38.3034 42.8338 38.0526 42.8245 37.8297 42.8245C37.5882 42.8245 37.3282 42.8338 36.9845 42.843C36.9474 42.8153 36.9474 42.695 36.9845 42.6673L37.2074 42.6395C37.4303 42.6118 37.4582 42.5655 37.4582 42.1031V39.911Z" fill="#222222"/>
<path d="M45.3251 41.169C45.3251 42.2511 44.5913 42.9078 43.5232 42.9078C42.5201 42.9078 41.7864 42.2511 41.7864 41.2152C41.7864 40.2256 42.5294 39.4671 43.5697 39.4671C44.6099 39.4579 45.3251 40.1608 45.3251 41.169ZM43.5325 39.6891C42.9195 39.6891 42.5851 40.2626 42.5851 41.095C42.5851 41.7054 42.7988 42.6766 43.6161 42.6766C44.2663 42.6766 44.5263 42.0384 44.5263 41.2337C44.5263 40.3828 44.1548 39.6891 43.5325 39.6891Z" fill="#222222"/>
<path d="M47.3034 40.8728C47.3034 41.0116 47.3127 41.0208 47.4427 41.0208H47.8235C48.0929 41.0208 48.1393 40.9838 48.1951 40.7433L48.2229 40.6231C48.2601 40.5769 48.3808 40.5861 48.4087 40.6324C48.3994 40.7896 48.3994 40.9746 48.3994 41.1596C48.3994 41.3445 48.4087 41.5295 48.418 41.6775C48.3901 41.7238 48.2601 41.7238 48.2322 41.6868L48.2043 41.5665C48.1579 41.326 48.1022 41.289 47.8328 41.289H47.452C47.3127 41.289 47.3127 41.3075 47.3127 41.437V42.1122C47.3127 42.5747 47.3406 42.6117 47.5635 42.6487L47.7492 42.6764C47.7864 42.7042 47.7864 42.8244 47.7492 42.8521C47.4427 42.8429 47.192 42.8336 46.9505 42.8336C46.7183 42.8336 46.4675 42.8429 46.1703 42.8521C46.1331 42.8244 46.1331 42.7042 46.1703 42.6764L46.3375 42.6487C46.5604 42.6117 46.5882 42.5747 46.5882 42.1122V40.2624C46.5882 39.7999 46.5604 39.7537 46.3375 39.7167L46.2353 39.6982C46.1889 39.6704 46.1889 39.541 46.2446 39.5225C46.4582 39.5317 46.709 39.541 46.9505 39.541H48C48.3158 39.541 48.6037 39.5317 48.678 39.5225C48.678 39.6057 48.678 39.9664 48.6873 40.2994C48.6687 40.3549 48.5573 40.3549 48.5016 40.3179C48.4458 40.1144 48.4087 39.9942 48.353 39.9294C48.2694 39.8277 48.1208 39.7629 47.8607 39.7629H47.4706C47.3034 39.7629 47.3034 39.7722 47.3034 39.9664V40.8728Z" fill="#222222"/>
<path d="M51.483 40.2531C51.483 39.7907 51.4551 39.7629 51.2322 39.7167L51.1115 39.6889C51.0743 39.6612 51.065 39.5502 51.1207 39.5225C51.3622 39.5317 51.613 39.541 51.8545 39.541C52.096 39.541 52.3467 39.5317 52.5882 39.5225C52.6254 39.5502 52.6254 39.6612 52.5882 39.6889L52.4675 39.7074C52.2446 39.7444 52.2167 39.7907 52.2167 40.2531V41.4C52.2167 41.9827 52.2817 42.6209 53.0433 42.6209C53.6842 42.6209 53.8793 42.066 53.8793 41.3815V40.7896C53.8793 40.3826 53.8607 40.0127 53.805 39.8832C53.7585 39.7814 53.6471 39.7444 53.517 39.7259L53.3777 39.6982C53.3406 39.6612 53.3498 39.5595 53.3777 39.5317C53.6471 39.541 53.8421 39.5502 54.0464 39.5502C54.2322 39.5502 54.418 39.541 54.6037 39.5317C54.6316 39.5595 54.6409 39.6612 54.6037 39.6982L54.5108 39.7167C54.3808 39.7444 54.2879 39.7722 54.2415 39.8832C54.1858 40.0127 54.1672 40.3919 54.1672 40.7896V41.3445C54.1672 41.8162 54.1207 42.2417 53.8514 42.5469C53.6285 42.7782 53.2662 42.9076 52.8576 42.9076C52.4768 42.9076 52.1424 42.8521 51.8638 42.6302C51.6037 42.4174 51.4923 42.0475 51.4923 41.5018V40.2531H51.483Z" fill="#222222"/>
<path d="M55.291 39.6982C55.2539 39.6612 55.2539 39.541 55.3096 39.5225C55.4768 39.5317 55.6904 39.541 55.9412 39.541C56.1084 39.541 56.2477 39.541 56.4334 39.5225C56.4334 39.8277 56.6099 40.1329 56.8328 40.6046L57.1672 41.3075C57.2136 41.4093 57.3901 41.7238 57.4644 41.844C57.5294 41.7238 57.613 41.5665 57.743 41.2798L57.9938 40.7341C58.2353 40.2254 58.356 39.9572 58.4675 39.5317C58.6997 39.5502 58.8112 39.5502 58.9598 39.5502C59.1269 39.5502 59.3591 39.541 59.5356 39.5317C59.5913 39.5595 59.5913 39.6519 59.5542 39.7074L59.4056 39.7352C59.2012 39.7722 59.0991 39.8277 59.0991 40.0959C59.0991 41.1226 59.1084 41.659 59.1362 42.2879C59.1455 42.5192 59.1641 42.6394 59.3591 42.6579L59.517 42.6764C59.5542 42.7134 59.5542 42.8336 59.5078 42.8521C59.2756 42.8429 59.0619 42.8336 58.8204 42.8336C58.5975 42.8336 58.3189 42.8429 58.0774 42.8521C58.0217 42.8244 58.0124 42.7134 58.0588 42.6764L58.2074 42.6579C58.4396 42.6302 58.4396 42.5654 58.4396 42.2602L58.4303 40.9653V40.4011H58.4211C58.0495 41.1966 57.6502 42.029 57.3251 42.8706C57.2972 42.8891 57.2694 42.9076 57.2229 42.9076C57.1765 42.9076 57.1208 42.8984 57.0929 42.8799C56.8978 42.2602 56.2848 41.0301 56.0062 40.3826H55.9969C55.9783 40.7063 55.969 40.9283 55.969 41.1873C55.9598 41.511 55.9598 42.0105 55.9598 42.3064C55.9598 42.5562 55.9876 42.6209 56.192 42.6579L56.387 42.6857C56.4242 42.7227 56.4149 42.8336 56.3777 42.8614C56.192 42.8521 55.9783 42.8429 55.7833 42.8429C55.6254 42.8429 55.4304 42.8521 55.2353 42.8614C55.1703 42.8429 55.1703 42.7134 55.2167 42.6857L55.3096 42.6672C55.5604 42.6209 55.5975 42.5932 55.6254 42.2879C55.6533 42.0475 55.6626 41.6128 55.6997 41.1411C55.7183 40.8081 55.7276 40.4011 55.7276 40.1329C55.7276 39.8462 55.6161 39.7722 55.4211 39.7352L55.291 39.6982Z" fill="#222222"/>
<path d="M60.3251 39.6982C60.2879 39.6612 60.2879 39.541 60.3437 39.5225C60.5108 39.5317 60.7245 39.541 60.9752 39.541C61.1424 39.541 61.2817 39.541 61.4675 39.5225C61.4675 39.8277 61.644 40.1329 61.8669 40.6046L62.2012 41.3075C62.2477 41.4093 62.4242 41.7238 62.4985 41.844C62.5635 41.7238 62.6471 41.5665 62.7771 41.2798L63.0279 40.7341C63.2694 40.2254 63.3901 39.9572 63.5015 39.5317C63.7337 39.5502 63.8452 39.5502 63.9938 39.5502C64.161 39.5502 64.3932 39.541 64.5697 39.5317C64.6254 39.5595 64.6254 39.6519 64.5882 39.7074L64.4396 39.7352C64.2353 39.7722 64.1331 39.8277 64.1331 40.0959C64.1331 41.1226 64.1424 41.659 64.1703 42.2879C64.1796 42.5192 64.1981 42.6394 64.3932 42.6579L64.5511 42.6764C64.5882 42.7134 64.5882 42.8336 64.5418 42.8521C64.3096 42.8429 64.096 42.8336 63.8545 42.8336C63.6316 42.8336 63.3529 42.8429 63.1115 42.8521C63.0557 42.8244 63.0464 42.7134 63.0929 42.6764L63.2415 42.6579C63.4737 42.6302 63.4737 42.5654 63.4737 42.2602L63.4644 40.9653V40.4011H63.4551C63.0836 41.1966 62.6842 42.029 62.3591 42.8706C62.3313 42.8891 62.3034 42.9076 62.257 42.9076C62.2105 42.9076 62.1548 42.8984 62.1269 42.8799C61.9319 42.2602 61.3189 41.0301 61.0403 40.3826H61.031C61.0124 40.7063 61.0031 40.9283 61.0031 41.1873C60.9938 41.511 60.9938 42.0105 60.9938 42.3064C60.9938 42.5562 61.0217 42.6209 61.226 42.6579L61.4211 42.6857C61.4582 42.7227 61.4489 42.8336 61.4118 42.8614C61.226 42.8521 61.0124 42.8429 60.8173 42.8429C60.6594 42.8429 60.4644 42.8521 60.2694 42.8614C60.195 42.8151 60.195 42.6949 60.2415 42.6672L60.3344 42.6487C60.5851 42.6024 60.6223 42.5747 60.6502 42.2694C60.678 42.029 60.6873 41.5943 60.7245 41.1226C60.743 40.7896 60.7523 40.3826 60.7523 40.1144C60.7523 39.8277 60.6409 39.7537 60.4458 39.7167L60.3251 39.6982Z" fill="#222222"/>
<path d="M67.8947 41.6961C67.774 41.6961 67.7554 41.7053 67.7276 41.7978L67.5325 42.3712C67.5047 42.473 67.4954 42.51 67.4954 42.547C67.4954 42.5747 67.5604 42.6025 67.6997 42.6302L67.8483 42.658C67.8762 42.695 67.8855 42.8059 67.839 42.8337C67.6625 42.8244 67.4861 42.8244 67.2725 42.8152C67.1053 42.8152 66.9845 42.8337 66.7616 42.8337C66.7059 42.8059 66.7152 42.695 66.743 42.658L66.8824 42.6395C67.0031 42.621 67.1053 42.584 67.1889 42.3897C67.2725 42.1863 67.3653 41.955 67.5047 41.5943L67.9598 40.3827C68.0712 40.0682 68.1641 39.8925 68.1455 39.7537C68.387 39.6982 68.5728 39.4578 68.582 39.4578C68.6471 39.4578 68.6749 39.4855 68.6935 39.5595C68.7307 39.7075 68.7957 39.8925 68.9164 40.2439L69.5944 42.1955C69.6966 42.4915 69.743 42.6117 69.9288 42.6395L70.1146 42.6672C70.1424 42.695 70.1517 42.8152 70.1053 42.8429C69.8638 42.8337 69.5944 42.8244 69.3344 42.8244C69.0836 42.8244 68.8886 42.8337 68.6564 42.8429C68.6006 42.8152 68.5913 42.7042 68.6471 42.6672L68.805 42.6395C68.9164 42.621 68.9443 42.584 68.9443 42.5562C68.9443 42.5192 68.9071 42.399 68.8514 42.214L68.7121 41.7885C68.6842 41.7053 68.6471 41.6961 68.4706 41.6961H67.8947ZM68.4706 41.4371C68.5821 41.4371 68.6099 41.4186 68.5728 41.2891L68.4427 40.8821C68.3684 40.6694 68.2848 40.4012 68.2384 40.2902C68.2012 40.4012 68.0991 40.6694 68.0248 40.9006L67.904 41.2706C67.8576 41.4093 67.8855 41.4186 68.0062 41.4186H68.4706V41.4371Z" fill="#222222"/>
<path d="M71.7678 42.0014C71.7678 42.2327 71.7864 42.3992 71.8514 42.4731C71.9164 42.5564 72.0093 42.5934 72.3715 42.5934C72.8266 42.5934 72.9659 42.5749 73.2632 42.0014C73.3003 41.9552 73.4211 41.9737 73.4489 42.0292C73.4211 42.2882 73.3003 42.7044 73.2353 42.8339C72.966 42.8246 72.4923 42.8154 72.0836 42.8154H71.4149C71.1827 42.8154 70.9319 42.8246 70.6254 42.8339C70.579 42.8061 70.5697 42.6859 70.6068 42.6581L70.7926 42.6304C71.0155 42.6026 71.0433 42.5564 71.0433 42.0939V40.2441C71.0433 39.7817 71.0155 39.7354 70.7926 39.7077L70.644 39.6892C70.5975 39.6614 70.5975 39.5412 70.6533 39.5134C70.9133 39.5227 71.1641 39.5319 71.4056 39.5319C71.6471 39.5319 71.8978 39.5227 72.1486 39.5134C72.1858 39.5412 72.1858 39.6614 72.1486 39.6892L72.0186 39.7077C71.7957 39.7447 71.7678 39.7817 71.7678 40.2441V42.0014Z" fill="#222222"/>
<path d="M77.4891 41.1688C77.4891 41.9735 77.0898 42.5377 76.4489 42.7782C76.4117 42.7967 76.4303 42.8337 76.4953 42.8892C76.8111 43.1851 77.2012 43.5089 77.582 43.6013C77.7306 43.6383 77.8699 43.6383 77.9535 43.6383C78.0278 43.6383 78.1021 43.6198 78.1672 43.6013C78.2136 43.6198 78.2229 43.6846 78.2136 43.7216C78.0278 43.8511 77.7399 43.9066 77.4984 43.9066C76.7833 43.9066 76.161 43.5273 75.6966 43.0464C75.6037 42.9447 75.548 42.8892 75.4272 42.8799C74.6099 42.8059 73.9504 42.177 73.9504 41.1966C73.9504 40.2069 74.6935 39.4485 75.7337 39.4485C76.774 39.4577 77.4891 40.1514 77.4891 41.1688ZM74.7492 41.0948C74.7492 41.7053 74.9628 42.6857 75.7802 42.6857C76.4303 42.6857 76.6904 42.0475 76.6904 41.2336C76.6904 40.3826 76.3189 39.689 75.6966 39.689C75.0743 39.689 74.7492 40.2624 74.7492 41.0948Z" fill="#222222"/>
<path d="M78.6037 40.2531C78.6037 39.7907 78.5759 39.7629 78.353 39.7167L78.2322 39.6889C78.1951 39.6612 78.1858 39.5502 78.2415 39.5225C78.483 39.5317 78.7338 39.541 78.9752 39.541C79.2167 39.541 79.4675 39.5317 79.709 39.5225C79.7461 39.5502 79.7461 39.6612 79.709 39.6889L79.5882 39.7074C79.3653 39.7444 79.3375 39.7907 79.3375 40.2531V41.4C79.3375 41.9827 79.4025 42.6209 80.1641 42.6209C80.805 42.6209 81 42.066 81 41.3815V40.7896C81 40.3826 80.9814 40.0127 80.9257 39.8832C80.8793 39.7814 80.7678 39.7444 80.6378 39.7259L80.4985 39.6982C80.4613 39.6612 80.4706 39.5595 80.4985 39.5317C80.7678 39.541 80.9629 39.5502 81.1672 39.5502C81.353 39.5502 81.5387 39.541 81.7245 39.5317C81.7523 39.5595 81.7616 39.6612 81.7245 39.6982L81.6316 39.7167C81.5016 39.7444 81.4087 39.7722 81.3622 39.8832C81.3065 40.0127 81.2879 40.3919 81.2879 40.7896V41.3445C81.2879 41.8162 81.2415 42.2417 80.9722 42.5469C80.7492 42.7782 80.387 42.9076 79.9783 42.9076C79.5975 42.9076 79.2632 42.8521 78.9845 42.6302C78.7245 42.4174 78.613 42.0475 78.613 41.5018V40.2531H78.6037Z" fill="#222222"/>
<path d="M87.1486 39.7354C87.0371 39.7631 86.9628 39.8001 86.9257 39.8464C86.87 39.9296 86.7864 40.0868 86.647 40.4013C86.4056 40.984 85.8576 42.2234 85.6161 42.8708C85.5882 42.8986 85.5139 42.9078 85.4489 42.9078C85.3932 42.9078 85.3467 42.8893 85.3096 42.8708C85.2539 42.7506 85.1795 42.5749 85.1238 42.4361L84.9102 41.9644C84.8359 41.8072 84.7709 41.6592 84.7337 41.5852C84.6873 41.6684 84.6316 41.7887 84.5665 41.9274L84.3343 42.4084C84.26 42.5656 84.2043 42.7136 84.1207 42.8801C84.0929 42.9078 84.0279 42.9171 83.9535 42.9171C83.8978 42.9171 83.8607 42.8986 83.8142 42.8801C83.7306 42.6674 83.5356 42.2234 83.3684 41.8534L82.5511 40.0961C82.4117 39.8001 82.3839 39.7816 82.2167 39.7446L82.096 39.7169C82.0588 39.6706 82.0588 39.5689 82.1145 39.5411C82.3003 39.5504 82.5139 39.5596 82.7647 39.5596C82.9876 39.5596 83.1826 39.5504 83.3684 39.5411C83.4056 39.5596 83.4241 39.6891 83.3777 39.7169L83.2848 39.7354C83.1919 39.7539 83.1641 39.7724 83.1641 39.8094C83.1641 39.8464 83.2662 40.0776 83.4241 40.4291L83.9164 41.5297C84.0557 41.8349 84.13 41.9737 84.195 42.0939C84.2508 41.9922 84.3715 41.7609 84.4458 41.5852L84.5108 41.4372C84.548 41.354 84.5573 41.2892 84.5573 41.2615C84.5573 41.2337 84.5201 41.1227 84.5015 41.0765L84.0186 40.0221C83.9071 39.7724 83.87 39.7354 83.6749 39.7169L83.6285 39.7076C83.582 39.6706 83.5913 39.5504 83.647 39.5319C83.8607 39.5411 84.0557 39.5504 84.2786 39.5504C84.5294 39.5504 84.7244 39.5411 84.8545 39.5319C84.9102 39.5504 84.9102 39.6799 84.873 39.7076L84.7895 39.7261C84.7337 39.7446 84.6501 39.7631 84.6501 39.8001C84.6501 39.8371 84.6687 39.8926 84.6966 39.9481L84.8452 40.2903C84.8916 40.3921 84.9566 40.5308 85.0031 40.6233L85.161 40.2811L85.2074 40.1793C85.291 39.9944 85.356 39.8371 85.356 39.8094C85.356 39.7724 85.3374 39.7631 85.2539 39.7354L85.0774 39.6984C85.0402 39.6614 85.0495 39.5504 85.096 39.5226C85.2446 39.5319 85.421 39.5411 85.5882 39.5411C85.7833 39.5411 85.969 39.5319 86.0991 39.5226C86.1362 39.5504 86.1455 39.6706 86.1083 39.6984L85.969 39.7261C85.8018 39.7631 85.7647 39.7631 85.5882 40.0591C85.4675 40.2626 85.3467 40.5123 85.2817 40.6418C85.2353 40.7343 85.1703 40.873 85.1703 40.9008C85.1703 40.9193 85.1796 40.947 85.2074 41.021L85.4396 41.5205C85.5696 41.7979 85.6439 41.9552 85.6718 42.0199C85.9133 41.4465 86.1826 40.8083 86.4241 40.2071C86.4613 40.1238 86.5542 39.8556 86.5542 39.8001C86.5542 39.7539 86.4706 39.7261 86.4056 39.7076L86.2941 39.6799C86.2569 39.6336 86.2662 39.5319 86.3127 39.5042C86.4706 39.5134 86.6749 39.5226 86.8235 39.5226C87 39.5226 87.1393 39.5134 87.2879 39.5042C87.3343 39.5319 87.3344 39.6429 87.3065 39.6799L87.1486 39.7354Z" fill="#222222"/>
<path d="M87.9753 41.6961C87.8545 41.6961 87.8359 41.7053 87.8081 41.7978L87.613 42.3712C87.5852 42.473 87.5759 42.51 87.5759 42.547C87.5759 42.5747 87.6409 42.6025 87.7802 42.6302L87.9288 42.658C87.9567 42.695 87.966 42.8059 87.9195 42.8337C87.7431 42.8244 87.5666 42.8244 87.353 42.8152C87.1858 42.8152 87.065 42.8337 86.8421 42.8337C86.7864 42.8059 86.7957 42.695 86.8235 42.658L86.9629 42.6395C87.0836 42.621 87.1858 42.584 87.2694 42.3897C87.353 42.1863 87.4458 41.955 87.5852 41.5943L88.0403 40.3827C88.1517 40.0682 88.2446 39.8925 88.226 39.7537C88.4675 39.6982 88.6533 39.4578 88.6626 39.4578C88.7276 39.4578 88.7554 39.4855 88.774 39.5595C88.8112 39.7075 88.8762 39.8925 88.9969 40.2439L89.6749 42.1955C89.7771 42.4915 89.8235 42.6117 90.0093 42.6395L90.1951 42.6672C90.2229 42.695 90.2322 42.8152 90.1858 42.8429C89.9443 42.8337 89.6749 42.8244 89.4149 42.8244C89.1641 42.8244 88.9691 42.8337 88.7369 42.8429C88.6811 42.8152 88.6718 42.7042 88.7276 42.6672L88.8855 42.6395C88.9969 42.621 89.0248 42.584 89.0248 42.5562C89.0248 42.5192 88.9876 42.399 88.9319 42.214L88.7926 41.7885C88.7647 41.7053 88.7276 41.6961 88.5511 41.6961H87.9753ZM88.5418 41.4371C88.6533 41.4371 88.6811 41.4186 88.644 41.2891L88.5139 40.8821C88.4396 40.6694 88.3561 40.4012 88.3096 40.2902C88.2725 40.4012 88.1703 40.6694 88.096 40.9006L87.9753 41.2706C87.9288 41.4093 87.9567 41.4186 88.0774 41.4186H88.5418V41.4371Z" fill="#222222"/>
<path d="M91.8483 42.0939C91.8483 42.5656 91.8762 42.5934 92.1084 42.6396L92.2477 42.6674C92.2848 42.6951 92.2848 42.8154 92.2384 42.8431C91.969 42.8339 91.7276 42.8246 91.4861 42.8246C91.2446 42.8246 90.9938 42.8339 90.7245 42.8431C90.6873 42.8154 90.6873 42.6951 90.7245 42.6674L90.8638 42.6396C91.096 42.6026 91.1238 42.5656 91.1238 42.0939V40.2626C91.1238 39.7909 91.096 39.7632 90.8638 39.7169L90.7245 39.6892C90.6873 39.6614 90.6873 39.5412 90.7245 39.5134C90.9938 39.5227 91.2446 39.5319 91.4861 39.5319C91.7183 39.5319 91.969 39.5227 92.2384 39.5134C92.2755 39.5412 92.2755 39.6614 92.2384 39.6892L92.0991 39.7169C91.8669 39.7539 91.839 39.7909 91.839 40.2626V42.0939H91.8483Z" fill="#222222"/>
<path d="M96.1672 41.9829C96.1672 42.3066 96.1672 42.6211 96.1765 42.7876C96.1393 42.8431 96 42.8986 95.8792 42.8986C95.87 42.8986 95.7121 42.6489 95.4706 42.3529L94.3189 40.9285C94.0309 40.577 93.8638 40.3643 93.7709 40.2903C93.743 40.3366 93.743 40.4291 93.743 40.6048V41.5667C93.743 41.9737 93.7616 42.3436 93.8173 42.4731C93.8638 42.5749 93.9752 42.6119 94.1053 42.6304L94.2446 42.6489C94.2817 42.6858 94.2724 42.7968 94.2446 42.8246C93.9752 42.8153 93.7709 42.8061 93.5758 42.8061C93.3901 42.8061 93.2043 42.8153 93.0186 42.8246C92.9907 42.7968 92.9814 42.6858 93.0186 42.6489L93.1022 42.6304C93.2415 42.6026 93.3344 42.5749 93.3808 42.4639C93.4365 42.3251 93.4551 41.9552 93.4551 41.5575V40.2903C93.4551 40.0129 93.4458 39.9389 93.4179 39.8649C93.3808 39.7816 93.3065 39.7169 93.13 39.6984L92.9907 39.6799C92.9535 39.6429 92.9628 39.5226 93.0093 39.5042C93.2415 39.5134 93.4922 39.5226 93.6966 39.5226C93.8638 39.5226 94.0124 39.5134 94.1145 39.5042C94.161 39.7261 94.4861 40.1053 94.9412 40.6418L95.3591 41.132C95.582 41.391 95.7213 41.5667 95.8421 41.6777C95.8607 41.6314 95.8607 41.539 95.8607 41.4557V40.7898C95.8607 40.3828 95.8421 40.0129 95.7864 39.8834C95.7399 39.7816 95.6285 39.7446 95.4984 39.7261L95.3591 39.7076C95.322 39.6706 95.3313 39.5596 95.3591 39.5319C95.6285 39.5411 95.8235 39.5504 96.0279 39.5504C96.2136 39.5504 96.3901 39.5411 96.5851 39.5319C96.613 39.5596 96.6223 39.6706 96.5851 39.7076L96.4922 39.7261C96.3622 39.7446 96.2693 39.7816 96.2229 39.8926C96.1672 40.0314 96.1486 40.4013 96.1486 40.799V41.9829H96.1672Z" fill="#222222"/>
<path d="M96.2322 36.7017H0.092865V37.0716H96.2322V36.7017Z" fill="#EA0029"/>
</svg>
