<svg width="31" height="28" viewBox="0 0 31 28" fill="none" xmlns="http://www.w3.org/2000/svg">
<path d="M6.02699 17.5596C5.87914 17.5596 5.76825 17.5226 5.69432 17.4117L4.54846 16.2659L5.25076 15.5636L6.02699 16.3398L9.20584 13.1609L9.90814 13.8633L6.35966 17.4117C6.28574 17.5226 6.13788 17.5596 6.02699 17.5596Z" fill="#EC294E" stroke="#EC294E" stroke-width="0.5"/>
<path d="M19.5925 26.9482C16.7464 26.9482 13.9372 26.9482 11.091 26.9482C10.6474 26.9482 10.2778 26.9482 9.94512 26.8373C8.87318 26.5047 8.20784 25.6176 8.20784 24.3978V20.4057H7.09894V22.106C7.09894 22.3278 6.91413 22.5126 6.69235 22.5126C6.58146 22.5126 6.47057 22.4757 6.39664 22.4017L4.40062 20.4057H2.47853C1.66534 20.4057 1 19.7404 1 18.9272V12.6065C1 11.7933 1.66534 11.1279 2.47853 11.1279H8.20784V5.91612H7.13591C6.95109 5.91612 6.80324 5.91612 6.61842 5.91612C5.39863 5.87915 4.40062 4.95507 4.25277 3.69832C4.14188 2.73727 4.69633 1.51749 5.91612 1.11089C6.17486 1.03696 6.50753 1 6.8402 1H8.87318H16.8942C18.9642 1 20.9971 1 23.0671 1C24.5826 1 25.8763 2.03497 26.172 3.43958C26.209 3.73528 26.2459 4.03099 26.2459 4.28973C26.2459 8.83622 26.2459 13.3827 26.2459 17.9292V21.9582L26.5786 21.9951C26.7265 21.9951 26.8743 22.0321 26.9852 22.0321H28.6485C28.9443 22.0321 29.2769 22.0321 29.5726 22.0321C29.8314 22.0321 29.9792 22.0691 30.0901 22.18C30.164 22.2539 30.238 22.4387 30.201 22.6605V22.9932C30.201 23.5476 30.201 24.1021 30.0901 24.6195C29.8683 25.9133 28.5746 26.9482 27.2439 26.9482C27.0591 26.9482 26.8373 26.9482 26.6525 26.9482C26.4307 26.9482 26.209 26.9482 25.9872 26.9482H19.5925ZM23.141 22.9932C19.2229 22.9932 13.5306 23.0301 13.1979 23.141L13.124 23.178V23.2519C13.124 23.3628 13.124 23.5106 13.124 23.6215C13.124 23.9172 13.124 24.2129 13.124 24.5087C13.087 24.8044 13.05 25.0631 12.9761 25.3958C12.9391 25.5436 12.9022 25.6545 12.9022 25.8024L12.8652 25.9133L13.1609 25.9502C13.2718 25.9502 13.3827 25.9502 13.4936 25.9502H21.145C23.0671 25.9502 25.0261 25.9502 26.9482 25.9502C27.6875 25.9502 28.3159 25.6545 28.7225 25.174C29.1291 24.6565 29.2769 23.9172 29.1291 23.178V23.104H29.0551C28.6485 22.9932 24.4347 22.9932 23.141 22.9932ZM9.24282 24.139C9.24282 24.4347 9.24282 24.7304 9.31674 24.9892C9.50156 25.5436 10.093 25.9872 10.6844 25.9872C10.7583 25.9872 10.7953 25.9872 10.8692 25.9872C11.6085 25.8763 12.126 25.2849 12.1629 24.5826C12.1629 24.2129 12.1629 23.8433 12.1629 23.4737C12.1629 23.2149 12.1629 22.9192 12.1629 22.6605C12.1629 22.2539 12.3477 22.0691 12.7543 22.0691C12.8283 22.0691 12.8652 22.0691 12.9391 22.0691H13.7523V21.2559C13.7523 19.6295 14.9352 18.1879 16.5615 17.8922L16.7464 17.8553L16.6355 17.6704C16.0441 17.0421 15.7114 16.2289 15.7114 15.3418C15.7114 13.4566 17.2269 11.9411 19.112 11.9411C20.9971 11.9411 22.5126 13.4566 22.5126 15.3418C22.5126 16.1919 22.18 17.0051 21.5886 17.6704L21.4777 17.8183L21.6625 17.8553C23.2889 18.151 24.4717 19.5556 24.4717 21.2189V22.0321H24.7304C24.7674 22.0321 24.8413 22.0321 24.8413 22.0321C25.137 22.0321 25.2849 21.8843 25.2849 21.6255C25.2849 21.4777 25.2849 21.3668 25.2849 21.2189C25.2849 19.6665 25.2849 18.077 25.2849 16.5246C25.2849 12.5695 25.2849 8.50355 25.2849 4.47455C25.2849 3.73528 25.0631 3.10691 24.6195 2.66335C24.176 2.21979 23.5476 1.99801 22.8453 1.99801C20.9971 1.99801 19.0751 2.03497 16.5246 2.03497H8.76229L8.83622 2.18282C9.20585 2.95905 9.20585 3.69832 9.20585 4.43759V4.65937L9.24282 11.2019H11.9042C12.7174 11.2019 13.3827 11.8672 13.3827 12.6804V19.0011C13.3827 19.8143 12.7174 20.4797 11.9042 20.4797H9.20585V24.139H9.24282ZM17.1899 18.7793C15.8592 18.7793 14.7503 19.8882 14.7503 21.2189V22.0321H23.5106V21.2189C23.5106 19.8882 22.4017 18.7793 21.0711 18.7793H17.1899ZM2.47853 11.9781C2.14586 11.9781 1.85016 12.2738 1.85016 12.6065V18.9272C1.85016 19.2599 2.14586 19.5556 2.47853 19.5556H4.58544C4.69633 19.5556 4.80722 19.5925 4.88115 19.6665L6.24879 21.0341V19.9622C6.24879 19.7404 6.4336 19.5556 6.65538 19.5556H11.9042C12.2368 19.5556 12.5325 19.2599 12.5325 18.9272V12.6065C12.5325 12.2738 12.2368 11.9781 11.9042 11.9781H2.47853ZM19.112 12.9391C17.7813 12.9391 16.6724 14.0111 16.6724 15.3787C16.6724 16.7464 17.7444 17.8183 19.112 17.8183C20.4797 17.8183 21.5516 16.7464 21.5516 15.3787C21.5516 14.0111 20.4427 12.9391 19.112 12.9391ZM6.72931 1.99801C6.02701 1.99801 5.39863 2.58942 5.32471 3.25476C5.25078 4.03099 5.69434 4.73329 6.35968 4.84418C6.72931 4.91811 7.13591 4.91811 7.5425 4.91811C7.72732 4.91811 7.91214 4.91811 8.09695 4.91811H8.20784V4.80722C8.20784 4.6224 8.20784 4.43759 8.20784 4.25277C8.20784 3.88314 8.24481 3.5135 8.17088 3.18083C8.09695 2.55246 7.46858 1.99801 6.72931 1.99801Z" fill="#EC294E" stroke="#EC294E" stroke-width="0.5"/>
<path d="M21.5146 9.4646H13.087H12.8652C12.7913 9.4646 12.7173 9.4646 12.6804 9.4646C12.4216 9.42764 12.2368 9.20586 12.2368 8.98408C12.2368 8.72533 12.3847 8.54052 12.6804 8.46659C12.7173 8.42963 12.7913 8.42963 12.8652 8.42963H21.6625C21.7364 8.42963 21.8103 8.42963 21.8473 8.42963C22.143 8.46659 22.3278 8.68837 22.2908 8.94711C22.2908 9.20586 22.106 9.39067 21.8103 9.42764C21.7733 9.42764 21.6994 9.42764 21.6625 9.42764L21.5146 9.4646Z" fill="#EC294E" stroke="#EC294E" stroke-width="0.5"/>
<path d="M12.7544 5.91613C12.6804 5.91613 12.6065 5.91613 12.5696 5.87917C12.3108 5.80524 12.163 5.62042 12.163 5.39864C12.163 5.1399 12.3108 4.99205 12.5696 4.95508C12.7174 4.91812 12.9022 4.91812 13.0501 4.91812H21.6625C21.7365 4.91812 21.8473 4.91812 21.9213 4.91812C22.217 4.95508 22.3648 5.10294 22.3648 5.39864C22.3648 5.65739 22.18 5.8422 21.9213 5.87917C21.8473 5.87917 21.8104 5.87917 21.7365 5.87917H21.5147H13.0131C12.9392 5.91613 12.7913 5.91613 12.7544 5.91613Z" fill="#EC294E" stroke="#EC294E" stroke-width="0.5"/>
</svg>
