<svg width="16" height="13" viewBox="0 0 16 13" fill="none" xmlns="http://www.w3.org/2000/svg">
<path d="M2.16278 9.04478C2.65842 9.51556 3.19838 9.93695 3.77507 10.303L2.24387 11.8405C2.11974 11.9695 2.05105 12.1423 2.05261 12.3217C2.05416 12.5011 2.12583 12.6727 2.25217 12.7996C2.37852 12.9265 2.54943 12.9984 2.7281 13C2.90678 13.0015 3.07891 12.9326 3.20743 12.8079L7.58775 8.40983L14.792 1.17635C14.857 1.11324 14.909 1.03774 14.9447 0.954263C14.9804 0.870787 14.9992 0.781005 15 0.690156C15.0008 0.599307 14.9835 0.50921 14.9493 0.425123C14.915 0.341036 14.8644 0.264643 14.8004 0.200401C14.7364 0.136158 14.6603 0.0853535 14.5766 0.0509508C14.4928 0.0165481 14.4031 -0.00076362 14.3126 2.58335e-05C14.2222 0.000815287 14.1327 0.0196901 14.0496 0.0555489C13.9665 0.0914077 13.8913 0.143532 13.8284 0.208881L12.225 1.81883C11.4595 1.36945 10.6277 1.04497 9.76087 0.857513C9.24 0.748234 8.70932 0.692979 8.1772 0.692618C3.06637 0.692618 0.208401 5.61893 0.089148 5.82762C0.030721 5.93073 0 6.04733 0 6.16596C0 6.28459 0.030721 6.40119 0.089148 6.5043C0.659939 7.4434 1.35781 8.29838 2.16278 9.04478ZM6.81431 6.1663C6.81431 5.80337 6.9579 5.45531 7.21349 5.19868C7.46908 4.94205 7.81574 4.79788 8.1772 4.79788C8.46838 4.79882 8.75134 4.89488 8.98334 5.07156L7.08689 6.97572C6.91092 6.74278 6.81524 6.45867 6.81431 6.1663ZM8.1772 2.06104C8.61662 2.06141 9.05483 2.10727 9.48488 2.19788C10.0894 2.32819 10.6736 2.53969 11.2219 2.82667L9.95712 4.09588C9.46413 3.66403 8.83143 3.42714 8.1772 3.42946C7.45428 3.42946 6.76096 3.7178 6.24978 4.23106C5.7386 4.74432 5.45142 5.44045 5.45142 6.1663C5.44912 6.82319 5.68505 7.45847 6.11515 7.95346L4.76589 9.3082C4.16207 8.95413 3.60134 8.53072 3.09499 8.04651C2.49254 7.48121 1.95432 6.85063 1.49019 6.1663C2.19344 5.12835 4.57645 2.06104 8.1772 2.06104Z" fill="#C9CACB"/>
<path d="M7.88859 10.5987C7.83248 10.5987 7.77908 10.5987 7.72501 10.5945C7.54802 10.5811 7.37306 10.6405 7.2379 10.7597C7.10275 10.8789 7.01824 11.0484 7.00262 11.2316C6.98701 11.4149 7.04153 11.5971 7.15443 11.739C7.26732 11.881 7.42953 11.9712 7.60604 11.9902C7.70067 11.9993 7.79395 12 7.88859 12C12.9467 12 15.7918 6.95529 15.9108 6.74509C15.9693 6.63917 16 6.51925 16 6.39722C16 6.27519 15.9693 6.15527 15.9108 6.04934C15.5217 5.3852 15.0688 4.76359 14.5589 4.19401C14.4353 4.07161 14.2715 4.0023 14.1005 4.00006C13.9296 3.99781 13.7642 4.06279 13.6376 4.18191C13.511 4.30103 13.4327 4.46544 13.4184 4.64202C13.4041 4.81861 13.4549 4.99426 13.5605 5.13359C13.9086 5.5303 14.2296 5.95171 14.521 6.39477C13.8201 7.45906 11.4502 10.5987 7.88859 10.5987Z" fill="#C9CACB"/>
</svg>
