<svg width="30" height="30" viewBox="0 0 30 30" fill="none" xmlns="http://www.w3.org/2000/svg">
<path fill-rule="evenodd" clip-rule="evenodd" d="M25.0002 13.4202V23.1252C25.0002 24.8511 23.6011 26.2502 21.8752 26.2502H18.1252C17.78 26.2502 17.5002 25.9704 17.5002 25.6252V18.1252C17.5002 17.78 17.2203 17.5002 16.8752 17.5002H13.1252C12.78 17.5002 12.5002 17.78 12.5002 18.1252V25.6252C12.5002 25.9704 12.2203 26.2502 11.8752 26.2502H8.12517C6.39928 26.2502 5.00017 24.8511 5.00017 23.1252V13.4202L4.77267 13.6077C4.50619 13.8272 4.1122 13.7892 3.89267 13.5227C3.67313 13.2562 3.71119 12.8622 3.97767 12.6427L14.6027 3.89269C14.8335 3.70244 15.1668 3.70244 15.3977 3.89269L26.0227 12.6427C26.195 12.7847 26.2786 13.0079 26.2418 13.2282C26.205 13.4485 26.0535 13.6324 25.8443 13.7107C25.6351 13.789 25.4 13.7497 25.2277 13.6077L25.0002 13.4202Z" fill="#C1213F"/>
</svg>
