<svg width="20" height="20" viewBox="0 0 20 20" fill="none" xmlns="http://www.w3.org/2000/svg">
<path fill-rule="evenodd" clip-rule="evenodd" d="M10.9167 14H12.2917C12.5448 14 12.75 14.2239 12.75 14.5C12.75 14.7761 12.5448 15 12.2917 15H8.62504C8.37191 15 8.16671 14.7761 8.16671 14.5C8.16671 14.2239 8.37191 14 8.62504 14H10V9H8.62504C8.37191 9 8.16671 8.77614 8.16671 8.5C8.16671 8.22386 8.37191 8 8.62504 8H10.4584C10.7115 8 10.9167 8.22386 10.9167 8.5V14ZM10 20C4.93729 20 0.833374 15.523 0.833374 10C0.833374 4.477 4.93729 0 10 0C15.0628 0 19.1667 4.477 19.1667 10C19.1667 15.523 15.0628 20 10 20ZM10 19C12.9475 19 15.671 17.2846 17.1448 14.5C18.6185 11.7154 18.6185 8.28461 17.1448 5.5C15.671 2.71539 12.9475 1 10 1C5.44369 1 1.75004 5.02944 1.75004 10C1.75004 14.9706 5.44369 19 10 19ZM9.54171 5H10.4584C10.7115 5 10.9167 5.22386 10.9167 5.5V6.5C10.9167 6.77614 10.7115 7 10.4584 7H9.54171C9.28858 7 9.08337 6.77614 9.08337 6.5V5.5C9.08337 5.22386 9.28858 5 9.54171 5Z" fill="#FF2D55"/>
</svg>
