<svg width="32" height="32" viewBox="0 0 32 32" fill="none" xmlns="http://www.w3.org/2000/svg">
<path fill-rule="evenodd" clip-rule="evenodd" d="M20.6867 8.47599C20.6638 8.50937 20.6379 8.54061 20.6093 8.56932C19.8227 9.35599 19.8227 10.632 20.612 11.4213C21.3347 12.1413 22.4707 12.1973 23.256 11.588L24.2067 10.6347C22.7327 10.4286 21.5735 9.27103 21.3653 7.79732L20.6853 8.47732L20.6867 8.47599ZM18.7173 10.4467L5.94267 23.236C5.15601 24.0227 5.15601 25.2987 5.94534 26.088C6.72934 26.8707 7.99867 26.8693 8.78267 26.084L21.5427 13.304C20.0706 13.0857 18.9197 11.9212 18.7187 10.4467H18.7173ZM24.484 12.2453C24.4576 12.2868 24.4268 12.3253 24.392 12.36C24.3133 12.4387 24.232 12.5133 24.1467 12.5827L9.72534 27.0267C8.42267 28.332 6.30934 28.3333 5.00267 27.0307C3.69387 25.7234 3.69208 23.6028 4.99867 22.2933L22.2893 4.98666C22.3153 4.95992 22.3434 4.93539 22.3733 4.91332C23.6819 3.67313 25.7393 3.69808 27.0174 4.96965C28.2954 6.24121 28.3309 8.29851 27.0973 9.61332C27.0758 9.64418 27.0517 9.67317 27.0253 9.69999L24.484 12.2453ZM22.6667 21.3333H23.3333C23.7015 21.3333 24 21.6318 24 22C24 22.3682 23.7015 22.6667 23.3333 22.6667H22.6667V23.416C22.6667 23.7842 22.3682 24.0827 22 24.0827C21.6318 24.0827 21.3333 23.7842 21.3333 23.416V22.6667H20.6667C20.2985 22.6667 20 22.3682 20 22C20 21.6318 20.2985 21.3333 20.6667 21.3333H21.3333V20.6667C21.3333 20.2985 21.6318 20 22 20C22.3682 20 22.6667 20.2985 22.6667 20.6667V21.3333ZM13.3333 5.33332V4.66666C13.3333 4.29847 13.6318 3.99999 14 3.99999C14.3682 3.99999 14.6667 4.29847 14.6667 4.66666V5.33332H15.3333C15.7015 5.33332 16 5.6318 16 5.99999C16 6.36818 15.7015 6.66666 15.3333 6.66666H14.6667V7.33332C14.6667 7.70151 14.3682 7.99999 14 7.99999C13.6318 7.99999 13.3333 7.70151 13.3333 7.33332V6.66666H12.6667C12.2985 6.66666 12 6.36818 12 5.99999C12 5.6318 12.2985 5.33332 12.6667 5.33332H13.3333ZM29.3333 16H30C30.3682 16 30.6667 16.2985 30.6667 16.6667C30.6667 17.0348 30.3682 17.3333 30 17.3333H29.3333V18C29.3333 18.3682 29.0349 18.6667 28.6667 18.6667C28.2985 18.6667 28 18.3682 28 18V17.3333H27.3333C26.9652 17.3333 26.6667 17.0348 26.6667 16.6667C26.6667 16.2985 26.9652 16 27.3333 16H28V15.3333C28 14.9651 28.2985 14.6667 28.6667 14.6667C29.0349 14.6667 29.3333 14.9651 29.3333 15.3333V16ZM24.6667 9.33332C25.3812 9.33332 26.0415 8.95213 26.3987 8.33332C26.756 7.71452 26.756 6.95213 26.3987 6.33332C26.0415 5.71452 25.3812 5.33332 24.6667 5.33332C23.5621 5.33332 22.6667 6.22875 22.6667 7.33332C22.6667 8.43789 23.5621 9.33332 24.6667 9.33332Z" fill="#EC294E"/>
<path d="M20.6867 8.47599L20.8928 8.61745L20.5099 8.29921L20.6867 8.47599ZM20.6093 8.56932L20.7861 8.7461L20.7866 8.74557L20.6093 8.56932ZM20.612 11.4213L20.4352 11.5981L20.4356 11.5984L20.612 11.4213ZM23.256 11.588L23.4093 11.7855L23.4218 11.7758L23.433 11.7645L23.256 11.588ZM24.2067 10.6347L24.3837 10.8112L24.7375 10.4564L24.2413 10.3871L24.2067 10.6347ZM21.3653 7.79732L21.6129 7.76236L21.5428 7.26629L21.1886 7.62055L21.3653 7.79732ZM20.6853 8.47732L20.5086 8.30055L20.8621 8.6541L20.6853 8.47732ZM18.7173 10.4467V10.1967H18.6137L18.5405 10.27L18.7173 10.4467ZM5.94267 23.236L6.11945 23.4128L6.11955 23.4127L5.94267 23.236ZM5.94534 26.088L5.76856 26.2648L5.76872 26.2649L5.94534 26.088ZM8.78267 26.084L8.60576 25.9074L8.60575 25.9074L8.78267 26.084ZM21.5427 13.304L21.7196 13.4806L22.0702 13.1295L21.5793 13.0567L21.5427 13.304ZM18.7187 10.4467L18.9664 10.4129L18.9369 10.1967H18.7187V10.4467ZM24.484 12.2453L24.3071 12.0687L24.2877 12.0881L24.273 12.1112L24.484 12.2453ZM24.392 12.36L24.2154 12.1831L24.2152 12.1832L24.392 12.36ZM24.1467 12.5827L23.989 12.3886L23.9789 12.3968L23.9698 12.406L24.1467 12.5827ZM9.72534 27.0267L9.54843 26.85L9.54838 26.8501L9.72534 27.0267ZM5.00267 27.0307L4.826 27.2075L4.82617 27.2077L5.00267 27.0307ZM4.99867 22.2933L4.82182 22.1166L4.8217 22.1167L4.99867 22.2933ZM22.2893 4.98666L22.4662 5.16337L22.4688 5.16067L22.2893 4.98666ZM22.3733 4.91332L22.5215 5.11467L22.534 5.10546L22.5453 5.09477L22.3733 4.91332ZM27.0973 9.61332L26.915 9.44228L26.9026 9.45546L26.8923 9.47029L27.0973 9.61332ZM27.0253 9.69999L27.2023 9.87663L27.2035 9.87533L27.0253 9.69999ZM22.6667 21.3333H22.4167V21.5833H22.6667V21.3333ZM22.6667 22.6667V22.4167H22.4167V22.6667H22.6667ZM21.3333 22.6667H21.5833V22.4167H21.3333V22.6667ZM21.3333 21.3333V21.5833H21.5833V21.3333H21.3333ZM13.3333 5.33332V5.58332H13.5833V5.33332H13.3333ZM14.6667 5.33332H14.4167V5.58332H14.6667V5.33332ZM14.6667 6.66666V6.41666H14.4167V6.66666H14.6667ZM13.3333 6.66666H13.5833V6.41666H13.3333V6.66666ZM29.3333 16H29.0833V16.25H29.3333V16ZM29.3333 17.3333V17.0833H29.0833V17.3333H29.3333ZM28 17.3333H28.25V17.0833H28V17.3333ZM28 16V16.25H28.25V16H28ZM24.6667 9.33332V9.08332V9.33332ZM24.6667 5.33332V5.58332V5.33332ZM20.4805 8.33453C20.4662 8.35547 20.4499 8.37507 20.432 8.39308L20.7866 8.74557C20.8258 8.70616 20.8614 8.66327 20.8928 8.61745L20.4805 8.33453ZM20.4326 8.39255C19.5481 9.27706 19.5485 10.7114 20.4352 11.5981L20.7888 11.2445C20.0969 10.5526 20.0973 9.43492 20.7861 8.7461L20.4326 8.39255ZM20.4356 11.5984C21.2483 12.4082 22.5256 12.4711 23.4093 11.7855L23.1028 11.3905C22.4158 11.9235 21.4211 11.8745 20.7885 11.2442L20.4356 11.5984ZM23.433 11.7645L24.3837 10.8112L24.0297 10.4581L23.079 11.4115L23.433 11.7645ZM24.2413 10.3871C22.8778 10.1964 21.8054 9.12563 21.6129 7.76236L21.1178 7.83229C21.3415 9.41643 22.5876 10.6607 24.1721 10.8822L24.2413 10.3871ZM21.1886 7.62055L20.5086 8.30055L20.8621 8.6541L21.5421 7.9741L21.1886 7.62055ZM20.8621 8.6541L20.8634 8.65277L20.5099 8.29921L20.5086 8.30054L20.8621 8.6541ZM18.5405 10.27L5.7658 23.0593L6.11955 23.4127L18.8942 10.6233L18.5405 10.27ZM5.7659 23.0592C4.88138 23.9437 4.88182 25.378 5.76856 26.2648L6.12212 25.9112C5.4302 25.2193 5.43063 24.1016 6.11945 23.4128L5.7659 23.0592ZM5.76872 26.2649C6.65058 27.1453 8.0782 27.1435 8.9596 26.2606L8.60575 25.9074C7.91915 26.5951 6.8081 26.596 6.12197 25.9111L5.76872 26.2649ZM8.95959 26.2606L21.7196 13.4806L21.3658 13.1274L8.60576 25.9074L8.95959 26.2606ZM21.5793 13.0567C20.2173 12.8547 19.1524 11.7773 18.9664 10.4129L18.471 10.4804C18.687 12.0652 19.9239 13.3167 21.506 13.5513L21.5793 13.0567ZM18.7187 10.1967H18.7173V10.6967H18.7187V10.1967ZM24.273 12.1112C24.2565 12.1372 24.2372 12.1613 24.2154 12.1831L24.5686 12.5369C24.6164 12.4892 24.6588 12.4364 24.695 12.3794L24.273 12.1112ZM24.2152 12.1832C24.1415 12.2569 24.0666 12.3256 23.989 12.3886L24.3043 12.7767C24.3975 12.701 24.4852 12.6204 24.5688 12.5368L24.2152 12.1832ZM23.9698 12.406L9.54843 26.85L9.90226 27.2033L24.3236 12.7593L23.9698 12.406ZM9.54838 26.8501C8.34338 28.0575 6.38827 28.059 5.17918 26.8536L4.82617 27.2077C6.23041 28.6077 8.50197 28.6064 9.9023 27.2033L9.54838 26.8501ZM5.17935 26.8538C3.96819 25.644 3.96654 23.6817 5.17565 22.4699L4.8217 22.1167C3.41762 23.5239 3.41954 25.8027 4.826 27.2075L5.17935 26.8538ZM5.17553 22.47L22.4662 5.16335L22.1125 4.80996L4.82182 22.1166L5.17553 22.47ZM22.4688 5.16067C22.4851 5.1439 22.5027 5.12851 22.5215 5.11467L22.2252 4.71198C22.184 4.74228 22.1454 4.77595 22.1098 4.81265L22.4688 5.16067ZM22.5453 5.09477C23.7557 3.94759 25.6588 3.97067 26.841 5.14687L27.1937 4.79242C25.8198 3.42549 23.608 3.39866 22.2014 4.73187L22.5453 5.09477ZM26.841 5.14687C28.0232 6.32307 28.056 8.22607 26.915 9.44228L27.2797 9.78437C28.6057 8.37094 28.5676 6.15935 27.1937 4.79242L26.841 5.14687ZM26.8923 9.47029C26.8788 9.48965 26.8637 9.50783 26.8471 9.52465L27.2035 9.87533C27.2398 9.83852 27.2728 9.79872 27.3024 9.75636L26.8923 9.47029ZM26.8484 9.52335L24.3071 12.0687L24.6609 12.422L27.2023 9.87663L26.8484 9.52335ZM22.6667 21.5833H23.3333V21.0833H22.6667V21.5833ZM23.3333 21.5833C23.5635 21.5833 23.75 21.7699 23.75 22H24.25C24.25 21.4937 23.8396 21.0833 23.3333 21.0833V21.5833ZM23.75 22C23.75 22.2301 23.5635 22.4167 23.3333 22.4167V22.9167C23.8396 22.9167 24.25 22.5063 24.25 22H23.75ZM23.3333 22.4167H22.6667V22.9167H23.3333V22.4167ZM22.4167 22.6667V23.416H22.9167V22.6667H22.4167ZM22.4167 23.416C22.4167 23.6461 22.2301 23.8327 22 23.8327V24.3327C22.5063 24.3327 22.9167 23.9223 22.9167 23.416H22.4167ZM22 23.8327C21.7699 23.8327 21.5833 23.6461 21.5833 23.416H21.0833C21.0833 23.9223 21.4937 24.3327 22 24.3327V23.8327ZM21.5833 23.416V22.6667H21.0833V23.416H21.5833ZM21.3333 22.4167H20.6667V22.9167H21.3333V22.4167ZM20.6667 22.4167C20.4366 22.4167 20.25 22.2301 20.25 22H19.75C19.75 22.5063 20.1604 22.9167 20.6667 22.9167V22.4167ZM20.25 22C20.25 21.7699 20.4366 21.5833 20.6667 21.5833V21.0833C20.1604 21.0833 19.75 21.4937 19.75 22H20.25ZM20.6667 21.5833H21.3333V21.0833H20.6667V21.5833ZM21.5833 21.3333V20.6667H21.0833V21.3333H21.5833ZM21.5833 20.6667C21.5833 20.4365 21.7699 20.25 22 20.25V19.75C21.4937 19.75 21.0833 20.1604 21.0833 20.6667H21.5833ZM22 20.25C22.2301 20.25 22.4167 20.4365 22.4167 20.6667H22.9167C22.9167 20.1604 22.5063 19.75 22 19.75V20.25ZM22.4167 20.6667V21.3333H22.9167V20.6667H22.4167ZM13.5833 5.33332V4.66666H13.0833V5.33332H13.5833ZM13.5833 4.66666C13.5833 4.43654 13.7699 4.24999 14 4.24999V3.74999C13.4937 3.74999 13.0833 4.1604 13.0833 4.66666H13.5833ZM14 4.24999C14.2301 4.24999 14.4167 4.43654 14.4167 4.66666H14.9167C14.9167 4.1604 14.5063 3.74999 14 3.74999V4.24999ZM14.4167 4.66666V5.33332H14.9167V4.66666H14.4167ZM14.6667 5.58332H15.3333V5.08332H14.6667V5.58332ZM15.3333 5.58332C15.5635 5.58332 15.75 5.76987 15.75 5.99999H16.25C16.25 5.49373 15.8396 5.08332 15.3333 5.08332V5.58332ZM15.75 5.99999C15.75 6.23011 15.5635 6.41666 15.3333 6.41666V6.91666C15.8396 6.91666 16.25 6.50625 16.25 5.99999H15.75ZM15.3333 6.41666H14.6667V6.91666H15.3333V6.41666ZM14.4167 6.66666V7.33332H14.9167V6.66666H14.4167ZM14.4167 7.33332C14.4167 7.56344 14.2301 7.74999 14 7.74999V8.24999C14.5063 8.24999 14.9167 7.83959 14.9167 7.33332H14.4167ZM14 7.74999C13.7699 7.74999 13.5833 7.56344 13.5833 7.33332H13.0833C13.0833 7.83959 13.4937 8.24999 14 8.24999V7.74999ZM13.5833 7.33332V6.66666H13.0833V7.33332H13.5833ZM13.3333 6.41666H12.6667V6.91666H13.3333V6.41666ZM12.6667 6.41666C12.4366 6.41666 12.25 6.23011 12.25 5.99999H11.75C11.75 6.50625 12.1604 6.91666 12.6667 6.91666V6.41666ZM12.25 5.99999C12.25 5.76987 12.4366 5.58332 12.6667 5.58332V5.08332C12.1604 5.08332 11.75 5.49373 11.75 5.99999H12.25ZM12.6667 5.58332H13.3333V5.08332H12.6667V5.58332ZM29.3333 16.25H30V15.75H29.3333V16.25ZM30 16.25C30.2301 16.25 30.4167 16.4365 30.4167 16.6667H30.9167C30.9167 16.1604 30.5063 15.75 30 15.75V16.25ZM30.4167 16.6667C30.4167 16.8968 30.2301 17.0833 30 17.0833V17.5833C30.5063 17.5833 30.9167 17.1729 30.9167 16.6667H30.4167ZM30 17.0833H29.3333V17.5833H30V17.0833ZM29.0833 17.3333V18H29.5833V17.3333H29.0833ZM29.0833 18C29.0833 18.2301 28.8968 18.4167 28.6667 18.4167V18.9167C29.1729 18.9167 29.5833 18.5063 29.5833 18H29.0833ZM28.6667 18.4167C28.4366 18.4167 28.25 18.2301 28.25 18H27.75C27.75 18.5063 28.1604 18.9167 28.6667 18.9167V18.4167ZM28.25 18V17.3333H27.75V18H28.25ZM28 17.0833H27.3333V17.5833H28V17.0833ZM27.3333 17.0833C27.1032 17.0833 26.9167 16.8968 26.9167 16.6667H26.4167C26.4167 17.1729 26.8271 17.5833 27.3333 17.5833V17.0833ZM26.9167 16.6667C26.9167 16.4365 27.1032 16.25 27.3333 16.25V15.75C26.8271 15.75 26.4167 16.1604 26.4167 16.6667H26.9167ZM27.3333 16.25H28V15.75H27.3333V16.25ZM28.25 16V15.3333H27.75V16H28.25ZM28.25 15.3333C28.25 15.1032 28.4366 14.9167 28.6667 14.9167V14.4167C28.1604 14.4167 27.75 14.8271 27.75 15.3333H28.25ZM28.6667 14.9167C28.8968 14.9167 29.0833 15.1032 29.0833 15.3333H29.5833C29.5833 14.8271 29.1729 14.4167 28.6667 14.4167V14.9167ZM29.0833 15.3333V16H29.5833V15.3333H29.0833ZM24.6667 9.58332C25.4705 9.58332 26.2133 9.15448 26.6152 8.45832L26.1822 8.20832C25.8696 8.74978 25.2919 9.08332 24.6667 9.08332V9.58332ZM26.6152 8.45832C27.0172 7.76217 27.0172 6.90448 26.6152 6.20832L26.1822 6.45832C26.4948 6.99978 26.4948 7.66687 26.1822 8.20832L26.6152 8.45832ZM26.6152 6.20832C26.2133 5.51217 25.4705 5.08332 24.6667 5.08332V5.58332C25.2919 5.58332 25.8696 5.91687 26.1822 6.45832L26.6152 6.20832ZM24.6667 5.08332C23.424 5.08332 22.4167 6.09068 22.4167 7.33332H22.9167C22.9167 6.36683 23.7002 5.58332 24.6667 5.58332V5.08332ZM22.4167 7.33332C22.4167 8.57596 23.424 9.58332 24.6667 9.58332V9.08332C23.7002 9.08332 22.9167 8.29982 22.9167 7.33332H22.4167Z" fill="#EC294E"/>
</svg>
