<svg width="28" height="26" viewBox="0 0 28 26" fill="none" xmlns="http://www.w3.org/2000/svg">
<path fill-rule="evenodd" clip-rule="evenodd" d="M17.6867 5.47599C17.6638 5.50937 17.6379 5.54061 17.6093 5.56932C16.8227 6.35599 16.8227 7.63199 17.612 8.42132C18.3347 9.14132 19.4707 9.19732 20.256 8.58799L21.2067 7.63466C19.7327 7.42859 18.5735 6.27103 18.3653 4.79732L17.6853 5.47732L17.6867 5.47599ZM15.7173 7.44666L2.94267 20.236C2.15601 21.0227 2.15601 22.2987 2.94534 23.088C3.72934 23.8707 4.99867 23.8693 5.78267 23.084L18.5427 10.304C17.0706 10.0857 15.9197 8.92122 15.7187 7.44666H15.7173ZM21.484 9.24533C21.4576 9.28681 21.4268 9.32526 21.392 9.35999C21.3133 9.43866 21.232 9.51332 21.1467 9.58266L6.72534 24.0267C5.42267 25.332 3.30934 25.3333 2.00267 24.0307C0.693869 22.7234 0.692078 20.6028 1.99867 19.2933L19.2893 1.98666C19.3153 1.95992 19.3434 1.93539 19.3733 1.91332C20.6819 0.673129 22.7393 0.698081 24.0174 1.96965C25.2954 3.24121 25.3309 5.29851 24.0973 6.61332C24.0758 6.64418 24.0517 6.67317 24.0253 6.69999L21.484 9.24533ZM19.6667 18.3333H20.3333C20.7015 18.3333 21 18.6318 21 19C21 19.3682 20.7015 19.6667 20.3333 19.6667H19.6667V20.416C19.6667 20.7842 19.3682 21.0827 19 21.0827C18.6318 21.0827 18.3333 20.7842 18.3333 20.416V19.6667H17.6667C17.2985 19.6667 17 19.3682 17 19C17 18.6318 17.2985 18.3333 17.6667 18.3333H18.3333V17.6667C18.3333 17.2985 18.6318 17 19 17C19.3682 17 19.6667 17.2985 19.6667 17.6667V18.3333ZM10.3333 2.33332V1.66666C10.3333 1.29847 10.6318 0.999991 11 0.999991C11.3682 0.999991 11.6667 1.29847 11.6667 1.66666V2.33332H12.3333C12.7015 2.33332 13 2.6318 13 2.99999C13 3.36818 12.7015 3.66666 12.3333 3.66666H11.6667V4.33332C11.6667 4.70151 11.3682 4.99999 11 4.99999C10.6318 4.99999 10.3333 4.70151 10.3333 4.33332V3.66666H9.66667C9.29848 3.66666 9.00001 3.36818 9.00001 2.99999C9.00001 2.6318 9.29848 2.33332 9.66667 2.33332H10.3333ZM26.3333 13H27C27.3682 13 27.6667 13.2985 27.6667 13.6667C27.6667 14.0348 27.3682 14.3333 27 14.3333H26.3333V15C26.3333 15.3682 26.0349 15.6667 25.6667 15.6667C25.2985 15.6667 25 15.3682 25 15V14.3333H24.3333C23.9652 14.3333 23.6667 14.0348 23.6667 13.6667C23.6667 13.2985 23.9652 13 24.3333 13H25V12.3333C25 11.9651 25.2985 11.6667 25.6667 11.6667C26.0349 11.6667 26.3333 11.9651 26.3333 12.3333V13ZM21.6667 6.33332C22.3812 6.33332 23.0415 5.95213 23.3987 5.33332C23.756 4.71452 23.756 3.95213 23.3987 3.33332C23.0415 2.71452 22.3812 2.33332 21.6667 2.33332C20.5621 2.33332 19.6667 3.22875 19.6667 4.33332C19.6667 5.43789 20.5621 6.33332 21.6667 6.33332Z" fill="#EC294E"/>
<path d="M17.6867 5.47599L17.8928 5.61745L17.5099 5.29921L17.6867 5.47599ZM17.6093 5.56932L17.7861 5.7461L17.7866 5.74557L17.6093 5.56932ZM17.612 8.42132L17.4352 8.5981L17.4356 8.59843L17.612 8.42132ZM20.256 8.58799L20.4093 8.78551L20.4218 8.77577L20.433 8.76452L20.256 8.58799ZM21.2067 7.63466L21.3837 7.81119L21.7375 7.45643L21.2413 7.38707L21.2067 7.63466ZM18.3653 4.79732L18.6129 4.76236L18.5428 4.26629L18.1886 4.62055L18.3653 4.79732ZM17.6853 5.47732L17.5086 5.30055L17.8621 5.6541L17.6853 5.47732ZM15.7173 7.44666V7.19666H15.6137L15.5405 7.26998L15.7173 7.44666ZM2.94267 20.236L3.11945 20.4128L3.11955 20.4127L2.94267 20.236ZM2.94534 23.088L2.76856 23.2648L2.76872 23.2649L2.94534 23.088ZM5.78267 23.084L5.60576 22.9074L5.60575 22.9074L5.78267 23.084ZM18.5427 10.304L18.7196 10.4806L19.0702 10.1295L18.5793 10.0567L18.5427 10.304ZM15.7187 7.44666L15.9664 7.41289L15.9369 7.19666H15.7187V7.44666ZM21.484 9.24533L21.3071 9.06869L21.2877 9.08809L21.273 9.11124L21.484 9.24533ZM21.392 9.35999L21.2154 9.18307L21.2152 9.18321L21.392 9.35999ZM21.1467 9.58266L20.989 9.38863L20.9789 9.39682L20.9698 9.40602L21.1467 9.58266ZM6.72534 24.0267L6.54843 23.85L6.54838 23.8501L6.72534 24.0267ZM2.00267 24.0307L1.826 24.2075L1.82617 24.2077L2.00267 24.0307ZM1.99867 19.2933L1.82182 19.1166L1.8217 19.1167L1.99867 19.2933ZM19.2893 1.98666L19.4662 2.16337L19.4688 2.16067L19.2893 1.98666ZM19.3733 1.91332L19.5215 2.11467L19.534 2.10546L19.5453 2.09477L19.3733 1.91332ZM24.0973 6.61332L23.915 6.44228L23.9026 6.45546L23.8923 6.47029L24.0973 6.61332ZM24.0253 6.69999L24.2023 6.87663L24.2035 6.87533L24.0253 6.69999ZM19.6667 18.3333H19.4167V18.5833H19.6667V18.3333ZM19.6667 19.6667V19.4167H19.4167V19.6667H19.6667ZM18.3333 19.6667H18.5833V19.4167H18.3333V19.6667ZM18.3333 18.3333V18.5833H18.5833V18.3333H18.3333ZM10.3333 2.33332V2.58332H10.5833V2.33332H10.3333ZM11.6667 2.33332H11.4167V2.58332H11.6667V2.33332ZM11.6667 3.66666V3.41666H11.4167V3.66666H11.6667ZM10.3333 3.66666H10.5833V3.41666H10.3333V3.66666ZM26.3333 13H26.0833V13.25H26.3333V13ZM26.3333 14.3333V14.0833H26.0833V14.3333H26.3333ZM25 14.3333H25.25V14.0833H25V14.3333ZM25 13V13.25H25.25V13H25ZM21.6667 6.33332V6.08332V6.33332ZM21.6667 2.33332V2.58332V2.33332ZM17.4805 5.33453C17.4662 5.35547 17.4499 5.37507 17.432 5.39308L17.7866 5.74557C17.8258 5.70616 17.8614 5.66327 17.8928 5.61745L17.4805 5.33453ZM17.4326 5.39255C16.5481 6.27706 16.5485 7.71135 17.4352 8.5981L17.7888 8.24455C17.0969 7.55263 17.0973 6.43492 17.7861 5.7461L17.4326 5.39255ZM17.4356 8.59843C18.2483 9.40815 19.5256 9.47114 20.4093 8.78551L20.1028 8.39047C19.4158 8.92351 18.4211 8.8745 17.7885 8.24422L17.4356 8.59843ZM20.433 8.76452L21.3837 7.81119L21.0297 7.45813L20.079 8.41146L20.433 8.76452ZM21.2413 7.38707C19.8778 7.19644 18.8054 6.12563 18.6129 4.76236L18.1178 4.83229C18.3415 6.41643 19.5876 7.66074 21.1721 7.88225L21.2413 7.38707ZM18.1886 4.62055L17.5086 5.30055L17.8621 5.6541L18.5421 4.9741L18.1886 4.62055ZM17.8621 5.6541L17.8634 5.65277L17.5099 5.29921L17.5086 5.30054L17.8621 5.6541ZM15.5405 7.26998L2.7658 20.0593L3.11955 20.4127L15.8942 7.62333L15.5405 7.26998ZM2.7659 20.0592C1.88138 20.9437 1.88182 22.378 2.76856 23.2648L3.12212 22.9112C2.4302 22.2193 2.43063 21.1016 3.11945 20.4128L2.7659 20.0592ZM2.76872 23.2649C3.65058 24.1453 5.0782 24.1435 5.9596 23.2606L5.60575 22.9074C4.91915 23.5951 3.8081 23.596 3.12197 22.9111L2.76872 23.2649ZM5.95959 23.2606L18.7196 10.4806L18.3658 10.1274L5.60576 22.9074L5.95959 23.2606ZM18.5793 10.0567C17.2173 9.85472 16.1524 8.77726 15.9664 7.41289L15.471 7.48042C15.687 9.06518 16.9239 10.3167 18.506 10.5513L18.5793 10.0567ZM15.7187 7.19666H15.7173V7.69666H15.7187V7.19666ZM21.273 9.11124C21.2565 9.13722 21.2372 9.16131 21.2154 9.18307L21.5686 9.53691C21.6164 9.48921 21.6588 9.43639 21.695 9.37941L21.273 9.11124ZM21.2152 9.18321C21.1415 9.25693 21.0666 9.32563 20.989 9.38863L21.3043 9.77669C21.3975 9.70102 21.4852 9.62038 21.5688 9.53677L21.2152 9.18321ZM20.9698 9.40602L6.54843 23.85L6.90226 24.2033L21.3236 9.7593L20.9698 9.40602ZM6.54838 23.8501C5.34338 25.0575 3.38827 25.059 2.17918 23.8536L1.82617 24.2077C3.23041 25.6077 5.50197 25.6064 6.9023 24.2033L6.54838 23.8501ZM2.17935 23.8538C0.968194 22.644 0.966537 20.6817 2.17565 19.4699L1.8217 19.1167C0.417619 20.5239 0.419543 22.8027 1.826 24.2075L2.17935 23.8538ZM2.17553 19.47L19.4662 2.16335L19.1125 1.80996L1.82182 19.1166L2.17553 19.47ZM19.4688 2.16067C19.4851 2.1439 19.5027 2.12851 19.5215 2.11467L19.2252 1.71198C19.184 1.74228 19.1454 1.77595 19.1098 1.81265L19.4688 2.16067ZM19.5453 2.09477C20.7557 0.947594 22.6588 0.970675 23.841 2.14687L24.1937 1.79242C22.8198 0.425488 20.608 0.398664 19.2014 1.73187L19.5453 2.09477ZM23.841 2.14687C25.0232 3.32307 25.056 5.22607 23.915 6.44228L24.2797 6.78437C25.6057 5.37094 25.5676 3.15935 24.1937 1.79242L23.841 2.14687ZM23.8923 6.47029C23.8788 6.48965 23.8637 6.50783 23.8471 6.52465L24.2035 6.87533C24.2398 6.83852 24.2728 6.79872 24.3024 6.75636L23.8923 6.47029ZM23.8484 6.52335L21.3071 9.06869L21.6609 9.42196L24.2023 6.87663L23.8484 6.52335ZM19.6667 18.5833H20.3333V18.0833H19.6667V18.5833ZM20.3333 18.5833C20.5635 18.5833 20.75 18.7699 20.75 19H21.25C21.25 18.4937 20.8396 18.0833 20.3333 18.0833V18.5833ZM20.75 19C20.75 19.2301 20.5635 19.4167 20.3333 19.4167V19.9167C20.8396 19.9167 21.25 19.5063 21.25 19H20.75ZM20.3333 19.4167H19.6667V19.9167H20.3333V19.4167ZM19.4167 19.6667V20.416H19.9167V19.6667H19.4167ZM19.4167 20.416C19.4167 20.6461 19.2301 20.8327 19 20.8327V21.3327C19.5063 21.3327 19.9167 20.9223 19.9167 20.416H19.4167ZM19 20.8327C18.7699 20.8327 18.5833 20.6461 18.5833 20.416H18.0833C18.0833 20.9223 18.4937 21.3327 19 21.3327V20.8327ZM18.5833 20.416V19.6667H18.0833V20.416H18.5833ZM18.3333 19.4167H17.6667V19.9167H18.3333V19.4167ZM17.6667 19.4167C17.4366 19.4167 17.25 19.2301 17.25 19H16.75C16.75 19.5063 17.1604 19.9167 17.6667 19.9167V19.4167ZM17.25 19C17.25 18.7699 17.4366 18.5833 17.6667 18.5833V18.0833C17.1604 18.0833 16.75 18.4937 16.75 19H17.25ZM17.6667 18.5833H18.3333V18.0833H17.6667V18.5833ZM18.5833 18.3333V17.6667H18.0833V18.3333H18.5833ZM18.5833 17.6667C18.5833 17.4365 18.7699 17.25 19 17.25V16.75C18.4937 16.75 18.0833 17.1604 18.0833 17.6667H18.5833ZM19 17.25C19.2301 17.25 19.4167 17.4365 19.4167 17.6667H19.9167C19.9167 17.1604 19.5063 16.75 19 16.75V17.25ZM19.4167 17.6667V18.3333H19.9167V17.6667H19.4167ZM10.5833 2.33332V1.66666H10.0833V2.33332H10.5833ZM10.5833 1.66666C10.5833 1.43654 10.7699 1.24999 11 1.24999V0.749991C10.4937 0.749991 10.0833 1.1604 10.0833 1.66666H10.5833ZM11 1.24999C11.2301 1.24999 11.4167 1.43654 11.4167 1.66666H11.9167C11.9167 1.1604 11.5063 0.749991 11 0.749991V1.24999ZM11.4167 1.66666V2.33332H11.9167V1.66666H11.4167ZM11.6667 2.58332H12.3333V2.08332H11.6667V2.58332ZM12.3333 2.58332C12.5635 2.58332 12.75 2.76987 12.75 2.99999H13.25C13.25 2.49373 12.8396 2.08332 12.3333 2.08332V2.58332ZM12.75 2.99999C12.75 3.23011 12.5635 3.41666 12.3333 3.41666V3.91666C12.8396 3.91666 13.25 3.50625 13.25 2.99999H12.75ZM12.3333 3.41666H11.6667V3.91666H12.3333V3.41666ZM11.4167 3.66666V4.33332H11.9167V3.66666H11.4167ZM11.4167 4.33332C11.4167 4.56344 11.2301 4.74999 11 4.74999V5.24999C11.5063 5.24999 11.9167 4.83959 11.9167 4.33332H11.4167ZM11 4.74999C10.7699 4.74999 10.5833 4.56344 10.5833 4.33332H10.0833C10.0833 4.83959 10.4937 5.24999 11 5.24999V4.74999ZM10.5833 4.33332V3.66666H10.0833V4.33332H10.5833ZM10.3333 3.41666H9.66667V3.91666H10.3333V3.41666ZM9.66667 3.41666C9.43656 3.41666 9.25001 3.23011 9.25001 2.99999H8.75001C8.75001 3.50625 9.16041 3.91666 9.66667 3.91666V3.41666ZM9.25001 2.99999C9.25001 2.76987 9.43656 2.58332 9.66667 2.58332V2.08332C9.16041 2.08332 8.75001 2.49373 8.75001 2.99999H9.25001ZM9.66667 2.58332H10.3333V2.08332H9.66667V2.58332ZM26.3333 13.25H27V12.75H26.3333V13.25ZM27 13.25C27.2301 13.25 27.4167 13.4365 27.4167 13.6667H27.9167C27.9167 13.1604 27.5063 12.75 27 12.75V13.25ZM27.4167 13.6667C27.4167 13.8968 27.2301 14.0833 27 14.0833V14.5833C27.5063 14.5833 27.9167 14.1729 27.9167 13.6667H27.4167ZM27 14.0833H26.3333V14.5833H27V14.0833ZM26.0833 14.3333V15H26.5833V14.3333H26.0833ZM26.0833 15C26.0833 15.2301 25.8968 15.4167 25.6667 15.4167V15.9167C26.1729 15.9167 26.5833 15.5063 26.5833 15H26.0833ZM25.6667 15.4167C25.4366 15.4167 25.25 15.2301 25.25 15H24.75C24.75 15.5063 25.1604 15.9167 25.6667 15.9167V15.4167ZM25.25 15V14.3333H24.75V15H25.25ZM25 14.0833H24.3333V14.5833H25V14.0833ZM24.3333 14.0833C24.1032 14.0833 23.9167 13.8968 23.9167 13.6667H23.4167C23.4167 14.1729 23.8271 14.5833 24.3333 14.5833V14.0833ZM23.9167 13.6667C23.9167 13.4365 24.1032 13.25 24.3333 13.25V12.75C23.8271 12.75 23.4167 13.1604 23.4167 13.6667H23.9167ZM24.3333 13.25H25V12.75H24.3333V13.25ZM25.25 13V12.3333H24.75V13H25.25ZM25.25 12.3333C25.25 12.1032 25.4366 11.9167 25.6667 11.9167V11.4167C25.1604 11.4167 24.75 11.8271 24.75 12.3333H25.25ZM25.6667 11.9167C25.8968 11.9167 26.0833 12.1032 26.0833 12.3333H26.5833C26.5833 11.8271 26.1729 11.4167 25.6667 11.4167V11.9167ZM26.0833 12.3333V13H26.5833V12.3333H26.0833ZM21.6667 6.58332C22.4705 6.58332 23.2133 6.15448 23.6152 5.45832L23.1822 5.20832C22.8696 5.74978 22.2919 6.08332 21.6667 6.08332V6.58332ZM23.6152 5.45832C24.0172 4.76217 24.0172 3.90448 23.6152 3.20832L23.1822 3.45832C23.4948 3.99978 23.4948 4.66687 23.1822 5.20832L23.6152 5.45832ZM23.6152 3.20832C23.2133 2.51217 22.4705 2.08332 21.6667 2.08332V2.58332C22.2919 2.58332 22.8696 2.91687 23.1822 3.45832L23.6152 3.20832ZM21.6667 2.08332C20.424 2.08332 19.4167 3.09068 19.4167 4.33332H19.9167C19.9167 3.36683 20.7002 2.58332 21.6667 2.58332V2.08332ZM19.4167 4.33332C19.4167 5.57596 20.424 6.58332 21.6667 6.58332V6.08332C20.7002 6.08332 19.9167 5.29982 19.9167 4.33332H19.4167Z" fill="#EC294E"/>
</svg>
