<svg width="38" height="38" viewBox="0 0 38 38" fill="none" xmlns="http://www.w3.org/2000/svg">
<path fill-rule="evenodd" clip-rule="evenodd" d="M25.3333 9.5H12.6667V28.5158H25.3333V9.5ZM26.9167 9.5V28.5158H29.2917C30.6033 28.5158 31.6667 27.4525 31.6667 26.1408V11.875C31.6667 10.5633 30.6033 9.5 29.2917 9.5H26.9167ZM11.0833 9.5H8.70833C7.39666 9.5 6.33333 10.5633 6.33333 11.875V26.1408C6.33333 27.4525 7.39666 28.5158 8.70833 28.5158H11.0833V9.5ZM14.25 7.91667V7.125C14.25 5.81332 15.3133 4.75 16.625 4.75H21.375C22.6867 4.75 23.75 5.81332 23.75 7.125V7.91667H29.2917C31.4778 7.91667 33.25 9.68887 33.25 11.875V26.1408C33.25 28.327 31.4778 30.0992 29.2917 30.0992H8.70833C6.52221 30.0992 4.75 28.327 4.75 26.1408V11.875C4.75 9.68887 6.52221 7.91667 8.70833 7.91667H14.25ZM22.1667 7.91667V7.125C22.1667 6.68777 21.8122 6.33333 21.375 6.33333H16.625C16.1878 6.33333 15.8333 6.68777 15.8333 7.125V7.91667H22.1667Z" fill="#EC294E"/>
</svg>
