<svg width="20" height="19" viewBox="0 0 20 19" fill="none" xmlns="http://www.w3.org/2000/svg">
<path fill-rule="evenodd" clip-rule="evenodd" d="M4.29252 9.49994H8.20835L6.25002 4.66523L4.29252 9.49994ZM3.97169 10.2916L2.47169 13.9966C2.38884 14.2006 2.14764 14.3021 1.93294 14.2234C1.71823 14.1447 1.61134 13.9156 1.69419 13.7116L5.86085 3.41994C5.92255 3.26672 6.07734 3.16553 6.25002 3.16553C6.4227 3.16553 6.57749 3.26672 6.63919 3.41994L10.8059 13.7116C10.8887 13.9158 10.7816 14.1451 10.5667 14.2238C10.3518 14.3025 10.1104 14.2008 10.0275 13.9966L8.52752 10.2916H3.97252H3.97169ZM17.4642 8.54756C17.4875 8.59665 17.5 8.65048 17.5 8.70827C17.5 8.76211 17.4984 8.81515 17.4942 8.86661C17.4984 8.94419 17.5 9.02336 17.5 9.10411V13.0624C17.5 13.2811 17.6866 13.4583 17.9167 13.4583C18.1468 13.4583 18.3334 13.6355 18.3334 13.8541C18.3334 14.0727 18.1468 14.2499 17.9167 14.2499C17.488 14.2502 17.0891 14.0416 16.86 13.6974C16.4859 14.0394 15.9767 14.2499 15.4167 14.2499H13.75C12.1492 14.2499 11.25 13.5667 11.25 12.2708C11.25 10.9289 12.0734 10.5172 14.3084 10.1087L14.4809 10.0771C14.8517 10.009 15.085 9.96227 15.3159 9.90765C16.1809 9.70181 16.5967 9.35744 16.6584 8.84761C16.5792 7.66327 15.9267 7.12494 14.5834 7.12494C13.12 7.12494 12.5 7.51761 12.5 8.31244C12.5 8.53105 12.3135 8.70827 12.0834 8.70827C11.8532 8.70827 11.6667 8.53105 11.6667 8.31244C11.6667 6.99669 12.7134 6.33327 14.5834 6.33327C16.275 6.33327 17.2684 7.10356 17.4642 8.54756ZM16.6667 12.2708V10.2101C16.3617 10.4104 15.9767 10.5663 15.5175 10.6756C15.2692 10.7349 15.0242 10.784 14.6392 10.8545L14.465 10.8861C12.6234 11.2226 12.0834 11.4926 12.0834 12.2708C12.0834 13.0862 12.5734 13.4583 13.75 13.4583H15.4167C16.107 13.4583 16.6667 12.9266 16.6667 12.2708Z" fill="#EC294E"/>
</svg>
