<svg width="20" height="20" viewBox="0 0 20 20" fill="none" xmlns="http://www.w3.org/2000/svg">
<g clip-path="url(#clip0_656_1373)">
<path d="M17.5641 20H17.6094C18.9291 20 20 18.9287 20 17.6085V2.39155C20 1.07129 18.9291 0 17.6094 0H2.39065C1.07089 0 0 1.07129 0 2.39155V17.6085C0 18.9287 1.07089 20 2.39065 20H11.8929M12.1342 18.8684H2.39065C1.69683 18.8684 1.13122 18.3025 1.13122 17.6085V2.39155C1.13122 1.69747 1.69683 1.13165 2.39065 1.13165H17.6094C18.3032 1.13165 18.8688 1.69747 18.8688 2.39155V17.6085C18.8688 18.3025 18.3032 18.8684 17.6094 18.8684" fill="#EC294E"/>
<path d="M6.33428 16V5.137H7.72828V16H6.33428ZM6.75078 16V14.8185H13.1088V16H6.75078ZM7.13328 11.0445V9.8715H12.9303V11.0445H7.13328ZM6.74228 6.3185V5.137H13.0578V6.3185H6.74228Z" fill="#EC294E"/>
</g>
<defs>
<clipPath id="clip0_656_1373">
<rect width="20" height="20" fill="white"/>
</clipPath>
</defs>
</svg>
