<svg width="186" height="71" viewBox="0 0 186 71" fill="none" xmlns="http://www.w3.org/2000/svg">
<path d="M66.2001 51.664L62.0217 40.3788H60.3992V53.1926H61.5327V42.0199L65.6667 53.1926H66.7558L70.8231 42.0199V53.1926H71.9344V40.3788H70.3119L66.2001 51.664Z" fill="#233057"/>
<path d="M81.9585 40.3788L77.1577 53.1926H78.3801L79.847 49.2586H85.5146L86.9593 53.1926H88.1818L83.381 40.3788H81.9585ZM80.1804 48.2245L82.6253 41.6377L85.0924 48.2245H80.1804Z" fill="#233057"/>
<path d="M93.5381 40.716H92.8047V45.5268H93.5381V40.716Z" fill="#233057"/>
<path d="M100.873 40.3788H99.6946V53.1926H107.34V52.1361H100.873V40.3788Z" fill="#233057"/>
<path d="M117.342 40.0416C115.564 40.0416 114.164 40.6486 113.119 41.8625C112.074 43.0765 111.541 44.7175 111.541 46.7857C111.541 48.8539 112.074 50.495 113.119 51.7089C114.164 52.9229 115.564 53.5298 117.342 53.5298C119.12 53.5298 120.542 52.9229 121.587 51.7089C122.632 50.495 123.165 48.8539 123.165 46.7857C123.165 44.7175 122.632 43.0765 121.587 41.8625C120.52 40.6486 119.12 40.0416 117.342 40.0416ZM120.698 50.9671C119.876 51.9787 118.742 52.4957 117.32 52.4957C115.92 52.4957 114.786 51.9787 113.964 50.9671C113.141 49.9555 112.719 48.5617 112.719 46.8082C112.719 45.0547 113.141 43.6834 113.964 42.6493C114.808 41.6153 115.92 41.0982 117.298 41.0982C118.72 41.0982 119.831 41.6152 120.676 42.6269C121.498 43.661 121.921 45.0547 121.921 46.8082C121.943 48.5617 121.543 49.933 120.698 50.9671Z" fill="#233057"/>
<path d="M135.078 51.664L130.9 40.3788H129.277V53.1926H130.411V42.0199L134.545 53.1926H135.634L139.701 42.0199V53.1926H140.813V40.3788H139.19L135.078 51.664Z" fill="#233057"/>
<path d="M150.836 40.3788L146.036 53.1926H147.258L148.725 49.2586H154.393L155.837 53.1926H157.06L152.259 40.3788H150.836ZM149.058 48.2245L151.503 41.6377L153.97 48.2245H149.058Z" fill="#233057"/>
<path d="M160.349 41.4354H164.283V53.1926H165.483V41.4354H169.417V40.3788H160.349V41.4354Z" fill="#233057"/>
<path d="M176.129 40.3788H174.929V53.1926H176.129V40.3788Z" fill="#233057"/>
<path d="M64.9556 36.4223H63.6887V37.9734H64.9556V36.4223Z" fill="#233057"/>
<path d="M67.3116 36.4223H66.0447V37.9734H67.3116V36.4223Z" fill="#233057"/>
<path d="M82.1807 21.0008H80.9138V22.5519H82.1807V21.0008Z" fill="#233057"/>
<path d="M79.8247 21.0008H78.5579V22.5519H79.8247V21.0008Z" fill="#233057"/>
<path d="M78.1578 32.1061H79.5358C81.2916 32.1061 82.1806 31.027 82.1806 28.9139V23.8558H80.9138V28.3294C80.9138 29.1612 80.8249 29.7457 80.6471 30.0829C80.4026 30.5999 79.8914 30.8472 79.1135 30.8472H78.1355V30.8247H74.6461H74.3571H74.2682C72.9125 30.8247 72.3346 30.2402 71.6678 28.5092C71.1122 27.048 69.6008 25.924 68.5117 25.924C67.8672 25.924 67.5338 25.9465 67.5338 25.969H67.5782V27.1155C69.0451 27.1155 69.912 27.9472 69.912 29.5883C69.912 31.7689 67.8227 33.7921 65.4001 33.7921C62.5552 33.7921 60.7993 31.634 60.7993 28.3744V26.8007H59.5325V28.6216C59.5325 32.241 62.044 35.0735 65.3557 35.0735C68.4006 35.0735 71.0677 32.6681 71.0677 29.6332C71.4678 31.1844 72.7346 32.1286 74.3794 32.1286H74.4016H74.6683H77.9577H78.1578V32.1061Z" fill="#233057"/>
<path d="M112.586 29.5658C112.586 28.3743 112.274 27.3852 111.652 26.6434C110.985 25.8566 110.052 25.4744 108.896 25.4744C107.74 25.4744 106.807 25.8566 106.118 26.6434C105.429 27.4302 105.095 28.3968 105.095 29.6108C105.095 30.0604 105.14 30.4875 105.251 30.8697H102.74H102.317H99.2056H98.9611H95.6495H95.405H92.0933H91.8489H88.5594C88.515 30.8697 88.4483 30.8697 88.4038 30.8697C87.6704 30.8697 87.537 30.8697 87.4037 30.8472C86.9147 30.7797 86.5813 30.5999 86.3813 30.2852C86.159 29.9255 86.0257 29.3185 86.0257 28.4867V20.3938H84.7366V29.2511C84.7366 30.2177 84.9811 30.9371 85.5145 31.4542C85.959 31.9038 86.4924 32.151 87.137 32.151H88.2927H88.5372H91.8266H92.0711H95.3828H95.6273H98.9389H99.1834H102.295H102.717H105.74C106.429 33.2076 107.474 33.7247 108.852 33.7247C110.007 33.7247 110.919 33.32 111.608 32.5107C112.252 31.7014 112.586 30.7348 112.586 29.5658ZM108.874 32.5332C108.096 32.5332 107.518 32.241 107.096 31.634C106.762 31.1169 106.585 30.465 106.585 29.6332C106.585 28.734 106.762 28.0596 107.096 27.5201C107.518 26.8906 108.118 26.5534 108.941 26.5534C109.696 26.5534 110.274 26.8457 110.674 27.4527C110.985 27.9472 111.141 28.5991 111.141 29.4084C111.119 31.4991 110.363 32.5332 108.874 32.5332Z" fill="#233057"/>
<path d="M175.818 32.4658C176.463 31.7014 176.796 30.7348 176.796 29.5658C176.796 28.3743 176.485 27.3852 175.863 26.6434C175.196 25.8565 174.262 25.4744 173.107 25.4744C171.951 25.4744 171.017 25.8565 170.328 26.6434C169.639 27.4302 169.306 28.3968 169.306 29.6108C169.306 30.0604 169.351 30.4875 169.462 30.8697H166.928H166.506H163.416H163.15H160.994C160.216 30.8697 159.727 30.8247 159.549 30.7797C159.127 30.6673 158.682 30.3526 158.282 29.858C159.238 29.1162 160.016 28.2844 160.66 27.3852C160.994 26.9356 161.349 26.2612 161.816 25.3845C160.394 24.2155 158.815 23.631 157.104 23.631C155.571 23.631 154.081 24.1256 152.614 25.0922L152.637 26.5309C154.215 27.1379 155.482 28.217 156.482 29.7232C155.882 30.1503 155.326 30.465 154.882 30.6224C154.437 30.7797 153.881 30.8472 153.237 30.8472H150.814H150.459H147.28H147.036H144.947C145.169 30.3526 145.28 29.7007 145.28 28.9139V20.3713H144.013V28.3519C144.013 29.1836 143.924 29.7681 143.746 30.1053C143.502 30.5999 142.991 30.8472 142.213 30.8472H141.346V30.8247H137.79H137.545H134.234H133.989H130.678H130.433H127.121H126.877H123.321V30.8472H121.298V27.4751C121.298 25.0697 120.054 23.8558 118.075 23.8558C117.053 23.8558 116.186 24.2604 115.497 25.0472C114.808 25.8565 114.475 26.8232 114.475 28.0146C114.475 29.1836 114.808 30.1728 115.453 30.9596C116.097 31.7464 116.92 32.1285 117.92 32.1285H119.876C119.565 33.2975 118.831 33.882 117.675 33.882H117.52V35.096C119.587 34.9611 120.809 33.9944 121.165 32.1285H123.343H123.654H126.899H127.144H130.455H130.7H134.011H134.256H137.568H137.812H141.079H141.368H147.014H147.258H150.436H150.792H153.259C154.859 32.1285 156.193 31.6565 157.304 30.7123C157.993 31.6565 158.882 32.1285 159.971 32.1285H163.15H163.416H166.506H166.928H169.951C170.64 33.1851 171.684 33.7022 173.062 33.7022C174.218 33.6797 175.129 33.275 175.818 32.4658ZM120.009 30.8247L117.92 30.8472C117.231 30.8472 116.653 30.51 116.253 29.8131C115.92 29.2511 115.742 28.5991 115.742 27.8798C115.742 27.1829 115.942 26.5534 116.32 25.9914C116.742 25.362 117.298 25.0248 117.987 25.0248C118.653 25.0248 119.165 25.2496 119.52 25.6542C119.854 26.0139 120.009 26.4635 120.009 27.003V30.8247ZM157.393 28.8689C156.793 28.0596 156.26 27.4077 155.771 27.003C155.193 26.5085 154.504 26.1038 153.704 25.7891C154.948 25.0922 156.082 24.755 157.126 24.755C157.726 24.755 158.349 24.8674 158.949 25.0922C159.082 25.1372 159.549 25.362 160.305 25.7441C159.66 26.9356 158.704 27.9697 157.393 28.8689ZM173.062 32.5332C172.284 32.5332 171.706 32.241 171.284 31.634C170.951 31.1169 170.773 30.465 170.773 29.6332C170.773 28.734 170.951 28.0596 171.284 27.5201C171.706 26.8906 172.307 26.5534 173.129 26.5534C173.885 26.5534 174.463 26.8457 174.863 27.4526C175.174 27.9472 175.329 28.5991 175.329 29.4084C175.329 31.4991 174.574 32.5332 173.062 32.5332Z" fill="#233057"/>
<path d="M34.3577 51.0181C34.7467 49.5919 34.0336 48.6195 33.1909 47.6471C29.2365 42.7204 25.2821 37.7936 21.3277 32.8668C18.994 29.9496 16.5954 27.0325 14.1968 24.1153C12.641 22.2353 12.5762 20.485 14.0672 18.5402C14.521 17.892 15.1692 17.3734 15.7527 16.8548C15.623 17.4382 15.4933 18.0216 15.4285 18.5402C15.3637 19.5126 15.8175 20.2905 16.4009 21.0036C22.8187 28.9772 29.3013 36.9508 35.7191 44.9244C36.2377 45.5727 36.7563 46.221 36.6915 47.0637C36.6915 47.6471 36.5618 48.3602 36.2377 48.8788C35.7191 49.6567 35.006 50.305 34.3577 51.0181Z" fill="#EC294E"/>
<path d="M25.8655 40.9052C25.7359 42.1369 26.1248 43.1093 26.7083 44.0169C27.4214 45.1189 28.2641 46.0913 29.1068 47.1285C29.9496 48.2306 30.9868 49.203 31.7647 50.305C33.6447 52.8332 33.7095 55.5559 32.2185 58.2786C29.5606 63.1406 23.2077 65.6688 18.2161 63.8537C16.7899 63.3351 15.623 62.4923 14.6506 61.2606C18.2161 64.1778 22.0408 64.9557 26.1897 62.622C28.6531 61.2606 30.0792 59.1862 30.3385 56.3338C30.2737 56.269 30.2089 56.2042 30.1441 56.1394C30.0792 56.269 30.0144 56.4635 29.9496 56.5283C29.5606 56.9173 29.1717 57.3711 28.7827 57.6952C27.2917 58.9269 25.6062 59.0565 23.9208 58.0193C21.2629 56.3987 19.9664 54.0001 20.096 50.8885C20.2257 47.712 21.7167 45.1189 23.7911 42.85C24.4394 42.2666 25.1525 41.6183 25.8655 40.9052ZM22.7539 49.9161C23.0132 52.7684 24.3097 54.6484 26.3842 55.9449C26.5786 56.0745 26.7731 56.0745 26.9676 56.1394C27.8103 56.3338 28.5234 56.1394 28.9124 55.4911C29.3013 54.8428 29.3013 54.1298 28.7179 53.4167C27.2269 51.4719 25.6711 49.5919 24.1801 47.6471C23.8559 47.2582 23.5966 47.2582 23.4022 47.712C23.2077 48.5547 22.9484 49.3326 22.7539 49.9161Z" fill="#EC294E"/>
<path d="M42.0074 41.4239C42.3316 40.3218 42.0074 39.3494 41.2943 38.5067C39.6089 36.4971 37.9234 34.4226 36.2379 32.413C35.0062 30.8572 34.8117 29.1069 35.9138 27.4863C36.8214 26.1897 37.8586 24.8932 39.0254 23.856C41.3592 21.7167 45.0543 22.5595 46.4804 25.4118C47.5825 27.5511 47.5825 29.82 46.8694 32.0241C46.2211 34.0985 45.4432 36.2378 44.5357 38.1826C43.9522 39.4143 42.915 40.3866 42.1371 41.4887C42.0723 41.4239 42.0723 41.4239 42.0074 41.4239ZM43.5633 35.5247C43.6929 34.6171 43.7577 33.904 43.8874 33.191C44.017 31.7648 44.1467 30.4034 43.8226 28.9773C43.4336 27.4214 42.6557 26.1249 41.0999 25.5415C39.9978 25.0877 38.7013 25.5415 38.053 26.449C37.5344 27.1621 37.5344 28.0697 38.2475 28.9124C39.933 31.0517 41.6833 33.191 43.5633 35.5247Z" fill="#EC294E"/>
<path d="M28.1995 33.4503C28.5236 32.2186 28.005 31.311 27.2271 30.4034C25.6064 28.4586 23.9858 26.5139 22.43 24.5043C21.2631 23.0781 21.1334 21.263 22.2355 19.7071C23.143 18.4106 24.1154 17.1789 25.2175 16.1417C27.4864 14.0673 31.1815 14.8452 32.6076 17.5679C33.7097 19.6423 33.7097 21.8464 33.0614 23.9856C32.4132 26.1249 31.6353 28.1993 30.6629 30.2089C30.1443 31.3758 29.107 32.3482 28.3291 33.3854C28.3291 33.4502 28.2643 33.4503 28.1995 33.4503ZM29.7553 27.6159C29.885 26.3194 30.0794 25.1525 30.1443 23.9208C30.2739 22.365 30.1443 20.874 29.3015 19.5126C28.7829 18.6699 28.1346 18.0216 27.1623 17.6975C26.0602 17.3734 24.8285 17.7623 24.2451 18.6699C23.7265 19.383 23.921 20.3554 24.634 21.3278C24.6989 21.3926 24.6989 21.3926 24.7637 21.4574C26.3195 23.3374 27.8105 25.2173 29.3663 27.0325C29.4312 27.2269 29.5608 27.3566 29.7553 27.6159Z" fill="#EC294E"/>
<path d="M0 54.2594C1.62065 55.6856 3.43578 56.5283 5.57504 56.8524C10.048 57.5007 14.6507 54.4539 15.5583 50.1753C15.8824 48.6195 15.6879 47.0637 14.6507 45.832C13.4838 44.4058 12.1873 42.9797 10.9556 41.5535C10.3722 40.8404 9.78873 40.1921 9.27013 39.479C8.29773 38.0529 8.42739 36.5619 9.39978 35.2005C9.85356 34.5523 10.5018 33.904 11.0853 33.1909C11.1501 33.3854 11.1501 33.4502 11.1501 33.515C10.6963 34.5523 10.8908 35.5895 11.4742 36.497C12.1873 37.5343 13.03 38.5715 13.8728 39.5439C14.7803 40.6459 15.8824 41.6183 16.7899 42.7203C18.2161 44.4707 18.9292 46.4803 18.4106 48.7492C18.0865 50.1753 17.4382 51.5367 16.5306 52.6387C13.419 56.3986 9.4646 58.0841 4.53782 57.1117C2.65787 56.7228 1.16687 55.6856 0 54.2594Z" fill="#EC294E"/>
<path d="M34.2282 30.4683C33.4502 32.0241 33.7095 33.4503 34.8116 34.7468C36.4322 36.6916 38.0529 38.6363 39.6087 40.646C40.1922 41.359 40.5811 42.137 40.4515 43.0445C40.3866 43.4983 40.3218 43.9521 40.0625 44.2762C39.4791 45.0541 38.766 45.7672 38.0529 46.5451C38.377 45.3783 37.9881 44.4059 37.2102 43.4983C35.5247 41.4887 33.904 39.4791 32.2834 37.4695C31.1165 36.0433 30.9869 34.4875 31.8944 32.9317C32.5427 31.9593 33.3206 31.1165 34.2282 30.4683Z" fill="#EC294E"/>
<path d="M16.4012 16.1417C16.7253 14.91 16.2715 13.9376 15.5584 13.0949C13.8729 11.0853 12.1875 9.01082 10.5668 7.00121C9.52959 5.70469 9.39994 4.34335 10.113 2.85235C10.6965 1.68548 11.5392 0.777913 12.5116 0C12.5116 0.0648261 12.5764 0.0648253 12.5764 0.129651C11.7337 1.68548 12.0578 3.11165 13.1599 4.40817C14.7157 6.28813 16.2715 8.23291 17.8922 10.1129C18.5404 10.8908 18.9942 11.7335 18.7997 12.7707C18.6701 13.2893 18.4756 13.808 18.1515 14.2617C17.6328 14.91 16.9846 15.4934 16.4012 16.1417Z" fill="#EC294E"/>
<path d="M15.9472 27.8104C15.1044 29.4958 15.4934 30.922 16.6603 32.2834C18.2161 34.1633 19.7071 36.0433 21.3277 37.9232C22.4298 39.2197 22.6891 41.0349 21.1981 42.3962C20.7443 42.85 20.2905 43.3686 19.7071 44.0169C20.0961 42.7204 19.7719 41.748 18.994 40.9052C17.3085 38.8956 15.6879 36.886 14.0024 34.8116C12.8355 33.3854 12.7707 31.8944 13.6134 30.2738C14.1969 29.3662 15.0396 28.5235 15.9472 27.8104Z" fill="#EC294E"/>
<path d="M9.14049 17.9568C8.81635 18.6051 9.07566 18.9292 9.46462 19.2533C9.98322 19.7071 10.437 20.1609 10.9556 20.6147C11.6039 21.1981 11.6039 21.6519 11.0204 22.3002C10.5018 22.8836 9.98322 23.4022 9.39979 23.9856C8.88118 24.5691 8.88118 24.8932 9.46462 25.4118C9.98322 25.9304 10.5667 26.3842 11.0853 26.9028C11.6039 27.4214 11.6687 27.8752 11.1501 28.3938C10.5667 29.0421 9.98322 29.6255 9.46462 30.2089C9.20531 29.82 8.94601 29.431 8.62188 29.0421C8.16809 28.5235 7.64949 28.0697 7.1957 27.5511C6.61227 26.838 6.6771 26.3194 7.32536 25.6711C7.84396 25.2173 8.29775 24.7636 8.81635 24.3098C9.33496 23.856 9.33496 23.467 8.81635 23.0132C8.29775 22.4946 7.77914 21.976 7.26053 21.4574C6.48262 20.6147 6.54744 20.0961 7.32536 19.3182C7.77914 18.8644 8.29775 18.4106 8.75153 18.0216C8.88118 18.0216 8.94601 18.0216 9.14049 17.9568Z" fill="#EC294E"/>
<path d="M9.46455 70.5956C9.20524 70.2066 9.01077 69.8177 8.75146 69.5584C8.29768 69.0398 7.71424 68.5212 7.26046 68.0025C6.67703 67.2895 6.74185 66.7708 7.39011 66.1226C7.8439 65.6688 8.3625 65.215 8.81629 64.8261C9.39972 64.3075 9.39972 63.9833 8.81629 63.3999C8.29768 62.8813 7.77907 62.4275 7.32529 61.9089C6.6122 61.131 6.67703 60.5475 7.45494 59.8993C7.97355 59.4455 8.42733 58.9917 8.94594 58.5379C8.94594 58.5379 9.01076 58.5379 9.14042 58.4731C8.88111 59.1214 9.20524 59.5103 9.65902 59.8345C10.1776 60.2882 10.6962 60.742 11.15 61.1958C11.6038 61.6496 11.6686 62.1034 11.2149 62.622C10.6314 63.2702 10.048 63.8537 9.52937 64.4371C9.01076 65.0205 9.01077 65.4095 9.5942 65.9281C10.1776 66.4467 10.6962 66.9653 11.2797 67.4839C11.7335 67.9377 11.7335 68.3915 11.3445 68.8453C10.6314 69.3639 10.048 70.0121 9.46455 70.5956Z" fill="#EC294E"/>
<path d="M8.36235 48.5547C8.16788 48.1658 7.9734 47.7768 7.84375 47.4527C7.77892 47.2582 7.84375 46.9989 7.90857 46.8692C8.29753 46.2858 8.75131 45.7672 9.20509 45.2486C11.0202 46.5451 10.8906 49.1382 8.81614 50.305C9.20509 49.203 9.91818 48.2954 9.52922 46.9989C9.14027 47.5823 8.75131 48.0361 8.36235 48.5547Z" fill="#EC294E"/>
</svg>
