<svg width="20" height="20" viewBox="0 0 20 20" fill="none" xmlns="http://www.w3.org/2000/svg">
<g clip-path="url(#clip0_505_978)">
<path d="M17.5641 20H17.6094C18.9291 20 20 18.9287 20 17.6085V2.39155C20 1.07129 18.9291 0 17.6094 0H2.39065C1.07089 0 0 1.07129 0 2.39155V17.6085C0 18.9287 1.07089 20 2.39065 20H11.8929M12.1342 18.8684H2.39065C1.69683 18.8684 1.13122 18.3025 1.13122 17.6085V2.39155C1.13122 1.69747 1.69683 1.13165 2.39065 1.13165H17.6094C18.3032 1.13165 18.8688 1.69747 18.8688 2.39155V17.6085C18.8688 18.3025 18.3032 18.8684 17.6094 18.8684" fill="#EC294E"/>
<path d="M12.6923 14.5002C12.089 14.9679 11.3725 15.2169 10.6033 15.2169C8.73302 15.2169 7.20964 13.693 7.20964 11.822C7.20964 9.95097 8.73302 8.42702 10.6033 8.42702H12.1267C12.4359 8.42702 12.6923 8.17051 12.6923 7.8612C12.6923 7.55188 12.4359 7.29537 12.1267 7.29537C12.1267 7.29537 10.3243 7.29537 10.3017 7.29537C9.60783 7.29537 9.04222 6.72955 9.04222 6.03547C9.04222 5.34139 9.60783 4.77557 10.3017 4.77557C10.6561 4.77557 11.003 4.92646 11.2443 5.19805C11.4555 5.43193 11.8099 5.44701 12.0437 5.24332C12.2775 5.03208 12.2926 4.67749 12.089 4.44362C11.6365 3.93815 10.9879 3.64392 10.3092 3.64392C8.98943 3.64392 7.91854 4.71521 7.91854 6.03547C7.91854 6.70692 8.19758 7.31046 8.64253 7.74803C7.13423 8.47983 6.09351 10.034 6.09351 11.822C6.09351 14.3191 8.12216 16.3486 10.6184 16.3486C11.6365 16.3486 12.6018 16.0166 13.4012 15.3904C13.6501 15.1943 13.6878 14.8397 13.4992 14.5983C13.2956 14.3493 12.9412 14.3116 12.6923 14.5002Z" fill="#EC294E"/>
</g>
<defs>
<clipPath id="clip0_505_978">
<rect width="20" height="20" fill="white"/>
</clipPath>
</defs>
</svg>
