<svg width="24" height="24" viewBox="0 0 24 24" fill="none" xmlns="http://www.w3.org/2000/svg">
<path fill-rule="evenodd" clip-rule="evenodd" d="M4.5 16C4.77614 16 5 16.2239 5 16.5V19.501C5 20.3295 5.67157 21.001 6.5 21.001H17.5C18.3284 21.001 19 20.3295 19 19.501V7.00105H15.5C15.2239 7.00105 15 6.77719 15 6.50105V3.00105H6.5C5.67157 3.00105 5 3.67262 5 4.50105V6.50005C5 6.77619 4.77614 7.00005 4.5 7.00005C4.22386 7.00005 4 6.77619 4 6.50005V4.50105C4 3.12034 5.11929 2.00105 6.5 2.00105H15.472C15.6145 1.99171 15.754 2.04503 15.854 2.14705L19.854 6.14705C19.9563 6.24725 20.0096 6.38718 20 6.53005V19.502C20 20.1651 19.7366 20.801 19.2678 21.2698C18.7989 21.7387 18.163 22.002 17.5 22.002H6.5C5.11929 22.002 4 20.8828 4 19.502V16.5C4 16.2239 4.22386 16 4.5 16ZM16 3.70805V6.00105H18.293L16 3.70805ZM12.293 11L10.146 8.85405C9.95049 8.65854 9.95049 8.34156 10.146 8.14605C10.3415 7.95054 10.6585 7.95054 10.854 8.14605L13.854 11.146C13.948 11.2399 14.0009 11.3672 14.0009 11.5C14.0009 11.6329 13.948 11.7602 13.854 11.854L10.854 14.854C10.6585 15.0496 10.3415 15.0496 10.146 14.854C9.95049 14.6585 9.95049 14.3416 10.146 14.146L12.293 12H4.5C4.22386 12 4 11.7762 4 11.5C4 11.2239 4.22386 11 4.5 11H12.293Z" fill="white"/>
</svg>
