<svg width="16" height="20" viewBox="0 0 16 20" fill="none" xmlns="http://www.w3.org/2000/svg">
<path fill-rule="evenodd" clip-rule="evenodd" d="M5.83329 1.875C5.83329 2.17415 5.59078 2.41667 5.29163 2.41667C4.99247 2.41667 4.74996 2.17415 4.74996 1.875C4.74996 0.977537 5.4775 0.25 6.37496 0.25H9.62496C10.5224 0.25 11.25 0.977537 11.25 1.875C11.25 2.17415 11.0074 2.41667 10.7083 2.41667C10.4091 2.41667 10.1666 2.17415 10.1666 1.875C10.1666 1.57585 9.92411 1.33333 9.62496 1.33333H6.37496C6.07581 1.33333 5.83329 1.57585 5.83329 1.875ZM3.12496 1.33333C3.42411 1.33333 3.66663 1.57585 3.66663 1.875C3.66663 2.17415 3.42411 2.41667 3.12496 2.41667C2.2275 2.41667 1.49996 3.1442 1.49996 4.04167V17.0417C1.49996 17.9391 2.2275 18.6667 3.12496 18.6667H12.875C13.7724 18.6667 14.5 17.9391 14.5 17.0417V4.04167C14.5 3.1442 13.7724 2.41667 12.875 2.41667C12.5758 2.41667 12.3333 2.17415 12.3333 1.875C12.3333 1.57585 12.5758 1.33333 12.875 1.33333C14.3707 1.33333 15.5833 2.5459 15.5833 4.04167V17.0417C15.5833 18.5374 14.3707 19.75 12.875 19.75H3.12496C1.62919 19.75 0.416626 18.5374 0.416626 17.0417V4.04167C0.416626 2.5459 1.62919 1.33333 3.12496 1.33333ZM3.66663 7.29167C3.66663 7.59082 3.90914 7.83333 4.20829 7.83333H11.7916C12.0908 7.83333 12.3333 7.59082 12.3333 7.29167C12.3333 6.99251 12.0908 6.75 11.7916 6.75H4.20829C3.90914 6.75 3.66663 6.99251 3.66663 7.29167ZM3.66663 10.5417C3.66663 10.8408 3.90914 11.0833 4.20829 11.0833H11.7916C12.0908 11.0833 12.3333 10.8408 12.3333 10.5417C12.3333 10.2425 12.0908 10 11.7916 10H4.20829C3.90914 10 3.66663 10.2425 3.66663 10.5417ZM4.20829 14.3333C3.90914 14.3333 3.66663 14.0908 3.66663 13.7917C3.66663 13.4925 3.90914 13.25 4.20829 13.25H9.62496C9.92411 13.25 10.1666 13.4925 10.1666 13.7917C10.1666 14.0908 9.92411 14.3333 9.62496 14.3333H4.20829Z" fill="#EC294E"/>
</svg>
