<svg width="18" height="12" viewBox="0 0 18 12" fill="none" xmlns="http://www.w3.org/2000/svg">
<path fill-rule="evenodd" clip-rule="evenodd" d="M2.20579 10.8834C2.36996 10.9634 2.55496 11.0084 2.74996 11.0084H15.25C15.445 11.0084 15.63 10.9634 15.7941 10.8834L10.8708 6.25008L9.26496 7.57175C9.11106 7.69859 8.88886 7.69859 8.73496 7.57175L7.12913 6.24925L2.20579 10.8834ZM1.61913 10.2917C1.62294 10.2878 1.62683 10.2839 1.63079 10.2801L6.48079 5.71508L1.65163 1.73841C1.64119 1.72974 1.63118 1.72056 1.62163 1.71091C1.54118 1.87925 1.4996 2.06351 1.49996 2.25008V9.75842C1.49996 9.94925 1.54246 10.1301 1.61913 10.2917ZM16.3808 10.2917C16.4575 10.1301 16.5 9.94925 16.5 9.75842V2.25008C16.5 2.05675 16.4566 1.87508 16.3783 1.71091C16.3687 1.72056 16.3587 1.72974 16.3483 1.73841L11.5191 5.71508L16.3691 10.2801L16.3808 10.2917ZM15.7866 1.12091C15.619 1.04113 15.4356 0.99984 15.25 1.00008H2.74996C2.55829 1.00008 2.37496 1.04341 2.21329 1.12091L8.99996 6.71008L15.7866 1.12091ZM2.74996 0.166748H15.25C16.4006 0.166748 17.3333 1.09949 17.3333 2.25008V9.75841C17.3333 10.909 16.4006 11.8417 15.25 11.8417H2.74996C1.59937 11.8417 0.666626 10.909 0.666626 9.75841V2.25008C0.666626 1.09949 1.59937 0.166748 2.74996 0.166748Z" fill="#EC294E"/>
</svg>
