<svg width="32" height="32" viewBox="0 0 32 32" fill="none" xmlns="http://www.w3.org/2000/svg">
<path fill-rule="evenodd" clip-rule="evenodd" d="M12.2705 23.98C11.9617 25.5417 10.5917 26.667 8.99985 26.6667H6.33318C5.96499 26.6667 5.66651 26.3682 5.66651 26V23.3334C5.6662 21.7415 6.79153 20.3715 8.35318 20.0627L8.36918 19.6054C8.39585 18.832 8.47585 18.0747 8.60518 17.3334H3.66651C3.44525 17.3333 3.23843 17.2235 3.11446 17.0402C2.99049 16.8569 2.96554 16.6241 3.04785 16.4187L5.71451 9.75202C5.81584 9.49918 6.06079 9.33342 6.33318 9.33335H12.3332C12.3665 9.33335 12.3998 9.33602 12.4332 9.34135C16.2491 4.9757 22.0863 2.94902 27.7865 4.01069C28.0578 4.06133 28.2699 4.27391 28.3198 4.54535C29.3787 10.246 27.3537 16.0827 22.9918 19.9027C22.9969 19.9349 22.9995 19.9674 22.9998 20V26C22.9998 26.2724 22.834 26.5174 22.5812 26.6187L15.9145 29.2854C15.7091 29.3677 15.4763 29.3427 15.293 29.2187C15.1097 29.0948 14.9999 28.888 14.9998 28.6667V23.7267C14.2492 23.8587 13.4892 23.9374 12.7278 23.964L12.2705 23.98ZM10.9825 23.5934L8.73985 21.3507C7.74444 21.4812 7.00003 22.3294 6.99985 23.3334V25.3334H8.99985C10.0038 25.3332 10.852 24.5888 10.9825 23.5934ZM16.3332 23.436V27.6814L21.6665 25.548V20.9507C20.0538 22.0951 18.2467 22.9372 16.3332 23.436ZM8.89318 16C9.39466 14.086 10.2395 12.2789 11.3865 10.6667H6.78651L4.65318 16H8.89318ZM11.9332 22.6574L12.6812 22.6307C13.4305 22.6054 14.1745 22.524 14.9118 22.388C22.9598 20.8974 28.3278 13.28 27.0878 5.24535C26.5012 5.15469 25.9092 5.09869 25.3145 5.07869C16.9798 4.79069 9.98918 11.316 9.70118 19.652L9.67585 20.4L11.9332 22.6574ZM18.9998 17.3334C16.7907 17.3334 14.9998 15.5425 14.9998 13.3334C14.9998 11.1242 16.7907 9.33335 18.9998 9.33335C21.209 9.33335 22.9998 11.1242 22.9998 13.3334C22.9998 15.5425 21.209 17.3334 18.9998 17.3334ZM18.9998 16C20.4726 16 21.6665 14.8061 21.6665 13.3334C21.6665 11.8606 20.4726 10.6667 18.9998 10.6667C17.5271 10.6667 16.3332 11.8606 16.3332 13.3334C16.3332 14.8061 17.5271 16 18.9998 16Z" fill="#EC294E"/>
<path d="M8.99985 26.6667L8.9999 26.4167H8.99985V26.6667ZM5.66651 23.3334H5.91651V23.3333L5.66651 23.3334ZM8.35318 20.0627L8.40168 20.3079L8.5961 20.2695L8.60303 20.0714L8.35318 20.0627ZM8.36918 19.6054L8.61903 19.6141L8.61903 19.614L8.36918 19.6054ZM8.60518 17.3334L8.85146 17.3763L8.90257 17.0834H8.60518V17.3334ZM3.66651 17.3334L3.66646 17.5834H3.66651V17.3334ZM3.04785 16.4187L3.27991 16.5117L3.27997 16.5115L3.04785 16.4187ZM5.71451 9.75202L5.48246 9.65902L5.4824 9.65917L5.71451 9.75202ZM6.33318 9.33335V9.08335H6.33312L6.33318 9.33335ZM12.4332 9.34135L12.3937 9.58821L12.5303 9.61008L12.6214 9.50588L12.4332 9.34135ZM27.7865 4.01069L27.8324 3.76493L27.8323 3.76491L27.7865 4.01069ZM28.3198 4.54535L28.074 4.59061L28.0741 4.59101L28.3198 4.54535ZM22.9918 19.9027L22.8271 19.7146L22.7236 19.8053L22.7448 19.9412L22.9918 19.9027ZM22.9998 20H23.2499L23.2498 19.9977L22.9998 20ZM22.9998 26L23.2498 26.0001V26H22.9998ZM22.5812 26.6187L22.674 26.8508L22.6742 26.8507L22.5812 26.6187ZM15.9145 29.2854L15.8217 29.0532L15.8215 29.0533L15.9145 29.2854ZM14.9998 28.6667H14.7498V28.6667L14.9998 28.6667ZM14.9998 23.7267H15.2498V23.4289L14.9566 23.4805L14.9998 23.7267ZM12.7278 23.964L12.7366 24.2139H12.7366L12.7278 23.964ZM12.2705 23.98L12.2618 23.7302L12.0637 23.7371L12.0253 23.9315L12.2705 23.98ZM8.73985 21.3507L8.91662 21.1739L8.82951 21.0868L8.70735 21.1028L8.73985 21.3507ZM6.99985 23.3334L6.74985 23.3333V23.3334H6.99985ZM6.99985 25.3334H6.74985V25.5834H6.99985V25.3334ZM8.99985 25.3334V25.5834H8.99989L8.99985 25.3334ZM16.3332 27.6814H16.0832V28.0506L16.426 27.9135L16.3332 27.6814ZM21.6665 25.548L21.7594 25.7801L21.9165 25.7173V25.548H21.6665ZM21.6665 20.9507H21.9165V20.4667L21.5218 20.7468L21.6665 20.9507ZM16.3332 23.436L16.2701 23.1941L16.0832 23.2428V23.436H16.3332ZM8.89318 16V16.25H9.08612L9.13502 16.0634L8.89318 16ZM11.3865 10.6667L11.5902 10.8116L11.8712 10.4167H11.3865V10.6667ZM6.78651 10.6667V10.4167H6.61726L6.5544 10.5738L6.78651 10.6667ZM4.65318 16L4.42106 15.9072L4.28392 16.25H4.65318V16ZM12.6812 22.6307L12.6727 22.3808L12.6723 22.3808L12.6812 22.6307ZM14.9118 22.388L14.9572 22.6339L14.9574 22.6338L14.9118 22.388ZM27.0878 5.24535L27.3349 5.20722L27.307 5.02625L27.126 4.99829L27.0878 5.24535ZM25.3145 5.07869L25.3059 5.32854L25.3061 5.32855L25.3145 5.07869ZM9.70118 19.652L9.45133 19.6434L9.45132 19.6436L9.70118 19.652ZM9.67585 20.4L9.42599 20.3916L9.42232 20.5L9.49907 20.5768L9.67585 20.4ZM18.9998 17.3334V17.5834V17.3334ZM18.9998 9.33335V9.08335V9.33335ZM12.0253 23.9315C11.7396 25.376 10.4724 26.417 8.9999 26.4167L8.9998 26.9167C10.7111 26.917 12.1838 25.7073 12.5158 24.0285L12.0253 23.9315ZM8.99985 26.4167H6.33318V26.9167H8.99985V26.4167ZM6.33318 26.4167C6.10306 26.4167 5.91651 26.2301 5.91651 26H5.41651C5.41651 26.5063 5.82692 26.9167 6.33318 26.9167V26.4167ZM5.91651 26V23.3334H5.41651V26H5.91651ZM5.91651 23.3333C5.91622 21.8608 6.95716 20.5936 8.40168 20.3079L8.30468 19.8174C6.62591 20.1494 5.41618 21.6221 5.41651 23.3334L5.91651 23.3333ZM8.60303 20.0714L8.61903 19.6141L8.11933 19.5966L8.10333 20.0539L8.60303 20.0714ZM8.61903 19.614C8.6453 18.8523 8.72409 18.1064 8.85146 17.3763L8.3589 17.2904C8.22761 18.043 8.1464 18.8118 8.11933 19.5967L8.61903 19.614ZM8.60518 17.0834H3.66651V17.5834H8.60518V17.0834ZM3.66657 17.0834C3.52828 17.0833 3.39902 17.0147 3.32154 16.9001L2.90738 17.1803C3.07783 17.4323 3.36222 17.5833 3.66646 17.5834L3.66657 17.0834ZM3.32154 16.9001C3.24406 16.7856 3.22846 16.6401 3.27991 16.5117L2.81579 16.3257C2.70261 16.6081 2.73693 16.9283 2.90738 17.1803L3.32154 16.9001ZM3.27997 16.5115L5.94663 9.84487L5.4824 9.65917L2.81573 16.3258L3.27997 16.5115ZM5.94657 9.84502C6.0099 9.687 6.163 9.58339 6.33324 9.58335L6.33312 9.08335C5.95859 9.08344 5.62178 9.31137 5.48246 9.65902L5.94657 9.84502ZM6.33318 9.58335H12.3332V9.08335H6.33318V9.58335ZM12.3332 9.58335C12.3531 9.58335 12.3732 9.58494 12.3937 9.58821L12.4727 9.09449C12.4265 9.0871 12.3799 9.08335 12.3332 9.08335V9.58335ZM12.6214 9.50588C16.3791 5.20676 22.1274 3.21097 27.7407 4.25646L27.8323 3.76491C22.0452 2.68706 16.119 4.74463 12.245 9.17683L12.6214 9.50588ZM27.7406 4.25644C27.9102 4.28809 28.0428 4.42096 28.074 4.59061L28.5657 4.5001C28.497 4.12687 28.2054 3.83456 27.8324 3.76493L27.7406 4.25644ZM28.0741 4.59101C29.1168 10.2049 27.1227 15.9527 22.8271 19.7146L23.1566 20.0908C27.5848 16.2126 29.6406 10.2871 28.5656 4.4997L28.0741 4.59101ZM22.7448 19.9412C22.748 19.9614 22.7497 19.9819 22.7499 20.0023L23.2498 19.9977C23.2494 19.953 23.2458 19.9083 23.2389 19.8642L22.7448 19.9412ZM22.7498 20V26H23.2498V20H22.7498ZM22.7498 26C22.7498 26.1702 22.6462 26.3233 22.4882 26.3866L22.6742 26.8507C23.0218 26.7114 23.2498 26.3746 23.2498 26.0001L22.7498 26ZM22.4883 26.3866L15.8217 29.0532L16.0074 29.5175L22.674 26.8508L22.4883 26.3866ZM15.8215 29.0533C15.6931 29.1047 15.5476 29.0891 15.4331 29.0117L15.1529 29.4258C15.405 29.5963 15.7251 29.6306 16.0075 29.5174L15.8215 29.0533ZM15.4331 29.0117C15.3185 28.9342 15.2499 28.8049 15.2498 28.6666L14.7498 28.6667C14.7499 28.971 14.9009 29.2554 15.1529 29.4258L15.4331 29.0117ZM15.2498 28.6667V23.7267H14.7498V28.6667H15.2498ZM14.9566 23.4805C14.2175 23.6104 13.4691 23.6879 12.7191 23.7142L12.7366 24.2139C13.5093 24.1868 14.2808 24.107 15.0431 23.9729L14.9566 23.4805ZM12.7191 23.7142L12.2618 23.7302L12.2793 24.2299L12.7366 24.2139L12.7191 23.7142ZM11.1593 23.4166L8.91662 21.1739L8.56307 21.5275L10.8057 23.7701L11.1593 23.4166ZM8.70735 21.1028C7.58751 21.2496 6.75005 22.2039 6.74985 23.3333L7.24985 23.3334C7.25001 22.455 7.90136 21.7128 8.77235 21.5986L8.70735 21.1028ZM6.74985 23.3334V25.3334H7.24985V23.3334H6.74985ZM6.99985 25.5834H8.99985V25.0834H6.99985V25.5834ZM8.99989 25.5834C10.1293 25.5831 11.0836 24.7457 11.2304 23.6259L10.7346 23.5609C10.6204 24.4318 9.87824 25.0832 8.9998 25.0834L8.99989 25.5834ZM16.0832 23.436V27.6814H16.5832V23.436H16.0832ZM16.426 27.9135L21.7594 25.7801L21.5737 25.3159L16.2403 27.4492L16.426 27.9135ZM21.9165 25.548V20.9507H21.4165V25.548H21.9165ZM21.5218 20.7468C19.9338 21.8737 18.1544 22.7029 16.2701 23.1941L16.3962 23.6779C18.3391 23.1714 20.1738 22.3165 21.8112 21.1546L21.5218 20.7468ZM9.13502 16.0634C9.62883 14.1786 10.4607 12.3992 11.5902 10.8116L11.1828 10.5218C10.0182 12.1586 9.1605 13.9934 8.65134 15.9367L9.13502 16.0634ZM11.3865 10.4167H6.78651V10.9167H11.3865V10.4167ZM6.5544 10.5738L4.42106 15.9072L4.8853 16.0929L7.01863 10.7595L6.5544 10.5738ZM4.65318 16.25H8.89318V15.75H4.65318V16.25ZM11.9421 22.9072L12.6901 22.8805L12.6723 22.3808L11.9243 22.4075L11.9421 22.9072ZM12.6896 22.8805C13.4515 22.8548 14.2078 22.7721 14.9572 22.6339L14.8665 22.1422C14.1412 22.2759 13.4096 22.3559 12.6727 22.3808L12.6896 22.8805ZM14.9574 22.6338C23.1386 21.1185 28.5955 13.3751 27.3349 5.20722L26.8408 5.28348C28.0602 13.185 22.7811 20.6762 14.8663 22.1422L14.9574 22.6338ZM27.126 4.99829C26.5296 4.90612 25.9277 4.84917 25.3229 4.82883L25.3061 5.32855C25.8907 5.34821 26.4727 5.40326 27.0497 5.49242L27.126 4.99829ZM25.3231 4.82884C16.8504 4.53607 9.7441 11.1694 9.45133 19.6434L9.95103 19.6607C10.2343 11.4626 17.1093 5.04531 25.3059 5.32854L25.3231 4.82884ZM9.45132 19.6436L9.42599 20.3916L9.9257 20.4085L9.95104 19.6605L9.45132 19.6436ZM9.49907 20.5768L11.7564 22.8341L12.11 22.4806L9.85262 20.2232L9.49907 20.5768ZM18.9998 17.0834C16.9288 17.0834 15.2498 15.4044 15.2498 13.3334H14.7498C14.7498 15.6806 16.6526 17.5834 18.9998 17.5834V17.0834ZM15.2498 13.3334C15.2498 11.2623 16.9288 9.58335 18.9998 9.58335V9.08335C16.6526 9.08335 14.7498 10.9861 14.7498 13.3334H15.2498ZM18.9998 9.58335C21.0709 9.58335 22.7498 11.2623 22.7498 13.3334H23.2498C23.2498 10.9861 21.3471 9.08335 18.9998 9.08335V9.58335ZM22.7498 13.3334C22.7498 15.4044 21.0709 17.0834 18.9998 17.0834V17.5834C21.3471 17.5834 23.2498 15.6806 23.2498 13.3334H22.7498ZM18.9998 16.25C20.6107 16.25 21.9165 14.9442 21.9165 13.3334H21.4165C21.4165 14.668 20.3345 15.75 18.9998 15.75V16.25ZM21.9165 13.3334C21.9165 11.7225 20.6107 10.4167 18.9998 10.4167V10.9167C20.3345 10.9167 21.4165 11.9987 21.4165 13.3334H21.9165ZM18.9998 10.4167C17.389 10.4167 16.0832 11.7225 16.0832 13.3334H16.5832C16.5832 11.9987 17.6652 10.9167 18.9998 10.9167V10.4167ZM16.0832 13.3334C16.0832 14.9442 17.389 16.25 18.9998 16.25V15.75C17.6652 15.75 16.5832 14.668 16.5832 13.3334H16.0832Z" fill="#EC294E"/>
</svg>
