<svg width="33" height="33" viewBox="0 0 33 33" fill="none" xmlns="http://www.w3.org/2000/svg">
<path d="M16.5 10.3125C15.7861 10.3125 15.0883 10.1008 14.4947 9.70421C13.9012 9.30761 13.4386 8.7439 13.1654 8.08438C12.8922 7.42485 12.8207 6.69912 12.96 5.99897C13.0992 5.29882 13.443 4.65569 13.9478 4.15091C14.4526 3.64613 15.0957 3.30237 15.7958 3.1631C16.496 3.02384 17.2217 3.09531 17.8812 3.3685C18.5408 3.64168 19.1045 4.10431 19.5011 4.69787C19.8977 5.29142 20.1094 5.98926 20.1094 6.70313C20.1083 7.66006 19.7277 8.57748 19.051 9.25413C18.3744 9.93079 17.4569 10.3114 16.5 10.3125ZM16.5 4.125C15.9901 4.125 15.4916 4.27621 15.0677 4.55949C14.6437 4.84278 14.3133 5.24543 14.1181 5.71652C13.923 6.18761 13.8719 6.70599 13.9714 7.20609C14.0709 7.7062 14.3164 8.16558 14.677 8.52614C15.0375 8.88669 15.4969 9.13224 15.997 9.23171C16.4971 9.33119 17.0155 9.28014 17.4866 9.085C17.9577 8.88987 18.3603 8.55943 18.6436 8.13546C18.9269 7.71149 19.0781 7.21303 19.0781 6.70313C19.0773 6.01962 18.8054 5.36434 18.3221 4.88102C17.8388 4.39771 17.1835 4.12582 16.5 4.125Z" fill="#EC294E" stroke="#EC294E" stroke-width="0.5"/>
<path d="M20.625 15.9844H19.5938V13.4062C19.5945 13.2709 19.6484 13.1413 19.7438 13.0453L26.63 6.11376C26.7467 5.9963 26.8122 5.83745 26.8122 5.67187C26.8122 5.5063 26.7467 5.34745 26.63 5.22998C26.5203 5.12051 26.3734 5.05622 26.2186 5.04982C26.0637 5.04343 25.9121 5.09539 25.7937 5.19544L22.2637 8.19483C20.6544 9.56193 18.6116 10.3125 16.5 10.3125C14.3885 10.3125 12.3457 9.56193 10.7364 8.19483L7.20642 5.19544C7.08376 5.0903 6.92498 5.03707 6.76373 5.04704C6.60249 5.05701 6.45147 5.12938 6.34269 5.24882C6.23392 5.36826 6.17594 5.52537 6.18105 5.68684C6.18616 5.84831 6.25396 6.00144 6.37007 6.11376L13.2562 13.0453C13.3517 13.1413 13.4056 13.2709 13.4063 13.4062V15.9844H12.375V13.6192L5.63892 6.84131C5.33719 6.53988 5.16365 6.13349 5.15455 5.70709C5.14546 5.28069 5.30151 4.86727 5.59011 4.55324C5.87871 4.23922 6.2775 4.04888 6.70316 4.02202C7.12881 3.99516 7.54837 4.13385 7.87415 4.40911L11.4041 7.40901C12.827 8.61772 14.6331 9.28132 16.5 9.28132C18.367 9.28132 20.1731 8.61772 21.596 7.40901L25.1259 4.40911C25.4517 4.13385 25.8713 3.99516 26.2969 4.02202C26.7226 4.04888 27.1214 4.23922 27.41 4.55324C27.6986 4.86727 27.8546 5.28069 27.8455 5.70709C27.8364 6.13349 27.6629 6.53988 27.3612 6.84131L20.625 13.6192V15.9844Z" fill="#EC294E" stroke="#EC294E" stroke-width="0.5"/>
<path d="M16.5 29.9062C12.2832 29.9062 11.0999 28.8451 10.9792 28.7239C10.8825 28.6272 10.8282 28.4961 10.8281 28.3594V26.2969C10.8292 25.3399 11.2098 24.4225 11.8865 23.7459C12.5631 23.0692 13.4806 22.6886 14.4375 22.6875H18.5625C19.5194 22.6886 20.4369 23.0692 21.1135 23.7459C21.7902 24.4225 22.1708 25.3399 22.1719 26.2969V28.3594C22.1718 28.4961 22.1175 28.6272 22.0208 28.7239C21.9001 28.8451 20.7168 29.9062 16.5 29.9062ZM11.8594 28.0938C12.26 28.3238 13.529 28.875 16.5 28.875C19.4576 28.875 20.7281 28.3284 21.1406 28.0912V26.2969C21.1398 25.6134 20.8679 24.9581 20.3846 24.4748C19.9013 23.9915 19.246 23.7196 18.5625 23.7188H14.4375C13.754 23.7196 13.0987 23.9915 12.6154 24.4748C12.1321 24.9581 11.8602 25.6134 11.8594 26.2969V28.0938Z" fill="#EC294E" stroke="#EC294E" stroke-width="0.5"/>
<path d="M16.5 23.7188C15.7861 23.7188 15.0883 23.5071 14.4947 23.1105C13.9012 22.7139 13.4386 22.1502 13.1654 21.4906C12.8922 20.8311 12.8207 20.1054 12.96 19.4052C13.0992 18.7051 13.443 18.0619 13.9478 17.5572C14.4526 17.0524 15.0957 16.7086 15.7958 16.5694C16.496 16.4301 17.2217 16.5016 17.8812 16.7747C18.5408 17.0479 19.1045 17.5106 19.5011 18.1041C19.8977 18.6977 20.1094 19.3955 20.1094 20.1094C20.1083 21.0663 19.7277 21.9837 19.051 22.6604C18.3744 23.337 17.4569 23.7177 16.5 23.7188ZM16.5 17.5313C15.9901 17.5313 15.4916 17.6825 15.0677 17.9657C14.6437 18.249 14.3133 18.6517 14.1181 19.1228C13.923 19.5939 13.8719 20.1122 13.9714 20.6123C14.0709 21.1125 14.3164 21.5718 14.677 21.9324C15.0375 22.2929 15.4969 22.5385 15.997 22.638C16.4971 22.7374 17.0155 22.6864 17.4866 22.4913C17.9577 22.2961 18.3603 21.9657 18.6436 21.5417C18.9269 21.1177 19.0781 20.6193 19.0781 20.1094C19.0773 19.4259 18.8054 18.7706 18.3221 18.2873C17.8388 17.804 17.1835 17.5321 16.5 17.5313Z" fill="#EC294E" stroke="#EC294E" stroke-width="0.5"/>
<path d="M26.2968 28.3594C25.2274 28.3718 24.1592 28.2843 23.1061 28.098L23.3 27.0853C24.2893 27.2588 25.2925 27.3401 26.2968 27.3281C29.2544 27.3281 30.525 26.7816 30.9375 26.5444V24.75C30.9366 24.0665 30.6647 23.4112 30.1814 22.9279C29.6981 22.4446 29.0428 22.1727 28.3593 22.1719H24.2343C23.8088 22.1716 23.3898 22.2767 23.0149 22.4779C22.64 22.6791 22.3207 22.9701 22.0857 23.3248L21.2267 22.754C21.5556 22.2575 22.0025 21.8502 22.5274 21.5687C23.0523 21.2871 23.6387 21.1401 24.2343 21.1406H28.3593C29.3163 21.1417 30.2337 21.5223 30.9103 22.199C31.587 22.8756 31.9676 23.7931 31.9687 24.75V26.8125C31.9687 26.9492 31.9143 27.0804 31.8176 27.177C31.697 27.2982 30.5136 28.3594 26.2968 28.3594Z" fill="#EC294E" stroke="#EC294E" stroke-width="0.5"/>
<path d="M26.2969 22.1719C25.583 22.1719 24.8852 21.9602 24.2916 21.5636C23.6981 21.167 23.2354 20.6033 22.9622 19.9437C22.6891 19.2842 22.6176 18.5585 22.7569 17.8583C22.8961 17.1582 23.2399 16.5151 23.7447 16.0103C24.2494 15.5055 24.8926 15.1617 25.5927 15.0225C26.2929 14.8832 27.0186 14.9547 27.6781 15.2279C28.3377 15.5011 28.9014 15.9637 29.298 16.5572C29.6946 17.1508 29.9063 17.8486 29.9063 18.5625C29.9052 19.5194 29.5245 20.4369 28.8479 21.1135C28.1712 21.7902 27.2538 22.1708 26.2969 22.1719ZM26.2969 15.9844C25.787 15.9844 25.2885 16.1356 24.8645 16.4189C24.4406 16.7022 24.1101 17.1048 23.915 17.5759C23.7199 18.047 23.6688 18.5654 23.7683 19.0655C23.8678 19.5656 24.1133 20.025 24.4739 20.3855C24.8344 20.7461 25.2938 20.9916 25.7939 21.0911C26.294 21.1906 26.8124 21.1395 27.2835 20.9444C27.7546 20.7492 28.1572 20.4188 28.4405 19.9948C28.7238 19.5709 28.875 19.0724 28.875 18.5625C28.8742 17.879 28.6023 17.2237 28.119 16.7404C27.6357 16.2571 26.9804 15.9852 26.2969 15.9844Z" fill="#EC294E" stroke="#EC294E" stroke-width="0.5"/>
<path d="M6.70312 28.3594C2.48634 28.3594 1.30298 27.2982 1.18233 27.177C1.08562 27.0804 1.03128 26.9492 1.03125 26.8125V24.75C1.03234 23.7931 1.41296 22.8756 2.08962 22.199C2.76627 21.5223 3.68369 21.1417 4.64062 21.1406H8.76562C9.36123 21.1401 9.9477 21.2871 10.4726 21.5687C10.9974 21.8502 11.4443 22.2575 11.7733 22.754L10.9142 23.3248C10.6792 22.9701 10.36 22.6791 9.98505 22.4779C9.6101 22.2767 9.19114 22.1716 8.76562 22.1719H4.64062C3.95712 22.1727 3.30183 22.4446 2.81852 22.9279C2.3352 23.4112 2.06332 24.0665 2.0625 24.75V26.547C2.46314 26.7769 3.73209 27.3281 6.70312 27.3281C7.70743 27.3401 8.71068 27.2588 9.69994 27.0853L9.89381 28.098C8.84071 28.2843 7.77251 28.3718 6.70312 28.3594Z" fill="#EC294E" stroke="#EC294E" stroke-width="0.5"/>
<path d="M6.70313 22.1719C5.98926 22.1719 5.29142 21.9602 4.69787 21.5636C4.10431 21.167 3.64168 20.6033 3.3685 19.9437C3.09531 19.2842 3.02384 18.5585 3.1631 17.8583C3.30237 17.1582 3.64613 16.5151 4.15091 16.0103C4.65569 15.5055 5.29882 15.1617 5.99897 15.0225C6.69912 14.8832 7.42485 14.9547 8.08438 15.2279C8.7439 15.5011 9.30761 15.9637 9.70421 16.5572C10.1008 17.1508 10.3125 17.8486 10.3125 18.5625C10.3114 19.5194 9.93079 20.4369 9.25413 21.1135C8.57748 21.7902 7.66006 22.1708 6.70313 22.1719ZM6.70313 15.9844C6.19322 15.9844 5.69477 16.1356 5.2708 16.4189C4.84683 16.7022 4.51638 17.1048 4.32125 17.5759C4.12612 18.047 4.07506 18.5654 4.17454 19.0655C4.27402 19.5656 4.51956 20.025 4.88012 20.3855C5.24067 20.7461 5.70005 20.9916 6.20016 21.0911C6.70027 21.1906 7.21864 21.1395 7.68973 20.9444C8.16082 20.7492 8.56347 20.4188 8.84676 19.9948C9.13005 19.5709 9.28125 19.0724 9.28125 18.5625C9.28043 17.879 9.00855 17.2237 8.52523 16.7404C8.04192 16.2571 7.38664 15.9852 6.70313 15.9844Z" fill="#EC294E" stroke="#EC294E" stroke-width="0.5"/>
</svg>
