<svg width="27" height="27" viewBox="0 0 27 27" fill="none" xmlns="http://www.w3.org/2000/svg">
<path fill-rule="evenodd" clip-rule="evenodd" d="M10.2705 20.98C9.96169 22.5417 8.59174 23.667 6.99985 23.6667H4.33318C3.96499 23.6667 3.66651 23.3682 3.66651 23V20.3334C3.6662 18.7415 4.79153 17.3715 6.35318 17.0627L6.36918 16.6054C6.39585 15.832 6.47585 15.0747 6.60518 14.3334H1.66651C1.44525 14.3333 1.23843 14.2235 1.11446 14.0402C0.990492 13.8569 0.965537 13.6241 1.04785 13.4187L3.71451 6.75202C3.81584 6.49918 4.06079 6.33342 4.33318 6.33335H10.3332C10.3665 6.33335 10.3998 6.33602 10.4332 6.34135C14.2491 1.9757 20.0863 -0.0509838 25.7865 1.01069C26.0578 1.06133 26.2699 1.27391 26.3198 1.54535C27.3787 7.24603 25.3537 13.0827 20.9918 16.9027C20.9969 16.9349 20.9995 16.9674 20.9998 17V23C20.9998 23.2724 20.834 23.5174 20.5812 23.6187L13.9145 26.2854C13.7091 26.3677 13.4763 26.3427 13.293 26.2187C13.1097 26.0948 12.9999 25.888 12.9998 25.6667V20.7267C12.2492 20.8587 11.4892 20.9374 10.7278 20.964L10.2705 20.98ZM8.98251 20.5934L6.73985 18.3507C5.74444 18.4812 5.00003 19.3294 4.99985 20.3334V22.3334H6.99985C8.00378 22.3332 8.852 21.5888 8.98251 20.5934ZM14.3332 20.436V24.6814L19.6665 22.548V17.9507C18.0538 19.0951 16.2467 19.9372 14.3332 20.436ZM6.89318 13C7.39466 11.086 8.23947 9.27891 9.38651 7.66669H4.78651L2.65318 13H6.89318ZM9.93318 19.6574L10.6812 19.6307C11.4305 19.6054 12.1745 19.524 12.9118 19.388C20.9598 17.8974 26.3278 10.28 25.0878 2.24535C24.5012 2.15469 23.9092 2.09869 23.3145 2.07869C14.9798 1.79069 7.98918 8.31602 7.70118 16.652L7.67585 17.4L9.93318 19.6574ZM16.9998 14.3334C14.7907 14.3334 12.9998 12.5425 12.9998 10.3334C12.9998 8.12421 14.7907 6.33335 16.9998 6.33335C19.209 6.33335 20.9998 8.12421 20.9998 10.3334C20.9998 12.5425 19.209 14.3334 16.9998 14.3334ZM16.9998 13C18.4726 13 19.6665 11.8061 19.6665 10.3334C19.6665 8.86059 18.4726 7.66669 16.9998 7.66669C15.5271 7.66669 14.3332 8.86059 14.3332 10.3334C14.3332 11.8061 15.5271 13 16.9998 13Z" fill="#EC294E"/>
<path d="M6.99985 23.6667L6.9999 23.4167H6.99985V23.6667ZM3.66651 20.3334H3.91651V20.3333L3.66651 20.3334ZM6.35318 17.0627L6.40168 17.3079L6.5961 17.2695L6.60303 17.0714L6.35318 17.0627ZM6.36918 16.6054L6.61903 16.6141L6.61903 16.614L6.36918 16.6054ZM6.60518 14.3334L6.85146 14.3763L6.90257 14.0834H6.60518V14.3334ZM1.66651 14.3334L1.66646 14.5834H1.66651V14.3334ZM1.04785 13.4187L1.27991 13.5117L1.27997 13.5115L1.04785 13.4187ZM3.71451 6.75202L3.48246 6.65902L3.4824 6.65917L3.71451 6.75202ZM4.33318 6.33335V6.08335H4.33312L4.33318 6.33335ZM10.4332 6.34135L10.3937 6.58821L10.5303 6.61008L10.6214 6.50588L10.4332 6.34135ZM25.7865 1.01069L25.8324 0.764931L25.8323 0.764913L25.7865 1.01069ZM26.3198 1.54535L26.074 1.59061L26.0741 1.59101L26.3198 1.54535ZM20.9918 16.9027L20.8271 16.7146L20.7236 16.8053L20.7448 16.9412L20.9918 16.9027ZM20.9998 17H21.2499L21.2498 16.9977L20.9998 17ZM20.9998 23L21.2498 23.0001V23H20.9998ZM20.5812 23.6187L20.674 23.8508L20.6742 23.8507L20.5812 23.6187ZM13.9145 26.2854L13.8217 26.0532L13.8215 26.0533L13.9145 26.2854ZM12.9998 25.6667H12.7498V25.6667L12.9998 25.6667ZM12.9998 20.7267H13.2498V20.4289L12.9566 20.4805L12.9998 20.7267ZM10.7278 20.964L10.7366 21.2139H10.7366L10.7278 20.964ZM10.2705 20.98L10.2618 20.7302L10.0637 20.7371L10.0253 20.9315L10.2705 20.98ZM6.73985 18.3507L6.91662 18.1739L6.82951 18.0868L6.70735 18.1028L6.73985 18.3507ZM4.99985 20.3334L4.74985 20.3333V20.3334H4.99985ZM4.99985 22.3334H4.74985V22.5834H4.99985V22.3334ZM6.99985 22.3334V22.5834H6.99989L6.99985 22.3334ZM14.3332 24.6814H14.0832V25.0506L14.426 24.9135L14.3332 24.6814ZM19.6665 22.548L19.7594 22.7801L19.9165 22.7173V22.548H19.6665ZM19.6665 17.9507H19.9165V17.4667L19.5218 17.7468L19.6665 17.9507ZM14.3332 20.436L14.2701 20.1941L14.0832 20.2428V20.436H14.3332ZM6.89318 13V13.25H7.08612L7.13502 13.0634L6.89318 13ZM9.38651 7.66669L9.59022 7.81161L9.8712 7.41669H9.38651V7.66669ZM4.78651 7.66669V7.41669H4.61726L4.5544 7.57384L4.78651 7.66669ZM2.65318 13L2.42106 12.9072L2.28392 13.25H2.65318V13ZM10.6812 19.6307L10.6727 19.3808L10.6723 19.3808L10.6812 19.6307ZM12.9118 19.388L12.9572 19.6339L12.9574 19.6338L12.9118 19.388ZM25.0878 2.24535L25.3349 2.20722L25.307 2.02625L25.126 1.99829L25.0878 2.24535ZM23.3145 2.07869L23.3059 2.32854L23.3061 2.32855L23.3145 2.07869ZM7.70118 16.652L7.45133 16.6434L7.45132 16.6436L7.70118 16.652ZM7.67585 17.4L7.42599 17.3916L7.42232 17.5L7.49907 17.5768L7.67585 17.4ZM16.9998 14.3334V14.5834V14.3334ZM16.9998 6.33335V6.08335V6.33335ZM10.0253 20.9315C9.7396 22.376 8.4724 23.417 6.9999 23.4167L6.9998 23.9167C8.71108 23.917 10.1838 22.7073 10.5158 21.0285L10.0253 20.9315ZM6.99985 23.4167H4.33318V23.9167H6.99985V23.4167ZM4.33318 23.4167C4.10306 23.4167 3.91651 23.2301 3.91651 23H3.41651C3.41651 23.5063 3.82692 23.9167 4.33318 23.9167V23.4167ZM3.91651 23V20.3334H3.41651V23H3.91651ZM3.91651 20.3333C3.91622 18.8608 4.95716 17.5936 6.40168 17.3079L6.30468 16.8174C4.62591 17.1494 3.41618 18.6221 3.41651 20.3334L3.91651 20.3333ZM6.60303 17.0714L6.61903 16.6141L6.11933 16.5966L6.10333 17.0539L6.60303 17.0714ZM6.61903 16.614C6.6453 15.8523 6.72409 15.1064 6.85146 14.3763L6.3589 14.2904C6.22761 15.043 6.1464 15.8118 6.11933 16.5967L6.61903 16.614ZM6.60518 14.0834H1.66651V14.5834H6.60518V14.0834ZM1.66657 14.0834C1.52828 14.0833 1.39902 14.0147 1.32154 13.9001L0.90738 14.1803C1.07783 14.4323 1.36222 14.5833 1.66646 14.5834L1.66657 14.0834ZM1.32154 13.9001C1.24406 13.7856 1.22846 13.6401 1.27991 13.5117L0.81579 13.3257C0.702612 13.6081 0.736926 13.9283 0.90738 14.1803L1.32154 13.9001ZM1.27997 13.5115L3.94663 6.84487L3.4824 6.65917L0.815729 13.3258L1.27997 13.5115ZM3.94657 6.84502C4.0099 6.687 4.163 6.58339 4.33324 6.58335L4.33312 6.08335C3.95859 6.08344 3.62178 6.31137 3.48246 6.65902L3.94657 6.84502ZM4.33318 6.58335H10.3332V6.08335H4.33318V6.58335ZM10.3332 6.58335C10.3531 6.58335 10.3732 6.58494 10.3937 6.58821L10.4727 6.09449C10.4265 6.0871 10.3799 6.08335 10.3332 6.08335V6.58335ZM10.6214 6.50588C14.3791 2.20676 20.1274 0.210971 25.7407 1.25646L25.8323 0.764913C20.0452 -0.312939 14.119 1.74463 10.245 6.17683L10.6214 6.50588ZM25.7406 1.25644C25.9102 1.28809 26.0428 1.42096 26.074 1.59061L26.5657 1.5001C26.497 1.12687 26.2054 0.834561 25.8324 0.764931L25.7406 1.25644ZM26.0741 1.59101C27.1168 7.20492 25.1227 12.9527 20.8271 16.7146L21.1566 17.0908C25.5848 13.2126 27.6406 7.28713 26.5656 1.4997L26.0741 1.59101ZM20.7448 16.9412C20.748 16.9614 20.7497 16.9819 20.7499 17.0023L21.2498 16.9977C21.2494 16.953 21.2458 16.9083 21.2389 16.8642L20.7448 16.9412ZM20.7498 17V23H21.2498V17H20.7498ZM20.7498 23C20.7498 23.1702 20.6462 23.3233 20.4882 23.3866L20.6742 23.8507C21.0218 23.7114 21.2498 23.3746 21.2498 23.0001L20.7498 23ZM20.4883 23.3866L13.8217 26.0532L14.0074 26.5175L20.674 23.8508L20.4883 23.3866ZM13.8215 26.0533C13.6931 26.1047 13.5476 26.0891 13.4331 26.0117L13.1529 26.4258C13.405 26.5963 13.7251 26.6306 14.0075 26.5174L13.8215 26.0533ZM13.4331 26.0117C13.3185 25.9342 13.2499 25.8049 13.2498 25.6666L12.7498 25.6667C12.7499 25.971 12.9009 26.2554 13.1529 26.4258L13.4331 26.0117ZM13.2498 25.6667V20.7267H12.7498V25.6667H13.2498ZM12.9566 20.4805C12.2175 20.6104 11.4691 20.6879 10.7191 20.7142L10.7366 21.2139C11.5093 21.1868 12.2808 21.107 13.0431 20.9729L12.9566 20.4805ZM10.7191 20.7142L10.2618 20.7302L10.2793 21.2299L10.7366 21.2139L10.7191 20.7142ZM9.15929 20.4166L6.91662 18.1739L6.56307 18.5275L8.80574 20.7701L9.15929 20.4166ZM6.70735 18.1028C5.58751 18.2496 4.75005 19.2039 4.74985 20.3333L5.24985 20.3334C5.25001 19.455 5.90136 18.7128 6.77235 18.5986L6.70735 18.1028ZM4.74985 20.3334V22.3334H5.24985V20.3334H4.74985ZM4.99985 22.5834H6.99985V22.0834H4.99985V22.5834ZM6.99989 22.5834C8.12931 22.5831 9.08357 21.7457 9.23039 20.6259L8.73464 20.5609C8.62044 21.4318 7.87824 22.0832 6.9998 22.0834L6.99989 22.5834ZM14.0832 20.436V24.6814H14.5832V20.436H14.0832ZM14.426 24.9135L19.7594 22.7801L19.5737 22.3159L14.2403 24.4492L14.426 24.9135ZM19.9165 22.548V17.9507H19.4165V22.548H19.9165ZM19.5218 17.7468C17.9338 18.8737 16.1544 19.7029 14.2701 20.1941L14.3962 20.6779C16.3391 20.1714 18.1738 19.3165 19.8112 18.1546L19.5218 17.7468ZM7.13502 13.0634C7.62883 11.1786 8.46072 9.39919 9.59022 7.81161L9.18281 7.52176C8.01823 9.15864 7.1605 10.9934 6.65134 12.9367L7.13502 13.0634ZM9.38651 7.41669H4.78651V7.91669H9.38651V7.41669ZM4.5544 7.57384L2.42106 12.9072L2.8853 13.0929L5.01863 7.75953L4.5544 7.57384ZM2.65318 13.25H6.89318V12.75H2.65318V13.25ZM9.94209 19.9072L10.6901 19.8805L10.6723 19.3808L9.92427 19.4075L9.94209 19.9072ZM10.6896 19.8805C11.4515 19.8548 12.2078 19.7721 12.9572 19.6339L12.8665 19.1422C12.1412 19.2759 11.4096 19.3559 10.6727 19.3808L10.6896 19.8805ZM12.9574 19.6338C21.1386 18.1185 26.5955 10.3751 25.3349 2.20722L24.8408 2.28348C26.0602 10.185 20.7811 17.6762 12.8663 19.1422L12.9574 19.6338ZM25.126 1.99829C24.5296 1.90612 23.9277 1.84917 23.3229 1.82883L23.3061 2.32855C23.8907 2.34821 24.4727 2.40326 25.0497 2.49242L25.126 1.99829ZM23.3231 1.82884C14.8504 1.53607 7.7441 8.16945 7.45133 16.6434L7.95103 16.6607C8.23427 8.46259 15.1093 2.04531 23.3059 2.32854L23.3231 1.82884ZM7.45132 16.6436L7.42599 17.3916L7.9257 17.4085L7.95104 16.6605L7.45132 16.6436ZM7.49907 17.5768L9.7564 19.8341L10.11 19.4806L7.85262 17.2232L7.49907 17.5768ZM16.9998 14.0834C14.9288 14.0834 13.2498 12.4044 13.2498 10.3334H12.7498C12.7498 12.6806 14.6526 14.5834 16.9998 14.5834V14.0834ZM13.2498 10.3334C13.2498 8.26229 14.9288 6.58335 16.9998 6.58335V6.08335C14.6526 6.08335 12.7498 7.98614 12.7498 10.3334H13.2498ZM16.9998 6.58335C19.0709 6.58335 20.7498 8.26229 20.7498 10.3334H21.2498C21.2498 7.98614 19.3471 6.08335 16.9998 6.08335V6.58335ZM20.7498 10.3334C20.7498 12.4044 19.0709 14.0834 16.9998 14.0834V14.5834C19.3471 14.5834 21.2498 12.6806 21.2498 10.3334H20.7498ZM16.9998 13.25C18.6107 13.25 19.9165 11.9442 19.9165 10.3334H19.4165C19.4165 11.668 18.3345 12.75 16.9998 12.75V13.25ZM19.9165 10.3334C19.9165 8.72252 18.6107 7.41669 16.9998 7.41669V7.91669C18.3345 7.91669 19.4165 8.99866 19.4165 10.3334H19.9165ZM16.9998 7.41669C15.389 7.41669 14.0832 8.72252 14.0832 10.3334H14.5832C14.5832 8.99866 15.6652 7.91669 16.9998 7.91669V7.41669ZM14.0832 10.3334C14.0832 11.9442 15.389 13.25 16.9998 13.25V12.75C15.6652 12.75 14.5832 11.668 14.5832 10.3334H14.0832Z" fill="#EC294E"/>
</svg>
