<svg width="25" height="26" viewBox="0 0 25 26" fill="none" xmlns="http://www.w3.org/2000/svg">
<path d="M21.7673 18.7138V18.8503C21.7673 18.1508 21.1161 17.5878 20.307 17.5878H7.26262H5.92068H4.46034C3.65123 17.5878 3 18.1508 3 18.8503V20.9317C3 21.6312 3.65123 22.1942 4.46034 22.1942H20.307C21.1161 22.1942 21.7673 21.6312 21.7673 20.9317V19.8739" fill="#D8D8D8"/>
<path d="M21.7673 11.5903V11.7439C21.7673 11.0444 21.1161 10.4814 20.307 10.4814H7.26262H5.92068H4.46034C3.65123 10.4814 3 11.0444 3 11.7439V13.8253C3 14.5248 3.65123 15.0878 4.46034 15.0878H20.307C21.1161 15.0878 21.7673 14.5248 21.7673 13.8253V12.7675" fill="#D8D8D8"/>
<path d="M15.2748 4.50101V4.63749C15.2748 3.938 14.6235 3.375 13.8144 3.375H7.26262H5.92068H4.46034C3.65123 3.375 3 3.938 3 4.63749V6.7189C3 7.41838 3.65123 7.98139 4.46034 7.98139H13.8144C14.6235 7.98139 15.2748 7.41838 15.2748 6.7189V5.66113" fill="#D8D8D8"/>
</svg>
