<svg width="24" height="26" viewBox="0 0 24 26" fill="none" xmlns="http://www.w3.org/2000/svg">
<path fill-rule="evenodd" clip-rule="evenodd" d="M21.9166 16.5417V3.79167C21.9166 2.61806 20.9652 1.66667 19.7916 1.66667H4.20829C3.03469 1.66667 2.08329 2.61806 2.08329 3.79167V22.2083C2.08329 23.3819 3.03469 24.3333 4.20829 24.3333H14.125C15.2986 24.3333 16.25 23.3819 16.25 22.2083C16.25 20.2523 17.8356 18.6667 19.7916 18.6667C20.9652 18.6667 21.9166 17.7153 21.9166 16.5417ZM21.2097 19.7873C20.7626 19.9829 20.2797 20.0837 19.7916 20.0833C18.618 20.0833 17.6666 21.0347 17.6666 22.2083C17.6666 22.7127 17.5618 23.1929 17.3705 23.6264C19.0676 22.8462 20.4295 21.4843 21.2097 19.7873ZM0.666626 3.79167C0.666626 1.83566 2.25228 0.25 4.20829 0.25H19.7916C21.7476 0.25 23.3333 1.83566 23.3333 3.79167V16.5417C23.3333 21.6273 19.2106 25.75 14.125 25.75H4.20829C3.26898 25.75 2.36815 25.3769 1.70396 24.7127C1.03976 24.0485 0.666626 23.1476 0.666626 22.2083V3.79167ZM7.04163 8.75C6.65042 8.75 6.33329 8.43287 6.33329 8.04167C6.33329 7.65047 6.65042 7.33333 7.04163 7.33333H16.9583C17.3495 7.33333 17.6666 7.65047 17.6666 8.04167C17.6666 8.43287 17.3495 8.75 16.9583 8.75H7.04163ZM7.04163 13C6.65042 13 6.33329 12.6829 6.33329 12.2917C6.33329 11.9005 6.65042 11.5833 7.04163 11.5833H16.9583C17.3495 11.5833 17.6666 11.9005 17.6666 12.2917C17.6666 12.6829 17.3495 13 16.9583 13H7.04163ZM7.04163 17.25C6.65042 17.25 6.33329 16.9329 6.33329 16.5417C6.33329 16.1505 6.65042 15.8333 7.04163 15.8333H14.125C14.5162 15.8333 14.8333 16.1505 14.8333 16.5417C14.8333 16.9329 14.5162 17.25 14.125 17.25H7.04163Z" fill="#EC294E"/>
<path d="M19.7916 20.0833L19.7918 19.8333H19.7916V20.0833ZM17.3705 23.6264L17.1418 23.5255L16.8755 24.1292L17.475 23.8536L17.3705 23.6264ZM22.1666 16.5417V3.79167H21.6666V16.5417H22.1666ZM22.1666 3.79167C22.1666 2.47999 21.1033 1.41667 19.7916 1.41667V1.91667C20.8272 1.91667 21.6666 2.75613 21.6666 3.79167H22.1666ZM19.7916 1.41667H4.20829V1.91667H19.7916V1.41667ZM4.20829 1.41667C2.89662 1.41667 1.83329 2.47999 1.83329 3.79167H2.33329C2.33329 2.75613 3.17276 1.91667 4.20829 1.91667V1.41667ZM1.83329 3.79167V22.2083H2.33329V3.79167H1.83329ZM1.83329 22.2083C1.83329 23.52 2.89662 24.5833 4.20829 24.5833V24.0833C3.17276 24.0833 2.33329 23.2439 2.33329 22.2083H1.83329ZM4.20829 24.5833H14.125V24.0833H4.20829V24.5833ZM14.125 24.5833C15.4366 24.5833 16.5 23.52 16.5 22.2083H16C16 23.2439 15.1605 24.0833 14.125 24.0833V24.5833ZM16.5 22.2083C16.5 20.3904 17.9737 18.9167 19.7916 18.9167V18.4167C17.6975 18.4167 16 20.1143 16 22.2083H16.5ZM19.7916 18.9167C21.1033 18.9167 22.1666 17.8533 22.1666 16.5417H21.6666C21.6666 17.5772 20.8272 18.4167 19.7916 18.4167V18.9167ZM21.1095 19.5582C20.694 19.74 20.2453 19.8337 19.7918 19.8333L19.7914 20.3333C20.3141 20.3338 20.8311 20.2258 21.3099 20.0163L21.1095 19.5582ZM19.7916 19.8333C18.4799 19.8333 17.4166 20.8967 17.4166 22.2083H17.9166C17.9166 21.1728 18.7561 20.3333 19.7916 20.3333V19.8333ZM17.4166 22.2083C17.4166 22.6778 17.3191 23.1237 17.1418 23.5255L17.5993 23.7273C17.8045 23.2622 17.9166 22.7475 17.9166 22.2083H17.4166ZM17.475 23.8536C19.2263 23.0484 20.6317 21.643 21.4369 19.8917L20.9826 19.6828C20.2273 21.3257 18.909 22.644 17.2661 23.3993L17.475 23.8536ZM0.916626 3.79167C0.916626 1.97373 2.39036 0.5 4.20829 0.5V0C2.11421 0 0.416626 1.69759 0.416626 3.79167H0.916626ZM4.20829 0.5H19.7916V0H4.20829V0.5ZM19.7916 0.5C21.6096 0.5 23.0833 1.97373 23.0833 3.79167H23.5833C23.5833 1.69759 21.8857 0 19.7916 0V0.5ZM23.0833 3.79167V16.5417H23.5833V3.79167H23.0833ZM23.0833 16.5417C23.0833 21.4892 19.0725 25.5 14.125 25.5V26C19.3487 26 23.5833 21.7654 23.5833 16.5417H23.0833ZM14.125 25.5H4.20829V26H14.125V25.5ZM4.20829 25.5C3.33529 25.5 2.49804 25.1532 1.88073 24.5359L1.52718 24.8894C2.23825 25.6005 3.20268 26 4.20829 26V25.5ZM1.88073 24.5359C1.26343 23.9186 0.916626 23.0813 0.916626 22.2083H0.416626C0.416626 23.2139 0.816104 24.1784 1.52718 24.8894L1.88073 24.5359ZM0.916626 22.2083V3.79167H0.416626V22.2083H0.916626ZM7.04163 8.5C6.7885 8.5 6.58329 8.2948 6.58329 8.04167H6.08329C6.08329 8.57094 6.51235 9 7.04163 9V8.5ZM6.58329 8.04167C6.58329 7.78854 6.7885 7.58333 7.04163 7.58333V7.08333C6.51235 7.08333 6.08329 7.51239 6.08329 8.04167H6.58329ZM7.04163 7.58333H16.9583V7.08333H7.04163V7.58333ZM16.9583 7.58333C17.2114 7.58333 17.4166 7.78854 17.4166 8.04167H17.9166C17.9166 7.51239 17.4876 7.08333 16.9583 7.08333V7.58333ZM17.4166 8.04167C17.4166 8.2948 17.2114 8.5 16.9583 8.5V9C17.4876 9 17.9166 8.57094 17.9166 8.04167H17.4166ZM16.9583 8.5H7.04163V9H16.9583V8.5ZM7.04163 12.75C6.7885 12.75 6.58329 12.5448 6.58329 12.2917H6.08329C6.08329 12.8209 6.51235 13.25 7.04163 13.25V12.75ZM6.58329 12.2917C6.58329 12.0385 6.7885 11.8333 7.04163 11.8333V11.3333C6.51235 11.3333 6.08329 11.7624 6.08329 12.2917H6.58329ZM7.04163 11.8333H16.9583V11.3333H7.04163V11.8333ZM16.9583 11.8333C17.2114 11.8333 17.4166 12.0385 17.4166 12.2917H17.9166C17.9166 11.7624 17.4876 11.3333 16.9583 11.3333V11.8333ZM17.4166 12.2917C17.4166 12.5448 17.2114 12.75 16.9583 12.75V13.25C17.4876 13.25 17.9166 12.8209 17.9166 12.2917H17.4166ZM16.9583 12.75H7.04163V13.25H16.9583V12.75ZM7.04163 17C6.7885 17 6.58329 16.7948 6.58329 16.5417H6.08329C6.08329 17.0709 6.51235 17.5 7.04163 17.5V17ZM6.58329 16.5417C6.58329 16.2885 6.7885 16.0833 7.04163 16.0833V15.5833C6.51235 15.5833 6.08329 16.0124 6.08329 16.5417H6.58329ZM7.04163 16.0833H14.125V15.5833H7.04163V16.0833ZM14.125 16.0833C14.3781 16.0833 14.5833 16.2885 14.5833 16.5417H15.0833C15.0833 16.0124 14.6542 15.5833 14.125 15.5833V16.0833ZM14.5833 16.5417C14.5833 16.7948 14.3781 17 14.125 17V17.5C14.6542 17.5 15.0833 17.0709 15.0833 16.5417H14.5833ZM14.125 17H7.04163V17.5H14.125V17Z" fill="#EC294E"/>
</svg>
