<svg width="12" height="18" viewBox="0 0 12 18" fill="none" xmlns="http://www.w3.org/2000/svg">
<path d="M11.2703 0.943001L4.44149 0C4.35822 0 4.27494 2.17164e-07 4.21942 0.0571518C4.1639 0.114303 4.13614 0.200031 4.13614 0.285758V0.714395H0.277593C0.111037 0.714395 0 0.828698 0 1.00015V16.3739C0 16.5454 0.111037 16.6597 0.277593 16.6597H4.13614V17.0883C4.13614 17.1741 4.1639 17.2598 4.21942 17.3169C4.27494 17.3741 4.33046 17.3741 4.41374 17.3741H4.44149L11.2703 16.4311C11.4091 16.4025 11.5201 16.2882 11.5201 16.1453V1.22876C11.5201 1.08588 11.4091 0.971577 11.2703 0.943001ZM0.555187 16.0882V1.28591H4.13614V16.0882H0.555187ZM10.9649 15.8881L4.69133 16.7454V16.3454V1.00015V0.600092L10.9649 1.45737V15.8881Z" fill="#233057"/>
<path d="M5.41314 10.03C5.52418 10.1158 5.66298 10.1443 5.77402 10.1443C5.82953 10.1443 5.88505 10.1443 5.94057 10.1158L6.24592 10.03C6.24592 10.03 6.24592 10.03 6.27368 10.03C6.55128 9.94432 6.74559 9.68713 6.74559 9.3728V8.17262C6.74559 7.88686 6.55128 7.62968 6.27368 7.51537L5.96833 7.42965C5.77401 7.3725 5.55194 7.42965 5.41314 7.54395C5.24659 7.65825 5.16331 7.85828 5.16331 8.05831V9.45853C5.13555 9.68713 5.24659 9.88717 5.41314 10.03ZM5.69074 8.05831C5.69074 8.02974 5.69074 8.00116 5.7185 8.00116C5.74625 7.97259 5.77402 7.97259 5.80177 7.97259C5.80177 7.97259 5.80177 7.97259 5.82953 7.97259L6.10713 8.05831C6.13489 8.05831 6.19041 8.08689 6.19041 8.17262V9.3728C6.19041 9.42995 6.16265 9.4871 6.10713 9.4871L5.77402 9.57283C5.74626 9.57283 5.7185 9.57283 5.7185 9.57283C5.69074 9.54426 5.66298 9.51568 5.66298 9.4871V8.05831H5.69074Z" fill="#233057"/>
</svg>
