<svg width="19" height="21" viewBox="0 0 19 21" fill="none" xmlns="http://www.w3.org/2000/svg">
<g clip-path="url(#clip0_506_1201)">
<path d="M12.1927 8.59382C12.5034 8.29445 12.6786 7.863 12.6786 7.40954V6.40577C12.9933 6.40577 13.2482 6.12401 13.2482 5.77621V5.14665C13.2482 4.79885 12.9933 4.51709 12.6786 4.51709H6.40505C6.09038 4.51709 5.83545 4.79885 5.83545 5.14665V5.77621C5.83545 6.12401 6.09038 6.40577 6.40505 6.40577V7.40954C6.40505 7.863 6.5843 8.29445 6.891 8.59382L8.68346 10.3284V10.6718L6.891 12.4064C6.58031 12.7058 6.40505 13.1372 6.40505 13.5907V14.5944C6.09038 14.5944 5.83545 14.8762 5.83545 15.224V15.8536C5.83545 16.2014 6.09038 16.4831 6.40505 16.4831H12.6786C12.9933 16.4831 13.2482 16.2014 13.2482 15.8536V15.224C13.2482 14.8762 12.9933 14.5944 12.6786 14.5944V13.5907C12.6786 13.1372 12.4994 12.7058 12.1927 12.4064L10.4002 10.6718V10.3284L12.1927 8.59382ZM6.40505 5.14225H12.6786V5.77181H6.40505V5.14225ZM6.97465 6.40577H12.109V7.40954C12.109 7.61646 12.0453 7.81898 11.9338 7.98187H7.1539C7.03838 7.81898 6.97864 7.61646 6.97864 7.40954V6.40577H6.97465ZM12.6786 15.858H6.40505V15.2284H12.6786V15.858ZM10.0218 11.1473L11.8143 12.8819C12.0015 13.0624 12.1051 13.3221 12.1051 13.5951V14.5989H6.97465V13.5951C6.97465 13.3221 7.0822 13.0624 7.26543 12.8819L9.05788 11.1473C9.18136 11.0284 9.25306 10.8523 9.25306 10.6718V10.3284C9.25306 10.1479 9.18136 9.97181 9.05788 9.85294L7.7713 8.60703H11.3044L10.0178 9.85294C9.89436 9.97181 9.82266 10.1435 9.82266 10.3284V10.6718C9.82664 10.8523 9.89834 11.0284 10.0218 11.1473Z" fill="#EB920C"/>
<path d="M9.25708 11.4465H9.82668V12.0761H9.25708V11.4465Z" fill="#EB920C"/>
<path d="M9.25708 12.7056H9.82668V13.3351H9.25708V12.7056Z" fill="#EB920C"/>
<path d="M9.51988 20.4056C7.12596 20.4056 4.87544 19.3754 3.18256 17.5043C1.48969 15.6332 0.557617 13.1458 0.557617 10.4999C0.557617 7.85399 1.48969 5.36657 3.18256 3.4955C4.87544 1.62443 7.12596 0.594238 9.51988 0.594238C11.9138 0.594238 14.1643 1.62443 15.8572 3.4955C17.5501 5.36657 18.4821 7.85399 18.4821 10.4999C18.4821 13.1458 17.5501 15.6332 15.8572 17.5043C14.1643 19.3754 11.9138 20.4056 9.51988 20.4056ZM9.51988 1.47474C5.01883 1.47474 1.35426 5.52506 1.35426 10.4999C1.35426 15.4747 5.01883 19.5251 9.51988 19.5251C14.0209 19.5251 17.6855 15.4747 17.6855 10.4999C17.6855 5.52506 14.0249 1.47474 9.51988 1.47474Z" fill="#EB920C"/>
</g>
<defs>
<clipPath id="clip0_506_1201">
<rect width="19" height="21" fill="white"/>
</clipPath>
</defs>
</svg>
