<svg width="18" height="19" viewBox="0 0 18 19" fill="none" xmlns="http://www.w3.org/2000/svg">
<path fill-rule="evenodd" clip-rule="evenodd" d="M4.12499 9.49986H10.6875C12.2234 9.50002 13.5219 8.36245 13.7237 6.83986C12.1365 6.59645 11.0069 5.16844 11.1353 3.56782C11.2637 1.9672 12.6066 0.737574 14.2123 0.750343C15.818 0.763112 17.1412 2.01394 17.2442 3.6164C17.3471 5.21886 16.1949 6.62872 14.604 6.84686C14.3943 8.85215 12.7037 10.375 10.6875 10.3749H4.12499V12.1555C5.71479 12.385 6.85715 13.8037 6.74212 15.4059C6.62709 17.008 5.29376 18.2491 3.68749 18.2491C2.08121 18.2491 0.747879 17.008 0.63285 15.4059C0.51782 13.8037 1.66019 12.385 3.24999 12.1555V6.84423C1.66019 6.61477 0.51782 5.19598 0.63285 3.59383C0.747879 1.99168 2.08121 0.750643 3.68749 0.750643C5.29376 0.750643 6.62709 1.99168 6.74212 3.59383C6.85715 5.19598 5.71479 6.61477 4.12499 6.84423V9.49986ZM1.49999 15.1873C1.49999 16.3955 2.47936 17.3748 3.68749 17.3748C4.89561 17.3748 5.87499 16.3955 5.87499 15.1873C5.87499 13.9792 4.89561 12.9998 3.68749 12.9998C2.47936 12.9998 1.49999 13.9792 1.49999 15.1873ZM1.49999 3.81234C1.49999 5.02047 2.47936 5.99984 3.68749 5.99984C4.89561 5.99984 5.87499 5.02047 5.87499 3.81234C5.87499 2.60422 4.89561 1.62484 3.68749 1.62484C2.47936 1.62484 1.49999 2.60422 1.49999 3.81234ZM14.1875 1.62484C12.9794 1.62484 12 2.60422 12 3.81234C12 5.02047 12.9794 5.99984 14.1875 5.99984C15.3956 5.99984 16.375 5.02047 16.375 3.81234C16.375 2.60422 15.3956 1.62484 14.1875 1.62484Z" fill="#EC294E"/>
</svg>
