<svg width="26" height="26" viewBox="0 0 26 26" fill="none" xmlns="http://www.w3.org/2000/svg">
<path fill-rule="evenodd" clip-rule="evenodd" d="M24.875 20.5C25.2202 20.5 25.5 20.7798 25.5 21.125V22.375C25.5 24.1009 24.1009 25.5 22.375 25.5H7.375C7.26375 25.5 7.15375 25.4938 7.045 25.4825C6.94709 25.494 6.84859 25.4999 6.75 25.5C6.5814 25.5004 6.41988 25.4323 6.3025 25.3113C5.06977 24.8604 4.24992 23.6876 4.25 22.375V5.5H1.125C0.779822 5.5 0.5 5.22018 0.5 4.875V3C0.5 1.61929 1.61929 0.5 3 0.5H18.6675C20.3934 0.5 21.7925 1.89911 21.7925 3.625V20.5H24.875ZM24.25 22.375V21.75H9.25V23C9.25 23.455 9.1275 23.8825 8.915 24.25H22.375C23.4105 24.25 24.25 23.4105 24.25 22.375ZM8 21.125C8 20.7798 8.27982 20.5 8.625 20.5H20.5425V3.625C20.5425 2.58947 19.703 1.75 18.6675 1.75H5.15375C5.36875 2.11875 5.5 2.5425 5.5 3V22.375C5.49974 23.2782 6.14339 24.0532 7.03125 24.2188C7.585 24.0913 8 23.5938 8 23V21.125ZM4.25 4.25V3C4.25 2.30964 3.69036 1.75 3 1.75C2.30964 1.75 1.75 2.30964 1.75 3V4.25H4.25ZM9.875 8C9.52982 8 9.25 8.27982 9.25 8.625V9.875C9.25 10.2202 9.52982 10.5 9.875 10.5H16.125C17.1605 10.5 18 11.3395 18 12.375V13.625C18 14.6605 17.1605 15.5 16.125 15.5H15.5V16.125C15.5 16.4702 15.2202 16.75 14.875 16.75C14.5298 16.75 14.25 16.4702 14.25 16.125V15.5H11.75V16.125C11.75 16.4702 11.4702 16.75 11.125 16.75C10.7798 16.75 10.5 16.4702 10.5 16.125V15.5H9.875C8.83947 15.5 8 14.6605 8 13.625C8 13.2798 8.27982 13 8.625 13C8.97018 13 9.25 13.2798 9.25 13.625C9.25 13.9702 9.52982 14.25 9.875 14.25H16.125C16.4702 14.25 16.75 13.9702 16.75 13.625V12.375C16.75 12.0298 16.4702 11.75 16.125 11.75H9.875C8.83947 11.75 8 10.9105 8 9.875V8.625C8 7.58947 8.83947 6.75 9.875 6.75H10.5V6.125C10.5 5.77982 10.7798 5.5 11.125 5.5C11.4702 5.5 11.75 5.77982 11.75 6.125V6.75H14.25V6.125C14.25 5.77982 14.5298 5.5 14.875 5.5C15.2202 5.5 15.5 5.77982 15.5 6.125V6.75H16.125C17.1605 6.75 18 7.58947 18 8.625C18 8.97018 17.7202 9.25 17.375 9.25C17.0298 9.25 16.75 8.97018 16.75 8.625C16.75 8.27982 16.4702 8 16.125 8H9.875Z" fill="#EC294E"/>
<path d="M7.045 25.4825L7.07072 25.2338L7.0432 25.231L7.01572 25.2342L7.045 25.4825ZM6.75 25.5L6.74972 25.25L6.74939 25.25L6.75 25.5ZM6.3025 25.3113L6.48197 25.1372L6.44212 25.0961L6.38837 25.0765L6.3025 25.3113ZM4.25 22.375L4.5 22.375V22.375H4.25ZM4.25 5.5H4.5V5.25H4.25V5.5ZM21.7925 20.5H21.5425V20.75H21.7925V20.5ZM24.25 21.75H24.5V21.5H24.25V21.75ZM9.25 21.75V21.5H9V21.75H9.25ZM8.915 24.25L8.69858 24.1249L8.48166 24.5H8.915V24.25ZM20.5425 20.5V20.75H20.7925V20.5H20.5425ZM5.15375 1.75V1.5H4.7186L4.93778 1.87592L5.15375 1.75ZM5.5 22.375L5.75 22.3751V22.375H5.5ZM7.03125 24.2188L6.98542 24.4645L7.0366 24.4741L7.08734 24.4624L7.03125 24.2188ZM4.25 4.25V4.5H4.5V4.25H4.25ZM1.75 4.25H1.5V4.5H1.75V4.25ZM15.5 15.5V15.25H15.25V15.5H15.5ZM14.25 15.5H14.5V15.25H14.25V15.5ZM11.75 15.5V15.25H11.5V15.5H11.75ZM10.5 15.5H10.75V15.25H10.5V15.5ZM10.5 6.75V7H10.75V6.75H10.5ZM11.75 6.75H11.5V7H11.75V6.75ZM14.25 6.75V7H14.5V6.75H14.25ZM15.5 6.75H15.25V7H15.5V6.75ZM16.125 6.75V7V6.75ZM24.875 20.75C25.0821 20.75 25.25 20.9179 25.25 21.125H25.75C25.75 20.6418 25.3582 20.25 24.875 20.25V20.75ZM25.25 21.125V22.375H25.75V21.125H25.25ZM25.25 22.375C25.25 23.9628 23.9628 25.25 22.375 25.25V25.75C24.239 25.75 25.75 24.239 25.75 22.375H25.25ZM22.375 25.25H7.375V25.75H22.375V25.25ZM7.375 25.25C7.27312 25.25 7.17174 25.2443 7.07072 25.2338L7.01928 25.7312C7.13576 25.7432 7.25438 25.75 7.375 25.75V25.25ZM7.01572 25.2342C6.92744 25.2446 6.83862 25.2499 6.74972 25.25L6.75028 25.75C6.85856 25.7499 6.96674 25.7435 7.07428 25.7308L7.01572 25.2342ZM6.74939 25.25C6.64863 25.2502 6.55211 25.2095 6.48197 25.1372L6.12303 25.4853C6.28764 25.655 6.51417 25.7506 6.75061 25.75L6.74939 25.25ZM6.38837 25.0765C5.25422 24.6617 4.49993 23.5826 4.5 22.375L4 22.375C3.99992 23.7925 4.88533 25.0592 6.21663 25.546L6.38837 25.0765ZM4.5 22.375V5.5H4V22.375H4.5ZM4.25 5.25H1.125V5.75H4.25V5.25ZM1.125 5.25C0.917893 5.25 0.75 5.08211 0.75 4.875H0.25C0.25 5.35825 0.641751 5.75 1.125 5.75V5.25ZM0.75 4.875V3H0.25V4.875H0.75ZM0.75 3C0.75 1.75736 1.75736 0.75 3 0.75V0.25C1.48122 0.25 0.25 1.48122 0.25 3H0.75ZM3 0.75H18.6675V0.25H3V0.75ZM18.6675 0.75C20.2553 0.75 21.5425 2.03718 21.5425 3.625H22.0425C22.0425 1.76104 20.5315 0.25 18.6675 0.25V0.75ZM21.5425 3.625V20.5H22.0425V3.625H21.5425ZM21.7925 20.75H24.875V20.25H21.7925V20.75ZM24.5 22.375V21.75H24V22.375H24.5ZM24.25 21.5H9.25V22H24.25V21.5ZM9 21.75V23H9.5V21.75H9ZM9 23C9 23.4096 8.8898 23.7942 8.69858 24.1249L9.13142 24.3751C9.3652 23.9708 9.5 23.5004 9.5 23H9ZM8.915 24.5H22.375V24H8.915V24.5ZM22.375 24.5C23.5486 24.5 24.5 23.5486 24.5 22.375H24C24 23.2725 23.2725 24 22.375 24V24.5ZM8.25 21.125C8.25 20.9179 8.41789 20.75 8.625 20.75V20.25C8.14175 20.25 7.75 20.6418 7.75 21.125H8.25ZM8.625 20.75H20.5425V20.25H8.625V20.75ZM20.7925 20.5V3.625H20.2925V20.5H20.7925ZM20.7925 3.625C20.7925 2.45139 19.8411 1.5 18.6675 1.5V2C19.565 2 20.2925 2.72754 20.2925 3.625H20.7925ZM18.6675 1.5H5.15375V2H18.6675V1.5ZM4.93778 1.87592C5.13299 2.21072 5.25 2.59145 5.25 3H5.75C5.75 2.49355 5.60451 2.02678 5.36972 1.62408L4.93778 1.87592ZM5.25 3V22.375H5.75V3H5.25ZM5.25 22.3749C5.24971 23.3985 5.97918 24.2769 6.98542 24.4645L7.07708 23.973C6.30761 23.8295 5.74978 23.1578 5.75 22.3751L5.25 22.3749ZM7.08734 24.4624C7.75196 24.3093 8.25 23.7129 8.25 23H7.75C7.75 23.4746 7.41804 23.8732 6.97516 23.9751L7.08734 24.4624ZM8.25 23V21.125H7.75V23H8.25ZM4.5 4.25V3H4V4.25H4.5ZM4.5 3C4.5 2.17157 3.82843 1.5 3 1.5V2C3.55228 2 4 2.44772 4 3H4.5ZM3 1.5C2.17157 1.5 1.5 2.17157 1.5 3H2C2 2.44772 2.44772 2 3 2V1.5ZM1.5 3V4.25H2V3H1.5ZM1.75 4.5H4.25V4H1.75V4.5ZM9.875 7.75C9.39175 7.75 9 8.14175 9 8.625H9.5C9.5 8.41789 9.66789 8.25 9.875 8.25V7.75ZM9 8.625V9.875H9.5V8.625H9ZM9 9.875C9 10.3582 9.39175 10.75 9.875 10.75V10.25C9.66789 10.25 9.5 10.0821 9.5 9.875H9ZM9.875 10.75H16.125V10.25H9.875V10.75ZM16.125 10.75C17.0225 10.75 17.75 11.4775 17.75 12.375H18.25C18.25 11.2014 17.2986 10.25 16.125 10.25V10.75ZM17.75 12.375V13.625H18.25V12.375H17.75ZM17.75 13.625C17.75 14.5225 17.0225 15.25 16.125 15.25V15.75C17.2986 15.75 18.25 14.7986 18.25 13.625H17.75ZM16.125 15.25H15.5V15.75H16.125V15.25ZM15.25 15.5V16.125H15.75V15.5H15.25ZM15.25 16.125C15.25 16.3321 15.0821 16.5 14.875 16.5V17C15.3582 17 15.75 16.6082 15.75 16.125H15.25ZM14.875 16.5C14.6679 16.5 14.5 16.3321 14.5 16.125H14C14 16.6082 14.3918 17 14.875 17V16.5ZM14.5 16.125V15.5H14V16.125H14.5ZM14.25 15.25H11.75V15.75H14.25V15.25ZM11.5 15.5V16.125H12V15.5H11.5ZM11.5 16.125C11.5 16.3321 11.3321 16.5 11.125 16.5V17C11.6082 17 12 16.6082 12 16.125H11.5ZM11.125 16.5C10.9179 16.5 10.75 16.3321 10.75 16.125H10.25C10.25 16.6082 10.6418 17 11.125 17V16.5ZM10.75 16.125V15.5H10.25V16.125H10.75ZM10.5 15.25H9.875V15.75H10.5V15.25ZM9.875 15.25C8.97754 15.25 8.25 14.5225 8.25 13.625H7.75C7.75 14.7986 8.7014 15.75 9.875 15.75V15.25ZM8.25 13.625C8.25 13.4179 8.41789 13.25 8.625 13.25V12.75C8.14175 12.75 7.75 13.1418 7.75 13.625H8.25ZM8.625 13.25C8.83211 13.25 9 13.4179 9 13.625H9.5C9.5 13.1418 9.10825 12.75 8.625 12.75V13.25ZM9 13.625C9 14.1082 9.39175 14.5 9.875 14.5V14C9.66789 14 9.5 13.8321 9.5 13.625H9ZM9.875 14.5H16.125V14H9.875V14.5ZM16.125 14.5C16.6082 14.5 17 14.1082 17 13.625H16.5C16.5 13.8321 16.3321 14 16.125 14V14.5ZM17 13.625V12.375H16.5V13.625H17ZM17 12.375C17 11.8918 16.6082 11.5 16.125 11.5V12C16.3321 12 16.5 12.1679 16.5 12.375H17ZM16.125 11.5H9.875V12H16.125V11.5ZM9.875 11.5C8.97754 11.5 8.25 10.7725 8.25 9.875H7.75C7.75 11.0486 8.7014 12 9.875 12V11.5ZM8.25 9.875V8.625H7.75V9.875H8.25ZM8.25 8.625C8.25 7.72754 8.97754 7 9.875 7V6.5C8.7014 6.5 7.75 7.4514 7.75 8.625H8.25ZM9.875 7H10.5V6.5H9.875V7ZM10.75 6.75V6.125H10.25V6.75H10.75ZM10.75 6.125C10.75 5.91789 10.9179 5.75 11.125 5.75V5.25C10.6418 5.25 10.25 5.64175 10.25 6.125H10.75ZM11.125 5.75C11.3321 5.75 11.5 5.91789 11.5 6.125H12C12 5.64175 11.6082 5.25 11.125 5.25V5.75ZM11.5 6.125V6.75H12V6.125H11.5ZM11.75 7H14.25V6.5H11.75V7ZM14.5 6.75V6.125H14V6.75H14.5ZM14.5 6.125C14.5 5.91789 14.6679 5.75 14.875 5.75V5.25C14.3918 5.25 14 5.64175 14 6.125H14.5ZM14.875 5.75C15.0821 5.75 15.25 5.91789 15.25 6.125H15.75C15.75 5.64175 15.3582 5.25 14.875 5.25V5.75ZM15.25 6.125V6.75H15.75V6.125H15.25ZM15.5 7H16.125V6.5H15.5V7ZM16.125 7C17.0225 7 17.75 7.72754 17.75 8.625H18.25C18.25 7.4514 17.2986 6.5 16.125 6.5V7ZM17.75 8.625C17.75 8.83211 17.5821 9 17.375 9V9.5C17.8582 9.5 18.25 9.10825 18.25 8.625H17.75ZM17.375 9C17.1679 9 17 8.83211 17 8.625H16.5C16.5 9.10825 16.8918 9.5 17.375 9.5V9ZM17 8.625C17 8.14175 16.6082 7.75 16.125 7.75V8.25C16.3321 8.25 16.5 8.41789 16.5 8.625H17ZM16.125 7.75H9.875V8.25H16.125V7.75Z" fill="#EC294E"/>
</svg>
