<svg width="14" height="17" viewBox="0 0 14 17" fill="none" xmlns="http://www.w3.org/2000/svg">
<path d="M12.8059 15.6041H11.8956V0.28579C11.8956 0.114316 11.7742 0 11.5921 0H1.48694C1.30487 0 1.18349 0.114316 1.18349 0.28579V15.6041H0.303458C0.121383 15.6041 0 15.7185 0 15.8899C0 16.0614 0.121383 16.1757 0.303458 16.1757H1.48694H11.5921H12.8059C12.988 16.1757 13.1094 16.0614 13.1094 15.8899C13.1094 15.7185 12.988 15.6041 12.8059 15.6041ZM2.82216 15.5756V1.42895H10.2872V15.5756H2.82216ZM10.8941 15.6041V1.14316C10.8941 0.971687 10.7728 0.85737 10.5907 0.85737H2.5187C2.33663 0.85737 2.21524 0.971687 2.21524 1.14316V15.6041H1.7904V0.57158H11.2886V15.6041H10.8941Z" fill="#233057"/>
<path d="M4.21799 8.08789C3.70211 8.08789 3.30762 8.45942 3.30762 8.94526V10.1742C3.30762 10.66 3.70211 11.0315 4.21799 11.0315C4.70352 11.0315 5.09802 10.66 5.12837 10.1742V8.94526C5.12837 8.45942 4.73387 8.08789 4.21799 8.08789ZM4.21799 10.4599C4.03592 10.4599 3.91453 10.3456 3.91453 10.1742V8.94526C3.91453 8.77379 4.03592 8.65947 4.21799 8.65947C4.40007 8.65947 4.52145 8.77379 4.52145 8.94526V10.1456C4.4911 10.3456 4.36972 10.4599 4.21799 10.4599Z" fill="#233057"/>
</svg>
