<svg width="16" height="16" viewBox="0 0 16 16" fill="none" xmlns="http://www.w3.org/2000/svg">
<path fill-rule="evenodd" clip-rule="evenodd" d="M8.66666 8.00001H11C11.1841 8.00001 11.3333 8.14925 11.3333 8.33334C11.3333 8.51744 11.1841 8.66668 11 8.66668H8.66666V11C8.66666 11.1841 8.51742 11.3333 8.33333 11.3333C8.14923 11.3333 8 11.1841 8 11V8.66668H5.66666C5.48257 8.66668 5.33333 8.51744 5.33333 8.33334C5.33333 8.14925 5.48257 8.00001 5.66666 8.00001H8V5.66668C8 5.48258 8.14923 5.33334 8.33333 5.33334C8.51742 5.33334 8.66666 5.48258 8.66666 5.66668V8.00001ZM8.33333 15.3333C4.46733 15.3333 1.33333 12.1993 1.33333 8.33334C1.33333 4.46734 4.46733 1.33334 8.33333 1.33334C12.1993 1.33334 15.3333 4.46734 15.3333 8.33334C15.3333 12.1993 12.1993 15.3333 8.33333 15.3333ZM8.33333 14.6667C11.8311 14.6667 14.6667 11.8311 14.6667 8.33334C14.6667 4.83554 11.8311 2.00001 8.33333 2.00001C4.83553 2.00001 1.99999 4.83554 1.99999 8.33334C1.99999 11.8311 4.83553 14.6667 8.33333 14.6667Z" fill="#EC294E"/>
</svg>
