<svg width="31" height="31" viewBox="0 0 31 31" fill="none" xmlns="http://www.w3.org/2000/svg">
<path d="M22.7304 5.07551H13.1044C12.7544 5.07551 12.4481 5.35992 12.4481 5.73183C12.4481 6.08186 12.7325 6.38814 13.1044 6.38814H22.7523C23.168 6.38814 23.518 6.67255 23.518 7.04446V21.374C23.518 21.7241 23.168 22.0303 22.7523 22.0303H21.9866V9.10092C21.9866 8.31334 21.3522 7.6789 20.5646 7.6789H11.6824H10.3698H8.94778C8.1602 7.6789 7.52576 8.31334 7.52576 9.10092V24.5243C7.52576 25.3119 8.1602 25.9464 8.94778 25.9464H20.5427C21.3303 25.9464 21.9647 25.3119 21.9647 24.5243V23.343H22.7304C23.868 23.343 24.8088 22.4679 24.8088 21.3959V7.04446C24.8088 5.97248 23.868 5.07551 22.7304 5.07551ZM17.9612 22.0303H11.7699C11.4199 22.0303 11.1136 21.7459 11.1136 21.374C11.1136 21.024 11.398 20.7177 11.7699 20.7177H17.9612C18.3112 20.7177 18.6175 21.0021 18.6175 21.374C18.6175 21.7459 18.3112 22.0303 17.9612 22.0303ZM17.9612 17.4799H11.7699C11.4199 17.4799 11.1136 17.1955 11.1136 16.8236C11.1136 16.4735 11.398 16.1673 11.7699 16.1673H17.9612C18.3112 16.1673 18.6175 16.4517 18.6175 16.8236C18.6175 17.1736 18.3112 17.4799 17.9612 17.4799ZM17.9612 12.9294H11.7699C11.4199 12.9294 11.1136 12.645 11.1136 12.2731C11.1136 11.9231 11.398 11.6168 11.7699 11.6168H17.9612C18.3112 11.6168 18.6175 11.9012 18.6175 12.2731C18.6175 12.6231 18.3112 12.9294 17.9612 12.9294Z" fill="#D8D8D8"/>
</svg>
