<svg width="28" height="23" viewBox="0 0 28 23" fill="none" xmlns="http://www.w3.org/2000/svg">
<path fill-rule="evenodd" clip-rule="evenodd" d="M19.616 4.5H20.75C24.4779 4.5 27.5 7.52208 27.5 11.25C27.5 14.9779 24.4779 18 20.75 18C20.3358 18 20 17.6642 20 17.25C20 16.8358 20.3358 16.5 20.75 16.5C23.6495 16.5 26 14.1495 26 11.25C26 8.3505 23.6495 6 20.75 6H19.9595C19.9865 6.246 20 6.4965 20 6.75C20 7.16421 19.6642 7.5 19.25 7.5C18.8358 7.5 18.5 7.16421 18.5 6.75C18.5 3.8505 16.1495 1.5 13.25 1.5H12.5C9.18629 1.5 6.5 4.18629 6.5 7.5V8.25C6.5 8.66421 6.16421 9 5.75 9C3.67893 9 2 10.6789 2 12.75C2 14.8211 3.67893 16.5 5.75 16.5C6.16421 16.5 6.5 16.8358 6.5 17.25C6.5 17.6642 6.16421 18 5.75 18C2.99273 18.005 0.701449 15.8761 0.50402 13.1259C0.30659 10.3757 2.2703 7.94143 5 7.5525C5 3.36 8.3585 0 12.5 0H13.25C16.111 3.47394e-05 18.6615 1.80292 19.616 4.5ZM9.5 15H11V16.5H9.5V15ZM12.5 13.5H14V15H12.5V13.5ZM9.5 18H11V19.5H9.5V18ZM12.5 16.5H14V18H12.5V16.5ZM9.5 21H11V22.5H9.5V21ZM12.5 19.5H14V21H12.5V19.5ZM15.5 15H17V16.5H15.5V15ZM15.5 18H17V19.5H15.5V18ZM15.5 21H17V22.5H15.5V21Z" fill="#121924"/>
</svg>
