<svg width="21" height="21" viewBox="0 0 21 21" fill="none" xmlns="http://www.w3.org/2000/svg">
<path fill-rule="evenodd" clip-rule="evenodd" d="M10.4583 9.793L12.8838 7.146C13.063 6.95049 13.3536 6.95049 13.5328 7.146C13.712 7.34151 13.712 7.65849 13.5328 7.854L11.1064 10.5L13.5328 13.146C13.712 13.3415 13.712 13.6585 13.5328 13.854C13.3536 14.0495 13.063 14.0495 12.8838 13.854L10.4583 11.207L8.03281 13.854C7.8536 14.0495 7.56303 14.0495 7.38381 13.854C7.2046 13.6585 7.2046 13.3415 7.38381 13.146L9.81023 10.5L7.38381 7.854C7.2046 7.65849 7.2046 7.34151 7.38381 7.146C7.56303 6.95049 7.8536 6.95049 8.03281 7.146L10.4583 9.793ZM10.4583 21C5.14256 21 0.833313 16.299 0.833313 10.5C0.833313 4.701 5.14256 0 10.4583 0C15.7741 0 20.0833 4.701 20.0833 10.5C20.0833 16.299 15.7741 21 10.4583 21ZM10.4583 20C15.2678 20 19.1666 15.7467 19.1666 10.5C19.1666 5.25329 15.2678 1 10.4583 1C5.64883 1 1.74998 5.25329 1.74998 10.5C1.74998 15.7467 5.64883 20 10.4583 20V20Z" fill="#FF2D55"/>
</svg>
