<svg width="28" height="28" viewBox="0 0 28 28" fill="none" xmlns="http://www.w3.org/2000/svg">
<path fill-rule="evenodd" clip-rule="evenodd" d="M14.1459 21.25C10.2224 21.25 7.04171 18.0694 7.04171 14.1459C7.04171 10.2224 10.2224 7.04171 14.1459 7.04171C18.0694 7.04171 21.25 10.2224 21.25 14.1459C21.25 18.0694 18.0694 21.25 14.1459 21.25ZM14.1459 19.9584C17.356 19.9584 19.9584 17.356 19.9584 14.1459C19.9584 10.9357 17.356 8.33337 14.1459 8.33337C10.9357 8.33337 8.33337 10.9357 8.33337 14.1459C8.33337 17.356 10.9357 19.9584 14.1459 19.9584ZM14.7917 5.10421C14.7917 5.46089 14.5026 5.75004 14.1459 5.75004C13.7892 5.75004 13.5 5.46089 13.5 5.10421V1.22921C13.5 0.872523 13.7892 0.583374 14.1459 0.583374C14.5026 0.583374 14.7917 0.872523 14.7917 1.22921V5.10421ZM14.7917 27.0625C14.7917 27.4192 14.5026 27.7084 14.1459 27.7084C13.7892 27.7084 13.5 27.4192 13.5 27.0625V23.1875C13.5 22.8309 13.7892 22.5417 14.1459 22.5417C14.5026 22.5417 14.7917 22.8309 14.7917 23.1875V27.0625ZM20.9956 8.20937C20.7422 8.45413 20.3394 8.45063 20.0902 8.20151C19.8411 7.95239 19.8376 7.54958 20.0824 7.29617L22.7303 4.64825C22.9825 4.39572 23.3916 4.39543 23.6441 4.6476C23.8967 4.89978 23.897 5.30893 23.6448 5.56146L20.9969 8.20937H20.9956ZM5.56017 23.6448C5.30763 23.897 4.89849 23.8967 4.64631 23.6441C4.39414 23.3916 4.39443 22.9825 4.64696 22.7303L7.29487 20.0824C7.458 19.919 7.69589 19.8551 7.91893 19.9147C8.14197 19.9743 8.31627 20.1483 8.37618 20.3713C8.43609 20.5942 8.3725 20.8322 8.20937 20.9956L5.56146 23.6435L5.56017 23.6448ZM23.1875 14.7917C22.8309 14.7917 22.5417 14.5026 22.5417 14.1459C22.5417 13.7892 22.8309 13.5 23.1875 13.5H27.0625C27.4192 13.5 27.7084 13.7892 27.7084 14.1459C27.7084 14.5026 27.4192 14.7917 27.0625 14.7917H23.1875ZM1.22921 14.7917C0.872523 14.7917 0.583374 14.5026 0.583374 14.1459C0.583374 13.7892 0.872523 13.5 1.22921 13.5H5.10421C5.46089 13.5 5.75004 13.7892 5.75004 14.1459C5.75004 14.5026 5.46089 14.7917 5.10421 14.7917H1.22921ZM20.0824 20.9956C19.9145 20.8334 19.8472 20.5933 19.9063 20.3675C19.9654 20.1417 20.1417 19.9654 20.3675 19.9063C20.5933 19.8472 20.8334 19.9145 20.9956 20.0824L23.6435 22.7303C23.896 22.9825 23.8963 23.3916 23.6441 23.6441C23.392 23.8967 22.9828 23.897 22.7303 23.6448L20.0824 20.9969V20.9956ZM4.64696 5.56017C4.48383 5.39681 4.42024 5.15883 4.48015 4.93587C4.54006 4.71292 4.71436 4.53886 4.9374 4.47927C5.16044 4.41968 5.39833 4.4836 5.56146 4.64696L8.20937 7.29487C8.37273 7.458 8.43666 7.69589 8.37706 7.91893C8.31747 8.14197 8.14341 8.31627 7.92046 8.37618C7.6975 8.43609 7.45953 8.3725 7.29617 8.20937L4.64825 5.56146L4.64696 5.56017Z" fill="#EC294E"/>
</svg>
