<svg width="25" height="25" viewBox="0 0 25 25" fill="none" xmlns="http://www.w3.org/2000/svg">
<path fill-rule="evenodd" clip-rule="evenodd" d="M2.5 11.7708V21.9792C2.5 22.3819 2.83579 22.7083 3.25 22.7083H6.25C6.66421 22.7083 7 22.3819 7 21.9792V11.7708C7 11.3681 6.66421 11.0417 6.25 11.0417H3.25C2.83579 11.0417 2.5 11.3681 2.5 11.7708ZM7.75 10.1404L9.073 7.56793C9.682 6.3823 10 5.07418 10 3.75001V3.38543C10 1.97668 11.176 0.833344 12.625 0.833344C14.074 0.833344 15.289 1.90084 15.433 3.30376L15.928 8.12501H20.935C21.9947 8.12483 23.0049 8.56053 23.716 9.32437C24.4271 10.0882 24.7725 11.1089 24.667 12.134L23.767 20.884C23.5751 22.7478 21.9617 24.167 20.035 24.1667H10.75C9.78103 24.1676 8.84956 23.8026 8.152 23.1488C7.753 23.7613 7.0495 24.1667 6.25 24.1667H3.25C2.00736 24.1667 1 23.1873 1 21.9792V11.7708C1 10.5627 2.00736 9.58334 3.25 9.58334H6.25C6.826 9.58334 7.3525 9.79334 7.75 10.1404ZM8.5 11.9429V20.5208C8.5 21.729 9.50736 22.7083 10.75 22.7083H20.035C21.1908 22.7087 22.1589 21.8577 22.2745 20.7396L23.1745 11.9896C23.2381 11.3743 23.0309 10.7617 22.6042 10.3031C22.1774 9.84463 21.571 9.58313 20.935 9.58334H15.25C14.8645 9.58372 14.5415 9.29997 14.503 8.92709L13.9405 3.44959C13.8734 2.79222 13.3045 2.29145 12.625 2.29168C12.0037 2.29168 11.5 2.78137 11.5 3.38543V3.75001C11.4998 5.3017 11.128 6.83202 10.414 8.2198L8.5 11.9429Z" fill="#EC294E"/>
<path d="M7.75 10.1404L7.58557 10.3287L7.82621 10.5389L7.97232 10.2548L7.75 10.1404ZM9.073 7.56793L9.29532 7.68226L9.29538 7.68215L9.073 7.56793ZM15.433 3.30376L15.1843 3.32929L15.1843 3.32929L15.433 3.30376ZM15.928 8.12501L15.6793 8.15054L15.7024 8.37501H15.928V8.12501ZM20.935 8.12501L20.935 8.37501L20.935 8.37501L20.935 8.12501ZM24.667 12.134L24.4183 12.1084L24.4183 12.1084L24.667 12.134ZM23.767 20.884L24.0157 20.9096L24.0157 20.9095L23.767 20.884ZM20.035 24.1667L20.035 23.9167H20.035V24.1667ZM10.75 24.1667L10.75 23.9167L10.7498 23.9167L10.75 24.1667ZM8.152 23.1488L8.32297 22.9664L8.10534 22.7624L7.94253 23.0123L8.152 23.1488ZM8.5 11.9429L8.27766 11.8286L8.25 11.8824V11.9429H8.5ZM20.035 22.7083L20.0351 22.4583H20.035V22.7083ZM22.2745 20.7396L22.5232 20.7653L22.5232 20.7652L22.2745 20.7396ZM23.1745 11.9896L22.9258 11.9639L22.9258 11.964L23.1745 11.9896ZM20.935 9.58334L20.935 9.83334L20.9351 9.83334L20.935 9.58334ZM15.25 9.58334L15.25 9.33334L15.2498 9.33334L15.25 9.58334ZM14.503 8.92709L14.2543 8.95263L14.2543 8.9528L14.503 8.92709ZM13.9405 3.44959L13.6918 3.47498L13.6918 3.47513L13.9405 3.44959ZM12.625 2.29168L12.625 2.54168L12.6251 2.54168L12.625 2.29168ZM11.5 3.75001L11.75 3.75005V3.75001H11.5ZM10.414 8.2198L10.1917 8.10544L10.1917 8.1055L10.414 8.2198ZM2.25 11.7708V21.9792H2.75V11.7708H2.25ZM2.25 21.9792C2.25 22.5265 2.7044 22.9583 3.25 22.9583V22.4583C2.96717 22.4583 2.75 22.2372 2.75 21.9792H2.25ZM3.25 22.9583H6.25V22.4583H3.25V22.9583ZM6.25 22.9583C6.7956 22.9583 7.25 22.5265 7.25 21.9792H6.75C6.75 22.2372 6.53283 22.4583 6.25 22.4583V22.9583ZM7.25 21.9792V11.7708H6.75V21.9792H7.25ZM7.25 11.7708C7.25 11.2235 6.7956 10.7917 6.25 10.7917V11.2917C6.53283 11.2917 6.75 11.5128 6.75 11.7708H7.25ZM6.25 10.7917H3.25V11.2917H6.25V10.7917ZM3.25 10.7917C2.7044 10.7917 2.25 11.2235 2.25 11.7708H2.75C2.75 11.5128 2.96717 11.2917 3.25 11.2917V10.7917ZM7.97232 10.2548L9.29532 7.68226L8.85068 7.45359L7.52768 10.0261L7.97232 10.2548ZM9.29538 7.68215C9.92237 6.4615 10.25 5.11425 10.25 3.75001H9.75C9.75 5.0341 9.44163 6.30311 8.85062 7.4537L9.29538 7.68215ZM10.25 3.75001V3.38543H9.75V3.75001H10.25ZM10.25 3.38543C10.25 2.12134 11.3074 1.08334 12.625 1.08334V0.583344C11.0446 0.583344 9.75 1.83201 9.75 3.38543H10.25ZM12.625 1.08334C13.9517 1.08334 15.054 2.05962 15.1843 3.32929L15.6817 3.27823C15.524 1.74207 14.1963 0.583344 12.625 0.583344V1.08334ZM15.1843 3.32929L15.6793 8.15054L16.1767 8.09948L15.6817 3.27823L15.1843 3.32929ZM15.928 8.37501H20.935V7.87501H15.928V8.37501ZM20.935 8.37501C21.9265 8.37484 22.8701 8.78257 23.533 9.49471L23.899 9.15403C23.1398 8.33849 22.0628 7.87482 20.935 7.87501L20.935 8.37501ZM23.533 9.49471C24.1957 10.2065 24.5164 11.156 24.4183 12.1084L24.9157 12.1596C25.0287 11.0617 24.6585 9.96988 23.899 9.15403L23.533 9.49471ZM24.4183 12.1084L23.5183 20.8584L24.0157 20.9095L24.9157 12.1595L24.4183 12.1084ZM23.5183 20.8584C23.3401 22.5891 21.8392 23.917 20.035 23.9167L20.035 24.4167C22.0841 24.417 23.8101 22.9065 24.0157 20.9096L23.5183 20.8584ZM20.035 23.9167H10.75V24.4167H20.035V23.9167ZM10.7498 23.9167C9.84343 23.9175 8.97345 23.5761 8.32297 22.9664L7.98103 23.3312C8.72568 24.0291 9.71863 24.4176 10.7502 24.4167L10.7498 23.9167ZM7.94253 23.0123C7.58898 23.555 6.96373 23.9167 6.25 23.9167V24.4167C7.13527 24.4167 7.91701 23.9675 8.36147 23.2852L7.94253 23.0123ZM6.25 23.9167H3.25V24.4167H6.25V23.9167ZM3.25 23.9167C2.13874 23.9167 1.25 23.0426 1.25 21.9792H0.75C0.75 23.332 1.87597 24.4167 3.25 24.4167V23.9167ZM1.25 21.9792V11.7708H0.75V21.9792H1.25ZM1.25 11.7708C1.25 10.7074 2.13874 9.83334 3.25 9.83334V9.33334C1.87597 9.33334 0.75 10.4181 0.75 11.7708H1.25ZM3.25 9.83334H6.25V9.33334H3.25V9.83334ZM6.25 9.83334C6.76448 9.83334 7.23282 10.0207 7.58557 10.3287L7.91443 9.95211C7.47218 9.56596 6.88752 9.33334 6.25 9.33334V9.83334ZM8.25 11.9429V20.5208H8.75V11.9429H8.25ZM8.25 20.5208C8.25 21.8736 9.37597 22.9583 10.75 22.9583V22.4583C9.63874 22.4583 8.75 21.5843 8.75 20.5208H8.25ZM10.75 22.9583H20.035V22.4583H10.75V22.9583ZM20.0349 22.9583C21.3132 22.9588 22.3938 22.0164 22.5232 20.7653L22.0258 20.7139C21.924 21.6989 21.0684 22.4587 20.0351 22.4583L20.0349 22.9583ZM22.5232 20.7652L23.4232 12.0152L22.9258 11.964L22.0258 20.714L22.5232 20.7652ZM23.4232 12.0153C23.4943 11.3273 23.2623 10.6434 22.7872 10.1328L22.4212 10.4735C22.7995 10.8799 22.9819 11.4214 22.9258 11.9639L23.4232 12.0153ZM22.7872 10.1328C22.3123 9.62259 21.6392 9.33311 20.9349 9.33334L20.9351 9.83334C21.5029 9.83315 22.0426 10.0667 22.4212 10.4735L22.7872 10.1328ZM20.935 9.33334H15.25V9.83334H20.935V9.33334ZM15.2498 9.33334C14.9868 9.3336 14.7765 9.14115 14.7517 8.90139L14.2543 8.9528C14.3066 9.45879 14.7423 9.83384 15.2502 9.83334L15.2498 9.33334ZM14.7517 8.90156L14.1892 3.42405L13.6918 3.47513L14.2543 8.95263L14.7517 8.90156ZM14.1892 3.42421C14.1085 2.63363 13.427 2.04141 12.6249 2.04168L12.6251 2.54168C13.182 2.54149 13.6383 2.9508 13.6918 3.47498L14.1892 3.42421ZM12.625 2.04168C11.8723 2.04168 11.25 2.6367 11.25 3.38543H11.75C11.75 2.92603 12.1351 2.54168 12.625 2.54168V2.04168ZM11.25 3.38543V3.75001H11.75V3.38543H11.25ZM11.25 3.74997C11.2498 5.26165 10.8876 6.75281 10.1917 8.10544L10.6363 8.33417C11.3683 6.91124 11.7498 5.34174 11.75 3.75005L11.25 3.74997ZM10.1917 8.1055L8.27766 11.8286L8.72234 12.0572L10.6363 8.3341L10.1917 8.1055Z" fill="#EC294E"/>
</svg>
