<svg width="24" height="26" viewBox="0 0 24 26" fill="none" xmlns="http://www.w3.org/2000/svg">
<path fill-rule="evenodd" clip-rule="evenodd" d="M13 24.3333C14.1046 24.3333 15 23.3819 15 22.2083C15 20.2523 16.4924 18.6667 18.3334 18.6667C19.4379 18.6667 20.3334 17.7153 20.3334 16.5417V12.2917C20.3334 11.9005 20.6318 11.5833 21 11.5833C21.3682 11.5833 21.6667 11.9005 21.6667 12.2917V16.5417C21.6667 21.6273 17.7865 25.75 13 25.75H3.66671C2.78265 25.75 1.93481 25.3769 1.30968 24.7127C0.684563 24.0485 0.333374 23.1476 0.333374 22.2083V3.79167C0.333374 1.83566 1.82576 0.25 3.66671 0.25H11.6667C11.9049 0.25 12.125 0.385008 12.2441 0.604167C12.3631 0.823326 12.3631 1.09334 12.2441 1.3125C12.125 1.53166 11.9049 1.66667 11.6667 1.66667H3.66671C2.56214 1.66667 1.66671 2.61806 1.66671 3.79167V22.2083C1.66671 23.3819 2.56214 24.3333 3.66671 24.3333H13ZM16.0547 23.6264C17.652 22.8462 18.9337 21.4843 19.668 19.7873C19.2472 19.9829 18.7927 20.0837 18.3334 20.0833C17.2288 20.0833 16.3334 21.0347 16.3334 22.2083C16.3334 22.7127 16.2347 23.1929 16.0547 23.6264ZM19 4.5H22.3334C22.7016 4.5 23 4.81713 23 5.20833C23 5.59954 22.7016 5.91667 22.3334 5.91667H19V9.45833C19 9.84954 18.7016 10.1667 18.3334 10.1667C17.9652 10.1667 17.6667 9.84954 17.6667 9.45833V5.91667H14.3334C13.9652 5.91667 13.6667 5.59954 13.6667 5.20833C13.6667 4.81713 13.9652 4.5 14.3334 4.5H17.6667V0.958333C17.6667 0.567132 17.9652 0.25 18.3334 0.25C18.7016 0.25 19 0.567132 19 0.958333V4.5ZM6.33337 8.75C5.96518 8.75 5.66671 8.43287 5.66671 8.04167C5.66671 7.65047 5.96518 7.33333 6.33337 7.33333H11.6667C12.0349 7.33333 12.3334 7.65047 12.3334 8.04167C12.3334 8.43287 12.0349 8.75 11.6667 8.75H6.33337ZM6.33337 13C5.96518 13 5.66671 12.6829 5.66671 12.2917C5.66671 11.9005 5.96518 11.5833 6.33337 11.5833H15.6667C16.0349 11.5833 16.3334 11.9005 16.3334 12.2917C16.3334 12.6829 16.0349 13 15.6667 13H6.33337ZM6.33337 17.25C5.96518 17.25 5.66671 16.9329 5.66671 16.5417C5.66671 16.1505 5.96518 15.8333 6.33337 15.8333H13C13.3682 15.8333 13.6667 16.1505 13.6667 16.5417C13.6667 16.9329 13.3682 17.25 13 17.25H6.33337Z" fill="#EC294E"/>
<path d="M11.6667 0.25L11.6667 0.5L11.6667 0.5L11.6667 0.25ZM11.6667 1.66667L11.6667 1.41667H11.6667V1.66667ZM16.0547 23.6264L15.8238 23.5305L15.5702 24.1413L16.1644 23.851L16.0547 23.6264ZM19.668 19.7873L19.8975 19.8865L20.1584 19.2836L19.5626 19.5606L19.668 19.7873ZM18.3334 20.0833L18.3336 19.8333H18.3334V20.0833ZM19 4.5H18.75V4.75H19V4.5ZM19 5.91667V5.66667H18.75V5.91667H19ZM17.6667 5.91667H17.9167V5.66667H17.6667V5.91667ZM17.6667 4.5V4.75H17.9167V4.5H17.6667ZM13 24.5833C14.2567 24.5833 15.25 23.5055 15.25 22.2083H14.75C14.75 23.2584 13.9525 24.0833 13 24.0833V24.5833ZM15.25 22.2083C15.25 20.3759 16.6446 18.9167 18.3334 18.9167V18.4167C16.3403 18.4167 14.75 20.1287 14.75 22.2083H15.25ZM18.3334 18.9167C19.5901 18.9167 20.5834 17.8388 20.5834 16.5417H20.0834C20.0834 17.5917 19.2858 18.4167 18.3334 18.4167V18.9167ZM20.5834 16.5417V12.2917H20.0834V16.5417H20.5834ZM20.5834 12.2917C20.5834 12.024 20.784 11.8333 21 11.8333V11.3333C20.4797 11.3333 20.0834 11.7769 20.0834 12.2917H20.5834ZM21 11.8333C21.2161 11.8333 21.4167 12.024 21.4167 12.2917H21.9167C21.9167 11.7769 21.5204 11.3333 21 11.3333V11.8333ZM21.4167 12.2917V16.5417H21.9167V12.2917H21.4167ZM21.4167 16.5417C21.4167 21.5037 17.6344 25.5 13 25.5V26C17.9386 26 21.9167 21.7509 21.9167 16.5417H21.4167ZM13 25.5H3.66671V26H13V25.5ZM3.66671 25.5C2.85402 25.5 2.0713 25.1571 1.49173 24.5413L1.12763 24.884C1.79831 25.5966 2.71129 26 3.66671 26V25.5ZM1.49173 24.5413C0.911682 23.925 0.583374 23.0861 0.583374 22.2083H0.083374C0.083374 23.2092 0.457445 24.1719 1.12763 24.884L1.49173 24.5413ZM0.583374 22.2083V3.79167H0.083374V22.2083H0.583374ZM0.583374 3.79167C0.583374 1.95923 1.97789 0.5 3.66671 0.5V0C1.67362 0 0.083374 1.71208 0.083374 3.79167H0.583374ZM3.66671 0.5H11.6667V0H3.66671V0.5ZM11.6667 0.5C11.808 0.5 11.9465 0.580153 12.0244 0.72353L12.4637 0.484804C12.3035 0.189862 12.0018 -1.06098e-08 11.6667 0L11.6667 0.5ZM12.0244 0.72353C12.103 0.868253 12.103 1.04841 12.0244 1.19314L12.4637 1.43186C12.6233 1.13827 12.6233 0.778398 12.4637 0.484804L12.0244 0.72353ZM12.0244 1.19314C11.9465 1.33651 11.808 1.41667 11.6667 1.41667L11.6667 1.91667C12.0018 1.91667 12.3035 1.7268 12.4637 1.43186L12.0244 1.19314ZM11.6667 1.41667H3.66671V1.91667H11.6667V1.41667ZM3.66671 1.41667C2.41 1.41667 1.41671 2.49449 1.41671 3.79167H1.91671C1.91671 2.74164 2.71427 1.91667 3.66671 1.91667V1.41667ZM1.41671 3.79167V22.2083H1.91671V3.79167H1.41671ZM1.41671 22.2083C1.41671 23.5055 2.41 24.5833 3.66671 24.5833V24.0833C2.71427 24.0833 1.91671 23.2584 1.91671 22.2083H1.41671ZM3.66671 24.5833H13V24.0833H3.66671V24.5833ZM16.1644 23.851C17.8176 23.0435 19.1405 21.6359 19.8975 19.8865L19.4386 19.688C18.7269 21.3327 17.4864 22.6488 15.945 23.4018L16.1644 23.851ZM19.5626 19.5606C19.1745 19.741 18.7561 19.8337 18.3336 19.8333L18.3332 20.3333C18.8294 20.3338 19.3199 20.2248 19.7734 20.0139L19.5626 19.5606ZM18.3334 19.8333C17.0767 19.8333 16.0834 20.9112 16.0834 22.2083H16.5834C16.5834 21.1583 17.3809 20.3333 18.3334 20.3333V19.8333ZM16.0834 22.2083C16.0834 22.68 15.9911 23.1276 15.8238 23.5305L16.2856 23.7223C16.4783 23.2582 16.5834 22.7454 16.5834 22.2083H16.0834ZM19 4.75H22.3334V4.25H19V4.75ZM22.3334 4.75C22.5494 4.75 22.75 4.94071 22.75 5.20833H23.25C23.25 4.69356 22.8537 4.25 22.3334 4.25V4.75ZM22.75 5.20833C22.75 5.47596 22.5494 5.66667 22.3334 5.66667V6.16667C22.8537 6.16667 23.25 5.72311 23.25 5.20833H22.75ZM22.3334 5.66667H19V6.16667H22.3334V5.66667ZM18.75 5.91667V9.45833H19.25V5.91667H18.75ZM18.75 9.45833C18.75 9.72596 18.5494 9.91667 18.3334 9.91667V10.4167C18.8537 10.4167 19.25 9.97311 19.25 9.45833H18.75ZM18.3334 9.91667C18.1173 9.91667 17.9167 9.72596 17.9167 9.45833H17.4167C17.4167 9.97311 17.8131 10.4167 18.3334 10.4167V9.91667ZM17.9167 9.45833V5.91667H17.4167V9.45833H17.9167ZM17.6667 5.66667H14.3334V6.16667H17.6667V5.66667ZM14.3334 5.66667C14.1173 5.66667 13.9167 5.47596 13.9167 5.20833H13.4167C13.4167 5.72311 13.8131 6.16667 14.3334 6.16667V5.66667ZM13.9167 5.20833C13.9167 4.94071 14.1173 4.75 14.3334 4.75V4.25C13.8131 4.25 13.4167 4.69356 13.4167 5.20833H13.9167ZM14.3334 4.75H17.6667V4.25H14.3334V4.75ZM17.9167 4.5V0.958333H17.4167V4.5H17.9167ZM17.9167 0.958333C17.9167 0.690708 18.1173 0.5 18.3334 0.5V0C17.8131 0 17.4167 0.443555 17.4167 0.958333H17.9167ZM18.3334 0.5C18.5494 0.5 18.75 0.690708 18.75 0.958333H19.25C19.25 0.443555 18.8537 0 18.3334 0V0.5ZM18.75 0.958333V4.5H19.25V0.958333H18.75ZM6.33337 8.5C6.11732 8.5 5.91671 8.30929 5.91671 8.04167H5.41671C5.41671 8.55645 5.81305 9 6.33337 9V8.5ZM5.91671 8.04167C5.91671 7.77404 6.11732 7.58333 6.33337 7.58333V7.08333C5.81305 7.08333 5.41671 7.52689 5.41671 8.04167H5.91671ZM6.33337 7.58333H11.6667V7.08333H6.33337V7.58333ZM11.6667 7.58333C11.8828 7.58333 12.0834 7.77404 12.0834 8.04167H12.5834C12.5834 7.52689 12.187 7.08333 11.6667 7.08333V7.58333ZM12.0834 8.04167C12.0834 8.30929 11.8828 8.5 11.6667 8.5V9C12.187 9 12.5834 8.55645 12.5834 8.04167H12.0834ZM11.6667 8.5H6.33337V9H11.6667V8.5ZM6.33337 12.75C6.11732 12.75 5.91671 12.5593 5.91671 12.2917H5.41671C5.41671 12.8064 5.81305 13.25 6.33337 13.25V12.75ZM5.91671 12.2917C5.91671 12.024 6.11732 11.8333 6.33337 11.8333V11.3333C5.81305 11.3333 5.41671 11.7769 5.41671 12.2917H5.91671ZM6.33337 11.8333H15.6667V11.3333H6.33337V11.8333ZM15.6667 11.8333C15.8828 11.8333 16.0834 12.024 16.0834 12.2917H16.5834C16.5834 11.7769 16.187 11.3333 15.6667 11.3333V11.8333ZM16.0834 12.2917C16.0834 12.5593 15.8828 12.75 15.6667 12.75V13.25C16.187 13.25 16.5834 12.8064 16.5834 12.2917H16.0834ZM15.6667 12.75H6.33337V13.25H15.6667V12.75ZM6.33337 17C6.11732 17 5.91671 16.8093 5.91671 16.5417H5.41671C5.41671 17.0564 5.81305 17.5 6.33337 17.5V17ZM5.91671 16.5417C5.91671 16.274 6.11732 16.0833 6.33337 16.0833V15.5833C5.81305 15.5833 5.41671 16.0269 5.41671 16.5417H5.91671ZM6.33337 16.0833H13V15.5833H6.33337V16.0833ZM13 16.0833C13.2161 16.0833 13.4167 16.274 13.4167 16.5417H13.9167C13.9167 16.0269 13.5204 15.5833 13 15.5833V16.0833ZM13.4167 16.5417C13.4167 16.8093 13.2161 17 13 17V17.5C13.5204 17.5 13.9167 17.0564 13.9167 16.5417H13.4167ZM13 17H6.33337V17.5H13V17Z" fill="#EC294E"/>
</svg>
