<svg width="24" height="29" viewBox="0 0 24 29" fill="none" xmlns="http://www.w3.org/2000/svg">
<path d="M23.2369 6.89093V6.73638C23.2369 6.7314 23.2369 6.7314 23.2369 6.72641C23.2369 6.71146 23.2369 6.6965 23.2369 6.68155C23.2369 6.67656 23.2369 6.67157 23.2369 6.66659C23.2369 6.64665 23.2319 6.63169 23.2269 6.61175C23.2269 6.60677 23.2219 6.60178 23.2219 6.59679C23.217 6.58682 23.217 6.57187 23.212 6.5619C23.212 6.55691 23.207 6.54694 23.207 6.54196C23.202 6.53198 23.202 6.52201 23.197 6.51204C23.192 6.50706 23.192 6.49709 23.1871 6.4921C23.1821 6.47715 23.1721 6.46219 23.1671 6.44723C23.1621 6.44225 23.1621 6.43726 23.1571 6.43228C23.1522 6.42231 23.1422 6.41234 23.1372 6.40237C23.1322 6.39738 23.1322 6.3924 23.1272 6.38741C23.1222 6.37744 23.1123 6.36747 23.1073 6.3575C23.1023 6.35251 23.1023 6.34753 23.0973 6.34254C23.0873 6.32759 23.0774 6.31762 23.0624 6.30266L17.6085 0.853686C17.5935 0.83873 17.5835 0.828759 17.5686 0.818788C17.5636 0.813803 17.5586 0.813803 17.5536 0.808818C17.5437 0.798847 17.5337 0.793862 17.5237 0.788876C17.5187 0.783891 17.5137 0.783891 17.5088 0.778906C17.4988 0.773921 17.4888 0.76395 17.4788 0.758965C17.4739 0.753979 17.4689 0.753979 17.4639 0.748994C17.4489 0.739023 17.434 0.734038 17.419 0.729053C17.414 0.724067 17.4041 0.724067 17.3991 0.719082C17.3891 0.714096 17.3791 0.709111 17.3692 0.709111C17.3642 0.709111 17.3542 0.704126 17.3492 0.704126C17.3393 0.699141 17.3243 0.69914 17.3143 0.694155C17.3093 0.694155 17.3044 0.68917 17.2994 0.68917C17.2844 0.684184 17.2645 0.684185 17.2495 0.679199C17.2445 0.679199 17.2395 0.679199 17.2346 0.679199C17.2196 0.679199 17.2046 0.679199 17.1897 0.679199C17.1847 0.679199 17.1847 0.679199 17.1797 0.679199H6.14717H2.08412H2.07415C1.05216 0.679199 0.219604 1.51175 0.219604 2.53374V2.54372V12.4994V26.603C0.219604 27.6349 1.05714 28.4725 2.08911 28.4725H21.3873C22.4193 28.4725 23.2568 27.6349 23.2568 26.603V6.89093H23.2369ZM17.7879 2.78301L21.1231 6.1182H18.3214C18.0272 6.1182 17.7879 5.87891 17.7879 5.58477V2.78301ZM21.3824 27.2211H2.08412C1.74013 27.2211 1.46095 26.942 1.46095 26.598V2.53873C1.46095 2.19474 1.74013 1.91556 2.08412 1.91556H6.33661V1.91058H16.5516V5.58477C16.5516 6.5619 17.3442 7.35457 18.3214 7.35457H21.9956V15.8346C21.9956 15.8695 22.0005 15.8994 22.0055 15.9343V26.598C22.0055 26.942 21.7263 27.2211 21.3824 27.2211Z" fill="#EC294E" stroke="#EC294E" stroke-width="0.2"/>
<path d="M4.57678 10.1115H5.76828V11.3079C5.76828 11.6519 6.04745 11.9311 6.39144 11.9311H8.98382C9.32781 11.9311 9.60699 11.6519 9.60699 11.3079V10.1115H10.7985C11.1425 10.1115 11.4216 9.83228 11.4216 9.4883V6.89094C11.4216 6.54695 11.1425 6.26777 10.7985 6.26777H9.60699V5.07129C9.60699 4.7273 9.32781 4.44812 8.98382 4.44812H6.39144C6.04745 4.44812 5.76828 4.7273 5.76828 5.07129V6.26777H4.57678C4.23279 6.26777 3.95361 6.54695 3.95361 6.89094V9.4883C3.95361 9.83228 4.23279 10.1115 4.57678 10.1115ZM5.19995 7.5141H6.39144C6.73543 7.5141 7.01461 7.23492 7.01461 6.89094V5.69445H8.36065V6.89094C8.36065 7.23492 8.63983 7.5141 8.98382 7.5141H10.1753V8.86513H8.98382C8.63983 8.86513 8.36065 9.14431 8.36065 9.4883V10.6848H7.01461V9.4883C7.01461 9.14431 6.73543 8.86513 6.39144 8.86513H5.19995V7.5141Z" fill="#EC294E" stroke="#EC294E" stroke-width="0.2"/>
<path d="M18.8947 14.683H7.06445C6.72046 14.683 6.44128 14.9622 6.44128 15.3062C6.44128 15.6501 6.72046 15.9293 7.06445 15.9293H18.8947C19.2386 15.9293 19.5178 15.6501 19.5178 15.3062C19.5178 14.9622 19.2386 14.683 18.8947 14.683Z" fill="#EC294E" stroke="#EC294E" stroke-width="0.2"/>
<path d="M4.57678 14.683C4.23279 14.683 3.95361 14.9622 3.95361 15.3062C3.95361 15.6501 4.23279 15.9293 4.57678 15.9293C4.92077 15.9293 5.19995 15.6501 5.19995 15.3062C5.19995 14.9622 4.92077 14.683 4.57678 14.683Z" fill="#EC294E" stroke="#EC294E" stroke-width="0.2"/>
<path d="M18.8947 17.5895H4.57678C4.23279 17.5895 3.95361 17.8687 3.95361 18.2126C3.95361 18.5566 4.23279 18.8358 4.57678 18.8358H18.8947C19.2387 18.8358 19.5178 18.5566 19.5178 18.2126C19.5178 17.8687 19.2387 17.5895 18.8947 17.5895Z" fill="#EC294E" stroke="#EC294E" stroke-width="0.2"/>
<path d="M18.8947 20.4959H4.57678C4.23279 20.4959 3.95361 20.7751 3.95361 21.1191C3.95361 21.4631 4.23279 21.7422 4.57678 21.7422H18.8947C19.2387 21.7422 19.5178 21.4631 19.5178 21.1191C19.5178 20.7751 19.2387 20.4959 18.8947 20.4959Z" fill="#EC294E" stroke="#EC294E" stroke-width="0.2"/>
<path d="M18.8947 23.4023H4.57678C4.23279 23.4023 3.95361 23.6815 3.95361 24.0255C3.95361 24.3695 4.23279 24.6487 4.57678 24.6487H18.8947C19.2387 24.6487 19.5178 24.3695 19.5178 24.0255C19.5178 23.6815 19.2387 23.4023 18.8947 23.4023Z" fill="#EC294E" stroke="#EC294E" stroke-width="0.2"/>
</svg>
