<svg width="30" height="31" viewBox="0 0 30 31" fill="none" xmlns="http://www.w3.org/2000/svg">
<path fill-rule="evenodd" clip-rule="evenodd" d="M14.375 12.9167C14.0298 12.9167 13.75 12.6275 13.75 12.2708C13.75 11.9141 14.0298 11.625 14.375 11.625H20.625C20.9702 11.625 21.25 11.9141 21.25 12.2708C21.25 12.6275 20.9702 12.9167 20.625 12.9167H14.375ZM11.875 16.7917C11.5298 16.7917 11.25 16.5025 11.25 16.1458C11.25 15.7891 11.5298 15.5 11.875 15.5H20.625C20.9702 15.5 21.25 15.7891 21.25 16.1458C21.25 16.5025 20.9702 16.7917 20.625 16.7917H11.875ZM11.875 20.6667C11.5298 20.6667 11.25 20.3775 11.25 20.0208C11.25 19.6641 11.5298 19.375 11.875 19.375H18.125C18.4702 19.375 18.75 19.6641 18.75 20.0208C18.75 20.3775 18.4702 20.6667 18.125 20.6667H11.875ZM14.375 6.45833C14.0298 6.45833 13.75 6.16918 13.75 5.8125C13.75 5.45582 14.0298 5.16667 14.375 5.16667H23.125C24.8509 5.16667 26.25 6.61241 26.25 8.39583V25.1875C26.25 26.9709 24.8509 28.4167 23.125 28.4167H9.375C7.64911 28.4167 6.25 26.9709 6.25 25.1875V18.7292C6.25 18.3725 6.52982 18.0833 6.875 18.0833C7.22018 18.0833 7.5 18.3725 7.5 18.7292V25.1875C7.5 26.2576 8.33947 27.125 9.375 27.125H23.125C24.1605 27.125 25 26.2576 25 25.1875V8.39583C25 7.32578 24.1605 6.45833 23.125 6.45833H14.375ZM7.5 10.9792C7.5 11.3359 7.22018 11.625 6.875 11.625C6.52982 11.625 6.25 11.3359 6.25 10.9792V6.45833C6.25 5.0316 7.36929 3.875 8.75 3.875C10.1307 3.875 11.25 5.0316 11.25 6.45833V10.9792C11.25 13.476 9.29125 15.5 6.875 15.5C4.45875 15.5 2.5 13.476 2.5 10.9792V4.52083C2.5 4.16415 2.77982 3.875 3.125 3.875C3.47018 3.875 3.75 4.16415 3.75 4.52083V10.9792C3.75 12.7626 5.14911 14.2083 6.875 14.2083C8.60089 14.2083 10 12.7626 10 10.9792V6.45833C10 5.74497 9.44036 5.16667 8.75 5.16667C8.05964 5.16667 7.5 5.74497 7.5 6.45833V10.9792Z" fill="#EC294E"/>
<path d="M11.25 10.9792H11.5H11.25ZM2.5 10.9792H2.25H2.5ZM3.75 10.9792H3.5H3.75ZM14.375 12.6667C14.1756 12.6667 14 12.4972 14 12.2708H13.5C13.5 12.7578 13.8841 13.1667 14.375 13.1667V12.6667ZM14 12.2708C14 12.0444 14.1756 11.875 14.375 11.875V11.375C13.8841 11.375 13.5 11.7839 13.5 12.2708H14ZM14.375 11.875H20.625V11.375H14.375V11.875ZM20.625 11.875C20.8244 11.875 21 12.0444 21 12.2708H21.5C21.5 11.7839 21.1159 11.375 20.625 11.375V11.875ZM21 12.2708C21 12.4972 20.8244 12.6667 20.625 12.6667V13.1667C21.1159 13.1667 21.5 12.7578 21.5 12.2708H21ZM20.625 12.6667H14.375V13.1667H20.625V12.6667ZM11.875 16.5417C11.6756 16.5417 11.5 16.3722 11.5 16.1458H11C11 16.6328 11.3841 17.0417 11.875 17.0417V16.5417ZM11.5 16.1458C11.5 15.9194 11.6756 15.75 11.875 15.75V15.25C11.3841 15.25 11 15.6589 11 16.1458H11.5ZM11.875 15.75H20.625V15.25H11.875V15.75ZM20.625 15.75C20.8244 15.75 21 15.9194 21 16.1458H21.5C21.5 15.6589 21.1159 15.25 20.625 15.25V15.75ZM21 16.1458C21 16.3722 20.8244 16.5417 20.625 16.5417V17.0417C21.1159 17.0417 21.5 16.6328 21.5 16.1458H21ZM20.625 16.5417H11.875V17.0417H20.625V16.5417ZM11.875 20.4167C11.6756 20.4167 11.5 20.2472 11.5 20.0208H11C11 20.5078 11.3841 20.9167 11.875 20.9167V20.4167ZM11.5 20.0208C11.5 19.7944 11.6756 19.625 11.875 19.625V19.125C11.3841 19.125 11 19.5339 11 20.0208H11.5ZM11.875 19.625H18.125V19.125H11.875V19.625ZM18.125 19.625C18.3244 19.625 18.5 19.7944 18.5 20.0208H19C19 19.5339 18.6159 19.125 18.125 19.125V19.625ZM18.5 20.0208C18.5 20.2472 18.3244 20.4167 18.125 20.4167V20.9167C18.6159 20.9167 19 20.5078 19 20.0208H18.5ZM18.125 20.4167H11.875V20.9167H18.125V20.4167ZM14.375 6.20833C14.1756 6.20833 14 6.0389 14 5.8125H13.5C13.5 6.29946 13.8841 6.70833 14.375 6.70833V6.20833ZM14 5.8125C14 5.5861 14.1756 5.41667 14.375 5.41667V4.91667C13.8841 4.91667 13.5 5.32554 13.5 5.8125H14ZM14.375 5.41667H23.125V4.91667H14.375V5.41667ZM23.125 5.41667C24.7052 5.41667 26 6.74269 26 8.39583H26.5C26.5 6.48213 24.9966 4.91667 23.125 4.91667V5.41667ZM26 8.39583V25.1875H26.5V8.39583H26ZM26 25.1875C26 26.8406 24.7052 28.1667 23.125 28.1667V28.6667C24.9966 28.6667 26.5 27.1012 26.5 25.1875H26ZM23.125 28.1667H9.375V28.6667H23.125V28.1667ZM9.375 28.1667C7.79484 28.1667 6.5 26.8406 6.5 25.1875H6C6 27.1012 7.50338 28.6667 9.375 28.6667V28.1667ZM6.5 25.1875V18.7292H6V25.1875H6.5ZM6.5 18.7292C6.5 18.5028 6.67556 18.3333 6.875 18.3333V17.8333C6.38409 17.8333 6 18.2422 6 18.7292H6.5ZM6.875 18.3333C7.07444 18.3333 7.25 18.5028 7.25 18.7292H7.75C7.75 18.2422 7.36591 17.8333 6.875 17.8333V18.3333ZM7.25 18.7292V25.1875H7.75V18.7292H7.25ZM7.25 25.1875C7.25 26.3878 8.19373 27.375 9.375 27.375V26.875C8.4852 26.875 7.75 26.1273 7.75 25.1875H7.25ZM9.375 27.375H23.125V26.875H9.375V27.375ZM23.125 27.375C24.3063 27.375 25.25 26.3878 25.25 25.1875H24.75C24.75 26.1273 24.0148 26.875 23.125 26.875V27.375ZM25.25 25.1875V8.39583H24.75V25.1875H25.25ZM25.25 8.39583C25.25 7.1955 24.3063 6.20833 23.125 6.20833V6.70833C24.0148 6.70833 24.75 7.45606 24.75 8.39583H25.25ZM23.125 6.20833H14.375V6.70833H23.125V6.20833ZM7.25 10.9792C7.25 11.2056 7.07444 11.375 6.875 11.375V11.875C7.36591 11.875 7.75 11.4661 7.75 10.9792H7.25ZM6.875 11.375C6.67556 11.375 6.5 11.2056 6.5 10.9792H6C6 11.4661 6.38409 11.875 6.875 11.875V11.375ZM6.5 10.9792V6.45833H6V10.9792H6.5ZM6.5 6.45833C6.5 5.16188 7.51502 4.125 8.75 4.125V3.625C7.22355 3.625 6 4.90132 6 6.45833H6.5ZM8.75 4.125C9.98498 4.125 11 5.16188 11 6.45833H11.5C11.5 4.90132 10.2764 3.625 8.75 3.625V4.125ZM11 6.45833V10.9792H11.5V6.45833H11ZM11 10.9792C11 13.3457 9.14551 15.25 6.875 15.25V15.75C9.43698 15.75 11.5 13.6062 11.5 10.9792H11ZM6.875 15.25C4.60449 15.25 2.75 13.3457 2.75 10.9792H2.25C2.25 13.6062 4.31302 15.75 6.875 15.75V15.25ZM2.75 10.9792V4.52083H2.25V10.9792H2.75ZM2.75 4.52083C2.75 4.29443 2.92556 4.125 3.125 4.125V3.625C2.63409 3.625 2.25 4.03387 2.25 4.52083H2.75ZM3.125 4.125C3.32444 4.125 3.5 4.29443 3.5 4.52083H4C4 4.03387 3.61591 3.625 3.125 3.625V4.125ZM3.5 4.52083V10.9792H4V4.52083H3.5ZM3.5 10.9792C3.5 12.8929 5.00338 14.4583 6.875 14.4583V13.9583C5.29484 13.9583 4 12.6323 4 10.9792H3.5ZM6.875 14.4583C8.74662 14.4583 10.25 12.8929 10.25 10.9792H9.75C9.75 12.6323 8.45516 13.9583 6.875 13.9583V14.4583ZM10.25 10.9792V6.45833H9.75V10.9792H10.25ZM10.25 6.45833C10.25 5.61468 9.58609 4.91667 8.75 4.91667V5.41667C9.29462 5.41667 9.75 5.87525 9.75 6.45833H10.25ZM8.75 4.91667C7.91391 4.91667 7.25 5.61468 7.25 6.45833H7.75C7.75 5.87525 8.20538 5.41667 8.75 5.41667V4.91667ZM7.25 6.45833V10.9792H7.75V6.45833H7.25Z" fill="#EC294E"/>
</svg>
