<svg width="24" height="24" viewBox="0 0 24 24" fill="none" xmlns="http://www.w3.org/2000/svg">
<path fill-rule="evenodd" clip-rule="evenodd" d="M13 12H16.5C16.7761 12 17 12.2239 17 12.5C17 12.7761 16.7761 13 16.5 13H13V16.5C13 16.7761 12.7761 17 12.5 17C12.2239 17 12 16.7761 12 16.5V13H8.5C8.22386 13 8 12.7761 8 12.5C8 12.2239 8.22386 12 8.5 12H12V8.5C12 8.22386 12.2239 8 12.5 8C12.7761 8 13 8.22386 13 8.5V12ZM12.5 23C6.701 23 2 18.299 2 12.5C2 6.701 6.701 2 12.5 2C18.299 2 23 6.701 23 12.5C23 18.299 18.299 23 12.5 23ZM12.5 22C17.7467 22 22 17.7467 22 12.5C22 7.25329 17.7467 3 12.5 3C7.25329 3 3 7.25329 3 12.5C3 17.7467 7.25329 22 12.5 22Z" fill="white"/>
<path d="M13 12H12.5V12.5H13V12ZM13 13V12.5H12.5V13H13ZM12 13H12.5V12.5H12V13ZM12 12V12.5H12.5V12H12ZM13 12.5H16.5V11.5H13V12.5ZM16.5 12.5H17.5C17.5 11.9477 17.0523 11.5 16.5 11.5V12.5ZM16.5 12.5V13.5C17.0523 13.5 17.5 13.0523 17.5 12.5H16.5ZM16.5 12.5H13V13.5H16.5V12.5ZM12.5 13V16.5H13.5V13H12.5ZM12.5 16.5V17.5C13.0523 17.5 13.5 17.0523 13.5 16.5H12.5ZM12.5 16.5H11.5C11.5 17.0523 11.9477 17.5 12.5 17.5V16.5ZM12.5 16.5V13H11.5V16.5H12.5ZM12 12.5H8.5V13.5H12V12.5ZM8.5 12.5H7.5C7.5 13.0523 7.94772 13.5 8.5 13.5V12.5ZM8.5 12.5V11.5C7.94772 11.5 7.5 11.9477 7.5 12.5H8.5ZM8.5 12.5H12V11.5H8.5V12.5ZM12.5 12V8.5H11.5V12H12.5ZM12.5 8.5V7.5C11.9477 7.5 11.5 7.94772 11.5 8.5H12.5ZM12.5 8.5H13.5C13.5 7.94772 13.0523 7.5 12.5 7.5V8.5ZM12.5 8.5V12H13.5V8.5H12.5ZM12.5 22.5C6.97714 22.5 2.5 18.0229 2.5 12.5H1.5C1.5 18.5751 6.42486 23.5 12.5 23.5V22.5ZM2.5 12.5C2.5 6.97714 6.97714 2.5 12.5 2.5V1.5C6.42486 1.5 1.5 6.42486 1.5 12.5H2.5ZM12.5 2.5C18.0229 2.5 22.5 6.97714 22.5 12.5H23.5C23.5 6.42486 18.5751 1.5 12.5 1.5V2.5ZM22.5 12.5C22.5 18.0229 18.0229 22.5 12.5 22.5V23.5C18.5751 23.5 23.5 18.5751 23.5 12.5H22.5ZM12.5 22.5C18.0228 22.5 22.5 18.0228 22.5 12.5H21.5C21.5 17.4706 17.4706 21.5 12.5 21.5V22.5ZM22.5 12.5C22.5 6.97715 18.0228 2.5 12.5 2.5V3.5C17.4706 3.5 21.5 7.52944 21.5 12.5H22.5ZM12.5 2.5C6.97715 2.5 2.5 6.97715 2.5 12.5H3.5C3.5 7.52944 7.52944 3.5 12.5 3.5V2.5ZM2.5 12.5C2.5 18.0228 6.97715 22.5 12.5 22.5V21.5C7.52944 21.5 3.5 17.4706 3.5 12.5H2.5Z" fill="white"/>
</svg>
