<svg width="26" height="26" viewBox="0 0 26 26" fill="none" xmlns="http://www.w3.org/2000/svg">
<path fill-rule="evenodd" clip-rule="evenodd" d="M20.5 20.5V3.625C20.5 2.58947 19.6605 1.75 18.625 1.75H5.165C5.3775 2.1175 5.5 2.545 5.5 3V23C5.5 23.6904 6.05964 24.25 6.75 24.25C7.44036 24.25 8 23.6904 8 23V21.125C8 20.7798 8.27982 20.5 8.625 20.5H20.5ZM21.75 20.5H24.875C25.2202 20.5 25.5 20.7798 25.5 21.125V22.375C25.5 24.1009 24.1009 25.5 22.375 25.5H6.75C5.36929 25.5 4.25 24.3807 4.25 23V5.5H3C1.61929 5.5 0.5 4.38071 0.5 3C0.5 1.61929 1.61929 0.5 3 0.5H18.625C20.3509 0.5 21.75 1.89911 21.75 3.625V20.5ZM9.25 21.75V23C9.25 23.455 9.12875 23.8825 8.915 24.25H22.375C23.4105 24.25 24.25 23.4105 24.25 22.375V21.75H9.25ZM4.25 4.25V3C4.25 2.30964 3.69036 1.75 3 1.75C2.30964 1.75 1.75 2.30964 1.75 3C1.75 3.69036 2.30964 4.25 3 4.25H4.25ZM8.625 6.75C8.27982 6.75 8 6.47018 8 6.125C8 5.77982 8.27982 5.5 8.625 5.5H17.375C17.7202 5.5 18 5.77982 18 6.125C18 6.47018 17.7202 6.75 17.375 6.75H8.625ZM8.625 10.5C8.27982 10.5 8 10.2202 8 9.875C8 9.52982 8.27982 9.25 8.625 9.25H17.375C17.7202 9.25 18 9.52982 18 9.875C18 10.2202 17.7202 10.5 17.375 10.5H8.625ZM8.625 14.25C8.27982 14.25 8 13.9702 8 13.625C8 13.2798 8.27982 13 8.625 13H17.375C17.7202 13 18 13.2798 18 13.625C18 13.9702 17.7202 14.25 17.375 14.25H8.625ZM8.625 18C8.27982 18 8 17.7202 8 17.375C8 17.0298 8.27982 16.75 8.625 16.75H14.875C15.2202 16.75 15.5 17.0298 15.5 17.375C15.5 17.7202 15.2202 18 14.875 18H8.625Z" fill="#EC294E"/>
<path d="M20.5 20.5V20.75H20.75V20.5H20.5ZM5.165 1.75V1.5H4.73166L4.94858 1.87514L5.165 1.75ZM21.75 20.5H21.5V20.75H21.75V20.5ZM4.25 5.5H4.5V5.25H4.25V5.5ZM9.25 21.75V21.5H9V21.75H9.25ZM8.915 24.25L8.6989 24.1243L8.48038 24.5H8.915V24.25ZM24.25 21.75H24.5V21.5H24.25V21.75ZM4.25 4.25V4.5H4.5V4.25H4.25ZM20.75 20.5V3.625H20.25V20.5H20.75ZM20.75 3.625C20.75 2.45139 19.7986 1.5 18.625 1.5V2C19.5225 2 20.25 2.72754 20.25 3.625H20.75ZM18.625 1.5H5.165V2H18.625V1.5ZM4.94858 1.87514C5.1398 2.20585 5.25 2.59035 5.25 3H5.75C5.75 2.49965 5.6152 2.02915 5.38142 1.62486L4.94858 1.87514ZM5.25 3V23H5.75V3H5.25ZM5.25 23C5.25 23.8284 5.92157 24.5 6.75 24.5V24C6.19772 24 5.75 23.5523 5.75 23H5.25ZM6.75 24.5C7.57843 24.5 8.25 23.8284 8.25 23H7.75C7.75 23.5523 7.30228 24 6.75 24V24.5ZM8.25 23V21.125H7.75V23H8.25ZM8.25 21.125C8.25 20.9179 8.41789 20.75 8.625 20.75V20.25C8.14175 20.25 7.75 20.6418 7.75 21.125H8.25ZM8.625 20.75H20.5V20.25H8.625V20.75ZM21.75 20.75H24.875V20.25H21.75V20.75ZM24.875 20.75C25.0821 20.75 25.25 20.9179 25.25 21.125H25.75C25.75 20.6418 25.3582 20.25 24.875 20.25V20.75ZM25.25 21.125V22.375H25.75V21.125H25.25ZM25.25 22.375C25.25 23.9628 23.9628 25.25 22.375 25.25V25.75C24.239 25.75 25.75 24.239 25.75 22.375H25.25ZM22.375 25.25H6.75V25.75H22.375V25.25ZM6.75 25.25C5.50736 25.25 4.5 24.2426 4.5 23H4C4 24.5188 5.23122 25.75 6.75 25.75V25.25ZM4.5 23V5.5H4V23H4.5ZM4.25 5.25H3V5.75H4.25V5.25ZM3 5.25C1.75736 5.25 0.75 4.24264 0.75 3H0.25C0.25 4.51878 1.48122 5.75 3 5.75V5.25ZM0.75 3C0.75 1.75736 1.75736 0.75 3 0.75V0.25C1.48122 0.25 0.25 1.48122 0.25 3H0.75ZM3 0.75H18.625V0.25H3V0.75ZM18.625 0.75C20.2128 0.75 21.5 2.03718 21.5 3.625H22C22 1.76104 20.489 0.25 18.625 0.25V0.75ZM21.5 3.625V20.5H22V3.625H21.5ZM9 21.75V23H9.5V21.75H9ZM9 23C9 23.4101 8.89082 23.7943 8.6989 24.1243L9.1311 24.3757C9.36668 23.9707 9.5 23.4999 9.5 23H9ZM8.915 24.5H22.375V24H8.915V24.5ZM22.375 24.5C23.5486 24.5 24.5 23.5486 24.5 22.375H24C24 23.2725 23.2725 24 22.375 24V24.5ZM24.5 22.375V21.75H24V22.375H24.5ZM24.25 21.5H9.25V22H24.25V21.5ZM4.5 4.25V3H4V4.25H4.5ZM4.5 3C4.5 2.17157 3.82843 1.5 3 1.5V2C3.55228 2 4 2.44772 4 3H4.5ZM3 1.5C2.17157 1.5 1.5 2.17157 1.5 3H2C2 2.44772 2.44772 2 3 2V1.5ZM1.5 3C1.5 3.82843 2.17157 4.5 3 4.5V4C2.44772 4 2 3.55228 2 3H1.5ZM3 4.5H4.25V4H3V4.5ZM8.625 6.5C8.41789 6.5 8.25 6.33211 8.25 6.125H7.75C7.75 6.60825 8.14175 7 8.625 7V6.5ZM8.25 6.125C8.25 5.91789 8.41789 5.75 8.625 5.75V5.25C8.14175 5.25 7.75 5.64175 7.75 6.125H8.25ZM8.625 5.75H17.375V5.25H8.625V5.75ZM17.375 5.75C17.5821 5.75 17.75 5.91789 17.75 6.125H18.25C18.25 5.64175 17.8582 5.25 17.375 5.25V5.75ZM17.75 6.125C17.75 6.33211 17.5821 6.5 17.375 6.5V7C17.8582 7 18.25 6.60825 18.25 6.125H17.75ZM17.375 6.5H8.625V7H17.375V6.5ZM8.625 10.25C8.41789 10.25 8.25 10.0821 8.25 9.875H7.75C7.75 10.3582 8.14175 10.75 8.625 10.75V10.25ZM8.25 9.875C8.25 9.66789 8.41789 9.5 8.625 9.5V9C8.14175 9 7.75 9.39175 7.75 9.875H8.25ZM8.625 9.5H17.375V9H8.625V9.5ZM17.375 9.5C17.5821 9.5 17.75 9.66789 17.75 9.875H18.25C18.25 9.39175 17.8582 9 17.375 9V9.5ZM17.75 9.875C17.75 10.0821 17.5821 10.25 17.375 10.25V10.75C17.8582 10.75 18.25 10.3582 18.25 9.875H17.75ZM17.375 10.25H8.625V10.75H17.375V10.25ZM8.625 14C8.41789 14 8.25 13.8321 8.25 13.625H7.75C7.75 14.1082 8.14175 14.5 8.625 14.5V14ZM8.25 13.625C8.25 13.4179 8.41789 13.25 8.625 13.25V12.75C8.14175 12.75 7.75 13.1418 7.75 13.625H8.25ZM8.625 13.25H17.375V12.75H8.625V13.25ZM17.375 13.25C17.5821 13.25 17.75 13.4179 17.75 13.625H18.25C18.25 13.1418 17.8582 12.75 17.375 12.75V13.25ZM17.75 13.625C17.75 13.8321 17.5821 14 17.375 14V14.5C17.8582 14.5 18.25 14.1082 18.25 13.625H17.75ZM17.375 14H8.625V14.5H17.375V14ZM8.625 17.75C8.41789 17.75 8.25 17.5821 8.25 17.375H7.75C7.75 17.8582 8.14175 18.25 8.625 18.25V17.75ZM8.25 17.375C8.25 17.1679 8.41789 17 8.625 17V16.5C8.14175 16.5 7.75 16.8918 7.75 17.375H8.25ZM8.625 17H14.875V16.5H8.625V17ZM14.875 17C15.0821 17 15.25 17.1679 15.25 17.375H15.75C15.75 16.8918 15.3582 16.5 14.875 16.5V17ZM15.25 17.375C15.25 17.5821 15.0821 17.75 14.875 17.75V18.25C15.3582 18.25 15.75 17.8582 15.75 17.375H15.25ZM14.875 17.75H8.625V18.25H14.875V17.75Z" fill="#EC294E"/>
</svg>
