<svg width="121" height="31" viewBox="0 0 121 31" fill="none" xmlns="http://www.w3.org/2000/svg">
<path d="M2.57722 30.6443C1.48589 30.6443 0.696773 30.3756 0 29.6199L0.738747 28.8473C1.26762 29.4099 1.85526 29.5863 2.60241 29.5863C3.55102 29.5863 4.10508 29.1496 4.10508 28.4023C4.10508 28.0664 4.01274 27.7809 3.81966 27.5961C3.63497 27.4114 3.45029 27.3358 3.02215 27.2686L2.16587 27.1427C1.56984 27.0587 1.09973 26.8404 0.780722 26.5213C0.419743 26.1602 0.251846 25.6732 0.251846 25.0434C0.251846 23.6998 1.17528 22.7761 2.68635 22.7761C3.65176 22.7761 4.32335 23.0364 4.94457 23.6578L4.2394 24.3968C3.78608 23.9433 3.2656 23.8006 2.65277 23.8006C1.7965 23.8006 1.32639 24.3212 1.32639 25.0098C1.32639 25.2953 1.41034 25.5388 1.60342 25.7235C1.7881 25.8999 2.08192 26.0258 2.41772 26.0846L3.24881 26.2106C3.9204 26.3198 4.30656 26.4961 4.60878 26.79C5.01173 27.1595 5.20481 27.7137 5.20481 28.3771C5.19642 29.7962 4.09669 30.6443 2.57722 30.6443Z" fill="#222222"/>
<path d="M12.2985 30.5771V25.4044L10.6195 29.1748H9.8052L8.08426 25.4044V30.5771H6.97614V22.8433H8.08426L10.2082 27.6549L12.2985 22.8433H13.4066V30.5771H12.2985Z" fill="#222222"/>
<path d="M19.7867 30.5771L19.283 29.0236H16.4119L15.9083 30.5771H14.733L17.4025 22.8433H18.2924L20.962 30.5771H19.7867ZM17.8726 24.5899L16.7393 28.0243H18.9808L17.8726 24.5899Z" fill="#222222"/>
<path d="M26.3263 30.5771L24.79 27.319H23.4132V30.5771H22.3051V22.8433H25.1258C26.5025 22.8433 27.384 23.7921 27.384 25.1021C27.384 26.2105 26.746 26.9159 25.9317 27.1594L27.6107 30.5855H26.3263V30.5771ZM25.0418 23.8929H23.4048V26.3113H25.0418C25.7806 26.3113 26.2759 25.8663 26.2759 25.1021C26.2843 24.3464 25.7806 23.8929 25.0418 23.8929Z" fill="#222222"/>
<path d="M31.7746 23.893V30.5772H30.6664V23.893H28.6685V22.835H33.7809V23.893H31.7746Z" fill="#222222"/>
<path d="M40.5975 30.6443C39.1116 30.6443 37.9867 29.5694 37.9867 27.974V22.8433H39.0948V27.9152C39.0948 28.948 39.6909 29.5862 40.5975 29.5862C41.5041 29.5862 42.1086 28.948 42.1086 27.9152V22.8433H43.2167V27.974C43.2167 29.5694 42.0834 30.6443 40.5975 30.6443Z" fill="#222222"/>
<path d="M50.6378 30.5771V25.4044L48.9588 29.1748H48.1445L46.4236 25.4044V30.5771H45.3154V22.8433H46.4236L48.5474 27.6549L50.6378 22.8433H51.7459V30.5771H50.6378Z" fill="#222222"/>
<path d="M59.2593 30.5771V25.4044L57.5803 29.1748H56.766L55.0451 25.4044V30.5771H53.937V22.8433H55.0451L57.169 27.6549L59.2593 22.8433H60.3674V30.5771H59.2593Z" fill="#222222"/>
<path d="M69.501 30.5771L68.9973 29.0236H66.1263L65.6226 30.5771H64.4473L67.1169 22.8433H68.0067L70.6763 30.5771H69.501ZM67.5954 24.5899L66.4537 28.0243H68.6951L67.5954 24.5899Z" fill="#222222"/>
<path d="M72.0195 30.5771V22.8433H73.1276V29.5275H76.6366V30.5855H72.0195V30.5771Z" fill="#222222"/>
<path d="M85.5604 30.9214L84.83 30.1489C84.4103 30.468 83.8814 30.6359 83.3022 30.6359C82.5215 30.6359 81.8919 30.342 81.3882 29.813C80.6746 29.0489 80.683 28.1923 80.683 26.706C80.683 25.2197 80.6746 24.3632 81.3882 23.5991C81.8919 23.07 82.5215 22.7761 83.3022 22.7761C84.0829 22.7761 84.7209 23.07 85.2246 23.5991C85.9382 24.3632 85.9214 25.2197 85.9214 26.706C85.9214 28.0244 85.9298 28.8221 85.4513 29.5191L86.1648 30.2664L85.5604 30.9214ZM84.3935 24.3044C84.1417 24.0105 83.7387 23.8258 83.3106 23.8258C82.8824 23.8258 82.4795 24.0105 82.2276 24.3044C81.8667 24.7159 81.7995 25.1525 81.7995 26.706C81.7995 28.2595 81.8667 28.6962 82.2276 29.1076C82.4795 29.4015 82.8824 29.5863 83.3106 29.5863C83.5876 29.5863 83.8395 29.5023 84.0577 29.3344L83.2938 28.5198L83.9066 27.8648L84.6118 28.6122C84.7965 28.2175 84.83 27.6969 84.83 26.6976C84.83 25.1525 84.7545 24.7159 84.3935 24.3044Z" fill="#222222"/>
<path d="M90.3706 30.6443C88.8847 30.6443 87.7598 29.5694 87.7598 27.974V22.8433H88.8679V27.9152C88.8679 28.948 89.464 29.5862 90.3706 29.5862C91.2773 29.5862 91.8817 28.948 91.8817 27.9152V22.8433H92.9898V27.974C92.9898 29.5694 91.8565 30.6443 90.3706 30.6443Z" fill="#222222"/>
<path d="M101.024 30.5771H100.058L98.5724 25.1525L97.1033 30.5771H96.1379L94.2322 22.8433H95.3991L96.6667 28.377L98.1275 22.8433H99.0173L100.478 28.377L101.746 22.8433H102.913L101.024 30.5771Z" fill="#222222"/>
<path d="M108.319 30.5771L107.815 29.0236H104.944L104.44 30.5771H103.265L105.935 22.8433H106.825L109.494 30.5771H108.319ZM106.405 24.5899L105.272 28.0243H107.513L106.405 24.5899Z" fill="#222222"/>
<path d="M110.837 30.5771V22.8433H111.945V30.5771H110.837Z" fill="#222222"/>
<path d="M118.619 30.5771L115.253 25.1357V30.5771H114.145V22.8433H115.161L118.527 28.2763V22.8433H119.635V30.5771H118.619Z" fill="#222222"/>
<path d="M9.59532 14.488V15.672H3.56781C2.6108 15.672 1.7965 15.3362 1.12491 14.6728C0.444925 14.0094 0.109131 13.2033 0.109131 12.2628V11.062C0.109131 10.1215 0.444925 9.32375 1.12491 8.65197C1.7965 7.98859 2.6108 7.6527 3.56781 7.6527C4.52482 7.6527 5.33913 7.98859 6.01071 8.65197C6.6823 9.31535 7.0181 10.1215 7.0181 11.062V14.4964H9.59532V14.488ZM5.83442 11.0536C5.83442 10.4406 5.61616 9.91155 5.17123 9.48329C4.7263 9.05503 4.19743 8.83671 3.57621 8.83671C2.95499 8.83671 2.41772 9.05503 1.98118 9.48329C1.53626 9.91995 1.31799 10.4406 1.31799 11.0536V12.2544C1.31799 12.8674 1.53626 13.3964 1.98118 13.8247C2.41772 14.2613 2.94659 14.4796 3.57621 14.4796H5.83442V11.0536ZM1.84687 6.05723C1.70415 6.05723 1.6286 5.99005 1.6286 5.84729V4.89841C1.6286 4.75565 1.70415 4.68848 1.84687 4.68848H2.65277C2.80388 4.68848 2.87943 4.75565 2.87943 4.89841V5.84729C2.87943 5.99005 2.80388 6.05723 2.65277 6.05723H1.84687ZM4.02953 6.05723C3.88682 6.05723 3.81126 5.99005 3.81126 5.84729V4.89841C3.81126 4.75565 3.88682 4.68848 4.02953 4.68848H4.83543C4.98654 4.68848 5.0621 4.75565 5.0621 4.89841V5.84729C5.0621 5.99005 4.98654 6.05723 4.83543 6.05723H4.02953Z" fill="#222222"/>
<path d="M15.2115 15.6638H14.649C13.8515 15.6638 13.2471 15.4706 12.8525 15.076C12.8441 15.0676 12.8357 15.0508 12.8273 15.0424C12.8189 15.0508 12.8105 15.0676 12.7937 15.0844C12.7853 15.1012 12.777 15.1096 12.7686 15.118C12.3992 15.4874 11.8871 15.6722 11.2491 15.6722H8.79779V14.4882H11.2827C11.5681 14.4882 11.7864 14.421 11.9207 14.2782C12.0634 14.1439 12.1389 13.9172 12.1389 13.6065V8.19025C12.1389 8.0475 12.2145 7.97192 12.3572 7.97192H13.1211C13.2722 7.97192 13.3478 8.0475 13.3478 8.19025V13.8248C13.3478 14.0095 13.3898 14.1439 13.4821 14.2363C13.65 14.4042 13.9774 14.4882 14.4559 14.4882H15.2115V15.6638ZM11.2911 17.2005C11.4422 17.2005 11.5177 17.276 11.5177 17.4188V18.3593C11.5177 18.502 11.4422 18.5692 11.2911 18.5692H10.4852C10.3424 18.5692 10.2669 18.502 10.2669 18.3593V17.4188C10.2669 17.276 10.3424 17.2005 10.4852 17.2005H11.2911ZM13.4737 17.2005C13.6248 17.2005 13.7004 17.276 13.7004 17.4188V18.3593C13.7004 18.502 13.6248 18.5692 13.4737 18.5692H12.6762C12.5251 18.5692 12.4496 18.502 12.4496 18.3593V17.4188C12.4496 17.276 12.5251 17.2005 12.6762 17.2005H13.4737Z" fill="#222222"/>
<path d="M21.3062 8.44222C22.3555 8.44222 23.2286 8.78651 23.9086 9.47508C24.5885 10.1637 24.9327 11.037 24.9327 12.0866V13.6149C24.9327 14.2447 24.748 14.7485 24.3619 15.118C23.9841 15.4875 23.4804 15.6722 22.8424 15.6722H14.8085V14.4882H22.834C23.1446 14.4882 23.3629 14.421 23.5056 14.2783C23.6567 14.1355 23.7323 13.9172 23.7323 13.6149V12.0866C23.7323 11.3477 23.5056 10.7599 23.0607 10.3064C22.6157 9.85296 22.0281 9.62623 21.2978 9.62623H17.6124C17.4445 9.62623 17.3018 9.56745 17.1843 9.44989C17.0667 9.33233 17.008 9.19797 17.008 9.03003C17.008 7.65289 17.369 6.56964 18.0825 5.7971C18.8045 5.02455 19.7951 4.62988 21.0627 4.62988H22.4227C22.5654 4.62988 22.6409 4.69706 22.6409 4.83981V5.59556C22.6409 5.73832 22.5654 5.8055 22.4227 5.8055H21.0627C19.3585 5.8055 18.4183 6.67881 18.242 8.42543H21.3062V8.44222Z" fill="#222222"/>
<path d="M35.4766 15.6636H34.931C34.2174 15.6636 33.6382 15.4537 33.2016 15.0255C33.1848 15.0087 33.1597 14.9751 33.1261 14.9415C33.0925 14.9079 33.0673 14.8743 33.0505 14.8575C32.5804 15.3949 31.8417 15.672 30.8259 15.672H27.3001C27.1573 15.672 27.0818 15.6049 27.0818 15.4621V14.7148C27.0818 14.572 27.1573 14.4964 27.3001 14.4964H30.8259C31.4471 14.4964 31.8669 14.3789 32.1019 14.1438C32.3034 13.9506 32.3957 13.6231 32.3957 13.1529V10.5581C32.3957 10.0879 32.2278 9.67643 31.8836 9.34054C31.5395 9.00465 31.1281 8.83671 30.6412 8.83671C29.9444 8.83671 29.424 8.95427 29.0798 9.19779L28.7775 9.40772C28.7272 9.43291 28.6852 9.4497 28.6432 9.4497H28.6013C28.5509 9.44131 28.5005 9.41611 28.4669 9.36573L28.022 8.75273C27.9968 8.71914 27.9884 8.68555 27.9884 8.64357V8.59319C27.9968 8.5428 28.022 8.49242 28.0724 8.45043L28.3746 8.2405C28.9203 7.85423 29.6758 7.6611 30.6328 7.6611C31.4387 7.6611 32.1355 7.9466 32.7231 8.50921C33.3024 9.08022 33.5878 9.7604 33.5878 10.5665V13.6147C33.5878 13.8498 33.6634 14.043 33.8229 14.1941C34.0243 14.3957 34.3098 14.4964 34.6959 14.4964H35.4599V15.6636H35.4766ZM30.1375 6.05723C29.9948 6.05723 29.9192 5.99005 29.9192 5.84729V4.89841C29.9192 4.75565 29.9948 4.68848 30.1375 4.68848H30.9434C31.0861 4.68848 31.1617 4.75565 31.1617 4.89841V5.84729C31.1617 5.99005 31.0861 6.05723 30.9434 6.05723H30.1375Z" fill="#222222"/>
<path d="M38.843 4.02515C38.9857 4.02515 39.0613 4.10072 39.0613 4.24347V13.6064C39.0613 14.2362 38.8682 14.74 38.4904 15.1095C38.1043 15.479 37.6006 15.6637 36.971 15.6637H35.0737V14.4797H36.9794C36.9878 14.4881 36.9878 14.4881 36.9962 14.4881C37.2984 14.4797 37.5082 14.4125 37.6426 14.2782C37.7853 14.1354 37.8608 13.9087 37.8608 13.6148V4.24347C37.8608 4.10072 37.9364 4.02515 38.0791 4.02515H38.843Z" fill="#222222"/>
<path d="M42.8977 15.4538C42.8977 15.5965 42.8306 15.6637 42.6879 15.6637H41.9155C41.7728 15.6637 41.6973 15.5965 41.6973 15.4538V4.23508C41.6973 4.09232 41.7728 4.02515 41.9155 4.02515H42.6879C42.8222 4.02515 42.8977 4.09232 42.8977 4.23508V15.4538Z" fill="#222222"/>
<path d="M58.6045 15.6638H56.0609C55.9014 16.4783 55.4984 17.1501 54.8436 17.6875C54.1888 18.2249 53.4333 18.4936 52.577 18.4936C51.6032 18.4936 50.7637 18.1493 50.0753 17.4692C49.3786 16.789 49.0344 15.9661 49.0344 15.0004V11.1964C49.0344 11.0537 49.1099 10.9865 49.2526 10.9865H50.0166C50.1593 10.9865 50.2348 11.0537 50.2348 11.1964V15.0004C50.2348 15.6386 50.4615 16.1844 50.9232 16.6378C51.3849 17.0913 51.9306 17.318 52.577 17.318C53.2234 17.318 53.7775 17.0913 54.2308 16.6378C54.6925 16.1844 54.9275 15.6386 54.9275 15.0004V8.17343C54.9275 8.03068 55.0031 7.9551 55.1458 7.9551H55.9014C56.0525 7.9551 56.128 8.03068 56.128 8.17343V14.4797H58.6045V15.6638ZM51.9558 7.44287C51.8131 7.44287 51.7375 7.37569 51.7375 7.23294V6.29245C51.7375 6.1497 51.8131 6.08252 51.9558 6.08252H52.7617C52.9128 6.08252 52.9883 6.1497 52.9883 6.29245V7.23294C52.9883 7.37569 52.9128 7.44287 52.7617 7.44287H51.9558Z" fill="#222222"/>
<path d="M57.9665 15.6636V14.4796H60.5185C60.8207 14.4712 61.0306 14.404 61.1649 14.2697C61.3076 14.1269 61.3832 13.9086 61.3832 13.6063V8.17331C61.3832 8.03056 61.4587 7.96338 61.6099 7.96338H62.3654C62.5165 7.96338 62.5921 8.03056 62.5921 8.17331V13.6063C62.5921 14.2361 62.399 14.7399 62.0128 15.1094C61.6266 15.4789 61.123 15.6636 60.5017 15.6636H57.9665ZM59.8721 17.2003C60.0232 17.2003 60.0988 17.2759 60.0988 17.4187V18.3591C60.0988 18.5019 60.0232 18.5691 59.8721 18.5691H59.0578C58.9151 18.5691 58.8396 18.5019 58.8396 18.3591V17.4187C58.8396 17.2759 58.9151 17.2003 59.0578 17.2003H59.8721ZM62.0548 17.2003C62.2059 17.2003 62.2814 17.2759 62.2814 17.4187V18.3591C62.2814 18.5019 62.2059 18.5691 62.0548 18.5691H61.2405C61.0978 18.5691 61.0222 18.5019 61.0222 18.3591V17.4187C61.0222 17.2759 61.0978 17.2003 61.2405 17.2003H62.0548Z" fill="#222222"/>
<path d="M74.3784 14.4882V15.6722H71.9019V15.8654C71.9019 16.7219 71.5829 17.4608 70.9449 18.0906C70.3069 18.7204 69.5598 19.0395 68.6867 19.0395H66.9825C66.8482 19.0395 66.7727 18.9723 66.7727 18.8296V18.0738C66.7727 17.9311 66.8398 17.8639 66.9825 17.8639H68.6867C69.2324 17.8639 69.7109 17.6708 70.1054 17.2761C70.5084 16.873 70.7015 16.4112 70.7015 15.8738V15.6806H68.4432C67.4862 15.6806 66.6719 15.3531 66.0003 14.6898C65.3204 14.0264 64.9846 13.2202 64.9846 12.2798V11.0706C64.9846 10.1301 65.3204 9.33233 66.0003 8.66895C66.6803 8.00557 67.4946 7.66968 68.4432 7.66968C69.3919 7.66968 70.2062 8.00557 70.8777 8.66895C71.5577 9.33233 71.8935 10.1301 71.8935 11.0706V14.505H74.3784V14.4882ZM70.7015 11.0538C70.7015 10.4408 70.4832 9.92013 70.0383 9.48348C69.5933 9.04682 69.0645 8.82849 68.4516 8.82849C67.8304 8.82849 67.2931 9.04682 66.8566 9.48348C66.4117 9.91174 66.1934 10.4324 66.1934 11.0538V12.263C66.1934 12.876 66.4117 13.3966 66.8566 13.8332C67.3015 14.2699 67.8304 14.4882 68.4516 14.4882H70.7098V11.0538H70.7015Z" fill="#222222"/>
<path d="M80.2296 15.6638H79.6672C78.8697 15.6638 78.2653 15.4706 77.8707 15.076C77.8623 15.0676 77.8539 15.0508 77.8455 15.0424C77.8371 15.0508 77.8287 15.0676 77.8119 15.0844C77.8035 15.1012 77.7951 15.1096 77.7867 15.118C77.4174 15.4874 76.9053 15.6722 76.2673 15.6722H73.816V14.4882H76.3009C76.5863 14.4882 76.8045 14.421 76.9389 14.2782C77.0816 14.1439 77.1571 13.9172 77.1571 13.6065V8.19025C77.1571 8.0475 77.2327 7.97192 77.3754 7.97192H78.1309C78.282 7.97192 78.3576 8.0475 78.3576 8.19025V13.8248C78.3576 14.0095 78.3996 14.1439 78.4919 14.2363C78.6598 14.4042 78.9872 14.4882 79.4657 14.4882H80.2296V15.6638ZM76.3093 17.2005C76.4604 17.2005 76.5359 17.276 76.5359 17.4188V18.3593C76.5359 18.502 76.4604 18.5692 76.3093 18.5692H75.5033C75.3606 18.5692 75.2851 18.502 75.2851 18.3593V17.4188C75.2851 17.276 75.3606 17.2005 75.5033 17.2005H76.3093ZM78.4919 17.2005C78.643 17.2005 78.7186 17.276 78.7186 17.4188V18.3593C78.7186 18.502 78.643 18.5692 78.4919 18.5692H77.6944C77.5433 18.5692 77.4677 18.502 77.4677 18.3593V17.4188C77.4677 17.276 77.5433 17.2005 77.6944 17.2005H78.4919Z" fill="#222222"/>
<path d="M91.932 14.488V15.672H79.8267V14.488H83.3777C82.8152 13.8415 82.5298 13.1025 82.5298 12.2712V11.062C82.5298 10.1215 82.8656 9.32374 83.5456 8.66036C84.2256 7.99698 85.0399 7.6611 85.9885 7.6611C86.9371 7.6611 87.7598 7.99698 88.4314 8.66036C89.1114 9.32374 89.4472 10.1215 89.4472 11.062V14.4964H91.932V14.488ZM83.7387 12.2628C83.7387 12.8758 83.9569 13.3964 84.4019 13.8331C84.8468 14.2697 85.3757 14.488 85.9969 14.488H88.2551V11.0536C88.2551 10.4406 88.0368 9.91995 87.5919 9.48329C87.1554 9.04664 86.6265 8.82831 85.9969 8.82831C85.3757 8.82831 84.8468 9.04664 84.4019 9.48329C83.9569 9.91995 83.7387 10.4406 83.7387 11.0536V12.2628ZM84.4438 6.05723C84.3011 6.05723 84.2256 5.99005 84.2256 5.84729V4.89841C84.2256 4.75565 84.3011 4.68848 84.4438 4.68848H85.2497C85.4008 4.68848 85.4764 4.75565 85.4764 4.89841V5.84729C85.4764 5.99005 85.4008 6.05723 85.2497 6.05723H84.4438ZM86.6349 6.05723C86.4838 6.05723 86.4082 5.99005 86.4082 5.84729V4.89841C86.4082 4.75565 86.4838 4.68848 86.6349 4.68848H87.4324C87.5835 4.68848 87.6591 4.75565 87.6591 4.89841V5.84729C87.6591 5.99005 87.5835 6.05723 87.4324 6.05723H86.6349Z" fill="#222222"/>
<path d="M95.1389 4.02515C95.2816 4.02515 95.3572 4.10072 95.3572 4.24347V13.6064C95.3572 14.2362 95.1641 14.74 94.7863 15.1095C94.4002 15.479 93.8965 15.6637 93.2669 15.6637H91.3696V14.4797H93.2753C93.2837 14.4881 93.2837 14.4881 93.2921 14.4881C93.5943 14.4797 93.8041 14.4125 93.9385 14.2782C94.0812 14.1354 94.1567 13.9087 94.1567 13.6148V4.24347C94.1567 4.10072 94.2323 4.02515 94.375 4.02515H95.1389Z" fill="#222222"/>
<path d="M99.1936 15.4538C99.1936 15.5965 99.1265 15.6637 98.9838 15.6637H98.2114C98.0687 15.6637 97.9932 15.5965 97.9932 15.4538V4.23508C97.9932 4.09232 98.0687 4.02515 98.2114 4.02515H98.9838C99.1265 4.02515 99.1936 4.09232 99.1936 4.23508V15.4538Z" fill="#222222"/>
<path d="M111.685 7.66113C112.642 7.66113 113.448 7.98862 114.12 8.65201C114.8 9.31539 115.135 10.1215 115.135 11.062V12.2628C115.135 13.2033 114.8 14.0094 114.12 14.6728C113.448 15.3362 112.634 15.6637 111.685 15.6637H107.647C107.337 15.6637 107.076 15.7729 106.866 15.9828C106.648 16.2011 106.539 16.4614 106.539 16.7637V18.9134C106.539 19.0562 106.464 19.1317 106.312 19.1317H105.557C105.414 19.1317 105.339 19.0562 105.339 18.9134V16.7721C105.339 16.1423 105.565 15.6049 106.019 15.1683C106.464 14.7232 107.009 14.4965 107.647 14.4965H108.226V11.062C108.226 10.1215 108.562 9.32378 109.242 8.65201C109.914 7.98862 110.728 7.66113 111.685 7.66113ZM113.927 11.062C113.927 10.449 113.708 9.91999 113.263 9.49173C112.827 9.06347 112.298 8.84514 111.677 8.84514C111.056 8.84514 110.518 9.06347 110.082 9.49173C109.637 9.92838 109.419 10.449 109.419 11.062V14.4965H111.677C112.298 14.4965 112.818 14.2781 113.263 13.8415C113.708 13.4048 113.927 12.8842 113.927 12.2712V11.062Z" fill="#222222"/>
<path d="M120.147 2.21976C120.248 2.21976 120.298 2.27014 120.298 2.37091V2.7152C120.298 2.81596 120.248 2.86635 120.147 2.86635H117.368C117.268 2.86635 117.217 2.81596 117.217 2.7152V2.37091C117.217 2.27014 117.268 2.21976 117.368 2.21976H117.822V1.27927C117.822 0.951777 117.939 0.666271 118.183 0.422752C118.426 0.18763 118.712 0.0700684 119.047 0.0700684C119.593 0.0700684 119.971 0.313589 120.181 0.809025L120.256 0.968573C120.265 0.985367 120.273 1.00216 120.273 1.02735C120.273 1.04415 120.265 1.06094 120.256 1.08613C120.231 1.11972 120.206 1.14491 120.172 1.16171L119.853 1.29606C119.828 1.30446 119.811 1.31286 119.786 1.31286C119.769 1.31286 119.753 1.31286 119.736 1.30446C119.694 1.28767 119.66 1.26248 119.652 1.22049L119.585 1.06094C119.476 0.825819 119.299 0.716655 119.047 0.716655C118.896 0.716655 118.762 0.775436 118.644 0.8846C118.535 0.993764 118.477 1.12812 118.477 1.28767V2.22816H120.147V2.21976ZM119.14 4.02516C119.282 4.02516 119.358 4.10074 119.358 4.24349V15.4454C119.358 15.5881 119.282 15.6637 119.14 15.6637H118.376C118.233 15.6637 118.158 15.5881 118.158 15.4454V4.24349C118.158 4.10074 118.233 4.02516 118.376 4.02516H119.14Z" fill="#222222"/>
</svg>
