<svg width="30" height="30" viewBox="0 0 30 30" fill="none" xmlns="http://www.w3.org/2000/svg">
<path fill-rule="evenodd" clip-rule="evenodd" d="M22.5 22.5V5.625C22.5 4.58947 21.6605 3.75 20.625 3.75H7.165C7.3775 4.1175 7.5 4.545 7.5 5V25C7.5 25.6904 8.05964 26.25 8.75 26.25C9.44036 26.25 10 25.6904 10 25V23.125C10 22.7798 10.2798 22.5 10.625 22.5H22.5ZM23.75 22.5H26.875C27.2202 22.5 27.5 22.7798 27.5 23.125V24.375C27.5 26.1009 26.1009 27.5 24.375 27.5H8.75C7.36929 27.5 6.25 26.3807 6.25 25V7.5H5C3.61929 7.5 2.5 6.38071 2.5 5C2.5 3.61929 3.61929 2.5 5 2.5H20.625C22.3509 2.5 23.75 3.89911 23.75 5.625V22.5ZM11.25 23.75V25C11.25 25.455 11.1287 25.8825 10.915 26.25H24.375C25.4105 26.25 26.25 25.4105 26.25 24.375V23.75H11.25ZM6.25 6.25V5C6.25 4.30964 5.69036 3.75 5 3.75C4.30964 3.75 3.75 4.30964 3.75 5C3.75 5.69036 4.30964 6.25 5 6.25H6.25ZM10.625 8.75C10.2798 8.75 10 8.47018 10 8.125C10 7.77982 10.2798 7.5 10.625 7.5H19.375C19.7202 7.5 20 7.77982 20 8.125C20 8.47018 19.7202 8.75 19.375 8.75H10.625ZM10.625 12.5C10.2798 12.5 10 12.2202 10 11.875C10 11.5298 10.2798 11.25 10.625 11.25H19.375C19.7202 11.25 20 11.5298 20 11.875C20 12.2202 19.7202 12.5 19.375 12.5H10.625ZM10.625 16.25C10.2798 16.25 10 15.9702 10 15.625C10 15.2798 10.2798 15 10.625 15H19.375C19.7202 15 20 15.2798 20 15.625C20 15.9702 19.7202 16.25 19.375 16.25H10.625ZM10.625 20C10.2798 20 10 19.7202 10 19.375C10 19.0298 10.2798 18.75 10.625 18.75H16.875C17.2202 18.75 17.5 19.0298 17.5 19.375C17.5 19.7202 17.2202 20 16.875 20H10.625Z" fill="#EC294E"/>
<path d="M22.5 22.5V22.75H22.75V22.5H22.5ZM7.165 3.75V3.5H6.73166L6.94858 3.87514L7.165 3.75ZM23.75 22.5H23.5V22.75H23.75V22.5ZM6.25 7.5H6.5V7.25H6.25V7.5ZM11.25 23.75V23.5H11V23.75H11.25ZM10.915 26.25L10.6989 26.1243L10.4804 26.5H10.915V26.25ZM26.25 23.75H26.5V23.5H26.25V23.75ZM6.25 6.25V6.5H6.5V6.25H6.25ZM22.75 22.5V5.625H22.25V22.5H22.75ZM22.75 5.625C22.75 4.45139 21.7986 3.5 20.625 3.5V4C21.5225 4 22.25 4.72754 22.25 5.625H22.75ZM20.625 3.5H7.165V4H20.625V3.5ZM6.94858 3.87514C7.1398 4.20585 7.25 4.59035 7.25 5H7.75C7.75 4.49965 7.6152 4.02915 7.38142 3.62486L6.94858 3.87514ZM7.25 5V25H7.75V5H7.25ZM7.25 25C7.25 25.8284 7.92157 26.5 8.75 26.5V26C8.19772 26 7.75 25.5523 7.75 25H7.25ZM8.75 26.5C9.57843 26.5 10.25 25.8284 10.25 25H9.75C9.75 25.5523 9.30228 26 8.75 26V26.5ZM10.25 25V23.125H9.75V25H10.25ZM10.25 23.125C10.25 22.9179 10.4179 22.75 10.625 22.75V22.25C10.1418 22.25 9.75 22.6418 9.75 23.125H10.25ZM10.625 22.75H22.5V22.25H10.625V22.75ZM23.75 22.75H26.875V22.25H23.75V22.75ZM26.875 22.75C27.0821 22.75 27.25 22.9179 27.25 23.125H27.75C27.75 22.6418 27.3582 22.25 26.875 22.25V22.75ZM27.25 23.125V24.375H27.75V23.125H27.25ZM27.25 24.375C27.25 25.9628 25.9628 27.25 24.375 27.25V27.75C26.239 27.75 27.75 26.239 27.75 24.375H27.25ZM24.375 27.25H8.75V27.75H24.375V27.25ZM8.75 27.25C7.50736 27.25 6.5 26.2426 6.5 25H6C6 26.5188 7.23122 27.75 8.75 27.75V27.25ZM6.5 25V7.5H6V25H6.5ZM6.25 7.25H5V7.75H6.25V7.25ZM5 7.25C3.75736 7.25 2.75 6.24264 2.75 5H2.25C2.25 6.51878 3.48122 7.75 5 7.75V7.25ZM2.75 5C2.75 3.75736 3.75736 2.75 5 2.75V2.25C3.48122 2.25 2.25 3.48122 2.25 5H2.75ZM5 2.75H20.625V2.25H5V2.75ZM20.625 2.75C22.2128 2.75 23.5 4.03718 23.5 5.625H24C24 3.76104 22.489 2.25 20.625 2.25V2.75ZM23.5 5.625V22.5H24V5.625H23.5ZM11 23.75V25H11.5V23.75H11ZM11 25C11 25.4101 10.8908 25.7943 10.6989 26.1243L11.1311 26.3757C11.3667 25.9707 11.5 25.4999 11.5 25H11ZM10.915 26.5H24.375V26H10.915V26.5ZM24.375 26.5C25.5486 26.5 26.5 25.5486 26.5 24.375H26C26 25.2725 25.2725 26 24.375 26V26.5ZM26.5 24.375V23.75H26V24.375H26.5ZM26.25 23.5H11.25V24H26.25V23.5ZM6.5 6.25V5H6V6.25H6.5ZM6.5 5C6.5 4.17157 5.82843 3.5 5 3.5V4C5.55228 4 6 4.44772 6 5H6.5ZM5 3.5C4.17157 3.5 3.5 4.17157 3.5 5H4C4 4.44772 4.44772 4 5 4V3.5ZM3.5 5C3.5 5.82843 4.17157 6.5 5 6.5V6C4.44772 6 4 5.55228 4 5H3.5ZM5 6.5H6.25V6H5V6.5ZM10.625 8.5C10.4179 8.5 10.25 8.33211 10.25 8.125H9.75C9.75 8.60825 10.1418 9 10.625 9V8.5ZM10.25 8.125C10.25 7.91789 10.4179 7.75 10.625 7.75V7.25C10.1418 7.25 9.75 7.64175 9.75 8.125H10.25ZM10.625 7.75H19.375V7.25H10.625V7.75ZM19.375 7.75C19.5821 7.75 19.75 7.91789 19.75 8.125H20.25C20.25 7.64175 19.8582 7.25 19.375 7.25V7.75ZM19.75 8.125C19.75 8.33211 19.5821 8.5 19.375 8.5V9C19.8582 9 20.25 8.60825 20.25 8.125H19.75ZM19.375 8.5H10.625V9H19.375V8.5ZM10.625 12.25C10.4179 12.25 10.25 12.0821 10.25 11.875H9.75C9.75 12.3582 10.1418 12.75 10.625 12.75V12.25ZM10.25 11.875C10.25 11.6679 10.4179 11.5 10.625 11.5V11C10.1418 11 9.75 11.3918 9.75 11.875H10.25ZM10.625 11.5H19.375V11H10.625V11.5ZM19.375 11.5C19.5821 11.5 19.75 11.6679 19.75 11.875H20.25C20.25 11.3918 19.8582 11 19.375 11V11.5ZM19.75 11.875C19.75 12.0821 19.5821 12.25 19.375 12.25V12.75C19.8582 12.75 20.25 12.3582 20.25 11.875H19.75ZM19.375 12.25H10.625V12.75H19.375V12.25ZM10.625 16C10.4179 16 10.25 15.8321 10.25 15.625H9.75C9.75 16.1082 10.1418 16.5 10.625 16.5V16ZM10.25 15.625C10.25 15.4179 10.4179 15.25 10.625 15.25V14.75C10.1418 14.75 9.75 15.1418 9.75 15.625H10.25ZM10.625 15.25H19.375V14.75H10.625V15.25ZM19.375 15.25C19.5821 15.25 19.75 15.4179 19.75 15.625H20.25C20.25 15.1418 19.8582 14.75 19.375 14.75V15.25ZM19.75 15.625C19.75 15.8321 19.5821 16 19.375 16V16.5C19.8582 16.5 20.25 16.1082 20.25 15.625H19.75ZM19.375 16H10.625V16.5H19.375V16ZM10.625 19.75C10.4179 19.75 10.25 19.5821 10.25 19.375H9.75C9.75 19.8582 10.1418 20.25 10.625 20.25V19.75ZM10.25 19.375C10.25 19.1679 10.4179 19 10.625 19V18.5C10.1418 18.5 9.75 18.8918 9.75 19.375H10.25ZM10.625 19H16.875V18.5H10.625V19ZM16.875 19C17.0821 19 17.25 19.1679 17.25 19.375H17.75C17.75 18.8918 17.3582 18.5 16.875 18.5V19ZM17.25 19.375C17.25 19.5821 17.0821 19.75 16.875 19.75V20.25C17.3582 20.25 17.75 19.8582 17.75 19.375H17.25ZM16.875 19.75H10.625V20.25H16.875V19.75Z" fill="#EC294E"/>
</svg>
