<svg width="31" height="32" viewBox="0 0 31 32" fill="none" xmlns="http://www.w3.org/2000/svg">
<path d="M13.1482 5.30701H8.31335C6.97884 5.30701 5.90686 6.41357 5.90686 7.79113V12.7368C5.90686 14.1143 6.97884 15.2209 8.31335 15.2209H13.1482C14.4827 15.2209 15.5547 14.1143 15.5547 12.7368V7.79113C15.5766 6.41357 14.4827 5.30701 13.1482 5.30701Z" fill="#D8D8D8"/>
<path d="M24.4369 5.30701H19.602C18.2675 5.30701 17.1956 6.41357 17.1956 7.79113V12.7368C17.1956 14.1143 18.2675 15.2209 19.602 15.2209H24.4369C25.7714 15.2209 26.8434 14.1143 26.8434 12.7368V7.79113C26.8434 6.41357 25.7714 5.30701 24.4369 5.30701Z" fill="#D8D8D8"/>
<path d="M13.1482 16.8695H8.31335C6.97884 16.8695 5.90686 17.9761 5.90686 19.3536V24.2993C5.90686 25.6768 6.97884 26.7834 8.31335 26.7834H13.1482C14.4827 26.7834 15.5547 25.6768 15.5547 24.2993V19.3536C15.5766 17.9761 14.4827 16.8695 13.1482 16.8695Z" fill="#D8D8D8"/>
<path d="M26.0557 21.0022H22.8398V17.7051C22.8398 17.2534 22.4897 16.8695 22.0303 16.8695C21.5928 16.8695 21.2209 17.2308 21.2209 17.7051V21.0022H17.983C17.5455 21.0022 17.1736 21.3635 17.1736 21.8377C17.1736 22.2894 17.5236 22.6733 17.983 22.6733H21.2209V25.9704C21.2209 26.4221 21.5709 26.806 22.0303 26.806C22.4679 26.806 22.8398 26.4447 22.8398 25.9704V22.6733H26.0557C26.4933 22.6733 26.8652 22.312 26.8652 21.8377C26.8433 21.3635 26.4933 21.0022 26.0557 21.0022Z" fill="#D8D8D8"/>
</svg>
