<svg width="17" height="12" viewBox="0 0 17 12" fill="none" xmlns="http://www.w3.org/2000/svg">
<path d="M8.48706 9.5C4.36206 9.5 4.36206 3.25 8.48706 3.25C12.5652 3.25 12.7414 9.5 8.48706 9.5ZM8.48706 4.5C5.98706 4.5 5.98706 8.25 8.48706 8.25C10.9871 8.25 10.9871 4.5 8.48706 4.5Z" fill="#C9CACB"/>
<path d="M8.48703 12C5.39391 12 2.43203 10.3569 0.362033 7.49125C0.126711 7.16663 0 6.77594 0 6.375C0 5.97406 0.126711 5.58337 0.362033 5.25875C2.43203 2.39312 5.39391 0.75 8.48703 0.75C11.5802 0.75 14.542 2.39312 16.612 5.25875C16.8474 5.58337 16.9741 5.97406 16.9741 6.375C16.9741 6.77594 16.8474 7.16663 16.612 7.49125C14.542 10.3569 11.5802 12 8.48703 12ZM1.37266 6.75875C3.23391 9.3325 5.76016 10.75 8.48703 10.75C11.2139 10.75 13.7402 9.3325 15.6014 6.75875C15.6824 6.64706 15.726 6.51264 15.726 6.37469C15.726 6.23674 15.6824 6.10232 15.6014 5.99063C13.7402 3.4175 11.2139 2 8.48703 2C5.76016 2 3.23391 3.4175 1.37266 5.99125C1.29169 6.10294 1.2481 6.23736 1.2481 6.37531C1.2481 6.51326 1.29169 6.64706 1.37266 6.75875Z" fill="#C9CACB"/>
</svg>
