<svg width="16" height="19" viewBox="0 0 16 19" fill="none" xmlns="http://www.w3.org/2000/svg">
<path fill-rule="evenodd" clip-rule="evenodd" d="M12.3225 4.17125L13.5592 3.90525C14.0865 3.79197 14.6236 4.04576 14.8925 4.53525L15.5417 5.71563C15.8106 6.20488 15.7511 6.8199 15.3942 7.2425L14.5575 8.233C14.7035 9.07071 14.7035 9.92929 14.5575 10.767L15.3942 11.7575C15.7511 12.1801 15.8106 12.7951 15.5417 13.2844L14.8917 14.4656C14.6228 14.9551 14.0856 15.2089 13.5584 15.0956L12.3225 14.8296C11.7055 15.3823 10.9975 15.812 10.2334 16.0975L9.83502 17.3523C9.66507 17.888 9.18782 18.2496 8.65002 18.25H7.35168C6.81358 18.2499 6.33589 17.8883 6.16585 17.3523L5.76669 16.0975C5.00252 15.8117 4.29451 15.3817 3.67752 14.8288L2.44085 15.0948C1.91358 15.208 1.37645 14.9542 1.10752 14.4648L0.458352 13.2844C0.189476 12.7951 0.248888 12.1801 0.605852 11.7575L1.44252 10.767C1.2965 9.92929 1.2965 9.07071 1.44252 8.233L0.605852 7.2425C0.248888 6.8199 0.189476 6.20488 0.458352 5.71563L1.10835 4.53437C1.37729 4.04489 1.91442 3.79109 2.44168 3.90438L3.67752 4.17037C4.29457 3.61771 5.00258 3.18803 5.76669 2.9025L6.16502 1.64775C6.33496 1.112 6.81222 0.750429 7.35002 0.75H8.64835C9.18646 0.750052 9.66414 1.11169 9.83418 1.64775L10.2325 2.9025C10.9967 3.18829 11.7047 3.61827 12.3217 4.17125H12.3225ZM9.77752 3.66375C9.65061 3.62148 9.55058 3.51808 9.50835 3.3855L9.04502 1.92425C8.98827 1.74536 8.82876 1.62477 8.64919 1.625H7.35085C7.17128 1.62477 7.01176 1.74536 6.95502 1.92425L6.49169 3.3855C6.44968 3.51841 6.34962 3.62218 6.22252 3.66463C5.42689 3.93214 4.69535 4.37618 4.07752 4.96663C3.97907 5.06069 3.84375 5.09971 3.71335 5.07163L2.27502 4.76188C2.09908 4.72384 1.91973 4.80848 1.83002 4.97188L1.18085 6.15312C1.09132 6.31646 1.11146 6.52165 1.23085 6.66237L2.20418 7.81563C2.29199 7.91995 2.32727 8.06193 2.29918 8.198C2.12218 9.05605 2.12218 9.94395 2.29918 10.802C2.32727 10.9381 2.29199 11.08 2.20418 11.1844L1.23002 12.3376C1.1109 12.4785 1.09109 12.6837 1.18085 12.8469L1.83085 14.0281C1.92046 14.1912 2.09935 14.2758 2.27502 14.2381L3.71418 13.9284C3.84458 13.9003 3.9799 13.9393 4.07835 14.0334C4.69619 14.6238 5.42772 15.0679 6.22335 15.3354C6.35045 15.3778 6.45051 15.4816 6.49252 15.6145L6.95585 17.0758C7.0126 17.2546 7.17211 17.3752 7.35169 17.375H8.65002C8.82959 17.3752 8.98911 17.2546 9.04585 17.0758L9.50919 15.6145C9.55119 15.4816 9.65126 15.3778 9.77835 15.3354C10.574 15.0679 11.3055 14.6238 11.9234 14.0334C12.0218 13.9393 12.1571 13.9003 12.2875 13.9284L13.7267 14.2381C13.9026 14.2762 14.082 14.1915 14.1717 14.0281L14.8209 12.8469C14.9104 12.6835 14.8902 12.4783 14.7709 12.3376L13.7975 11.1844C13.7097 11.08 13.6744 10.9381 13.7025 10.802C13.8795 9.94395 13.8795 9.05605 13.7025 8.198C13.6744 8.06193 13.7097 7.91995 13.7975 7.81563L14.7717 6.66237C14.8908 6.52145 14.9106 6.31628 14.8209 6.15312L14.1709 4.97188C14.0812 4.80883 13.9024 4.72425 13.7267 4.76188L12.2875 5.07163C12.1571 5.09971 12.0218 5.06069 11.9234 4.96663C11.3055 4.37618 10.574 3.93214 9.77835 3.66463L9.77752 3.66375ZM8.00002 13C6.15907 13 4.66668 11.433 4.66668 9.5C4.66668 7.567 6.15907 6 8.00002 6C9.84097 6 11.3334 7.567 11.3334 9.5C11.3334 11.433 9.84097 13 8.00002 13ZM8.00002 12.125C9.38073 12.125 10.5 10.9497 10.5 9.5C10.5 8.05025 9.38073 6.875 8.00002 6.875C6.61931 6.875 5.50002 8.05025 5.50002 9.5C5.50002 10.9497 6.61931 12.125 8.00002 12.125Z" fill="#EC294E"/>
</svg>
