<svg width="31" height="31" viewBox="0 0 31 31" fill="none" xmlns="http://www.w3.org/2000/svg">
<path fill-rule="evenodd" clip-rule="evenodd" d="M3.87506 15.8785V15.5C3.87625 9.70325 8.14775 4.79322 13.8885 3.98963C19.6293 3.18605 25.0848 6.73452 26.6776 12.3081C28.2704 17.8818 25.5137 23.7771 20.2152 26.1282C14.9167 28.4794 8.69571 26.5678 5.63172 21.647C5.44268 21.3446 5.53463 20.9461 5.8371 20.7571C6.13957 20.568 6.53801 20.66 6.72706 20.9625C7.29062 21.8646 7.98937 22.6749 8.79889 23.365C12.4927 26.5118 17.8785 26.6645 21.7447 23.7321C25.6109 20.7996 26.9158 15.572 24.8813 11.1666C22.8468 6.76125 18.0211 4.36493 13.2817 5.40666C8.54235 6.44839 5.16629 10.6475 5.16672 15.5V15.8797L6.64697 14.3982C6.89951 14.1457 7.30894 14.1457 7.56147 14.3982C7.81401 14.6507 7.81401 15.0602 7.56147 15.3127L4.97814 17.896C4.85698 18.0175 4.69246 18.0858 4.52089 18.0858C4.34932 18.0858 4.1848 18.0175 4.06364 17.896L1.48031 15.3127C1.31695 15.1493 1.25315 14.9112 1.31294 14.6881C1.37274 14.4649 1.54704 14.2906 1.77019 14.2308C1.99335 14.171 2.23145 14.2348 2.39481 14.3982L3.87506 15.8785ZM20.2753 16.8433C20.6035 16.9839 20.7556 17.3638 20.6151 17.692C20.4745 18.0201 20.0946 18.1722 19.7664 18.0317L15.2456 16.0942C15.0761 16.0212 14.9459 15.8792 14.8878 15.7041L12.9503 9.89158C12.867 9.67013 12.9115 9.42088 13.0662 9.2419C13.2209 9.06292 13.4611 8.98285 13.6923 9.03321C13.9234 9.08357 14.1086 9.25629 14.1748 9.48341L16.0219 15.0208L20.2753 16.8433Z" fill="#EC294E"/>
<path d="M3.87506 15.8785L3.69828 16.0552L4.12506 16.482V15.8785H3.87506ZM3.87506 15.5L3.62506 15.4999V15.5H3.87506ZM5.63172 21.647L5.84395 21.5149L5.84372 21.5145L5.63172 21.647ZM6.72706 20.9625L6.93909 20.83L6.93906 20.83L6.72706 20.9625ZM8.79889 23.365L8.63671 23.5552L8.63677 23.5553L8.79889 23.365ZM5.16672 15.5H5.41672V15.5L5.16672 15.5ZM5.16672 15.8797H4.91672V16.4837L5.34358 16.0564L5.16672 15.8797ZM6.64697 14.3982L6.4702 14.2214L6.47012 14.2215L6.64697 14.3982ZM7.56147 15.3127L7.3847 15.1359L7.56147 15.3127ZM4.97814 17.896L4.80136 17.7193L4.80114 17.7195L4.97814 17.896ZM4.06364 17.896L4.24064 17.7195L4.24042 17.7193L4.06364 17.896ZM1.48031 15.3127L1.65708 15.1359L1.48031 15.3127ZM2.39481 14.3982L2.21803 14.575L2.39481 14.3982ZM19.7664 18.0317L19.668 18.2614L19.668 18.2615L19.7664 18.0317ZM15.2456 16.0942L15.1468 16.3238L15.1471 16.3239L15.2456 16.0942ZM14.8878 15.7041L15.1251 15.6254L15.125 15.625L14.8878 15.7041ZM12.9503 9.89158L13.1876 9.81246L13.1843 9.80358L12.9503 9.89158ZM14.1748 9.48341L13.9346 9.55346L13.9377 9.56252L14.1748 9.48341ZM16.0219 15.0208L15.7847 15.0999L15.8203 15.2064L15.9234 15.2506L16.0219 15.0208ZM20.2753 16.8433L20.1769 17.0731L20.1769 17.0731L20.2753 16.8433ZM4.12506 15.8785V15.5H3.62506V15.8785H4.12506ZM4.12506 15.5C4.12623 9.82797 8.30587 5.02352 13.9232 4.23722L13.8539 3.74205C7.98964 4.56291 3.62628 9.57854 3.62506 15.4999L4.12506 15.5ZM13.9232 4.23722C19.5405 3.45092 24.8787 6.92308 26.4372 12.3768L26.918 12.2394C25.2909 6.54597 19.7181 2.92119 13.8539 3.74205L13.9232 4.23722ZM26.4372 12.3768C27.9958 17.8306 25.2983 23.5991 20.1138 25.8997L20.3166 26.3567C25.729 23.955 28.545 17.9329 26.918 12.2394L26.4372 12.3768ZM20.1138 25.8997C14.9292 28.2003 8.84204 26.3299 5.84395 21.5149L5.4195 21.7792C8.54938 26.8058 14.9041 28.7585 20.3166 26.3567L20.1138 25.8997ZM5.84372 21.5145C5.72786 21.3292 5.78421 21.0849 5.9696 20.9691L5.7046 20.5451C5.28505 20.8073 5.1575 21.36 5.41972 21.7795L5.84372 21.5145ZM5.9696 20.9691C6.15498 20.8532 6.39919 20.9096 6.51506 21.095L6.93906 20.83C6.67684 20.4104 6.12415 20.2829 5.7046 20.5451L5.9696 20.9691ZM6.51503 21.0949C7.09214 22.0188 7.80771 22.8485 8.63671 23.5552L8.96107 23.1747C8.17103 22.5012 7.48909 21.7105 6.93909 20.83L6.51503 21.0949ZM8.63677 23.5553C12.4199 26.7782 17.936 26.9347 21.8958 23.9313L21.5936 23.5329C17.821 26.3944 12.5654 26.2454 8.96102 23.1746L8.63677 23.5553ZM21.8958 23.9313C25.8555 20.9279 27.192 15.5738 25.1083 11.0618L24.6543 11.2715C26.6396 15.5703 25.3663 20.6714 21.5936 23.5329L21.8958 23.9313ZM25.1083 11.0618C23.0246 6.54985 18.0821 4.09556 13.228 5.16249L13.3354 5.65083C17.9601 4.6343 22.6691 6.97265 24.6543 11.2715L25.1083 11.0618ZM13.228 5.16249C8.37402 6.22942 4.91628 10.5301 4.91672 15.5L5.41672 15.5C5.4163 10.7649 8.71068 6.66735 13.3354 5.65083L13.228 5.16249ZM4.91672 15.5V15.8797H5.41672V15.5H4.91672ZM5.34358 16.0564L6.82383 14.5749L6.47012 14.2215L4.98987 15.703L5.34358 16.0564ZM6.82375 14.575C6.97865 14.4201 7.2298 14.4201 7.3847 14.575L7.73825 14.2214C7.38809 13.8713 6.82036 13.8713 6.4702 14.2214L6.82375 14.575ZM7.3847 14.575C7.5396 14.7299 7.5396 14.981 7.3847 15.1359L7.73825 15.4895C8.08841 15.1393 8.08841 14.5716 7.73825 14.2214L7.3847 14.575ZM7.3847 15.1359L4.80136 17.7193L5.15492 18.0728L7.73825 15.4895L7.3847 15.1359ZM4.80114 17.7195C4.72688 17.7939 4.62605 17.8358 4.52089 17.8358V18.3358C4.75887 18.3358 4.98707 18.2411 5.15514 18.0726L4.80114 17.7195ZM4.52089 17.8358C4.41574 17.8358 4.3149 17.7939 4.24064 17.7195L3.88664 18.0726C4.05471 18.2411 4.28291 18.3358 4.52089 18.3358V17.8358ZM4.24042 17.7193L1.65708 15.1359L1.30353 15.4895L3.88686 18.0728L4.24042 17.7193ZM1.65708 15.1359C1.55688 15.0357 1.51775 14.8897 1.55442 14.7528L1.07146 14.6234C0.98855 14.9328 1.07701 15.263 1.30353 15.4895L1.65708 15.1359ZM1.55442 14.7528C1.5911 14.6159 1.69802 14.509 1.8349 14.4723L1.70549 13.9894C1.39606 14.0723 1.15437 14.314 1.07146 14.6234L1.55442 14.7528ZM1.8349 14.4723C1.97178 14.4356 2.11783 14.4748 2.21803 14.575L2.57158 14.2214C2.34507 13.9949 2.01491 13.9064 1.70549 13.9894L1.8349 14.4723ZM2.21803 14.575L3.69828 16.0552L4.05183 15.7017L2.57158 14.2214L2.21803 14.575ZM20.1769 17.0731C20.3782 17.1593 20.4714 17.3923 20.3852 17.5935L20.8449 17.7904C21.0398 17.3353 20.8288 16.8084 20.3738 16.6135L20.1769 17.0731ZM20.3852 17.5935C20.2991 17.7948 20.0661 17.888 19.8649 17.8018L19.668 18.2615C20.1231 18.4564 20.65 18.2454 20.8449 17.7904L20.3852 17.5935ZM19.8649 17.8019L15.3441 15.8644L15.1471 16.3239L19.668 18.2614L19.8649 17.8019ZM15.3444 15.8645C15.2405 15.8198 15.1607 15.7328 15.1251 15.6254L14.6505 15.7827C14.731 16.0257 14.9117 16.2226 15.1468 16.3238L15.3444 15.8645ZM15.125 15.625L13.1875 9.81252L12.7131 9.97063L14.6506 15.7831L15.125 15.625ZM13.1843 9.80358C13.1333 9.66785 13.1605 9.51509 13.2553 9.40539L12.8771 9.07841C12.6625 9.32668 12.6008 9.67242 12.7163 9.97958L13.1843 9.80358ZM13.2553 9.40539C13.3502 9.29569 13.4974 9.24662 13.6391 9.27748L13.7455 8.78894C13.4249 8.71909 13.0917 8.83014 12.8771 9.07841L13.2553 9.40539ZM13.6391 9.27748C13.7807 9.30835 13.8942 9.41421 13.9348 9.55341L14.4148 9.41341C14.3229 9.09837 14.0661 8.85879 13.7455 8.78894L13.6391 9.27748ZM13.9377 9.56252L15.7847 15.0999L16.259 14.9417L14.412 9.4043L13.9377 9.56252ZM15.9234 15.2506L20.1769 17.0731L20.3738 16.6135L16.1204 14.791L15.9234 15.2506Z" fill="#EC294E"/>
</svg>
