<svg width="28" height="24" viewBox="0 0 28 24" fill="none" xmlns="http://www.w3.org/2000/svg">
<path fill-rule="evenodd" clip-rule="evenodd" d="M19.616 4.5H20.75C24.4779 4.5 27.5 7.52208 27.5 11.25C27.5 14.9779 24.4779 18 20.75 18C20.3358 18 20 17.6642 20 17.25C20 16.8358 20.3358 16.5 20.75 16.5C23.6495 16.5 26 14.1495 26 11.25C26 8.3505 23.6495 6 20.75 6H19.9595C19.9865 6.246 20 6.4965 20 6.75C20 7.16421 19.6642 7.5 19.25 7.5C18.8358 7.5 18.5 7.16421 18.5 6.75C18.5 3.8505 16.1495 1.5 13.25 1.5H12.5C9.18629 1.5 6.5 4.18629 6.5 7.5V8.25C6.5 8.66421 6.16421 9 5.75 9C3.67893 9 2 10.6789 2 12.75C2 14.8211 3.67893 16.5 5.75 16.5C6.16421 16.5 6.5 16.8358 6.5 17.25C6.5 17.6642 6.16421 18 5.75 18C2.99273 18.005 0.701449 15.8761 0.50402 13.1259C0.30659 10.3757 2.2703 7.94143 5 7.5525C5 3.36 8.3585 0 12.5 0H13.25C16.111 3.47394e-05 18.6615 1.80292 19.616 4.5ZM15.29 18H11.75C11.5192 17.9999 11.3012 17.8936 11.1591 17.7116C11.017 17.5297 10.9666 17.2925 11.0225 17.0685L12.5225 11.0685C12.6303 10.6756 13.032 10.4405 13.4273 10.5392C13.8227 10.6378 14.0669 11.034 13.9775 11.4315L12.71 16.5H16.25C16.4808 16.5001 16.6988 16.6064 16.8409 16.7884C16.983 16.9703 17.0334 17.2075 16.9775 17.4315L15.4775 23.4315C15.3697 23.8244 14.968 24.0595 14.5727 23.9608C14.1773 23.8622 13.9331 23.466 14.0225 23.0685L15.29 18Z" fill="#121924"/>
</svg>
