<svg width="38" height="37" viewBox="0 0 38 37" fill="none" xmlns="http://www.w3.org/2000/svg">
<path fill-rule="evenodd" clip-rule="evenodd" d="M7.91671 17.7292V28.5208C7.91671 28.9466 8.27115 29.2917 8.70837 29.2917H11.875C12.3123 29.2917 12.6667 28.9466 12.6667 28.5208V17.7292C12.6667 17.3035 12.3123 16.9583 11.875 16.9583H8.70837C8.27115 16.9583 7.91671 17.3035 7.91671 17.7292ZM13.4584 16.0056L14.8549 13.2861C15.4977 12.0327 15.8334 10.6498 15.8334 9.25001V8.86459C15.8334 7.37534 17.0747 6.16667 18.6042 6.16667C20.1337 6.16667 21.4162 7.29517 21.5682 8.77825L22.0907 13.875H27.3759C28.4944 13.8748 29.5608 14.3354 30.3114 15.1429C31.0619 15.9504 31.4266 17.0294 31.3152 18.113L30.3652 27.363C30.1626 29.3334 28.4596 30.8337 26.4259 30.8333H16.625C15.6022 30.8343 14.619 30.4485 13.8827 29.7573C13.4615 30.4048 12.719 30.8333 11.875 30.8333H8.70837C7.3967 30.8333 6.33337 29.798 6.33337 28.5208V17.7292C6.33337 16.452 7.3967 15.4167 8.70837 15.4167H11.875C12.483 15.4167 13.0388 15.6387 13.4584 16.0056ZM14.25 17.9111V26.9792C14.25 28.2563 15.3134 29.2917 16.625 29.2917H26.4259C27.6459 29.2921 28.6678 28.3924 28.7898 27.2104L29.7398 17.9604C29.8069 17.31 29.5882 16.6623 29.1378 16.1776C28.6873 15.6929 28.0472 15.4164 27.3759 15.4167H21.375C20.9682 15.4171 20.6272 15.1171 20.5865 14.7229L19.9928 8.93242C19.922 8.23748 19.3214 7.7081 18.6042 7.70834C17.9484 7.70834 17.4167 8.22601 17.4167 8.86459V9.25001C17.4165 10.8904 17.024 12.5081 16.2704 13.9752L14.25 17.9111Z" fill="#EC294E"/>
<path d="M13.4584 16.0056L13.2938 16.1938L13.5346 16.4044L13.6808 16.1198L13.4584 16.0056ZM14.8549 13.2861L15.0773 13.4003L15.0773 13.4002L14.8549 13.2861ZM21.5682 8.77825L21.3195 8.80374L21.3195 8.80375L21.5682 8.77825ZM22.0907 13.875L21.842 13.9005L21.865 14.125H22.0907V13.875ZM27.3759 13.875V14.125H27.3759L27.3759 13.875ZM31.3152 18.113L31.0665 18.0875L31.0665 18.0875L31.3152 18.113ZM30.3652 27.363L30.6139 27.3886L30.6139 27.3886L30.3652 27.363ZM26.4259 30.8333L26.4259 30.5833H26.4259V30.8333ZM16.625 30.8333V30.5833H16.6248L16.625 30.8333ZM13.8827 29.7573L14.0538 29.575L13.836 29.3705L13.6731 29.6209L13.8827 29.7573ZM14.25 17.9111L14.0276 17.7969L14 17.8507V17.9111H14.25ZM26.4259 29.2917L26.426 29.0417H26.4259V29.2917ZM28.7898 27.2104L29.0385 27.2361L29.0385 27.236L28.7898 27.2104ZM29.7398 17.9604L29.4911 17.9348L29.4911 17.9349L29.7398 17.9604ZM27.3759 15.4167V15.6667L27.376 15.6667L27.3759 15.4167ZM21.375 15.4167V15.1667L21.3748 15.1667L21.375 15.4167ZM20.5865 14.7229L20.3378 14.7484L20.3379 14.7486L20.5865 14.7229ZM19.9928 8.93242L19.7441 8.95777L19.7441 8.95792L19.9928 8.93242ZM18.6042 7.70834V7.95834H18.6043L18.6042 7.70834ZM17.4167 9.25001L17.6667 9.25004V9.25001H17.4167ZM16.2704 13.9752L16.048 13.861L16.048 13.861L16.2704 13.9752ZM7.66671 17.7292V28.5208H8.16671V17.7292H7.66671ZM7.66671 28.5208C7.66671 29.0909 8.1394 29.5417 8.70837 29.5417V29.0417C8.40289 29.0417 8.16671 28.8022 8.16671 28.5208H7.66671ZM8.70837 29.5417H11.875V29.0417H8.70837V29.5417ZM11.875 29.5417C12.444 29.5417 12.9167 29.0909 12.9167 28.5208H12.4167C12.4167 28.8022 12.1805 29.0417 11.875 29.0417V29.5417ZM12.9167 28.5208V17.7292H12.4167V28.5208H12.9167ZM12.9167 17.7292C12.9167 17.1591 12.444 16.7083 11.875 16.7083V17.2083C12.1805 17.2083 12.4167 17.4478 12.4167 17.7292H12.9167ZM11.875 16.7083H8.70837V17.2083H11.875V16.7083ZM8.70837 16.7083C8.1394 16.7083 7.66671 17.1591 7.66671 17.7292H8.16671C8.16671 17.4478 8.40289 17.2083 8.70837 17.2083V16.7083ZM13.6808 16.1198L15.0773 13.4003L14.6325 13.1719L13.236 15.8914L13.6808 16.1198ZM15.0773 13.4002C15.7381 12.1118 16.0834 10.6898 16.0834 9.25001H15.5834C15.5834 10.6098 15.2573 11.9536 14.6324 13.172L15.0773 13.4002ZM16.0834 9.25001V8.86459H15.5834V9.25001H16.0834ZM16.0834 8.86459C16.0834 7.51965 17.2065 6.41667 18.6042 6.41667V5.91667C16.943 5.91667 15.5834 7.23102 15.5834 8.86459H16.0834ZM18.6042 6.41667C20.011 6.41667 21.1811 7.45363 21.3195 8.80374L21.8169 8.75277C21.6513 7.13671 20.2564 5.91667 18.6042 5.91667V6.41667ZM21.3195 8.80375L21.842 13.9005L22.3394 13.8495L21.8169 8.75276L21.3195 8.80375ZM22.0907 14.125H27.3759V13.625H22.0907V14.125ZM27.3759 14.125C28.4261 14.1248 29.4258 14.5574 30.1283 15.3131L30.4945 14.9727C29.6958 14.1135 28.5627 13.6248 27.3758 13.625L27.3759 14.125ZM30.1283 15.3131C30.8305 16.0686 31.1705 17.0764 31.0665 18.0875L31.5639 18.1386C31.6828 16.9823 31.2934 15.8322 30.4945 14.9727L30.1283 15.3131ZM31.0665 18.0875L30.1165 27.3375L30.6139 27.3886L31.5639 18.1386L31.0665 18.0875ZM30.1165 27.3375C29.9276 29.175 28.3368 30.5837 26.4259 30.5833L26.4258 31.0833C28.5823 31.0837 30.3977 29.4918 30.6139 27.3886L30.1165 27.3375ZM26.4259 30.5833H16.625V31.0833H26.4259V30.5833ZM16.6248 30.5833C15.6648 30.5842 14.7431 30.222 14.0538 29.575L13.7116 29.9395C14.495 30.6749 15.5397 31.0843 16.6253 31.0833L16.6248 30.5833ZM13.6731 29.6209C13.2974 30.1987 12.633 30.5833 11.875 30.5833V31.0833C12.8049 31.0833 13.6257 30.6108 14.0923 29.8936L13.6731 29.6209ZM11.875 30.5833H8.70837V31.0833H11.875V30.5833ZM8.70837 30.5833C7.52844 30.5833 6.58337 29.6537 6.58337 28.5208H6.08337C6.08337 29.9423 7.26495 31.0833 8.70837 31.0833V30.5833ZM6.58337 28.5208V17.7292H6.08337V28.5208H6.58337ZM6.58337 17.7292C6.58337 16.5963 7.52844 15.6667 8.70837 15.6667V15.1667C7.26495 15.1667 6.08337 16.3077 6.08337 17.7292H6.58337ZM8.70837 15.6667H11.875V15.1667H8.70837V15.6667ZM11.875 15.6667C12.4214 15.6667 12.919 15.866 13.2938 16.1938L13.6229 15.8174C13.1586 15.4114 12.5447 15.1667 11.875 15.1667V15.6667ZM14 17.9111V26.9792H14.5V17.9111H14ZM14 26.9792C14 28.4006 15.1816 29.5417 16.625 29.5417V29.0417C15.4451 29.0417 14.5 28.112 14.5 26.9792H14ZM16.625 29.5417H26.4259V29.0417H16.625V29.5417ZM26.4258 29.5417C27.7686 29.5421 28.9028 28.5508 29.0385 27.2361L28.5411 27.1848C28.4328 28.2339 27.5232 29.042 26.426 29.0417L26.4258 29.5417ZM29.0385 27.236L29.9885 17.986L29.4911 17.9349L28.5411 27.1849L29.0385 27.236ZM29.9885 17.9861C30.0631 17.263 29.8197 16.5442 29.3209 16.0074L28.9546 16.3478C29.3567 16.7804 29.5507 17.357 29.4911 17.9348L29.9885 17.9861ZM29.3209 16.0074C28.8224 15.4709 28.1155 15.1664 27.3758 15.1667L27.376 15.6667C27.979 15.6665 28.5523 15.9148 28.9546 16.3478L29.3209 16.0074ZM27.3759 15.1667H21.375V15.6667H27.3759V15.1667ZM21.3748 15.1667C21.0908 15.167 20.8622 14.9586 20.8352 14.6973L20.3379 14.7486C20.3923 15.2756 20.8456 15.6672 21.3753 15.6667L21.3748 15.1667ZM20.8352 14.6974L20.2415 8.90692L19.7441 8.95792L20.3378 14.7484L20.8352 14.6974ZM20.2415 8.90707C20.1571 8.07921 19.4442 7.45805 18.6041 7.45834L18.6043 7.95834C19.1986 7.95814 19.6868 8.39575 19.7441 8.95777L20.2415 8.90707ZM18.6042 7.45834C17.8166 7.45834 17.1667 8.0817 17.1667 8.86459H17.6667C17.6667 8.37032 18.0801 7.95834 18.6042 7.95834V7.45834ZM17.1667 8.86459V9.25001H17.6667V8.86459H17.1667ZM17.1667 9.24997C17.1665 10.8504 16.7836 12.429 16.048 13.861L16.4928 14.0894C17.2644 12.5872 17.6665 10.9303 17.6667 9.25004L17.1667 9.24997ZM16.048 13.861L14.0276 17.7969L14.4725 18.0253L16.4928 14.0894L16.048 13.861Z" fill="#EC294E"/>
</svg>
