<svg width="32" height="34" viewBox="0 0 32 34" fill="none" xmlns="http://www.w3.org/2000/svg">
<path fill-rule="evenodd" clip-rule="evenodd" d="M18 28.3333C19.1046 28.3333 20 27.3819 20 26.2083C20 24.2523 21.4924 22.6667 23.3334 22.6667C24.4379 22.6667 25.3334 21.7153 25.3334 20.5417V16.2917C25.3334 15.9005 25.6318 15.5833 26 15.5833C26.3682 15.5833 26.6667 15.9005 26.6667 16.2917V20.5417C26.6667 25.6273 22.7865 29.75 18 29.75H8.66671C7.78265 29.75 6.93481 29.3769 6.30968 28.7127C5.68456 28.0485 5.33337 27.1476 5.33337 26.2083V7.79167C5.33337 5.83566 6.82576 4.25 8.66671 4.25H16.6667C16.9049 4.25 17.125 4.38501 17.2441 4.60417C17.3631 4.82333 17.3631 5.09334 17.2441 5.3125C17.125 5.53166 16.9049 5.66667 16.6667 5.66667H8.66671C7.56214 5.66667 6.66671 6.61806 6.66671 7.79167V26.2083C6.66671 27.3819 7.56214 28.3333 8.66671 28.3333H18ZM21.0547 27.6264C22.652 26.8462 23.9337 25.4843 24.668 23.7873C24.2472 23.9829 23.7927 24.0837 23.3334 24.0833C22.2288 24.0833 21.3334 25.0347 21.3334 26.2083C21.3334 26.7127 21.2347 27.1929 21.0547 27.6264ZM24 8.5H27.3334C27.7016 8.5 28 8.81713 28 9.20833C28 9.59954 27.7016 9.91667 27.3334 9.91667H24V13.4583C24 13.8495 23.7016 14.1667 23.3334 14.1667C22.9652 14.1667 22.6667 13.8495 22.6667 13.4583V9.91667H19.3334C18.9652 9.91667 18.6667 9.59954 18.6667 9.20833C18.6667 8.81713 18.9652 8.5 19.3334 8.5H22.6667V4.95833C22.6667 4.56713 22.9652 4.25 23.3334 4.25C23.7016 4.25 24 4.56713 24 4.95833V8.5ZM11.3334 12.75C10.9652 12.75 10.6667 12.4329 10.6667 12.0417C10.6667 11.6505 10.9652 11.3333 11.3334 11.3333H16.6667C17.0349 11.3333 17.3334 11.6505 17.3334 12.0417C17.3334 12.4329 17.0349 12.75 16.6667 12.75H11.3334ZM11.3334 17C10.9652 17 10.6667 16.6829 10.6667 16.2917C10.6667 15.9005 10.9652 15.5833 11.3334 15.5833H20.6667C21.0349 15.5833 21.3334 15.9005 21.3334 16.2917C21.3334 16.6829 21.0349 17 20.6667 17H11.3334ZM11.3334 21.25C10.9652 21.25 10.6667 20.9329 10.6667 20.5417C10.6667 20.1505 10.9652 19.8333 11.3334 19.8333H18C18.3682 19.8333 18.6667 20.1505 18.6667 20.5417C18.6667 20.9329 18.3682 21.25 18 21.25H11.3334Z" fill="#EC294E"/>
<path d="M16.6667 4.25V4.5V4.25ZM16.6667 5.66667V5.41667V5.66667ZM21.0547 27.6264L20.8238 27.5305L20.5702 28.1413L21.1644 27.851L21.0547 27.6264ZM24.668 23.7873L24.8975 23.8865L25.1584 23.2836L24.5626 23.5606L24.668 23.7873ZM23.3334 24.0833L23.3336 23.8333H23.3334V24.0833ZM24 8.5H23.75V8.75H24V8.5ZM24 9.91667V9.66667H23.75V9.91667H24ZM22.6667 9.91667H22.9167V9.66667H22.6667V9.91667ZM22.6667 8.5V8.75H22.9167V8.5H22.6667ZM18 28.5833C19.2567 28.5833 20.25 27.5055 20.25 26.2083H19.75C19.75 27.2584 18.9525 28.0833 18 28.0833V28.5833ZM20.25 26.2083C20.25 24.3759 21.6446 22.9167 23.3334 22.9167V22.4167C21.3403 22.4167 19.75 24.1287 19.75 26.2083H20.25ZM23.3334 22.9167C24.5901 22.9167 25.5834 21.8388 25.5834 20.5417H25.0834C25.0834 21.5917 24.2858 22.4167 23.3334 22.4167V22.9167ZM25.5834 20.5417V16.2917H25.0834V20.5417H25.5834ZM25.5834 16.2917C25.5834 16.024 25.784 15.8333 26 15.8333V15.3333C25.4797 15.3333 25.0834 15.7769 25.0834 16.2917H25.5834ZM26 15.8333C26.2161 15.8333 26.4167 16.024 26.4167 16.2917H26.9167C26.9167 15.7769 26.5204 15.3333 26 15.3333V15.8333ZM26.4167 16.2917V20.5417H26.9167V16.2917H26.4167ZM26.4167 20.5417C26.4167 25.5037 22.6344 29.5 18 29.5V30C22.9386 30 26.9167 25.7509 26.9167 20.5417H26.4167ZM18 29.5H8.66671V30H18V29.5ZM8.66671 29.5C7.85402 29.5 7.0713 29.1571 6.49173 28.5413L6.12763 28.884C6.79831 29.5966 7.71129 30 8.66671 30V29.5ZM6.49173 28.5413C5.91168 27.925 5.58337 27.0861 5.58337 26.2083H5.08337C5.08337 27.2092 5.45745 28.1719 6.12763 28.884L6.49173 28.5413ZM5.58337 26.2083V7.79167H5.08337V26.2083H5.58337ZM5.58337 7.79167C5.58337 5.95923 6.97789 4.5 8.66671 4.5V4C6.67362 4 5.08337 5.71208 5.08337 7.79167H5.58337ZM8.66671 4.5H16.6667V4H8.66671V4.5ZM16.6667 4.5C16.808 4.5 16.9465 4.58015 17.0244 4.72353L17.4637 4.4848C17.3035 4.18986 17.0018 4 16.6667 4V4.5ZM17.0244 4.72353C17.103 4.86825 17.103 5.04841 17.0244 5.19314L17.4637 5.43186C17.6233 5.13827 17.6233 4.7784 17.4637 4.4848L17.0244 4.72353ZM17.0244 5.19314C16.9465 5.33651 16.808 5.41667 16.6667 5.41667V5.91667C17.0018 5.91667 17.3035 5.7268 17.4637 5.43186L17.0244 5.19314ZM16.6667 5.41667H8.66671V5.91667H16.6667V5.41667ZM8.66671 5.41667C7.41 5.41667 6.41671 6.49449 6.41671 7.79167H6.91671C6.91671 6.74164 7.71427 5.91667 8.66671 5.91667V5.41667ZM6.41671 7.79167V26.2083H6.91671V7.79167H6.41671ZM6.41671 26.2083C6.41671 27.5055 7.41 28.5833 8.66671 28.5833V28.0833C7.71427 28.0833 6.91671 27.2584 6.91671 26.2083H6.41671ZM8.66671 28.5833H18V28.0833H8.66671V28.5833ZM21.1644 27.851C22.8176 27.0435 24.1405 25.6359 24.8975 23.8865L24.4386 23.688C23.7269 25.3327 22.4864 26.6488 20.945 27.4018L21.1644 27.851ZM24.5626 23.5606C24.1745 23.741 23.7561 23.8337 23.3336 23.8333L23.3332 24.3333C23.8294 24.3338 24.3199 24.2248 24.7734 24.0139L24.5626 23.5606ZM23.3334 23.8333C22.0767 23.8333 21.0834 24.9112 21.0834 26.2083H21.5834C21.5834 25.1583 22.3809 24.3333 23.3334 24.3333V23.8333ZM21.0834 26.2083C21.0834 26.68 20.9911 27.1276 20.8238 27.5305L21.2856 27.7223C21.4783 27.2582 21.5834 26.7454 21.5834 26.2083H21.0834ZM24 8.75H27.3334V8.25H24V8.75ZM27.3334 8.75C27.5494 8.75 27.75 8.94071 27.75 9.20833H28.25C28.25 8.69356 27.8537 8.25 27.3334 8.25V8.75ZM27.75 9.20833C27.75 9.47596 27.5494 9.66667 27.3334 9.66667V10.1667C27.8537 10.1667 28.25 9.72311 28.25 9.20833H27.75ZM27.3334 9.66667H24V10.1667H27.3334V9.66667ZM23.75 9.91667V13.4583H24.25V9.91667H23.75ZM23.75 13.4583C23.75 13.726 23.5494 13.9167 23.3334 13.9167V14.4167C23.8537 14.4167 24.25 13.9731 24.25 13.4583H23.75ZM23.3334 13.9167C23.1173 13.9167 22.9167 13.726 22.9167 13.4583H22.4167C22.4167 13.9731 22.8131 14.4167 23.3334 14.4167V13.9167ZM22.9167 13.4583V9.91667H22.4167V13.4583H22.9167ZM22.6667 9.66667H19.3334V10.1667H22.6667V9.66667ZM19.3334 9.66667C19.1173 9.66667 18.9167 9.47596 18.9167 9.20833H18.4167C18.4167 9.72311 18.8131 10.1667 19.3334 10.1667V9.66667ZM18.9167 9.20833C18.9167 8.94071 19.1173 8.75 19.3334 8.75V8.25C18.8131 8.25 18.4167 8.69356 18.4167 9.20833H18.9167ZM19.3334 8.75H22.6667V8.25H19.3334V8.75ZM22.9167 8.5V4.95833H22.4167V8.5H22.9167ZM22.9167 4.95833C22.9167 4.69071 23.1173 4.5 23.3334 4.5V4C22.8131 4 22.4167 4.44356 22.4167 4.95833H22.9167ZM23.3334 4.5C23.5494 4.5 23.75 4.69071 23.75 4.95833H24.25C24.25 4.44356 23.8537 4 23.3334 4V4.5ZM23.75 4.95833V8.5H24.25V4.95833H23.75ZM11.3334 12.5C11.1173 12.5 10.9167 12.3093 10.9167 12.0417H10.4167C10.4167 12.5564 10.8131 13 11.3334 13V12.5ZM10.9167 12.0417C10.9167 11.774 11.1173 11.5833 11.3334 11.5833V11.0833C10.8131 11.0833 10.4167 11.5269 10.4167 12.0417H10.9167ZM11.3334 11.5833H16.6667V11.0833H11.3334V11.5833ZM16.6667 11.5833C16.8828 11.5833 17.0834 11.774 17.0834 12.0417H17.5834C17.5834 11.5269 17.187 11.0833 16.6667 11.0833V11.5833ZM17.0834 12.0417C17.0834 12.3093 16.8828 12.5 16.6667 12.5V13C17.187 13 17.5834 12.5564 17.5834 12.0417H17.0834ZM16.6667 12.5H11.3334V13H16.6667V12.5ZM11.3334 16.75C11.1173 16.75 10.9167 16.5593 10.9167 16.2917H10.4167C10.4167 16.8064 10.8131 17.25 11.3334 17.25V16.75ZM10.9167 16.2917C10.9167 16.024 11.1173 15.8333 11.3334 15.8333V15.3333C10.8131 15.3333 10.4167 15.7769 10.4167 16.2917H10.9167ZM11.3334 15.8333H20.6667V15.3333H11.3334V15.8333ZM20.6667 15.8333C20.8828 15.8333 21.0834 16.024 21.0834 16.2917H21.5834C21.5834 15.7769 21.187 15.3333 20.6667 15.3333V15.8333ZM21.0834 16.2917C21.0834 16.5593 20.8828 16.75 20.6667 16.75V17.25C21.187 17.25 21.5834 16.8064 21.5834 16.2917H21.0834ZM20.6667 16.75H11.3334V17.25H20.6667V16.75ZM11.3334 21C11.1173 21 10.9167 20.8093 10.9167 20.5417H10.4167C10.4167 21.0564 10.8131 21.5 11.3334 21.5V21ZM10.9167 20.5417C10.9167 20.274 11.1173 20.0833 11.3334 20.0833V19.5833C10.8131 19.5833 10.4167 20.0269 10.4167 20.5417H10.9167ZM11.3334 20.0833H18V19.5833H11.3334V20.0833ZM18 20.0833C18.2161 20.0833 18.4167 20.274 18.4167 20.5417H18.9167C18.9167 20.0269 18.5204 19.5833 18 19.5833V20.0833ZM18.4167 20.5417C18.4167 20.8093 18.2161 21 18 21V21.5C18.5204 21.5 18.9167 21.0564 18.9167 20.5417H18.4167ZM18 21H11.3334V21.5H18V21Z" fill="#EC294E"/>
</svg>
