<svg width="19" height="19" viewBox="0 0 19 19" fill="none" xmlns="http://www.w3.org/2000/svg">
<path fill-rule="evenodd" clip-rule="evenodd" d="M7.31359 2.42909C8.44152 1.96493 9.73793 2.22463 10.6 3.08742L14.8771 7.36346C15.9242 8.40954 16.0591 10.0602 15.1959 11.2624C15.1586 11.3517 15.0973 11.4288 15.0188 11.4853C14.973 11.5374 14.9261 11.5874 14.8771 11.6364L9.55838 16.9541C8.37882 18.1329 6.46711 18.1329 5.28755 16.9541L1.00942 12.678C0.650162 12.3195 0.387492 11.8759 0.245883 11.3885C0.140834 11.2586 0.104775 11.086 0.149008 10.9249C0.0344244 10.0291 0.321924 9.09367 1.00942 8.40513L1.17297 8.24263V3.24992C1.17423 1.68505 2.33277 0.362371 3.88385 0.155C5.43493 -0.052372 6.90025 0.919503 7.31255 2.42909H7.31359ZM6.37088 3.04471C6.26008 1.9407 5.30344 1.11725 4.19523 1.17197C3.08702 1.22668 2.21615 2.14037 2.21463 3.24992V7.20096L6.32922 3.08638L6.37088 3.04471ZM7.42297 3.53951V7.93742C7.42297 8.22507 7.18978 8.45826 6.90213 8.45826C6.61448 8.45826 6.3813 8.22507 6.3813 7.93742V4.50721L1.74588 9.14263C1.37445 9.51336 1.16603 10.0168 1.16672 10.5416H14.425C14.9084 9.76034 14.7907 8.74917 14.1407 8.09992L9.86463 3.82388C9.21555 3.17442 8.20502 3.05667 7.42401 3.53951H7.42297ZM13.4573 11.5833H1.46255C1.54172 11.7103 1.63651 11.8312 1.74588 11.9416L6.02297 16.2176C6.79588 16.9905 8.04901 16.9905 8.82193 16.2176L13.4584 11.5833H13.4573ZM14.4292 14.3093L15.9021 12.7843C16.0003 12.6824 16.1357 12.6249 16.2771 12.6249C16.4186 12.6249 16.554 12.6824 16.6521 12.7843L18.125 14.3093C19.1341 15.3654 19.1341 17.0282 18.125 18.0843C17.6431 18.5894 16.9753 18.8752 16.2771 18.8752C15.5789 18.8752 14.9112 18.5894 14.4292 18.0843C13.4202 17.0282 13.4202 15.3654 14.4292 14.3093ZM15.1792 15.0333C14.561 15.6858 14.561 16.7078 15.1792 17.3603C15.4648 17.6618 15.8619 17.8325 16.2771 17.8325C16.6924 17.8325 17.0894 17.6618 17.375 17.3603C17.9933 16.7078 17.9933 15.6858 17.375 15.0333L16.2771 13.8958L15.1782 15.0333H15.1792Z" fill="#EC294E"/>
</svg>
