<svg width="18" height="18" viewBox="0 0 18 18" fill="none" xmlns="http://www.w3.org/2000/svg">
<path fill-rule="evenodd" clip-rule="evenodd" d="M14 4.707L9.854 8.854C9.65849 9.04951 9.34151 9.04951 9.146 8.854C8.95049 8.65849 8.95049 8.34151 9.146 8.146L13.293 4H10.5C10.2239 4 10 3.77614 10 3.5C10 3.22386 10.2239 3 10.5 3H14.5C14.7761 3 15 3.22386 15 3.5V7.5C15 7.77614 14.7761 8 14.5 8C14.2239 8 14 7.77614 14 7.5V4.707ZM1.5 10C1.77614 10 2 10.2239 2 10.5C2 10.7761 1.77614 11 1.5 11C1.22386 11 1 11.2239 1 11.5C1 11.7761 0.776142 12 0.5 12C0.223858 12 0 11.7761 0 11.5C0 10.6716 0.671573 10 1.5 10ZM6.5 11C6.22386 11 6 10.7761 6 10.5C6 10.2239 6.22386 10 6.5 10C7.32843 10 8 10.6716 8 11.5C8 11.7761 7.77614 12 7.5 12C7.22386 12 7 11.7761 7 11.5C7 11.2239 6.77614 11 6.5 11ZM7 16.5C7 16.2239 7.22386 16 7.5 16C7.77614 16 8 16.2239 8 16.5C8 17.3284 7.32843 18 6.5 18C6.22386 18 6 17.7761 6 17.5C6 17.2239 6.22386 17 6.5 17C6.77614 17 7 16.7761 7 16.5ZM0 16.5C0 16.2239 0.223858 16 0.5 16C0.776142 16 1 16.2239 1 16.5C1 16.7761 1.22386 17 1.5 17C1.77614 17 2 17.2239 2 17.5C2 17.7761 1.77614 18 1.5 18C0.671573 18 0 17.3284 0 16.5ZM0 13.5C0 13.2239 0.223858 13 0.5 13C0.776142 13 1 13.2239 1 13.5V14.5C1 14.7761 0.776142 15 0.5 15C0.223858 15 0 14.7761 0 14.5V13.5ZM8 14V14.5C8 14.7761 7.77614 15 7.5 15C7.22386 15 7 14.7761 7 14.5V13.5C7 13.2239 7.22386 13 7.5 13H15.5C16.3284 13 17 12.3284 17 11.5V2.5C17 1.67157 16.3284 1 15.5 1H6.5C5.67157 1 5 1.67157 5 2.5V10.5C5 10.7761 4.77614 11 4.5 11H3.5C3.22386 11 3 10.7761 3 10.5C3 10.2239 3.22386 10 3.5 10H4V2.5C4 1.11929 5.11929 0 6.5 0H15.5C16.8807 0 18 1.11929 18 2.5V11.5C18 12.8807 16.8807 14 15.5 14H8ZM3.5 18C3.22386 18 3 17.7761 3 17.5C3 17.2239 3.22386 17 3.5 17H4.5C4.77614 17 5 17.2239 5 17.5C5 17.7761 4.77614 18 4.5 18H3.5Z" fill="#EC294E"/>
</svg>
