<svg width="18" height="18" viewBox="0 0 18 18" fill="none" xmlns="http://www.w3.org/2000/svg">
<path fill-rule="evenodd" clip-rule="evenodd" d="M2.24999 9.21976V9.00001C2.25069 5.63416 4.73091 2.78317 8.06426 2.31657C11.3976 1.84998 14.5653 3.91038 15.4902 7.14667C16.415 10.383 14.8144 13.8061 11.7378 15.1712C8.66124 16.5364 5.04909 15.4265 3.26999 12.5693C3.16023 12.3936 3.21362 12.1623 3.38924 12.0525C3.56487 11.9427 3.79623 11.9961 3.90599 12.1718C4.23322 12.6956 4.63895 13.1661 5.10899 13.5668C7.25377 15.394 10.381 15.4826 12.6259 13.7799C14.8708 12.0772 15.6285 9.04185 14.4472 6.48387C13.2659 3.9259 10.4638 2.53449 7.71192 3.13936C4.96004 3.74424 2.99974 6.18243 2.99999 9.00001V9.22051L3.85949 8.36026C4.00613 8.21363 4.24386 8.21363 4.39049 8.36026C4.53713 8.50689 4.53713 8.74463 4.39049 8.89126L2.89049 10.3913C2.82014 10.4618 2.72461 10.5014 2.62499 10.5014C2.52537 10.5014 2.42985 10.4618 2.35949 10.3913L0.859494 8.89126C0.76464 8.7964 0.727595 8.65815 0.762314 8.52858C0.797033 8.39901 0.898241 8.2978 1.02781 8.26308C1.15739 8.22836 1.29564 8.2654 1.39049 8.36026L2.24999 9.21976ZM11.7727 9.78001C11.9633 9.86161 12.0516 10.0822 11.97 10.2728C11.8884 10.4633 11.6678 10.5516 11.4772 10.47L8.85224 9.34501C8.75381 9.30266 8.6782 9.22022 8.64449 9.11851L7.51949 5.74351C7.47114 5.61493 7.49696 5.4702 7.58679 5.36628C7.67663 5.26235 7.81609 5.21586 7.95032 5.2451C8.08454 5.27434 8.19203 5.37463 8.23049 5.50651L9.30299 8.72176L11.7727 9.78001Z" fill="#EC294E"/>
</svg>
