<svg width="24" height="24" viewBox="0 0 24 24" fill="none" xmlns="http://www.w3.org/2000/svg">
<path fill-rule="evenodd" clip-rule="evenodd" d="M18.535 16.512L15.078 14.941C16.76 13.6274 17.4229 11.391 16.7283 9.37296C16.0336 7.35496 14.1347 6.00032 12.0005 6.00032C9.8663 6.00032 7.96736 7.35496 7.27274 9.37296C6.57812 11.391 7.24095 13.6274 8.923 14.941L5.466 16.511C5.136 16.661 4.848 16.879 4.616 17.146C2.00874 13.4037 2.61307 8.3027 6.02261 5.27326C9.43215 2.24382 14.5688 2.24382 17.9784 5.27326C21.3879 8.3027 21.9923 13.4037 19.385 17.146C19.1503 16.8763 18.8604 16.6601 18.535 16.512ZM8 11C8 8.79086 9.79086 7 12 7C14.2091 7 16 8.79086 16 11C16 13.2091 14.2091 15 12 15C9.79086 15 8 13.2091 8 11ZM12 21C9.41762 21.0028 6.95902 19.8937 5.252 17.956C5.406 17.725 5.622 17.539 5.88 17.423L9.962 15.567C10.6032 15.8533 11.2977 16.0009 12 16C12.726 16 13.416 15.845 14.039 15.567L18.121 17.423C18.378 17.539 18.594 17.725 18.748 17.956C17.0411 19.8939 14.5824 21.0031 12 21ZM12 2C6.477 2 2 6.477 2 12C2 17.523 6.477 22 12 22C17.523 22 22 17.523 22 12C22 6.477 17.523 2 12 2Z" fill="white"/>
</svg>
