<svg width="13" height="13" viewBox="0 0 13 13" fill="none" xmlns="http://www.w3.org/2000/svg">
<path fill-rule="evenodd" clip-rule="evenodd" d="M5.77743 1.23342L3.50543 3.50614C3.41409 3.59747 3.28097 3.63315 3.1562 3.59971C3.03143 3.56628 2.93398 3.46883 2.90054 3.34406C2.86711 3.21929 2.90278 3.08617 2.99412 2.99483L5.88287 0.106085C5.95061 0.0381691 6.04259 0 6.13852 0C6.23445 0 6.32643 0.0381691 6.39417 0.106085L9.28292 2.99483C9.37426 3.08617 9.40993 3.21929 9.37649 3.34406C9.34306 3.46883 9.24561 3.56628 9.12084 3.59971C8.99607 3.63315 8.86295 3.59747 8.77161 3.50614L6.49961 1.23342V9.02797C6.49961 9.2274 6.33795 9.38907 6.13852 9.38907C5.93909 9.38907 5.77743 9.2274 5.77743 9.02797V1.23342ZM11.555 9.02797C11.555 8.82854 11.7166 8.66687 11.9161 8.66687C12.1155 8.66687 12.2772 8.82854 12.2772 9.02797V11.1945C12.2772 12.1917 11.4688 13 10.4717 13H1.80547C0.808335 13 0 12.1917 0 11.1945V9.02797C0 8.82854 0.161667 8.66687 0.361093 8.66687C0.560519 8.66687 0.722186 8.82854 0.722186 9.02797V11.1945C0.722186 11.7928 1.20719 12.2778 1.80547 12.2778H10.4717C11.07 12.2778 11.555 11.7928 11.555 11.1945V9.02797Z" fill="#EC294E"/>
</svg>
