<svg width="26" height="24" viewBox="0 0 26 24" fill="none" xmlns="http://www.w3.org/2000/svg">
<path fill-rule="evenodd" clip-rule="evenodd" d="M15.8663 12H6.125C5.77982 12 5.5 11.7202 5.5 11.375C5.5 11.0298 5.77982 10.75 6.125 10.75H15.8663L13.1825 8.0675C12.9381 7.82311 12.9381 7.42689 13.1825 7.1825C13.4269 6.93811 13.8231 6.93811 14.0675 7.1825L17.8175 10.9325C17.9351 11.0498 18.0011 11.209 18.0011 11.375C18.0011 11.541 17.9351 11.7002 17.8175 11.8175L14.0675 15.5675C13.8231 15.8119 13.4269 15.8119 13.1825 15.5675C12.9381 15.3231 12.9381 14.9269 13.1825 14.6825L15.8663 12ZM3.625 0.75C3.97018 0.75 4.25 1.02982 4.25 1.375C4.25 1.72018 3.97018 2 3.625 2C2.58947 2 1.75 2.83947 1.75 3.875C1.75 4.22018 1.47018 4.5 1.125 4.5C0.779822 4.5 0.5 4.22018 0.5 3.875C0.5 2.14911 1.89911 0.75 3.625 0.75ZM0.5 7.625C0.5 7.27982 0.779822 7 1.125 7C1.47018 7 1.75 7.27982 1.75 7.625V10.125C1.75 10.4702 1.47018 10.75 1.125 10.75C0.779822 10.75 0.5 10.4702 0.5 10.125V7.625ZM0.5 13.875C0.5 13.5298 0.779822 13.25 1.125 13.25C1.47018 13.25 1.75 13.5298 1.75 13.875V16.375C1.75 16.7202 1.47018 17 1.125 17C0.779822 17 0.5 16.7202 0.5 16.375V13.875ZM0.5 20.125C0.5 19.7798 0.779822 19.5 1.125 19.5C1.47018 19.5 1.75 19.7798 1.75 20.125C1.75 21.1605 2.58947 22 3.625 22C3.97018 22 4.25 22.2798 4.25 22.625C4.25 22.9702 3.97018 23.25 3.625 23.25C1.89911 23.25 0.5 21.8509 0.5 20.125ZM10.5 3.875C10.5 4.22018 10.2202 4.5 9.875 4.5C9.52982 4.5 9.25 4.22018 9.25 3.875C9.25 2.14911 10.6491 0.75 12.375 0.75H22.375C24.1009 0.75 25.5 2.14911 25.5 3.875V20.125C25.5 21.8509 24.1009 23.25 22.375 23.25H12.375C10.6491 23.25 9.25 21.8509 9.25 20.125C9.25 19.7798 9.52982 19.5 9.875 19.5C10.2202 19.5 10.5 19.7798 10.5 20.125C10.5 21.1605 11.3395 22 12.375 22H22.375C23.4105 22 24.25 21.1605 24.25 20.125V3.875C24.25 2.83947 23.4105 2 22.375 2H12.375C11.3395 2 10.5 2.83947 10.5 3.875ZM8.625 22C8.97018 22 9.25 22.2798 9.25 22.625C9.25 22.9702 8.97018 23.25 8.625 23.25H6.125C5.77982 23.25 5.5 22.9702 5.5 22.625C5.5 22.2798 5.77982 22 6.125 22H8.625ZM8.625 0.75C8.97018 0.75 9.25 1.02982 9.25 1.375C9.25 1.72018 8.97018 2 8.625 2H6.125C5.77982 2 5.5 1.72018 5.5 1.375C5.5 1.02982 5.77982 0.75 6.125 0.75H8.625Z" fill="#EC294E"/>
<path d="M15.8663 12L15.9723 12.1061L16.2285 11.85H15.8663V12ZM15.8663 10.75V10.9H16.2285L15.9723 10.6439L15.8663 10.75ZM13.1825 8.0675L13.0764 8.17357L13.0765 8.17359L13.1825 8.0675ZM14.0675 7.1825L14.1736 7.07643L14.0675 7.1825ZM17.8175 10.9325L17.7114 11.0386L17.7116 11.0387L17.8175 10.9325ZM17.8175 11.8175L17.7116 11.7113L17.7114 11.7114L17.8175 11.8175ZM14.0675 15.5675L13.9614 15.4614L14.0675 15.5675ZM13.1825 14.6825L13.0765 14.5764L13.0764 14.5764L13.1825 14.6825ZM0.5 20.125H0.35H0.5ZM9.25 3.875H9.1H9.25ZM15.8663 11.85H6.125V12.15H15.8663V11.85ZM6.125 11.85C5.86266 11.85 5.65 11.6373 5.65 11.375H5.35C5.35 11.803 5.69698 12.15 6.125 12.15V11.85ZM5.65 11.375C5.65 11.1127 5.86266 10.9 6.125 10.9V10.6C5.69698 10.6 5.35 10.947 5.35 11.375H5.65ZM6.125 10.9H15.8663V10.6H6.125V10.9ZM15.9723 10.6439L13.2885 7.96141L13.0765 8.17359L15.7602 10.8561L15.9723 10.6439ZM13.2886 7.96143C13.1028 7.77563 13.1028 7.47437 13.2886 7.28857L13.0764 7.07643C12.7735 7.3794 12.7735 7.8706 13.0764 8.17357L13.2886 7.96143ZM13.2886 7.28857C13.4744 7.10276 13.7756 7.10276 13.9614 7.28857L14.1736 7.07643C13.8706 6.77347 13.3794 6.77347 13.0764 7.07643L13.2886 7.28857ZM13.9614 7.28857L17.7114 11.0386L17.9236 10.8264L14.1736 7.07643L13.9614 7.28857ZM17.7116 11.0387C17.8009 11.1278 17.8511 11.2488 17.8511 11.375H18.1511C18.1511 11.1691 18.0692 10.9717 17.9234 10.8263L17.7116 11.0387ZM17.8511 11.375C17.8511 11.5012 17.8009 11.6222 17.7116 11.7113L17.9234 11.9237C18.0692 11.7783 18.1511 11.5809 18.1511 11.375H17.8511ZM17.7114 11.7114L13.9614 15.4614L14.1736 15.6736L17.9236 11.9236L17.7114 11.7114ZM13.9614 15.4614C13.7756 15.6472 13.4744 15.6472 13.2886 15.4614L13.0764 15.6736C13.3794 15.9765 13.8706 15.9765 14.1736 15.6736L13.9614 15.4614ZM13.2886 15.4614C13.1028 15.2756 13.1028 14.9744 13.2886 14.7886L13.0764 14.5764C12.7735 14.8794 12.7735 15.3706 13.0764 15.6736L13.2886 15.4614ZM13.2885 14.7886L15.9723 12.1061L15.7602 11.8939L13.0765 14.5764L13.2885 14.7886ZM3.625 0.9C3.88734 0.9 4.1 1.11266 4.1 1.375H4.4C4.4 0.946979 4.05302 0.6 3.625 0.6V0.9ZM4.1 1.375C4.1 1.63734 3.88734 1.85 3.625 1.85V2.15C4.05302 2.15 4.4 1.80302 4.4 1.375H4.1ZM3.625 1.85C2.50662 1.85 1.6 2.75662 1.6 3.875H1.9C1.9 2.92231 2.67231 2.15 3.625 2.15V1.85ZM1.6 3.875C1.6 4.13734 1.38734 4.35 1.125 4.35V4.65C1.55302 4.65 1.9 4.30302 1.9 3.875H1.6ZM1.125 4.35C0.862665 4.35 0.65 4.13734 0.65 3.875H0.35C0.35 4.30302 0.696979 4.65 1.125 4.65V4.35ZM0.65 3.875C0.65 2.23195 1.98195 0.9 3.625 0.9V0.6C1.81627 0.6 0.35 2.06627 0.35 3.875H0.65ZM0.65 7.625C0.65 7.36266 0.862665 7.15 1.125 7.15V6.85C0.696979 6.85 0.35 7.19698 0.35 7.625H0.65ZM1.125 7.15C1.38734 7.15 1.6 7.36266 1.6 7.625H1.9C1.9 7.19698 1.55302 6.85 1.125 6.85V7.15ZM1.6 7.625V10.125H1.9V7.625H1.6ZM1.6 10.125C1.6 10.3873 1.38734 10.6 1.125 10.6V10.9C1.55302 10.9 1.9 10.553 1.9 10.125H1.6ZM1.125 10.6C0.862665 10.6 0.65 10.3873 0.65 10.125H0.35C0.35 10.553 0.696979 10.9 1.125 10.9V10.6ZM0.65 10.125V7.625H0.35V10.125H0.65ZM0.65 13.875C0.65 13.6127 0.862665 13.4 1.125 13.4V13.1C0.696979 13.1 0.35 13.447 0.35 13.875H0.65ZM1.125 13.4C1.38734 13.4 1.6 13.6127 1.6 13.875H1.9C1.9 13.447 1.55302 13.1 1.125 13.1V13.4ZM1.6 13.875V16.375H1.9V13.875H1.6ZM1.6 16.375C1.6 16.6373 1.38734 16.85 1.125 16.85V17.15C1.55302 17.15 1.9 16.803 1.9 16.375H1.6ZM1.125 16.85C0.862665 16.85 0.65 16.6373 0.65 16.375H0.35C0.35 16.803 0.696979 17.15 1.125 17.15V16.85ZM0.65 16.375V13.875H0.35V16.375H0.65ZM0.65 20.125C0.65 19.8627 0.862665 19.65 1.125 19.65V19.35C0.696979 19.35 0.35 19.697 0.35 20.125H0.65ZM1.125 19.65C1.38734 19.65 1.6 19.8627 1.6 20.125H1.9C1.9 19.697 1.55302 19.35 1.125 19.35V19.65ZM1.6 20.125C1.6 21.2434 2.50662 22.15 3.625 22.15V21.85C2.67231 21.85 1.9 21.0777 1.9 20.125H1.6ZM3.625 22.15C3.88734 22.15 4.1 22.3627 4.1 22.625H4.4C4.4 22.197 4.05302 21.85 3.625 21.85V22.15ZM4.1 22.625C4.1 22.8873 3.88734 23.1 3.625 23.1V23.4C4.05302 23.4 4.4 23.053 4.4 22.625H4.1ZM3.625 23.1C1.98195 23.1 0.65 21.768 0.65 20.125H0.35C0.35 21.9337 1.81627 23.4 3.625 23.4V23.1ZM10.35 3.875C10.35 4.13734 10.1373 4.35 9.875 4.35V4.65C10.303 4.65 10.65 4.30302 10.65 3.875H10.35ZM9.875 4.35C9.61267 4.35 9.4 4.13734 9.4 3.875H9.1C9.1 4.30302 9.44698 4.65 9.875 4.65V4.35ZM9.4 3.875C9.4 2.23195 10.732 0.9 12.375 0.9V0.6C10.5663 0.6 9.1 2.06627 9.1 3.875H9.4ZM12.375 0.9H22.375V0.6H12.375V0.9ZM22.375 0.9C24.018 0.9 25.35 2.23195 25.35 3.875H25.65C25.65 2.06627 24.1837 0.6 22.375 0.6V0.9ZM25.35 3.875V20.125H25.65V3.875H25.35ZM25.35 20.125C25.35 21.768 24.018 23.1 22.375 23.1V23.4C24.1837 23.4 25.65 21.9337 25.65 20.125H25.35ZM22.375 23.1H12.375V23.4H22.375V23.1ZM12.375 23.1C10.732 23.1 9.4 21.768 9.4 20.125H9.1C9.1 21.9337 10.5663 23.4 12.375 23.4V23.1ZM9.4 20.125C9.4 19.8627 9.61267 19.65 9.875 19.65V19.35C9.44698 19.35 9.1 19.697 9.1 20.125H9.4ZM9.875 19.65C10.1373 19.65 10.35 19.8627 10.35 20.125H10.65C10.65 19.697 10.303 19.35 9.875 19.35V19.65ZM10.35 20.125C10.35 21.2434 11.2566 22.15 12.375 22.15V21.85C11.4223 21.85 10.65 21.0777 10.65 20.125H10.35ZM12.375 22.15H22.375V21.85H12.375V22.15ZM22.375 22.15C23.4934 22.15 24.4 21.2434 24.4 20.125H24.1C24.1 21.0777 23.3277 21.85 22.375 21.85V22.15ZM24.4 20.125V3.875H24.1V20.125H24.4ZM24.4 3.875C24.4 2.75662 23.4934 1.85 22.375 1.85V2.15C23.3277 2.15 24.1 2.92231 24.1 3.875H24.4ZM22.375 1.85H12.375V2.15H22.375V1.85ZM12.375 1.85C11.2566 1.85 10.35 2.75662 10.35 3.875H10.65C10.65 2.92231 11.4223 2.15 12.375 2.15V1.85ZM8.625 22.15C8.88733 22.15 9.1 22.3627 9.1 22.625H9.4C9.4 22.197 9.05302 21.85 8.625 21.85V22.15ZM9.1 22.625C9.1 22.8873 8.88733 23.1 8.625 23.1V23.4C9.05302 23.4 9.4 23.053 9.4 22.625H9.1ZM8.625 23.1H6.125V23.4H8.625V23.1ZM6.125 23.1C5.86266 23.1 5.65 22.8873 5.65 22.625H5.35C5.35 23.053 5.69698 23.4 6.125 23.4V23.1ZM5.65 22.625C5.65 22.3627 5.86266 22.15 6.125 22.15V21.85C5.69698 21.85 5.35 22.197 5.35 22.625H5.65ZM6.125 22.15H8.625V21.85H6.125V22.15ZM8.625 0.9C8.88733 0.9 9.1 1.11266 9.1 1.375H9.4C9.4 0.946979 9.05302 0.6 8.625 0.6V0.9ZM9.1 1.375C9.1 1.63734 8.88733 1.85 8.625 1.85V2.15C9.05302 2.15 9.4 1.80302 9.4 1.375H9.1ZM8.625 1.85H6.125V2.15H8.625V1.85ZM6.125 1.85C5.86266 1.85 5.65 1.63734 5.65 1.375H5.35C5.35 1.80302 5.69698 2.15 6.125 2.15V1.85ZM5.65 1.375C5.65 1.11266 5.86266 0.9 6.125 0.9V0.6C5.69698 0.6 5.35 0.946979 5.35 1.375H5.65ZM6.125 0.9H8.625V0.6H6.125V0.9Z" fill="#EC294E"/>
</svg>
