<svg width="22" height="28" viewBox="0 0 22 28" fill="none" xmlns="http://www.w3.org/2000/svg">
<path d="M10.3118 16.5006C10.6915 16.5006 10.9993 16.1929 10.9993 15.8132V10.3135C10.9993 9.93379 10.6915 9.62601 10.3118 9.62601C9.93215 9.62601 9.62437 9.93379 9.62437 10.3135V15.8132C9.62437 16.1929 9.93215 16.5006 10.3118 16.5006Z" fill="#EC294E"/>
<path d="M10.9993 20.6254V19.2505H9.62437V20.6254H10.9993Z" fill="#EC294E"/>
<path fill-rule="evenodd" clip-rule="evenodd" d="M21.9986 24.0627V6.22712C22.0114 6.03115 21.9381 5.83934 21.7978 5.70189L16.2982 0.202182C16.1607 0.0619171 15.9689 -0.0113923 15.773 0.00144217H3.43727C1.53892 0.00144217 0 1.54038 0 3.43876V24.0627C0 25.9611 1.53892 27.5 3.43727 27.5H18.5613C20.4596 27.5 21.9986 25.9611 21.9986 24.0627ZM3.43727 1.37637H15.124V6.18862C15.124 6.56829 15.4318 6.87608 15.8115 6.87608H20.6236V24.0627C20.6236 25.2017 19.7003 26.1251 18.5613 26.1251H3.43727C2.29826 26.1251 1.37491 25.2017 1.37491 24.0627V3.43876C1.37491 2.29973 2.29826 1.37637 3.43727 1.37637ZM16.4989 5.50115V2.34844L19.6516 5.50115H16.4989Z" fill="#EC294E"/>
</svg>
