<svg width="26" height="29" viewBox="0 0 26 29" fill="none" xmlns="http://www.w3.org/2000/svg">
<path d="M25.7811 26.1499L22.1592 19.8685V7.35949C22.1592 7.19215 22.0935 7.03078 21.974 6.91723L15.854 0.791231C15.7344 0.671699 15.579 0.605957 15.4117 0.605957H2.14966C1.24122 0.605957 0.500122 1.34705 0.500122 2.25549V23.9086C0.500122 24.8171 1.24122 25.5582 2.14966 25.5582H11.4911L11.1504 26.1439C10.8575 26.6519 10.8575 27.2854 11.1504 27.7934C11.4432 28.3014 11.9931 28.6182 12.5788 28.6182H24.3467C24.9324 28.6182 25.4822 28.3014 25.7751 27.7934C26.0739 27.2914 26.0739 26.6579 25.7811 26.1499ZM1.7552 2.25549C1.7552 2.04034 1.92852 1.86702 2.14368 1.86702H14.7782V6.3375C14.7782 7.24594 15.5193 7.98703 16.4277 7.98703H20.8982V17.687L19.9001 15.9478C19.6072 15.4398 19.0574 15.1231 18.4717 15.1231C17.886 15.1231 17.3361 15.4398 17.0433 15.9478L12.2262 24.3031H2.14966C1.9345 24.3031 1.76118 24.1298 1.76118 23.9146V2.25549H1.7552ZM12.2441 26.7774L18.1251 16.5754C18.1968 16.4558 18.3223 16.3782 18.4657 16.3782C18.6032 16.3782 18.7347 16.4558 18.8064 16.5754L24.6873 26.7774C24.7591 26.8969 24.7591 27.0463 24.6873 27.1659C24.6216 27.2854 24.4901 27.3571 24.3527 27.3571H12.5848C12.4473 27.3571 12.3158 27.2794 12.2441 27.1599C12.1724 27.0404 12.1784 26.8969 12.2441 26.7774ZM16.4277 6.72598C16.2126 6.72598 16.0392 6.55265 16.0392 6.3375V2.75753L20.0077 6.72598H16.4277Z" fill="#EC294E"/>
<path d="M3.75748 12.3858H7.31354C7.708 12.3858 8.02476 12.069 8.02476 11.6746C8.02476 11.2801 7.708 10.9634 7.31354 10.9634H3.75748C3.36302 10.9634 3.04626 11.2801 3.04626 11.6746C3.04626 12.0631 3.369 12.3858 3.75748 12.3858Z" fill="#EC294E"/>
<path d="M3.75748 8.64447H12.2203C12.6148 8.64447 12.9315 8.32771 12.9315 7.93326C12.9315 7.5388 12.6148 7.22205 12.2203 7.22205H3.75748C3.36302 7.22205 3.04626 7.5388 3.04626 7.93326C3.04626 8.32771 3.369 8.64447 3.75748 8.64447Z" fill="#EC294E"/>
<path d="M8.97498 11.6746C8.97498 12.069 9.29173 12.3858 9.68619 12.3858H15.1548C15.5492 12.3858 15.866 12.069 15.866 11.6746C15.866 11.2801 15.5492 10.9633 15.1548 10.9633H9.68619C9.29771 10.9574 8.97498 11.2801 8.97498 11.6746Z" fill="#EC294E"/>
<path d="M3.75748 16.0075H15.1548C15.5493 16.0075 15.866 15.6908 15.866 15.2963C15.866 14.9018 15.5493 14.5851 15.1548 14.5851H3.75748C3.36302 14.5851 3.04626 14.9018 3.04626 15.2963C3.04626 15.6848 3.369 16.0075 3.75748 16.0075Z" fill="#EC294E"/>
<path d="M3.75748 19.8685H7.31354C7.708 19.8685 8.02476 19.5517 8.02476 19.1573C8.02476 18.7628 7.708 18.446 7.31354 18.446H3.75748C3.36302 18.446 3.04626 18.7628 3.04626 19.1573C3.04626 19.5517 3.369 19.8685 3.75748 19.8685Z" fill="#EC294E"/>
<path d="M18.4658 24.0341C18.8124 24.0341 19.0933 23.7532 19.0933 23.4066V19.3246C19.0933 18.9779 18.8124 18.697 18.4658 18.697C18.1192 18.697 17.8383 18.9779 17.8383 19.3246V23.4006C17.8383 23.7472 18.1192 24.0341 18.4658 24.0341Z" fill="#EC294E"/>
<path d="M18.4658 26.5802C18.8124 26.5802 19.0933 26.2993 19.0933 25.9527V25.4447C19.0933 25.098 18.8124 24.8171 18.4658 24.8171C18.1192 24.8171 17.8383 25.098 17.8383 25.4447V25.9527C17.8383 26.2993 18.1192 26.5802 18.4658 26.5802Z" fill="#EC294E"/>
</svg>
