<svg width="48" height="48" viewBox="0 0 48 48" fill="none" xmlns="http://www.w3.org/2000/svg">
<path fill-rule="evenodd" clip-rule="evenodd" d="M29.488 22H31C35.9706 22 40 26.0294 40 31C40 35.9706 35.9706 40 31 40H11C7.32368 40.0066 4.26864 37.1682 4.0054 33.5012C3.74216 29.8343 6.36044 26.5886 10 26.07C10 20.48 14.478 16 20 16H21C24.8147 16 28.2154 18.4039 29.488 22ZM29.946 24C29.982 24.328 30 24.662 30 25C30 25.5523 29.5523 26 29 26C28.4478 26 28 25.5523 28 25C28 21.134 24.866 18 21 18H20C15.5818 18 12 21.5817 12 26V27C12 27.5523 11.5523 28 11 28C8.23862 28 6.00004 30.2386 6.00004 33C6.00004 35.7614 8.23862 38 11 38H31C34.866 38 38 34.866 38 31C38 27.134 34.866 24 31 24H29.946ZM41.716 22.992C41.4781 23.2585 41.1161 23.3778 40.7663 23.305C40.4165 23.2322 40.1321 22.9784 40.0203 22.639C39.9084 22.2997 39.9861 21.9265 40.224 21.66C42.1545 19.4937 42.5484 16.361 41.2143 13.7843C39.8801 11.2076 37.0946 9.72108 34.2114 10.0472C31.3281 10.3733 28.945 12.4444 28.22 15.254C28.1311 15.6002 27.8642 15.8726 27.5199 15.9687C27.1756 16.0647 26.8062 15.9698 26.5509 15.7197C26.2956 15.4695 26.1931 15.1022 26.282 14.756C27.4152 10.3683 31.6334 7.50701 36.1291 8.0764C40.6249 8.64579 43.9965 12.4683 44 17C44 19.24 43.178 21.354 41.716 22.992Z" fill="#EC294E"/>
</svg>
